  0
SECTION
  2
HEADER
  9
$ACADVER
  1
AC1014
  9
$HANDSEED
  5
FFFF
  9
$MEASUREMENT
 70
     1
  0
ENDSEC
  0
SECTION
  2
TABLES
  0
TABLE
  2
VPORT
  5
8
330
0
100
AcDbSymbolTable
 70
     4
  0
VPORT
  5
2E
330
8
100
AcDbSymbolTableRecord
100
AcDbViewportTableRecord
  2
*ACTIVE
 70
     0
 10
0.0
 20
0.0
 11
1.0
 21
1.0
 12
210.0
 22
148.5
 13
0.0
 23
0.0
 14
10.0
 24
10.0
 15
10.0
 25
10.0
 16
0.0
 26
0.0
 36
1.0
 17
0.0
 27
0.0
 37
0.0
 40
341.0
 41
1.24
 42
50.0
 43
0.0
 44
0.0
 50
0.0
 51
0.0
 71
     0
 72
   100
 73
     1
 74
     3
 75
     0
 76
     0
 77
     0
 78
     0
  0
ENDTAB
  0
TABLE
  2
LTYPE
  5
5
330
0
100
AcDbSymbolTable
 70
     1
  0
LTYPE
  5
14
330
5
100
AcDbSymbolTableRecord
100
AcDbLinetypeTableRecord
  2
BYBLOCK
 70
     0
  3

 72
    65
 73
     0
 40
0.0
  0
LTYPE
  5
15
330
5
100
AcDbSymbolTableRecord
100
AcDbLinetypeTableRecord
  2
BYLAYER
 70
     0
  3

 72
    65
 73
     0
 40
0.0
  0
LTYPE
  5
16
330
5
100
AcDbSymbolTableRecord
100
AcDbLinetypeTableRecord
  2
CONTINUOUS
 70
     0
  3
Solid line
 72
    65
 73
     0
 40
0.0
  0
ENDTAB
  0
TABLE
  2
LAYER
  5
2
100
AcDbSymbolTable
 70
2
  0
LAYER
  5
50
100
AcDbSymbolTableRecord
100
AcDbLayerTableRecord
  2
0
 70
0
  6
CONTINUOUS
  0
LAYER
  5
51
100
AcDbSymbolTableRecord
100
AcDbLayerTableRecord
  2
Layer_1
 70
0
  6
CONTINUOUS
  0
ENDTAB
  0
TABLE
  2
STYLE
  5
3
330
0
100
AcDbSymbolTable
 70
     1
  0
STYLE
  5
11
330
3
100
AcDbSymbolTableRecord
100
AcDbTextStyleTableRecord
  2
STANDARD
 70
     0
 40
0.0
 41
1.0
 50
0.0
 71
     0
 42
2.5
  3
txt
  4

  0
ENDTAB
  0
TABLE
  2
VIEW
  5
6
330
0
100
AcDbSymbolTable
 70
     0
  0
ENDTAB
  0
TABLE
  2
UCS
  5
7
330
0
100
AcDbSymbolTable
 70
     0
  0
ENDTAB
  0
TABLE
  2
APPID
  5
9
330
0
100
AcDbSymbolTable
 70
     2
  0
APPID
  5
12
330
9
100
AcDbSymbolTableRecord
100
AcDbRegAppTableRecord
  2
ACAD
 70
     0
  0
ENDTAB
  0
TABLE
  2
DIMSTYLE
  5
A
330
0
100
AcDbSymbolTable
 70
     1
  0
DIMSTYLE
105
27
330
A
100
AcDbSymbolTableRecord
100
AcDbDimStyleTableRecord
  2
ISO-25
 70
     0
  3

  4

  5

  6

  7

 40
1.0
 41
2.5
 42
0.625
 43
3.75
 44
1.25
 45
0.0
 46
0.0
 47
0.0
 48
0.0
140
2.5
141
2.5
142
0.0
143
0.03937007874016
144
1.0
145
0.0
146
1.0
147
0.625
 71
     0
 72
     0
 73
     0
 74
     0
 75
     0
 76
     0
 77
     1
 78
     8
170
     0
171
     3
172
     1
173
     0
174
     0
175
     0
176
     0
177
     0
178
     0
270
     2
271
     2
272
     2
273
     2
274
     3
340
11
275
     0
280
     0
281
     0
282
     0
283
     0
284
     8
285
     0
286
     0
287
     3
288
     0
  0
ENDTAB
  0
TABLE
  2
BLOCK_RECORD
  5
1
330
0
100
AcDbSymbolTable
 70
     1
  0
BLOCK_RECORD
  5
1F
330
1
100
AcDbSymbolTableRecord
100
AcDbBlockTableRecord
  2
*MODEL_SPACE
  0
BLOCK_RECORD
  5
1B
330
1
100
AcDbSymbolTableRecord
100
AcDbBlockTableRecord
  2
*PAPER_SPACE
  0
ENDTAB
  0
ENDSEC
  0
SECTION
  2
BLOCKS
  0
BLOCK
  5
20
330
1F
100
AcDbEntity
  8
0
100
AcDbBlockBegin
  2
*MODEL_SPACE
 70
     0
 10
0.0
 20
0.0
 30
0.0
  3
*MODEL_SPACE
  1

  0
ENDBLK
  5
21
330
1F
100
AcDbEntity
  8
0
100
AcDbBlockEnd
  0
BLOCK
  5
1C
330
1B
100
AcDbEntity
 67
     1
  8
0
100
AcDbBlockBegin
  2
*PAPER_SPACE
  1

  0
ENDBLK
  5
1D
330
1B
100
AcDbEntity
 67
     1
  8
0
100
AcDbBlockEnd
  0
ENDSEC
  0
SECTION
  2
ENTITIES
  0
SPLINE
  5
100
100
AcDbEntity
  8
Layer_1
 62
7
100
AcDbSpline
 70
8
 71
3
 72
8
 73
4
 74
0
 40
0
 40
0
 40
0
 40
0
 40
1
 40
1
 40
1
 40
1
 10
0.376176
 20
7.486044
 30
0.0
 10
0.369922
 20
7.484591
 30
0.0
 10
0.357407
 20
7.481680
 30
0.0
 10
0.349836
 20
7.474326
 30
0.0
  0
SPLINE
  5
101
100
AcDbEntity
  8
Layer_1
 62
7
100
AcDbSpline
 70
8
 71
3
 72
8
 73
4
 74
0
 40
0
 40
0
 40
0
 40
0
 40
1
 40
1
 40
1
 40
1
 10
0.349836
 20
7.474326
 30
0.0
 10
0.342264
 20
7.466972
 30
0.0
 10
0.339644
 20
7.455185
 30
0.0
 10
0.275529
 20
7.091084
 30
0.0
  0
SPLINE
  5
102
100
AcDbEntity
  8
Layer_1
 62
7
100
AcDbSpline
 70
8
 71
3
 72
8
 73
4
 74
0
 40
0
 40
0
 40
0
 40
0
 40
1
 40
1
 40
1
 40
1
 10
0.275529
 20
7.091084
 30
0.0
 10
0.211415
 20
6.726983
 30
0.0
 10
0.085809
 20
6.010597
 30
0.0
 10
0.021718
 20
5.647356
 30
0.0
  0
SPLINE
  5
103
100
AcDbEntity
  8
Layer_1
 62
7
100
AcDbSpline
 70
8
 71
3
 72
8
 73
4
 74
0
 40
0
 40
0
 40
0
 40
0
 40
1
 40
1
 40
1
 40
1
 10
0.021718
 20
5.647356
 30
0.0
 10
-0.042372
 20
5.284114
 30
0.0
 10
-0.044945
 20
5.274030
 30
0.0
 10
-0.033876
 20
5.266418
 30
0.0
  0
SPLINE
  5
104
100
AcDbEntity
  8
Layer_1
 62
7
100
AcDbSpline
 70
8
 71
3
 72
8
 73
4
 74
0
 40
0
 40
0
 40
0
 40
0
 40
1
 40
1
 40
1
 40
1
 10
-0.033876
 20
5.266418
 30
0.0
 10
-0.022807
 20
5.258806
 30
0.0
 10
0.001888
 20
5.253661
 30
0.0
 10
0.394573
 20
5.180775
 30
0.0
  0
SPLINE
  5
105
100
AcDbEntity
  8
Layer_1
 62
7
100
AcDbSpline
 70
8
 71
3
 72
8
 73
4
 74
0
 40
0
 40
0
 40
0
 40
0
 40
1
 40
1
 40
1
 40
1
 10
0.394573
 20
5.180775
 30
0.0
 10
0.787257
 20
5.107889
 30
0.0
 10
1.547901
 20
4.967267
 30
0.0
 10
1.939290
 20
4.894918
 30
0.0
  0
SPLINE
  5
106
100
AcDbEntity
  8
Layer_1
 62
7
100
AcDbSpline
 70
8
 71
3
 72
8
 73
4
 74
0
 40
0
 40
0
 40
0
 40
0
 40
1
 40
1
 40
1
 40
1
 10
1.939290
 20
4.894918
 30
0.0
 10
2.330679
 20
4.822568
 30
0.0
 10
2.352798
 20
4.818493
 30
0.0
 10
2.356283
 20
4.800156
 30
0.0
  0
SPLINE
  5
107
100
AcDbEntity
  8
Layer_1
 62
7
100
AcDbSpline
 70
8
 71
3
 72
8
 73
4
 74
0
 40
0
 40
0
 40
0
 40
0
 40
1
 40
1
 40
1
 40
1
 10
2.356283
 20
4.800156
 30
0.0
 10
2.359768
 20
4.781819
 30
0.0
 10
2.344634
 20
4.749223
 30
0.0
 10
2.296029
 20
4.643864
 30
0.0
  0
SPLINE
  5
108
100
AcDbEntity
  8
Layer_1
 62
7
100
AcDbSpline
 70
8
 71
3
 72
8
 73
4
 74
0
 40
0
 40
0
 40
0
 40
0
 40
1
 40
1
 40
1
 40
1
 10
2.296029
 20
4.643864
 30
0.0
 10
2.247424
 20
4.538505
 30
0.0
 10
2.165352
 20
4.360391
 30
0.0
 10
2.120532
 20
4.263765
 30
0.0
  0
SPLINE
  5
109
100
AcDbEntity
  8
Layer_1
 62
7
100
AcDbSpline
 70
8
 71
3
 72
8
 73
4
 74
0
 40
0
 40
0
 40
0
 40
0
 40
1
 40
1
 40
1
 40
1
 10
2.120532
 20
4.263765
 30
0.0
 10
2.075711
 20
4.167139
 30
0.0
 10
2.068144
 20
4.152005
 30
0.0
 10
2.081249
 20
4.135123
 30
0.0
  0
SPLINE
  5
10a
100
AcDbEntity
  8
Layer_1
 62
7
100
AcDbSpline
 70
8
 71
3
 72
8
 73
4
 74
0
 40
0
 40
0
 40
0
 40
0
 40
1
 40
1
 40
1
 40
1
 10
2.081249
 20
4.135123
 30
0.0
 10
2.094353
 20
4.118241
 30
0.0
 10
2.128113
 20
4.099614
 30
0.0
 10
2.359205
 20
3.976210
 30
0.0
  0
SPLINE
  5
10b
100
AcDbEntity
  8
Layer_1
 62
7
100
AcDbSpline
 70
8
 71
3
 72
8
 73
4
 74
0
 40
0
 40
0
 40
0
 40
0
 40
1
 40
1
 40
1
 40
1
 10
2.359205
 20
3.976210
 30
0.0
 10
2.590297
 20
3.852806
 30
0.0
 10
3.018703
 20
3.624634
 30
0.0
 10
3.239313
 20
3.507344
 30
0.0
  0
SPLINE
  5
10c
100
AcDbEntity
  8
Layer_1
 62
7
100
AcDbSpline
 70
8
 71
3
 72
8
 73
4
 74
0
 40
0
 40
0
 40
0
 40
0
 40
1
 40
1
 40
1
 40
1
 10
3.239313
 20
3.507344
 30
0.0
 10
3.459923
 20
3.390054
 30
0.0
 10
3.472729
 20
3.383651
 30
0.0
 10
3.544034
 20
3.380161
 30
0.0
  0
SPLINE
  5
10d
100
AcDbEntity
  8
Layer_1
 62
7
100
AcDbSpline
 70
8
 71
3
 72
8
 73
4
 74
0
 40
0
 40
0
 40
0
 40
0
 40
1
 40
1
 40
1
 40
1
 10
3.544034
 20
3.380161
 30
0.0
 10
3.615340
 20
3.376673
 30
0.0
 10
3.745142
 20
3.376089
 30
0.0
 10
3.988457
 20
3.375216
 30
0.0
  0
SPLINE
  5
10e
100
AcDbEntity
  8
Layer_1
 62
7
100
AcDbSpline
 70
8
 71
3
 72
8
 73
4
 74
0
 40
0
 40
0
 40
0
 40
0
 40
1
 40
1
 40
1
 40
1
 10
3.988457
 20
3.375216
 30
0.0
 10
4.231772
 20
3.374342
 30
0.0
 10
4.588583
 20
3.373180
 30
0.0
 10
4.773977
 20
3.372598
 30
0.0
  0
SPLINE
  5
10f
100
AcDbEntity
  8
Layer_1
 62
7
100
AcDbSpline
 70
8
 71
3
 72
8
 73
4
 74
0
 40
0
 40
0
 40
0
 40
0
 40
1
 40
1
 40
1
 40
1
 10
4.773977
 20
3.372598
 30
0.0
 10
4.959370
 20
3.372015
 30
0.0
 10
4.973340
 20
3.372015
 30
0.0
 10
4.996620
 20
3.380748
 30
0.0
  0
SPLINE
  5
110
100
AcDbEntity
  8
Layer_1
 62
7
100
AcDbSpline
 70
8
 71
3
 72
8
 73
4
 74
0
 40
0
 40
0
 40
0
 40
0
 40
1
 40
1
 40
1
 40
1
 10
4.996620
 20
3.380748
 30
0.0
 10
5.019901
 20
3.389481
 30
0.0
 10
5.052497
 20
3.406943
 30
0.0
 10
5.278641
 20
3.528019
 30
0.0
  0
SPLINE
  5
111
100
AcDbEntity
  8
Layer_1
 62
7
100
AcDbSpline
 70
8
 71
3
 72
8
 73
4
 74
0
 40
0
 40
0
 40
0
 40
0
 40
1
 40
1
 40
1
 40
1
 10
5.278641
 20
3.528019
 30
0.0
 10
5.504785
 20
3.649094
 30
0.0
 10
5.924460
 20
3.873774
 30
0.0
 10
6.144197
 20
3.991065
 30
0.0
  0
SPLINE
  5
112
100
AcDbEntity
  8
Layer_1
 62
7
100
AcDbSpline
 70
8
 71
3
 72
8
 73
4
 74
0
 40
0
 40
0
 40
0
 40
0
 40
1
 40
1
 40
1
 40
1
 10
6.144197
 20
3.991065
 30
0.0
 10
6.363934
 20
4.108355
 30
0.0
 10
6.383725
 20
4.118250
 30
0.0
 10
6.380815
 20
4.152004
 30
0.0
  0
SPLINE
  5
113
100
AcDbEntity
  8
Layer_1
 62
7
100
AcDbSpline
 70
8
 71
3
 72
8
 73
4
 74
0
 40
0
 40
0
 40
0
 40
0
 40
1
 40
1
 40
1
 40
1
 10
6.380815
 20
4.152004
 30
0.0
 10
6.377906
 20
4.185758
 30
0.0
 10
6.352294
 20
4.243384
 30
0.0
 10
6.303398
 20
4.349325
 30
0.0
  0
SPLINE
  5
114
100
AcDbEntity
  8
Layer_1
 62
7
100
AcDbSpline
 70
8
 71
3
 72
8
 73
4
 74
0
 40
0
 40
0
 40
0
 40
0
 40
1
 40
1
 40
1
 40
1
 10
6.303398
 20
4.349325
 30
0.0
 10
6.254502
 20
4.455266
 30
0.0
 10
6.182325
 20
4.609515
 30
0.0
 10
6.142452
 20
4.694499
 30
0.0
  0
SPLINE
  5
115
100
AcDbEntity
  8
Layer_1
 62
7
100
AcDbSpline
 70
8
 71
3
 72
8
 73
4
 74
0
 40
0
 40
0
 40
0
 40
0
 40
1
 40
1
 40
1
 40
1
 10
6.142452
 20
4.694499
 30
0.0
 10
6.102580
 20
4.779483
 30
0.0
 10
6.095013
 20
4.795200
 30
0.0
 10
6.124119
 20
4.809177
 30
0.0
  0
SPLINE
  5
116
100
AcDbEntity
  8
Layer_1
 62
7
100
AcDbSpline
 70
8
 71
3
 72
8
 73
4
 74
0
 40
0
 40
0
 40
0
 40
0
 40
1
 40
1
 40
1
 40
1
 10
6.124119
 20
4.809177
 30
0.0
 10
6.153224
 20
4.823154
 30
0.0
 10
6.218999
 20
4.835378
 30
0.0
 10
6.611622
 20
4.907848
 30
0.0
  0
SPLINE
  5
117
100
AcDbEntity
  8
Layer_1
 62
7
100
AcDbSpline
 70
8
 71
3
 72
8
 73
4
 74
0
 40
0
 40
0
 40
0
 40
0
 40
1
 40
1
 40
1
 40
1
 10
6.611622
 20
4.907848
 30
0.0
 10
7.004245
 20
4.980319
 30
0.0
 10
7.723687
 20
5.113032
 30
0.0
 10
8.094475
 20
5.182009
 30
0.0
  0
SPLINE
  5
118
100
AcDbEntity
  8
Layer_1
 62
7
100
AcDbSpline
 70
8
 71
3
 72
8
 73
4
 74
0
 40
0
 40
0
 40
0
 40
0
 40
1
 40
1
 40
1
 40
1
 10
8.094475
 20
5.182009
 30
0.0
 10
8.465263
 20
5.250986
 30
0.0
 10
8.487381
 20
5.256225
 30
0.0
 10
8.494363
 20
5.284450
 30
0.0
  0
SPLINE
  5
119
100
AcDbEntity
  8
Layer_1
 62
7
100
AcDbSpline
 70
8
 71
3
 72
8
 73
4
 74
0
 40
0
 40
0
 40
0
 40
0
 40
1
 40
1
 40
1
 40
1
 10
8.494363
 20
5.284450
 30
0.0
 10
8.501346
 20
5.312675
 30
0.0
 10
8.493198
 20
5.363897
 30
0.0
 10
8.429748
 20
5.725378
 30
0.0
  0
SPLINE
  5
11a
100
AcDbEntity
  8
Layer_1
 62
7
100
AcDbSpline
 70
8
 71
3
 72
8
 73
4
 74
0
 40
0
 40
0
 40
0
 40
0
 40
1
 40
1
 40
1
 40
1
 10
8.429748
 20
5.725378
 30
0.0
 10
8.366300
 20
6.086859
 30
0.0
 10
8.247557
 20
6.758571
 30
0.0
 10
8.186730
 20
7.101710
 30
0.0
  0
SPLINE
  5
11b
100
AcDbEntity
  8
Layer_1
 62
7
100
AcDbSpline
 70
8
 71
3
 72
8
 73
4
 74
0
 40
0
 40
0
 40
0
 40
0
 40
1
 40
1
 40
1
 40
1
 10
8.186730
 20
7.101710
 30
0.0
 10
8.125902
 20
7.444850
 30
0.0
 10
8.122991
 20
7.459401
 30
0.0
 10
8.081085
 20
7.473958
 30
0.0
  0
SPLINE
  5
11c
100
AcDbEntity
  8
Layer_1
 62
7
100
AcDbSpline
 70
8
 71
3
 72
8
 73
4
 74
0
 40
0
 40
0
 40
0
 40
0
 40
1
 40
1
 40
1
 40
1
 10
8.081085
 20
7.473958
 30
0.0
 10
8.039180
 20
7.488515
 30
0.0
 10
7.958271
 20
7.503067
 30
0.0
 10
7.715247
 20
7.544978
 30
0.0
  0
SPLINE
  5
11d
100
AcDbEntity
  8
Layer_1
 62
7
100
AcDbSpline
 70
8
 71
3
 72
8
 73
4
 74
0
 40
0
 40
0
 40
0
 40
0
 40
1
 40
1
 40
1
 40
1
 10
7.715247
 20
7.544978
 30
0.0
 10
7.472222
 20
7.586889
 30
0.0
 10
7.067100
 20
7.656156
 30
0.0
 10
6.847654
 20
7.693700
 30
0.0
  0
SPLINE
  5
11e
100
AcDbEntity
  8
Layer_1
 62
7
100
AcDbSpline
 70
8
 71
3
 72
8
 73
4
 74
0
 40
0
 40
0
 40
0
 40
0
 40
1
 40
1
 40
1
 40
1
 10
6.847654
 20
7.693700
 30
0.0
 10
6.628207
 20
7.731244
 30
0.0
 10
6.594447
 20
7.737065
 30
0.0
 10
6.505384
 20
7.718149
 30
0.0
  0
SPLINE
  5
11f
100
AcDbEntity
  8
Layer_1
 62
7
100
AcDbSpline
 70
8
 71
3
 72
8
 73
4
 74
0
 40
0
 40
0
 40
0
 40
0
 40
1
 40
1
 40
1
 40
1
 10
6.505384
 20
7.718149
 30
0.0
 10
6.416321
 20
7.699233
 30
0.0
 10
6.271967
 20
7.655577
 30
0.0
 10
6.123534
 20
7.611630
 30
0.0
  0
SPLINE
  5
120
100
AcDbEntity
  8
Layer_1
 62
7
100
AcDbSpline
 70
8
 71
3
 72
8
 73
4
 74
0
 40
0
 40
0
 40
0
 40
0
 40
1
 40
1
 40
1
 40
1
 10
6.123534
 20
7.611630
 30
0.0
 10
5.975101
 20
7.567681
 30
0.0
 10
5.822598
 20
7.523444
 30
0.0
 10
5.735867
 20
7.497833
 30
0.0
  0
SPLINE
  5
121
100
AcDbEntity
  8
Layer_1
 62
7
100
AcDbSpline
 70
8
 71
3
 72
8
 73
4
 74
0
 40
0
 40
0
 40
0
 40
0
 40
1
 40
1
 40
1
 40
1
 10
5.735867
 20
7.497833
 30
0.0
 10
5.649136
 20
7.472221
 30
0.0
 10
5.628181
 20
7.465236
 30
0.0
 10
5.583072
 20
7.478620
 30
0.0
  0
SPLINE
  5
122
100
AcDbEntity
  8
Layer_1
 62
7
100
AcDbSpline
 70
8
 71
3
 72
8
 73
4
 74
0
 40
0
 40
0
 40
0
 40
0
 40
1
 40
1
 40
1
 40
1
 10
5.583072
 20
7.478620
 30
0.0
 10
5.537963
 20
7.492004
 30
0.0
 10
5.468696
 20
7.525765
 30
0.0
 10
5.356352
 20
7.581354
 30
0.0
  0
SPLINE
  5
123
100
AcDbEntity
  8
Layer_1
 62
7
100
AcDbSpline
 70
8
 71
3
 72
8
 73
4
 74
0
 40
0
 40
0
 40
0
 40
0
 40
1
 40
1
 40
1
 40
1
 10
5.356352
 20
7.581354
 30
0.0
 10
5.244009
 20
7.636944
 30
0.0
 10
5.088595
 20
7.714359
 30
0.0
 10
4.997207
 20
7.759471
 30
0.0
  0
SPLINE
  5
124
100
AcDbEntity
  8
Layer_1
 62
7
100
AcDbSpline
 70
8
 71
3
 72
8
 73
4
 74
0
 40
0
 40
0
 40
0
 40
0
 40
1
 40
1
 40
1
 40
1
 10
4.997207
 20
7.759471
 30
0.0
 10
4.905820
 20
7.804583
 30
0.0
 10
4.878463
 20
7.817389
 30
0.0
 10
4.738178
 20
7.868614
 30
0.0
  0
SPLINE
  5
125
100
AcDbEntity
  8
Layer_1
 62
7
100
AcDbSpline
 70
8
 71
3
 72
8
 73
4
 74
0
 40
0
 40
0
 40
0
 40
0
 40
1
 40
1
 40
1
 40
1
 10
4.738178
 20
7.868614
 30
0.0
 10
4.597893
 20
7.919839
 30
0.0
 10
4.344691
 20
8.009478
 30
0.0
 10
4.038802
 20
8.118038
 30
0.0
  0
SPLINE
  5
126
100
AcDbEntity
  8
Layer_1
 62
7
100
AcDbSpline
 70
8
 71
3
 72
8
 73
4
 74
0
 40
0
 40
0
 40
0
 40
0
 40
1
 40
1
 40
1
 40
1
 10
4.038802
 20
8.118038
 30
0.0
 10
3.732913
 20
8.226598
 30
0.0
 10
3.374356
 20
8.354072
 30
0.0
 10
3.182559
 20
8.421594
 30
0.0
  0
SPLINE
  5
127
100
AcDbEntity
  8
Layer_1
 62
7
100
AcDbSpline
 70
8
 71
3
 72
8
 73
4
 74
0
 40
0
 40
0
 40
0
 40
0
 40
1
 40
1
 40
1
 40
1
 10
3.182559
 20
8.421594
 30
0.0
 10
2.990762
 20
8.489117
 30
0.0
 10
2.965733
 20
8.496684
 30
0.0
 10
2.952047
 20
8.496973
 30
0.0
  0
SPLINE
  5
128
100
AcDbEntity
  8
Layer_1
 62
7
100
AcDbSpline
 70
8
 71
3
 72
8
 73
4
 74
0
 40
0
 40
0
 40
0
 40
0
 40
1
 40
1
 40
1
 40
1
 10
2.952047
 20
8.496973
 30
0.0
 10
2.938360
 20
8.497264
 30
0.0
 10
2.936032
 20
8.490278
 30
0.0
 10
2.887427
 20
8.355523
 30
0.0
  0
SPLINE
  5
129
100
AcDbEntity
  8
Layer_1
 62
7
100
AcDbSpline
 70
8
 71
3
 72
8
 73
4
 74
0
 40
0
 40
0
 40
0
 40
0
 40
1
 40
1
 40
1
 40
1
 10
2.887427
 20
8.355523
 30
0.0
 10
2.838822
 20
8.220768
 30
0.0
 10
2.743944
 20
7.958253
 30
0.0
 10
2.693012
 20
7.817680
 30
0.0
  0
SPLINE
  5
12a
100
AcDbEntity
  8
Layer_1
 62
7
100
AcDbSpline
 70
8
 71
3
 72
8
 73
4
 74
0
 40
0
 40
0
 40
0
 40
0
 40
1
 40
1
 40
1
 40
1
 10
2.693012
 20
7.817680
 30
0.0
 10
2.642079
 20
7.677106
 30
0.0
 10
2.635094
 20
7.658480
 30
0.0
 10
2.583294
 20
7.650625
 30
0.0
  0
SPLINE
  5
12b
100
AcDbEntity
  8
Layer_1
 62
7
100
AcDbSpline
 70
8
 71
3
 72
8
 73
4
 74
0
 40
0
 40
0
 40
0
 40
0
 40
1
 40
1
 40
1
 40
1
 10
2.583294
 20
7.650625
 30
0.0
 10
2.531494
 20
7.642769
 30
0.0
 10
2.434870
 20
7.645680
 30
0.0
 10
2.246272
 20
7.652664
 30
0.0
  0
SPLINE
  5
12c
100
AcDbEntity
  8
Layer_1
 62
7
100
AcDbSpline
 70
8
 71
3
 72
8
 73
4
 74
0
 40
0
 40
0
 40
0
 40
0
 40
1
 40
1
 40
1
 40
1
 10
2.246272
 20
7.652664
 30
0.0
 10
2.057674
 20
7.659649
 30
0.0
 10
1.777115
 20
7.670709
 30
0.0
 10
1.616168
 20
7.677694
 30
0.0
  0
SPLINE
  5
12d
100
AcDbEntity
  8
Layer_1
 62
7
100
AcDbSpline
 70
8
 71
3
 72
8
 73
4
 74
0
 40
0
 40
0
 40
0
 40
0
 40
1
 40
1
 40
1
 40
1
 10
1.616168
 20
7.677694
 30
0.0
 10
1.455221
 20
7.684678
 30
0.0
 10
1.413894
 20
7.687589
 30
0.0
 10
1.276518
 20
7.665761
 30
0.0
  0
SPLINE
  5
12e
100
AcDbEntity
  8
Layer_1
 62
7
100
AcDbSpline
 70
8
 71
3
 72
8
 73
4
 74
0
 40
0
 40
0
 40
0
 40
0
 40
1
 40
1
 40
1
 40
1
 10
1.276518
 20
7.665761
 30
0.0
 10
1.139143
 20
7.643934
 30
0.0
 10
0.905731
 20
7.597368
 30
0.0
 10
0.740710
 20
7.563534
 30
0.0
  0
SPLINE
  5
12f
100
AcDbEntity
  8
Layer_1
 62
7
100
AcDbSpline
 70
8
 71
3
 72
8
 73
4
 74
0
 40
0
 40
0
 40
0
 40
0
 40
1
 40
1
 40
1
 40
1
 10
0.740710
 20
7.563534
 30
0.0
 10
0.575688
 20
7.529700
 30
0.0
 10
0.479064
 20
7.508600
 30
0.0
 10
0.430747
 20
7.498049
 30
0.0
  0
SPLINE
  5
130
100
AcDbEntity
  8
Layer_1
 62
7
100
AcDbSpline
 70
8
 71
3
 72
8
 73
4
 74
0
 40
0
 40
0
 40
0
 40
0
 40
1
 40
1
 40
1
 40
1
 10
0.430747
 20
7.498049
 30
0.0
 10
0.382430
 20
7.487498
 30
0.0
 10
0.382430
 20
7.487500
 30
0.0
 10
0.376176
 20
7.486045
 30
0.0
  0
LWPOLYLINE
  5
131
100
AcDbEntity
  8
Layer_1
 62
7
100
AcDbPolyline
 90
1
 70
1
 10
0.376176
 20
7.486045
 30
0.0
  0
ENDSEC
  0
SECTION
  2
OBJECTS
  0
DICTIONARY
  5
C
330
0
100
AcDbDictionary
  3
ACAD_GROUP
350
D
  3
ACAD_MLINESTYLE
350
17
  0
DICTIONARY
  5
D
330
C
100
AcDbDictionary
  0
DICTIONARY
  5
1A
330
C
100
AcDbDictionary
  0
DICTIONARY
  5
17
330
C
100
AcDbDictionary
  3
STANDARD
350
18
  0
DICTIONARY
  5
19
330
C
100
AcDbDictionary
  0
ENDSEC
  0
EOF
