G04 #@! TF.GenerationSoftware,KiCad,Pcbnew,(6.0.4)*
G04 #@! TF.CreationDate,2022-12-01T16:17:54-05:00*
G04 #@! TF.ProjectId,Ostrich,4f737472-6963-4682-9e6b-696361645f70,rev?*
G04 #@! TF.SameCoordinates,Original*
G04 #@! TF.FileFunction,Soldermask,Top*
G04 #@! TF.FilePolarity,Negative*
%FSLAX46Y46*%
G04 Gerber Fmt 4.6, Leading zero omitted, Abs format (unit mm)*
G04 Created by KiCad (PCBNEW (6.0.4)) date 2022-12-01 16:17:54*
%MOMM*%
%LPD*%
G01*
G04 APERTURE LIST*
G04 Aperture macros list*
%AMHorizOval*
0 Thick line with rounded ends*
0 $1 width*
0 $2 $3 position (X,Y) of the first rounded end (center of the circle)*
0 $4 $5 position (X,Y) of the second rounded end (center of the circle)*
0 Add line between two ends*
20,1,$1,$2,$3,$4,$5,0*
0 Add two circle primitives to create the rounded ends*
1,1,$1,$2,$3*
1,1,$1,$4,$5*%
%AMRotRect*
0 Rectangle, with rotation*
0 The origin of the aperture is its center*
0 $1 length*
0 $2 width*
0 $3 Rotation angle, in degrees counterclockwise*
0 Add horizontal line*
21,1,$1,$2,0,0,$3*%
G04 Aperture macros list end*
%ADD10C,1.900000*%
%ADD11C,2.100000*%
%ADD12C,4.000000*%
%ADD13HorizOval,1.500000X0.000000X0.000000X0.000000X0.000000X0*%
%ADD14HorizOval,1.800000X0.000000X0.000000X0.000000X0.000000X0*%
%ADD15HorizOval,1.700000X0.000000X0.000000X0.000000X0.000000X0*%
%ADD16RotRect,3.500000X1.700000X70.000000*%
%ADD17RotRect,1.700000X1.700000X70.000000*%
%ADD18RotRect,3.500000X1.700000X160.000000*%
%ADD19R,2.000000X2.000000*%
%ADD20C,2.000000*%
%ADD21R,3.000000X2.500000*%
G04 APERTURE END LIST*
D10*
X111609167Y-134533500D03*
D11*
X102020430Y-130062199D03*
D12*
X107005123Y-132386599D03*
D10*
X102401079Y-130239698D03*
D11*
X111989816Y-134710999D03*
X193968859Y-103602614D03*
D10*
X193563170Y-103711318D03*
D11*
X183343675Y-106449624D03*
D12*
X188656267Y-105026119D03*
D10*
X183749364Y-106340920D03*
D12*
X73294396Y-96268941D03*
D10*
X68387493Y-94954140D03*
D11*
X67981804Y-94845436D03*
D10*
X78201299Y-97583742D03*
D11*
X78606988Y-97692446D03*
X122206471Y-140508230D03*
D10*
X131369020Y-145798230D03*
X122570202Y-140718230D03*
D11*
X131732751Y-146008230D03*
D12*
X126969611Y-143258230D03*
X183725764Y-86625232D03*
D10*
X188632667Y-85310431D03*
D11*
X178413172Y-88048737D03*
X189038356Y-85201727D03*
D10*
X178818861Y-87940033D03*
X252189480Y-99880965D03*
D12*
X247186657Y-100763098D03*
D11*
X252603100Y-99808033D03*
X241770214Y-101718163D03*
D10*
X242183834Y-101645231D03*
X83131801Y-79182855D03*
D11*
X83537490Y-79291559D03*
D10*
X73317995Y-76553253D03*
D11*
X72912306Y-76444549D03*
D12*
X78224898Y-77868054D03*
D10*
X196167908Y-79084007D03*
D11*
X206387403Y-76345701D03*
D10*
X205981714Y-76454405D03*
D12*
X201074811Y-77769206D03*
D11*
X195762219Y-79192711D03*
D10*
X120262276Y-87817135D03*
X110448470Y-85187533D03*
D11*
X110042781Y-85078829D03*
D12*
X115355373Y-86502334D03*
D11*
X120667965Y-87925839D03*
X127457567Y-93689509D03*
X138082751Y-96536519D03*
D10*
X127863256Y-93798213D03*
X137677062Y-96427815D03*
D12*
X132770159Y-95113014D03*
D13*
X116461722Y-41715617D03*
X118120520Y-37158108D03*
D14*
X113511847Y-40961204D03*
X115375857Y-35839879D03*
D15*
X111281133Y-46709946D03*
D16*
X110973315Y-47555669D03*
D15*
X113667952Y-47578678D03*
D16*
X113360134Y-48424401D03*
X115746953Y-49293132D03*
D17*
X116054771Y-48447409D03*
D16*
X118133773Y-50161863D03*
D15*
X118441591Y-49316140D03*
X120828410Y-50184871D03*
D16*
X120520592Y-51030594D03*
X122907411Y-51899325D03*
D15*
X123215229Y-51053602D03*
D16*
X125294231Y-52768056D03*
D15*
X125602049Y-51922333D03*
D16*
X127681050Y-53636787D03*
D17*
X127988868Y-52791064D03*
D15*
X130375687Y-53659796D03*
D16*
X130067869Y-54505519D03*
X132454688Y-55374250D03*
D15*
X132762506Y-54528527D03*
X135149326Y-55397258D03*
D16*
X134841508Y-56242981D03*
X137228327Y-57111712D03*
D15*
X137536145Y-56265989D03*
D17*
X139922964Y-57134720D03*
D16*
X139615146Y-57980443D03*
D15*
X142309783Y-58003451D03*
D16*
X142001965Y-58849174D03*
D15*
X144696603Y-58872183D03*
D16*
X144388785Y-59717906D03*
D15*
X147083422Y-59740914D03*
D16*
X146775604Y-60586637D03*
X149162423Y-61455368D03*
D15*
X149470241Y-60609645D03*
D16*
X151549242Y-62324099D03*
D17*
X151857060Y-61478376D03*
D16*
X153936062Y-63192830D03*
D15*
X154243880Y-62347107D03*
D16*
X156322881Y-64061561D03*
D15*
X156630699Y-63215838D03*
D16*
X163019635Y-45662381D03*
D15*
X162711817Y-46508104D03*
X160324998Y-45639372D03*
D16*
X160632816Y-44793649D03*
X158245997Y-43924918D03*
D17*
X157938179Y-44770641D03*
D16*
X155859177Y-43056187D03*
D15*
X155551359Y-43901910D03*
X153164540Y-43033179D03*
D16*
X153472358Y-42187456D03*
D15*
X150777721Y-42164448D03*
D16*
X151085539Y-41318725D03*
X148698719Y-40449994D03*
D15*
X148390901Y-41295717D03*
D17*
X146004082Y-40426986D03*
D16*
X146311900Y-39581263D03*
D15*
X143617263Y-39558254D03*
D16*
X143925081Y-38712531D03*
X141538262Y-37843800D03*
D15*
X141230444Y-38689523D03*
D16*
X139151442Y-36975069D03*
D15*
X138843624Y-37820792D03*
X136456805Y-36952061D03*
D16*
X136764623Y-36106338D03*
X134377804Y-35237607D03*
D17*
X134069986Y-36083330D03*
D16*
X131990985Y-34368876D03*
D15*
X131683167Y-35214599D03*
X129296347Y-34345867D03*
D16*
X129604165Y-33500144D03*
X127217346Y-32631413D03*
D15*
X126909528Y-33477136D03*
D16*
X124830527Y-31762682D03*
D15*
X124522709Y-32608405D03*
D17*
X122135890Y-31739674D03*
D16*
X122443708Y-30893951D03*
D15*
X119749070Y-30870943D03*
D16*
X120056888Y-30025220D03*
D15*
X117362251Y-30002212D03*
D16*
X117670069Y-29156489D03*
D15*
X158586397Y-57170126D03*
D18*
X159432120Y-57477944D03*
X160300852Y-55091124D03*
D17*
X159455129Y-54783306D03*
D18*
X161169583Y-52704305D03*
D15*
X160323860Y-52396487D03*
D10*
X201098411Y-97484894D03*
X210912217Y-94855292D03*
D11*
X211317906Y-94746588D03*
D12*
X206005314Y-96170093D03*
D11*
X200692722Y-97593598D03*
X46478037Y-99685135D03*
D10*
X56897303Y-101522333D03*
D11*
X57310923Y-101595265D03*
D10*
X46891657Y-99758067D03*
D12*
X51894480Y-100640200D03*
D10*
X78248498Y-58152366D03*
D11*
X88467993Y-60890672D03*
X77842809Y-58043662D03*
D12*
X83155401Y-59467167D03*
D10*
X88062304Y-60781968D03*
X183702164Y-66909544D03*
X173888358Y-69539146D03*
D11*
X184107853Y-66800840D03*
X173482669Y-69647850D03*
D12*
X178795261Y-68224345D03*
X225786741Y-96391839D03*
D10*
X220879838Y-97706640D03*
D11*
X220474149Y-97815344D03*
D10*
X230693644Y-95077038D03*
D11*
X231099333Y-94968334D03*
X160998386Y-96659417D03*
D10*
X171217881Y-93921111D03*
D12*
X166310978Y-95235912D03*
D11*
X171623570Y-93812407D03*
D10*
X161404075Y-96550713D03*
D12*
X110424870Y-104903221D03*
D11*
X105112278Y-103479716D03*
D10*
X105517967Y-103588420D03*
X115331773Y-106218022D03*
D11*
X115737462Y-106326726D03*
D10*
X125192778Y-69416248D03*
D12*
X120285875Y-68101447D03*
D11*
X125598467Y-69524952D03*
D10*
X115378972Y-66786646D03*
D11*
X114973283Y-66677942D03*
X63926918Y-64074090D03*
X53094032Y-62163960D03*
D10*
X53507652Y-62236892D03*
X63513298Y-64001158D03*
D12*
X58510475Y-63119025D03*
D10*
X97982726Y-97361996D03*
X88168920Y-94732394D03*
D11*
X87763231Y-94623690D03*
D12*
X93075823Y-96047195D03*
D11*
X98388415Y-97470700D03*
X156067883Y-78258530D03*
D12*
X161380475Y-76835025D03*
D11*
X166693067Y-75411520D03*
D10*
X166287378Y-75520224D03*
X156473572Y-78149826D03*
D12*
X137700662Y-76712127D03*
D11*
X143013254Y-78135632D03*
D10*
X142607565Y-78026928D03*
D11*
X132388070Y-75288622D03*
D10*
X132793759Y-75397326D03*
X102913229Y-78961109D03*
X93099423Y-76331507D03*
D11*
X92693734Y-76222803D03*
X103318918Y-79069813D03*
D12*
X98006326Y-77646308D03*
D10*
X215949336Y-79305753D03*
D11*
X226168831Y-76567447D03*
X215543647Y-79414457D03*
D12*
X220856239Y-77990952D03*
D10*
X225763142Y-76676151D03*
D11*
X176554073Y-112213294D03*
D12*
X171241481Y-113636799D03*
D11*
X165928889Y-115060304D03*
D10*
X166334578Y-114951600D03*
X176148384Y-112321998D03*
X176510935Y-140841128D03*
D12*
X172111526Y-143381128D03*
D10*
X167712117Y-145921128D03*
D11*
X167348386Y-146131128D03*
X176874666Y-140631128D03*
X187091321Y-134833897D03*
D10*
X196680058Y-130362596D03*
D12*
X192076014Y-132509497D03*
D11*
X197060707Y-130185097D03*
D10*
X187471970Y-134656398D03*
D11*
X221238328Y-58166559D03*
D10*
X220832639Y-58275263D03*
X211018833Y-60904865D03*
D11*
X210613144Y-61013569D03*
D12*
X215925736Y-59590064D03*
D19*
X143194475Y-141421025D03*
D20*
X143194475Y-146421025D03*
X143194475Y-143921025D03*
D21*
X150694475Y-149521025D03*
X150694475Y-138321025D03*
D10*
X132746559Y-114828702D03*
X122932753Y-112199100D03*
D11*
X122527064Y-112090396D03*
D12*
X127839656Y-113513901D03*
D11*
X133152248Y-114937406D03*
D10*
X50199655Y-80997480D03*
D11*
X49786035Y-80924548D03*
X60618921Y-82834678D03*
D12*
X55202478Y-81879613D03*
D10*
X60205301Y-82761746D03*
X191237405Y-60683120D03*
D11*
X201456900Y-57944814D03*
D12*
X196144308Y-59368319D03*
D11*
X190831716Y-60791824D03*
D10*
X201051211Y-58053518D03*
D11*
X238462216Y-82957576D03*
D10*
X238875836Y-82884644D03*
D11*
X249295102Y-81047446D03*
D12*
X243878659Y-82002511D03*
D10*
X248881482Y-81120378D03*
D11*
X245987105Y-62286858D03*
D10*
X245573485Y-62359790D03*
D11*
X235154219Y-64196988D03*
D10*
X235567839Y-64124056D03*
D12*
X240570662Y-63241923D03*
D10*
X107843732Y-60560222D03*
D12*
X102936829Y-59245421D03*
D10*
X98029926Y-57930620D03*
D11*
X97624237Y-57821916D03*
X108249421Y-60668926D03*
M02*
