M48
; DRILL file {KiCad (6.0.4)} date Thu Dec  1 16:18:08 2022
; FORMAT={-:-/ absolute / metric / decimal}
; #@! TF.CreationDate,2022-12-01T16:18:08-05:00
; #@! TF.GenerationSoftware,Kicad,Pcbnew,(6.0.4)
; #@! TF.FileFunction,Plated,1,2,PTH
FMAT,2
METRIC
; #@! TA.AperFunction,Plated,PTH,ViaDrill
T1C0.400
; #@! TA.AperFunction,Plated,PTH,ComponentDrill
T2C0.800
; #@! TA.AperFunction,Plated,PTH,ComponentDrill
T3C0.813
; #@! TA.AperFunction,Plated,PTH,ComponentDrill
T4C1.000
; #@! TA.AperFunction,Plated,PTH,ComponentDrill
T5C1.020
; #@! TA.AperFunction,Plated,PTH,ComponentDrill
T6C2.000
%
G90
G05
T1
X137.836Y-112.889
X138.183Y-111.934
X138.531Y-110.98
X138.623Y-109.981
X138.976Y-109.046
X139.145Y-108.061
X139.443Y-106.987
X141.092Y-76.651
X141.224Y-79.756
X141.891Y-117.141
X142.867Y-108.363
X142.894Y-107.162
X147.574Y-109.22
X149.328Y-77.613
X150.27Y-77.949
X151.638Y-106.172
X152.756Y-128.92
X154.608Y-122.507
X159.699Y-112.998
X159.766Y-114.046
X159.767Y-112.001
X160.209Y-111.055
X160.265Y-109.973
X160.736Y-114.3
X162.306Y-120.142
T3
X145.632Y-131.699
X148.172Y-131.699
X150.712Y-131.699
X153.252Y-131.699
T4
X143.194Y-141.421
X143.194Y-143.921
X143.194Y-146.421
T5
X111.281Y-46.71
X113.668Y-47.579
X116.055Y-48.447
X117.362Y-30.002
X118.442Y-49.316
X119.749Y-30.871
X120.828Y-50.185
X122.136Y-31.74
X123.215Y-51.054
X124.523Y-32.608
X125.602Y-51.922
X126.91Y-33.477
X127.989Y-52.791
X129.296Y-34.346
X130.376Y-53.66
X131.683Y-35.215
X132.763Y-54.529
X134.07Y-36.083
X135.149Y-55.397
X136.457Y-36.952
X137.536Y-56.266
X138.844Y-37.821
X139.923Y-57.135
X141.23Y-38.69
X142.31Y-58.003
X143.617Y-39.558
X144.697Y-58.872
X146.004Y-40.427
X147.083Y-59.741
X148.391Y-41.296
X149.47Y-60.61
X150.778Y-42.164
X151.857Y-61.478
X153.165Y-43.033
X154.244Y-62.347
X155.551Y-43.902
X156.631Y-63.216
X157.938Y-44.771
X158.586Y-57.17
X159.455Y-54.783
X160.324Y-52.396
X160.325Y-45.639
X162.712Y-46.508
T2
X45.998Y-103.561G85X46.392Y-103.63
G05
X48.386Y-97.442G85X48.78Y-97.512
G05
X49.306Y-84.8G85X49.7Y-84.869
G05
X50.673Y-106.416G85X51.067Y-106.485
G05
X51.694Y-78.682G85X52.088Y-78.751
G05
X52.614Y-66.039G85X53.008Y-66.109
G05
X53.981Y-87.655G85X54.375Y-87.725
G05
X55.002Y-59.921G85X55.396Y-59.991
G05
X55.081Y-96.044G85X55.475Y-96.113
G05
X57.289Y-68.895G85X57.683Y-68.964
G05
X58.389Y-77.283G85X58.783Y-77.353
G05
X61.697Y-58.523G85X62.091Y-58.592
G05
X67.166Y-98.664G85X67.552Y-98.768
G05
X70.078Y-92.778G85X70.465Y-92.881
G05
X71.574Y-101.916G85X71.961Y-102.02
G05
X72.096Y-80.263G85X72.482Y-80.367
G05
X75.009Y-74.377G85X75.395Y-74.48
G05
X76.505Y-83.515G85X76.891Y-83.619
G05
X76.869Y-91.968G85X77.256Y-92.071
G05
X77.027Y-61.863G85X77.413Y-61.966
G05
X79.939Y-55.976G85X80.326Y-56.079
G05
X81.435Y-65.114G85X81.822Y-65.218
G05
X81.8Y-73.567G85X82.186Y-73.67
G05
X86.73Y-55.166G85X87.117Y-55.269
G05
X86.947Y-98.443G85X87.333Y-98.546
G05
X89.86Y-92.556G85X90.246Y-92.659
G05
X91.356Y-101.694G85X91.742Y-101.798
G05
X91.878Y-80.042G85X92.264Y-80.145
G05
X94.79Y-74.155G85X95.177Y-74.259
G05
X96.286Y-83.294G85X96.672Y-83.397
G05
X96.651Y-91.746G85X97.037Y-91.849
G05
X96.808Y-61.641G85X97.194Y-61.744
G05
X99.721Y-55.754G85X100.107Y-55.858
G05
X100.553Y-133.681G85X100.916Y-133.85
G05
X101.217Y-64.893G85X101.603Y-64.996
G05
X101.581Y-73.345G85X101.968Y-73.449
G05
X104.296Y-107.299G85X104.682Y-107.402
G05
X104.33Y-137.649G85X104.693Y-137.818
G05
X104.444Y-128.39G85X104.807Y-128.559
G05
X106.512Y-54.944G85X106.898Y-55.048
G05
X107.209Y-101.412G85X107.595Y-101.515
G05
X108.705Y-110.55G85X109.091Y-110.654
G05
X109.227Y-88.898G85X109.613Y-89.001
G05
X111.273Y-128.771G85X111.635Y-128.941
G05
X112.139Y-83.011G85X112.526Y-83.115
G05
X113.635Y-92.15G85X114.022Y-92.253
G05
X114.0Y-100.602G85X114.386Y-100.705
G05
X114.157Y-70.497G85X114.543Y-70.6
G05
X117.07Y-64.61G85X117.456Y-64.714
G05
X118.566Y-73.749G85X118.952Y-73.852
G05
X118.93Y-82.201G85X119.317Y-82.305
G05
X120.43Y-143.986G85X120.776Y-144.186
G05
X121.711Y-115.909G85X122.097Y-116.013
G05
X123.846Y-148.268G85X124.193Y-148.468
G05
X123.861Y-63.8G85X124.247Y-63.904
G05
X124.624Y-110.023G85X125.01Y-110.126
G05
X124.767Y-139.054G85X125.113Y-139.254
G05
X126.119Y-119.161G85X126.506Y-119.265
G05
X126.641Y-97.508G85X127.028Y-97.612
G05
X129.554Y-91.622G85X129.941Y-91.725
G05
X131.05Y-100.76G85X131.436Y-100.864
G05
X131.415Y-109.213G85X131.801Y-109.316
G05
X131.536Y-140.029G85X131.883Y-140.229
G05
X131.572Y-79.107G85X131.958Y-79.211
G05
X134.485Y-73.221G85X134.871Y-73.324
G05
X135.98Y-82.359G85X136.367Y-82.463
G05
X136.345Y-90.812G85X136.732Y-90.915
G05
X141.276Y-72.411G85X141.662Y-72.514
G05
X156.85Y-75.419G85X157.236Y-75.316
G05
X157.27Y-81.974G85X157.657Y-81.87
G05
X161.78Y-93.82G85X162.167Y-93.717
G05
X162.201Y-100.375G85X162.587Y-100.271
G05
X162.326Y-71.322G85X162.712Y-71.219
G05
X162.714Y-82.586G85X163.101Y-82.482
G05
X166.711Y-112.221G85X167.097Y-112.118
G05
X167.131Y-118.776G85X167.518Y-118.672
G05
X167.256Y-89.723G85X167.643Y-89.62
G05
X167.369Y-143.186G85X167.715Y-142.986
G05
X167.645Y-100.987G85X168.031Y-100.883
G05
X169.472Y-149.409G85X169.818Y-149.209
G05
X171.598Y-137.812G85X171.944Y-137.612
G05
X172.187Y-108.124G85X172.573Y-108.021
G05
X172.575Y-119.388G85X172.962Y-119.284
G05
X174.264Y-66.809G85X174.651Y-66.705
G05
X174.685Y-73.363G85X175.072Y-73.26
G05
X174.888Y-148.591G85X175.235Y-148.391
G05
X179.195Y-85.21G85X179.581Y-85.106
G05
X179.616Y-91.764G85X180.002Y-91.661
G05
X179.741Y-62.712G85X180.127Y-62.608
G05
X180.129Y-73.975G85X180.515Y-73.872
G05
X184.126Y-103.611G85X184.512Y-103.507
G05
X184.546Y-110.165G85X184.933Y-110.061
G05
X184.671Y-81.113G85X185.058Y-81.009
G05
X185.06Y-92.376G85X185.446Y-92.272
G05
X187.368Y-131.902G85X187.731Y-131.733
G05
X188.921Y-138.284G85X189.283Y-138.115
G05
X189.602Y-99.514G85X189.988Y-99.41
G05
X189.99Y-110.777G85X190.376Y-110.673
G05
X191.614Y-57.953G85X192.0Y-57.849
G05
X192.034Y-64.507G85X192.421Y-64.404
G05
X192.05Y-126.917G85X192.412Y-126.747
G05
X194.388Y-137.941G85X194.751Y-137.772
G05
X196.544Y-76.354G85X196.93Y-76.25
G05
X196.965Y-82.908G85X197.351Y-82.805
G05
X197.09Y-53.856G85X197.476Y-53.752
G05
X197.478Y-65.119G85X197.865Y-65.016
G05
X201.475Y-94.755G85X201.861Y-94.651
G05
X201.895Y-101.309G85X202.282Y-101.205
G05
X202.02Y-72.257G85X202.407Y-72.153
G05
X202.409Y-83.52G85X202.795Y-83.416
G05
X206.951Y-90.658G85X207.337Y-90.554
G05
X207.339Y-101.921G85X207.726Y-101.817
G05
X211.395Y-58.174G85X211.781Y-58.071
G05
X211.816Y-64.729G85X212.202Y-64.625
G05
X216.325Y-76.575G85X216.712Y-76.472
G05
X216.746Y-83.13G85X217.133Y-83.026
G05
X216.871Y-54.078G85X217.258Y-53.974
G05
X217.26Y-65.341G85X217.646Y-65.237
G05
X221.256Y-94.976G85X221.642Y-94.873
G05
X221.677Y-101.531G85X222.063Y-101.427
G05
X221.802Y-72.478G85X222.188Y-72.375
G05
X222.19Y-83.742G85X222.576Y-83.638
G05
X226.732Y-90.879G85X227.119Y-90.776
G05
X227.121Y-102.143G85X227.507Y-102.039
G05
X236.028Y-68.003G85X236.422Y-67.934
G05
X236.181Y-61.437G85X236.574Y-61.367
G05
X239.336Y-86.764G85X239.73Y-86.694
G05
X239.489Y-80.197G85X239.882Y-80.128
G05
X241.398Y-69.087G85X241.792Y-69.018
G05
X241.993Y-57.833G85X242.387Y-57.763
G05
X242.644Y-105.524G85X243.038Y-105.455
G05
X242.797Y-98.958G85X243.19Y-98.889
G05
X244.706Y-87.848G85X245.1Y-87.778
G05
X245.301Y-76.593G85X245.695Y-76.524
G05
X248.014Y-106.608G85X248.408Y-106.539
G05
X248.609Y-95.354G85X249.003Y-95.284
G05
T6
X150.444Y-138.321G85X150.944Y-138.321
G05
X150.444Y-149.521G85X150.944Y-149.521
G05
T0
M30
