G04 #@! TF.GenerationSoftware,KiCad,Pcbnew,(6.0.4)*
G04 #@! TF.CreationDate,2022-12-01T16:17:54-05:00*
G04 #@! TF.ProjectId,Ostrich,4f737472-6963-4682-9e6b-696361645f70,rev?*
G04 #@! TF.SameCoordinates,Original*
G04 #@! TF.FileFunction,Soldermask,Bot*
G04 #@! TF.FilePolarity,Negative*
%FSLAX46Y46*%
G04 Gerber Fmt 4.6, Leading zero omitted, Abs format (unit mm)*
G04 Created by KiCad (PCBNEW (6.0.4)) date 2022-12-01 16:17:54*
%MOMM*%
%LPD*%
G01*
G04 APERTURE LIST*
G04 Aperture macros list*
%AMRoundRect*
0 Rectangle with rounded corners*
0 $1 Rounding radius*
0 $2 $3 $4 $5 $6 $7 $8 $9 X,Y pos of 4 corners*
0 Add a 4 corners polygon primitive as box body*
4,1,4,$2,$3,$4,$5,$6,$7,$8,$9,$2,$3,0*
0 Add four circle primitives for the rounded corners*
1,1,$1+$1,$2,$3*
1,1,$1+$1,$4,$5*
1,1,$1+$1,$6,$7*
1,1,$1+$1,$8,$9*
0 Add four rect primitives between the rounded corners*
20,1,$1+$1,$2,$3,$4,$5,0*
20,1,$1+$1,$4,$5,$6,$7,0*
20,1,$1+$1,$6,$7,$8,$9,0*
20,1,$1+$1,$8,$9,$2,$3,0*%
%AMHorizOval*
0 Thick line with rounded ends*
0 $1 width*
0 $2 $3 position (X,Y) of the first rounded end (center of the circle)*
0 $4 $5 position (X,Y) of the second rounded end (center of the circle)*
0 Add line between two ends*
20,1,$1,$2,$3,$4,$5,0*
0 Add two circle primitives to create the rounded ends*
1,1,$1,$2,$3*
1,1,$1,$4,$5*%
%AMRotRect*
0 Rectangle, with rotation*
0 The origin of the aperture is its center*
0 $1 length*
0 $2 width*
0 $3 Rotation angle, in degrees counterclockwise*
0 Add horizontal line*
21,1,$1,$2,0,0,$3*%
G04 Aperture macros list end*
%ADD10C,1.900000*%
%ADD11C,2.100000*%
%ADD12C,4.000000*%
%ADD13HorizOval,2.000000X0.226577X-0.105655X-0.226577X0.105655X0*%
%ADD14HorizOval,2.000000X0.241481X0.064705X-0.241481X-0.064705X0*%
%ADD15HorizOval,2.000000X0.241481X-0.064705X-0.241481X0.064705X0*%
%ADD16HorizOval,2.000000X0.216506X-0.125000X-0.216506X0.125000X0*%
%ADD17HorizOval,2.000000X0.246202X0.043412X-0.246202X-0.043412X0*%
%ADD18HorizOval,1.500000X0.000000X0.000000X0.000000X0.000000X0*%
%ADD19HorizOval,1.800000X0.000000X0.000000X0.000000X0.000000X0*%
%ADD20HorizOval,1.700000X0.000000X0.000000X0.000000X0.000000X0*%
%ADD21RotRect,1.700000X1.700000X70.000000*%
%ADD22HorizOval,2.000000X0.246202X-0.043412X-0.246202X0.043412X0*%
%ADD23C,1.397000*%
%ADD24HorizOval,2.000000X0.216506X0.125000X-0.216506X-0.125000X0*%
%ADD25HorizOval,2.000000X0.226577X0.105655X-0.226577X-0.105655X0*%
%ADD26R,2.000000X2.000000*%
%ADD27C,2.000000*%
%ADD28R,3.000000X2.500000*%
%ADD29RoundRect,0.150000X-0.875000X-0.150000X0.875000X-0.150000X0.875000X0.150000X-0.875000X0.150000X0*%
G04 APERTURE END LIST*
D10*
X111609167Y-134533500D03*
D11*
X102020430Y-130062199D03*
D12*
X107005123Y-132386599D03*
D10*
X102401079Y-130239698D03*
D11*
X111989816Y-134710999D03*
D13*
X100734742Y-133765846D03*
X104625541Y-128474402D03*
X104511675Y-137733815D03*
X111454046Y-128856006D03*
D11*
X193968859Y-103602614D03*
D10*
X193563170Y-103711318D03*
D11*
X183343675Y-106449624D03*
D12*
X188656267Y-105026119D03*
D10*
X183749364Y-106340920D03*
D14*
X184739440Y-110113207D03*
X184318689Y-103558768D03*
X189794918Y-99461815D03*
X190183299Y-110725081D03*
D12*
X73294396Y-96268941D03*
D10*
X68387493Y-94954140D03*
D11*
X67981804Y-94845436D03*
D10*
X78201299Y-97583742D03*
D11*
X78606988Y-97692446D03*
D15*
X70271619Y-92829389D03*
X67358780Y-98716075D03*
X77062648Y-92019438D03*
X71767364Y-101967903D03*
D11*
X122206471Y-140508230D03*
D10*
X131369020Y-145798230D03*
X122570202Y-140718230D03*
D11*
X131732751Y-146008230D03*
D12*
X126969611Y-143258230D03*
D16*
X120602881Y-144085729D03*
X124940054Y-139153525D03*
X124019611Y-148367780D03*
X131709316Y-140128821D03*
D12*
X183725764Y-86625232D03*
D10*
X188632667Y-85310431D03*
D11*
X178413172Y-88048737D03*
X189038356Y-85201727D03*
D10*
X178818861Y-87940033D03*
D14*
X179808937Y-91712320D03*
X179388186Y-85157881D03*
X185252796Y-92324194D03*
X184864415Y-81060928D03*
D10*
X252189480Y-99880965D03*
D12*
X247186657Y-100763098D03*
D11*
X252603100Y-99808033D03*
X241770214Y-101718163D03*
D10*
X242183834Y-101645231D03*
D17*
X242841365Y-105489454D03*
X242993473Y-98923286D03*
X248211181Y-106573464D03*
X248805936Y-95319208D03*
D10*
X83131801Y-79182855D03*
D11*
X83537490Y-79291559D03*
D10*
X73317995Y-76553253D03*
D11*
X72912306Y-76444549D03*
D12*
X78224898Y-77868054D03*
D15*
X75202121Y-74428502D03*
X72289282Y-80315188D03*
X76697866Y-83567016D03*
X81993150Y-73618551D03*
D10*
X196167908Y-79084007D03*
D11*
X206387403Y-76345701D03*
D10*
X205981714Y-76454405D03*
D12*
X201074811Y-77769206D03*
D11*
X195762219Y-79192711D03*
D14*
X196737233Y-76301855D03*
X197157984Y-82856294D03*
X202213462Y-72204902D03*
X202601843Y-83468168D03*
D10*
X120262276Y-87817135D03*
X110448470Y-85187533D03*
D11*
X110042781Y-85078829D03*
D12*
X115355373Y-86502334D03*
D11*
X120667965Y-87925839D03*
D15*
X109419757Y-88949468D03*
X112332596Y-83062782D03*
X119123625Y-82252831D03*
X113828341Y-92201296D03*
D11*
X127457567Y-93689509D03*
X138082751Y-96536519D03*
D10*
X127863256Y-93798213D03*
X137677062Y-96427815D03*
D12*
X132770159Y-95113014D03*
D15*
X129747382Y-91673462D03*
X126834543Y-97560148D03*
X131243127Y-100811976D03*
X136538411Y-90863511D03*
D18*
X116461722Y-41715617D03*
X118120520Y-37158108D03*
D19*
X113511847Y-40961204D03*
X115375857Y-35839879D03*
D20*
X111281133Y-46709946D03*
X113667952Y-47578678D03*
D21*
X116054771Y-48447409D03*
D20*
X118441591Y-49316140D03*
X120828410Y-50184871D03*
X123215229Y-51053602D03*
X125602049Y-51922333D03*
D21*
X127988868Y-52791064D03*
D20*
X130375687Y-53659796D03*
X132762506Y-54528527D03*
X135149326Y-55397258D03*
X137536145Y-56265989D03*
D21*
X139922964Y-57134720D03*
D20*
X142309783Y-58003451D03*
X144696603Y-58872183D03*
X147083422Y-59740914D03*
X149470241Y-60609645D03*
D21*
X151857060Y-61478376D03*
D20*
X154243880Y-62347107D03*
X156630699Y-63215838D03*
X162711817Y-46508104D03*
X160324998Y-45639372D03*
D21*
X157938179Y-44770641D03*
D20*
X155551359Y-43901910D03*
X153164540Y-43033179D03*
X150777721Y-42164448D03*
X148390901Y-41295717D03*
D21*
X146004082Y-40426986D03*
D20*
X143617263Y-39558254D03*
X141230444Y-38689523D03*
X138843624Y-37820792D03*
X136456805Y-36952061D03*
D21*
X134069986Y-36083330D03*
D20*
X131683167Y-35214599D03*
X129296347Y-34345867D03*
X126909528Y-33477136D03*
X124522709Y-32608405D03*
D21*
X122135890Y-31739674D03*
D20*
X119749070Y-30870943D03*
X117362251Y-30002212D03*
X158586397Y-57170126D03*
D21*
X159455129Y-54783306D03*
D20*
X160323860Y-52396487D03*
D10*
X201098411Y-97484894D03*
X210912217Y-94855292D03*
D11*
X211317906Y-94746588D03*
D12*
X206005314Y-96170093D03*
D11*
X200692722Y-97593598D03*
D14*
X202088487Y-101257181D03*
X201667736Y-94702742D03*
X207143965Y-90605789D03*
X207532346Y-101869055D03*
D11*
X46478037Y-99685135D03*
D10*
X56897303Y-101522333D03*
D11*
X57310923Y-101595265D03*
D10*
X46891657Y-99758067D03*
D12*
X51894480Y-100640200D03*
D22*
X48583429Y-97477189D03*
X46194733Y-103595345D03*
X55278024Y-96078443D03*
X50869956Y-106450566D03*
D10*
X78248498Y-58152366D03*
D11*
X88467993Y-60890672D03*
X77842809Y-58043662D03*
D12*
X83155401Y-59467167D03*
D10*
X88062304Y-60781968D03*
D15*
X77219785Y-61914301D03*
X80132624Y-56027615D03*
X81628369Y-65166129D03*
X86923653Y-55217664D03*
D10*
X183702164Y-66909544D03*
X173888358Y-69539146D03*
D11*
X184107853Y-66800840D03*
X173482669Y-69647850D03*
D12*
X178795261Y-68224345D03*
D14*
X174457683Y-66756994D03*
X174878434Y-73311433D03*
X180322293Y-73923307D03*
X179933912Y-62660041D03*
D12*
X225786741Y-96391839D03*
D10*
X220879838Y-97706640D03*
D11*
X220474149Y-97815344D03*
D10*
X230693644Y-95077038D03*
D11*
X231099333Y-94968334D03*
D14*
X221449163Y-94924488D03*
X221869914Y-101478927D03*
X226925392Y-90827535D03*
X227313773Y-102090801D03*
D11*
X160998386Y-96659417D03*
D10*
X171217881Y-93921111D03*
D12*
X166310978Y-95235912D03*
D11*
X171623570Y-93812407D03*
D10*
X161404075Y-96550713D03*
D14*
X161973400Y-93768561D03*
X162394151Y-100323000D03*
X167449629Y-89671608D03*
X167838010Y-100934874D03*
D12*
X110424870Y-104903221D03*
D11*
X105112278Y-103479716D03*
D10*
X105517967Y-103588420D03*
X115331773Y-106218022D03*
D11*
X115737462Y-106326726D03*
D15*
X104489254Y-107350355D03*
X107402093Y-101463669D03*
X114193122Y-100653718D03*
X108897838Y-110602183D03*
D10*
X125192778Y-69416248D03*
D12*
X120285875Y-68101447D03*
D11*
X125598467Y-69524952D03*
D10*
X115378972Y-66786646D03*
D11*
X114973283Y-66677942D03*
D15*
X114350259Y-70548581D03*
X117263098Y-64661895D03*
X124054127Y-63851944D03*
X118758843Y-73800409D03*
D11*
X63926918Y-64074090D03*
X53094032Y-62163960D03*
D10*
X53507652Y-62236892D03*
X63513298Y-64001158D03*
D12*
X58510475Y-63119025D03*
D22*
X52810728Y-66074170D03*
X55199424Y-59956014D03*
X57485951Y-68929391D03*
X61894019Y-58557268D03*
D10*
X97982726Y-97361996D03*
X88168920Y-94732394D03*
D11*
X87763231Y-94623690D03*
D12*
X93075823Y-96047195D03*
D11*
X98388415Y-97470700D03*
D15*
X90053046Y-92607643D03*
X87140207Y-98494329D03*
X96844075Y-91797692D03*
X91548791Y-101746157D03*
D11*
X156067883Y-78258530D03*
D12*
X161380475Y-76835025D03*
D11*
X166693067Y-75411520D03*
D10*
X166287378Y-75520224D03*
X156473572Y-78149826D03*
D14*
X157042897Y-75367674D03*
X157463648Y-81922113D03*
X162907507Y-82533987D03*
X162519126Y-71270721D03*
D23*
X145632475Y-131699024D03*
X148172475Y-131699024D03*
X150712475Y-131699024D03*
X153252475Y-131699024D03*
D12*
X137700662Y-76712127D03*
D11*
X143013254Y-78135632D03*
D10*
X142607565Y-78026928D03*
D11*
X132388070Y-75288622D03*
D10*
X132793759Y-75397326D03*
D15*
X134677885Y-73272575D03*
X131765046Y-79159261D03*
X141468914Y-72462624D03*
X136173630Y-82411089D03*
D10*
X102913229Y-78961109D03*
X93099423Y-76331507D03*
D11*
X92693734Y-76222803D03*
X103318918Y-79069813D03*
D12*
X98006326Y-77646308D03*
D15*
X94983549Y-74206756D03*
X92070710Y-80093442D03*
X101774578Y-73396805D03*
X96479294Y-83345270D03*
D10*
X215949336Y-79305753D03*
D11*
X226168831Y-76567447D03*
X215543647Y-79414457D03*
D12*
X220856239Y-77990952D03*
D10*
X225763142Y-76676151D03*
D14*
X216518661Y-76523601D03*
X216939412Y-83078040D03*
X221994890Y-72426648D03*
X222383271Y-83689914D03*
D11*
X176554073Y-112213294D03*
D12*
X171241481Y-113636799D03*
D11*
X165928889Y-115060304D03*
D10*
X166334578Y-114951600D03*
X176148384Y-112321998D03*
D14*
X167324654Y-118723887D03*
X166903903Y-112169448D03*
X172380132Y-108072495D03*
X172768513Y-119335761D03*
D10*
X176510935Y-140841128D03*
D12*
X172111526Y-143381128D03*
D10*
X167712117Y-145921128D03*
D11*
X167348386Y-146131128D03*
X176874666Y-140631128D03*
D24*
X169644796Y-149308627D03*
X167541969Y-143086423D03*
X175061526Y-148490678D03*
X171771231Y-137711719D03*
D11*
X187091321Y-134833897D03*
D10*
X196680058Y-130362596D03*
D12*
X192076014Y-132509497D03*
D11*
X197060707Y-130185097D03*
D10*
X187471970Y-134656398D03*
D25*
X189102056Y-138199451D03*
X187549531Y-131817651D03*
X194569462Y-137856713D03*
X192231135Y-126832003D03*
D11*
X221238328Y-58166559D03*
D10*
X220832639Y-58275263D03*
X211018833Y-60904865D03*
D11*
X210613144Y-61013569D03*
D12*
X215925736Y-59590064D03*
D14*
X212008909Y-64677152D03*
X211588158Y-58122713D03*
X217064387Y-54025760D03*
X217452768Y-65289026D03*
D26*
X143194475Y-141421025D03*
D27*
X143194475Y-146421025D03*
X143194475Y-143921025D03*
D28*
X150694475Y-149521025D03*
X150694475Y-138321025D03*
D10*
X132746559Y-114828702D03*
X122932753Y-112199100D03*
D11*
X122527064Y-112090396D03*
D12*
X127839656Y-113513901D03*
D11*
X133152248Y-114937406D03*
D15*
X124816879Y-110074349D03*
X121904040Y-115961035D03*
X126312624Y-119212863D03*
X131607908Y-109264398D03*
D10*
X50199655Y-80997480D03*
D11*
X49786035Y-80924548D03*
X60618921Y-82834678D03*
D12*
X55202478Y-81879613D03*
D10*
X60205301Y-82761746D03*
D22*
X49502731Y-84834758D03*
X51891427Y-78716602D03*
X58586022Y-77317856D03*
X54177954Y-87689979D03*
D10*
X191237405Y-60683120D03*
D11*
X201456900Y-57944814D03*
D12*
X196144308Y-59368319D03*
D11*
X190831716Y-60791824D03*
D10*
X201051211Y-58053518D03*
D14*
X192227481Y-64455407D03*
X191806730Y-57900968D03*
X197282959Y-53804015D03*
X197671340Y-65067281D03*
D11*
X238462216Y-82957576D03*
D10*
X238875836Y-82884644D03*
D11*
X249295102Y-81047446D03*
D12*
X243878659Y-82002511D03*
D10*
X248881482Y-81120378D03*
D17*
X239533367Y-86728867D03*
X239685475Y-80162699D03*
X245497938Y-76558621D03*
X244903183Y-87812877D03*
D11*
X245987105Y-62286858D03*
D10*
X245573485Y-62359790D03*
D11*
X235154219Y-64196988D03*
D10*
X235567839Y-64124056D03*
D12*
X240570662Y-63241923D03*
D17*
X236225370Y-67968279D03*
X236377478Y-61402111D03*
X241595186Y-69052289D03*
X242189941Y-57798033D03*
D10*
X107843732Y-60560222D03*
D12*
X102936829Y-59245421D03*
D10*
X98029926Y-57930620D03*
D11*
X97624237Y-57821916D03*
X108249421Y-60668926D03*
D15*
X97001213Y-61692555D03*
X99914052Y-55805869D03*
X106705081Y-54995918D03*
X101409797Y-64944383D03*
D29*
X145046475Y-121412025D03*
X145046475Y-120142025D03*
X145046475Y-118872025D03*
X145046475Y-117602025D03*
X145046475Y-116332025D03*
X145046475Y-115062025D03*
X145046475Y-113792025D03*
X145046475Y-112522025D03*
X145046475Y-111252025D03*
X145046475Y-109982025D03*
X145046475Y-108712025D03*
X145046475Y-107442025D03*
X145046475Y-106172025D03*
X145046475Y-104902025D03*
X154346475Y-104902025D03*
X154346475Y-106172025D03*
X154346475Y-107442025D03*
X154346475Y-108712025D03*
X154346475Y-109982025D03*
X154346475Y-111252025D03*
X154346475Y-112522025D03*
X154346475Y-113792025D03*
X154346475Y-115062025D03*
X154346475Y-116332025D03*
X154346475Y-117602025D03*
X154346475Y-118872025D03*
X154346475Y-120142025D03*
X154346475Y-121412025D03*
M02*
