%FSLAX45Y45*%
G04 Gerber Fmt 4.5, Leading zero omitted, Abs format (unit mm)*
G04 Created by KiCad (PCBNEW (6.0.4)) date 2022-12-01 16:18:11*
%MOMM*%
%LPD*%
G01*
G04 APERTURE LIST*
%ADD10C,0.200000*%
%TA.AperFunction,Profile*%
%ADD11C,0.200000*%
%TD*%
%TA.AperFunction,Profile*%
%ADD12C,0.100000*%
%TD*%
%ADD13C,0.040000*%
%ADD14C,0.080000*%
%ADD15C,0.081280*%
%ADD16C,0.100000*%
%ADD17C,0.102000*%
G04 APERTURE END LIST*
D10*
X5193632Y-11032620D02*
X5289821Y-11050469D01*
X5391143Y-11069263D01*
X5497256Y-11088939D01*
X5607816Y-11109433D01*
X5722482Y-11130683D01*
X5840909Y-11152624D01*
X5962755Y-11175194D01*
X6087678Y-11198329D01*
X6215334Y-11221966D01*
X6345380Y-11246042D01*
X6477474Y-11270493D01*
X6611272Y-11295257D01*
X6746433Y-11320269D01*
X6882612Y-11345468D01*
X7019467Y-11370789D01*
X7156656Y-11396169D01*
X7293835Y-11421546D01*
X7430662Y-11446855D01*
X7566793Y-11472033D01*
X7701886Y-11497018D01*
X7835598Y-11521746D01*
X7967585Y-11546153D01*
X8097506Y-11570177D01*
X8225018Y-11593754D01*
X8349776Y-11616821D01*
X8471440Y-11639315D01*
X8589664Y-11661172D01*
X8704108Y-11682330D01*
X8814428Y-11702724D01*
X8920280Y-11722292D01*
X9021323Y-11740971D01*
X9117213Y-11758696D01*
X5285514Y-5146744D02*
X5263907Y-5151462D01*
X5236446Y-5157459D01*
X5214315Y-5162294D01*
X5191913Y-5167193D01*
X5170239Y-5171954D01*
X5149730Y-5176577D01*
X5146904Y-5177234D01*
X24985711Y-6153445D02*
X24971650Y-6074154D01*
X24958405Y-5999601D01*
X24945933Y-5929633D01*
X24934187Y-5864096D01*
X24923123Y-5802839D01*
X24912695Y-5745707D01*
X24902860Y-5692550D01*
X24893570Y-5643212D01*
X24884782Y-5597543D01*
X24876450Y-5555388D01*
X24868530Y-5516595D01*
X24860975Y-5481012D01*
X24853742Y-5448485D01*
X24846785Y-5418862D01*
X24840059Y-5391989D01*
X24833518Y-5367714D01*
X24827119Y-5345885D01*
X24820815Y-5326348D01*
X24808314Y-5293539D01*
X24795655Y-5268065D01*
X24782478Y-5248704D01*
X24768422Y-5234233D01*
X24744900Y-5219021D01*
X24717372Y-5207935D01*
X16317318Y-15625389D02*
X16360203Y-15625523D01*
X16400621Y-15625644D01*
X16438656Y-15625749D01*
X16474391Y-15625834D01*
X16507912Y-15625896D01*
X16539302Y-15625929D01*
X16568645Y-15625931D01*
X16596024Y-15625898D01*
X16621525Y-15625826D01*
X16645232Y-15625712D01*
X16667227Y-15625550D01*
X16687596Y-15625339D01*
X16723791Y-15624749D01*
X16754487Y-15623912D01*
X16780359Y-15622798D01*
X16802077Y-15621376D01*
X16828338Y-15618601D01*
X16849038Y-15614962D01*
X16871909Y-15608592D01*
X16882831Y-15604688D01*
X20398687Y-13645698D02*
X20395087Y-13619935D01*
X20388439Y-13590667D01*
X20382310Y-13569057D01*
X20374820Y-13545662D01*
X20365969Y-13520391D01*
X20355753Y-13493154D01*
X20344170Y-13463858D01*
X20331218Y-13432414D01*
X20316895Y-13398730D01*
X20301200Y-13362716D01*
X20292836Y-13343806D01*
X20284128Y-13324280D01*
X20275076Y-13304126D01*
X20265680Y-13283332D01*
X20255938Y-13261887D01*
X20245852Y-13239780D01*
X20235419Y-13216999D01*
X20224642Y-13193534D01*
X20213518Y-13169372D01*
X20202048Y-13144502D01*
X9477789Y-13688576D02*
X9493606Y-13705375D01*
X9511861Y-13720091D01*
X9528307Y-13731630D01*
X9548940Y-13744997D01*
X9574419Y-13760577D01*
X9605400Y-13778752D01*
X9623160Y-13788933D01*
X9642541Y-13799906D01*
X9663627Y-13811720D01*
X9686500Y-13824423D01*
X9711241Y-13838062D01*
X9737932Y-13852685D01*
X9766657Y-13868341D01*
X9797497Y-13885077D01*
X9830535Y-13902941D01*
X9865851Y-13921981D01*
X9903530Y-13942245D01*
X9943652Y-13963780D01*
X9986301Y-13986636D01*
X10031557Y-14010859D01*
X10079504Y-14036498D01*
X10130223Y-14063601D01*
X10183797Y-14092215D01*
X8296483Y-4690445D02*
X8259031Y-4688814D01*
X8223259Y-4687253D01*
X8189067Y-4685772D01*
X8156353Y-4684380D01*
X8125019Y-4683088D01*
X8094964Y-4681904D01*
X8066087Y-4680838D01*
X8038289Y-4679901D01*
X8011468Y-4679100D01*
X7985525Y-4678447D01*
X7960359Y-4677951D01*
X7935870Y-4677621D01*
X7911957Y-4677467D01*
X7888521Y-4677499D01*
X7865461Y-4677725D01*
X7842676Y-4678157D01*
X7820067Y-4678803D01*
X7797533Y-4679673D01*
X7774974Y-4680776D01*
X7752289Y-4682123D01*
X7729379Y-4683722D01*
X7706142Y-4685585D01*
X7682479Y-4687719D01*
X7658290Y-4690134D01*
X7633473Y-4692842D01*
X7607929Y-4695850D01*
X7581557Y-4699168D01*
X7554257Y-4702807D01*
X7525929Y-4706775D01*
X7496472Y-4711083D01*
X7465787Y-4715740D01*
X7433772Y-4720755D01*
X5146904Y-5177236D02*
X5126041Y-5182663D01*
X5105431Y-5190347D01*
X5087744Y-5200509D01*
X5080000Y-5207000D01*
X4891260Y-6180435D02*
X4875545Y-6269703D01*
X4858972Y-6363886D01*
X4841598Y-6462656D01*
X4823481Y-6565685D01*
X4804677Y-6672645D01*
X4785244Y-6783207D01*
X4765239Y-6897043D01*
X4744719Y-7013826D01*
X4723742Y-7133227D01*
X4702365Y-7254918D01*
X4680645Y-7378572D01*
X4658638Y-7503859D01*
X4636403Y-7630453D01*
X4613997Y-7758024D01*
X4591476Y-7886245D01*
X4568898Y-8014788D01*
X4546321Y-8143325D01*
X4523801Y-8271527D01*
X4501395Y-8399066D01*
X4479161Y-8525615D01*
X4457157Y-8650845D01*
X4435438Y-8774428D01*
X4414063Y-8896036D01*
X4393088Y-9015341D01*
X4372572Y-9132015D01*
X4352570Y-9245730D01*
X4333141Y-9356158D01*
X4314341Y-9462970D01*
X4296228Y-9565839D01*
X4278858Y-9664436D01*
X4262290Y-9758434D01*
X4246580Y-9847504D01*
X14322097Y-15618739D02*
X14380859Y-15618949D01*
X14441178Y-15619164D01*
X14502920Y-15619381D01*
X14565955Y-15619602D01*
X14630148Y-15619825D01*
X14695368Y-15620051D01*
X14761482Y-15620278D01*
X14828357Y-15620507D01*
X14895862Y-15620737D01*
X14963863Y-15620968D01*
X15032228Y-15621198D01*
X15100825Y-15621429D01*
X15169521Y-15621659D01*
X15238183Y-15621888D01*
X15306680Y-15622116D01*
X15374877Y-15622342D01*
X15442644Y-15622566D01*
X15509848Y-15622787D01*
X15576355Y-15623006D01*
X15642033Y-15623221D01*
X15706751Y-15623432D01*
X15770375Y-15623639D01*
X15832773Y-15623841D01*
X15893813Y-15624038D01*
X15953361Y-15624230D01*
X16011286Y-15624417D01*
X16067454Y-15624596D01*
X16121734Y-15624770D01*
X16173993Y-15624936D01*
X16224099Y-15625095D01*
X16271918Y-15625246D01*
X16317318Y-15625389D01*
X10176375Y-11999392D02*
X10176917Y-12024444D01*
X10171782Y-12050591D01*
X10164393Y-12074905D01*
X10157678Y-12093763D01*
X10149469Y-12114994D01*
X10139708Y-12138815D01*
X10128342Y-12165444D01*
X10115315Y-12195098D01*
X10100572Y-12227996D01*
X10084057Y-12264355D01*
X10075118Y-12283900D01*
X10065715Y-12304392D01*
X10055842Y-12325858D01*
X10045491Y-12348326D01*
X10034656Y-12371822D01*
X10023330Y-12396373D01*
X11689616Y-2609477D02*
X11669411Y-2614849D01*
X11654957Y-2632582D01*
X11644668Y-2652143D01*
X11632281Y-2680245D01*
X11622501Y-2704470D01*
X11611253Y-2733612D01*
X11598322Y-2768119D01*
X11591158Y-2787525D01*
X11583493Y-2808439D01*
X11575301Y-2830919D01*
X11566553Y-2855020D01*
X11557225Y-2880799D01*
X11547288Y-2908311D01*
X11536715Y-2937612D01*
X11525481Y-2968760D01*
X7433772Y-4720755D02*
X7400358Y-4726134D01*
X7365591Y-4731863D01*
X7329547Y-4737926D01*
X7292304Y-4744305D01*
X7253937Y-4750982D01*
X7214523Y-4757940D01*
X7174139Y-4765162D01*
X7132861Y-4772630D01*
X7090765Y-4780327D01*
X7047929Y-4788235D01*
X7004427Y-4796337D01*
X6960338Y-4804616D01*
X6915737Y-4813054D01*
X6870701Y-4821633D01*
X6825306Y-4830336D01*
X6779629Y-4839147D01*
X6733746Y-4848046D01*
X6687734Y-4857018D01*
X6641669Y-4866044D01*
X6595628Y-4875107D01*
X6549687Y-4884190D01*
X6503923Y-4893275D01*
X6458412Y-4902344D01*
X6413230Y-4911381D01*
X6368455Y-4920368D01*
X6324162Y-4929288D01*
X6280428Y-4938122D01*
X6237330Y-4946855D01*
X6194943Y-4955467D01*
X6153345Y-4963942D01*
X6112612Y-4972263D01*
X6072820Y-4980412D01*
X9117213Y-11758696D02*
X9207692Y-11775423D01*
X9292838Y-11791172D01*
X9372815Y-11805981D01*
X9447785Y-11819890D01*
X9517911Y-11832936D01*
X9583357Y-11845158D01*
X9644286Y-11856594D01*
X9700860Y-11867283D01*
X9753244Y-11877262D01*
X9801599Y-11886571D01*
X9846089Y-11895248D01*
X9886877Y-11903331D01*
X9924127Y-11910858D01*
X9958001Y-11917868D01*
X9988662Y-11924400D01*
X10016273Y-11930491D01*
X10040998Y-11936181D01*
X10062999Y-11941506D01*
X10082440Y-11946507D01*
X10114293Y-11955686D01*
X10137861Y-11964026D01*
X10160534Y-11975631D01*
X10173944Y-11991032D01*
X10176375Y-11999392D01*
X24751383Y-11029485D02*
X24837108Y-11013528D01*
X24917799Y-10998478D01*
X24993611Y-10984297D01*
X25064700Y-10970943D01*
X25131219Y-10958377D01*
X25193325Y-10946557D01*
X25251173Y-10935444D01*
X25304917Y-10924997D01*
X25354713Y-10915177D01*
X25400716Y-10905941D01*
X25443081Y-10897251D01*
X25481963Y-10889066D01*
X25517518Y-10881346D01*
X25549900Y-10874050D01*
X25579264Y-10867137D01*
X25605766Y-10860569D01*
X25629561Y-10854303D01*
X25650803Y-10848301D01*
X25686253Y-10836923D01*
X25713355Y-10826113D01*
X25733352Y-10815548D01*
X25752738Y-10799454D01*
X25763116Y-10782097D01*
X25767099Y-10769285D01*
D11*
X5146904Y-5177234D02*
X5146904Y-5177234D01*
D10*
X13193263Y-15606179D02*
X13228998Y-15607756D01*
X13268419Y-15609171D01*
X13289577Y-15609823D01*
X13311733Y-15610438D01*
X13334913Y-15611019D01*
X13359143Y-15611567D01*
X13384448Y-15612084D01*
X13410854Y-15612571D01*
X13438387Y-15613030D01*
X13467071Y-15613462D01*
X13496933Y-15613868D01*
X13527999Y-15614251D01*
X13560293Y-15614611D01*
X13593842Y-15614950D01*
X13628670Y-15615270D01*
X13664804Y-15615571D01*
X13702270Y-15615856D01*
X13741092Y-15616127D01*
X13781296Y-15616383D01*
X13822908Y-15616628D01*
X13865954Y-15616862D01*
X13910459Y-15617087D01*
X13956449Y-15617305D01*
X14003949Y-15617516D01*
X14052985Y-15617723D01*
X14103582Y-15617926D01*
X14155766Y-15618128D01*
X14209563Y-15618330D01*
X14264998Y-15618533D01*
X14322097Y-15618739D01*
X12419272Y-15283134D02*
X12470279Y-15310247D01*
X12518317Y-15335760D01*
X12563510Y-15359723D01*
X12605982Y-15382186D01*
X12645857Y-15403200D01*
X12683258Y-15422814D01*
X12718310Y-15441080D01*
X12751136Y-15458047D01*
X12781860Y-15473765D01*
X12810606Y-15488285D01*
X12837498Y-15501657D01*
X12862660Y-15513931D01*
X12886215Y-15525157D01*
X12908287Y-15535385D01*
X12929001Y-15544667D01*
X12948480Y-15553051D01*
X12984229Y-15567329D01*
X13016524Y-15578622D01*
X13046357Y-15587331D01*
X13074718Y-15593858D01*
X13102598Y-15598604D01*
X13130989Y-15601972D01*
X13160880Y-15604363D01*
X13193263Y-15606179D01*
X20202048Y-13144502D02*
X20190235Y-13118925D01*
X20178102Y-13092683D01*
X20165675Y-13065832D01*
X20152978Y-13038425D01*
X20140038Y-13010519D01*
X20126881Y-12982166D01*
X20113533Y-12953423D01*
X20100019Y-12924344D01*
X20086366Y-12894984D01*
X20072598Y-12865396D01*
X20058743Y-12835636D01*
X20044826Y-12805759D01*
X20030872Y-12775819D01*
X20016908Y-12745871D01*
X20002959Y-12715970D01*
X19989052Y-12686170D01*
X19975211Y-12656526D01*
X19961464Y-12627092D01*
X19947836Y-12597924D01*
X19934352Y-12569076D01*
X19921039Y-12540602D01*
X19907922Y-12512558D01*
X19895028Y-12484998D01*
X19882382Y-12457976D01*
X19870009Y-12431548D01*
X19857937Y-12405768D01*
X19846190Y-12380691D01*
X19834794Y-12356371D01*
X19823776Y-12332864D01*
X19813161Y-12310223D01*
X19802976Y-12288504D01*
X19793245Y-12267760D01*
X19745193Y-4858248D02*
X19709823Y-4868714D01*
X19674424Y-4879175D01*
X19639030Y-4889624D01*
X19603672Y-4900050D01*
X19568384Y-4910445D01*
X19533198Y-4920800D01*
X19498147Y-4931107D01*
X19463262Y-4941357D01*
X19428576Y-4951541D01*
X19394122Y-4961650D01*
X19359932Y-4971675D01*
X19326039Y-4981607D01*
X19292476Y-4991439D01*
X19259274Y-5001160D01*
X19226466Y-5010762D01*
X19194085Y-5020237D01*
X19162163Y-5029575D01*
X19130732Y-5038768D01*
X19099826Y-5047807D01*
X19069476Y-5056683D01*
X19039716Y-5065388D01*
X19010577Y-5073912D01*
X18982092Y-5082246D01*
X18954293Y-5090383D01*
X18927214Y-5098313D01*
X18900886Y-5106027D01*
X18875342Y-5113517D01*
X18850615Y-5120774D01*
X18826736Y-5127788D01*
X18803739Y-5134552D01*
X18781656Y-5141056D01*
X18760519Y-5147292D01*
X9896948Y-4754021D02*
X9851370Y-4752328D01*
X9804522Y-4750578D01*
X9756502Y-4748776D01*
X9707408Y-4746923D01*
X9657340Y-4745026D01*
X9606395Y-4743086D01*
X9554672Y-4741109D01*
X9502269Y-4739098D01*
X9449284Y-4737056D01*
X9395817Y-4734988D01*
X9341964Y-4732897D01*
X9287826Y-4730787D01*
X9233500Y-4728662D01*
X9179084Y-4726525D01*
X9124677Y-4724381D01*
X9070378Y-4722233D01*
X9016284Y-4720085D01*
X8962495Y-4717941D01*
X8909108Y-4715805D01*
X8856222Y-4713680D01*
X8803935Y-4711570D01*
X8752347Y-4709479D01*
X8701554Y-4707411D01*
X8651656Y-4705369D01*
X8602751Y-4703357D01*
X8554937Y-4701380D01*
X8508313Y-4699441D01*
X8462977Y-4697543D01*
X8419028Y-4695691D01*
X8376563Y-4693888D01*
X8335682Y-4692138D01*
X8296483Y-4690445D01*
X25767099Y-10769285D02*
X25770990Y-10746980D01*
X25772349Y-10717988D01*
X25771601Y-10693163D01*
X25769353Y-10662694D01*
X25765458Y-10625512D01*
X25762845Y-10604069D01*
X25759765Y-10580548D01*
X25756198Y-10554813D01*
X25752125Y-10526733D01*
X25747528Y-10496172D01*
X25742388Y-10462998D01*
X25736687Y-10427077D01*
X25730406Y-10388275D01*
X25723526Y-10346459D01*
X25716028Y-10301495D01*
X25707894Y-10253250D01*
X25699105Y-10201589D01*
X25689643Y-10146380D01*
X25679488Y-10087488D01*
X25668623Y-10024780D01*
X25657027Y-9958123D01*
X25644684Y-9887383D01*
X25631573Y-9812426D01*
X25617677Y-9733119D01*
X25602976Y-9649328D01*
X14449974Y-3571971D02*
X14376759Y-3545986D01*
X14302862Y-3519756D01*
X14228386Y-3493317D01*
X14153432Y-3466707D01*
X14078103Y-3439963D01*
X14002499Y-3413120D01*
X13926725Y-3386216D01*
X13850880Y-3359287D01*
X13775069Y-3332370D01*
X13699392Y-3305501D01*
X13623952Y-3278718D01*
X13548850Y-3252057D01*
X13474189Y-3225555D01*
X13400071Y-3199248D01*
X13326598Y-3173173D01*
X13253872Y-3147367D01*
X13181995Y-3121866D01*
X13111069Y-3096707D01*
X13041196Y-3071927D01*
X12972479Y-3047562D01*
X12905018Y-3023649D01*
X12838917Y-3000225D01*
X12774277Y-2977327D01*
X12711201Y-2954991D01*
X12649789Y-2933253D01*
X12590146Y-2912151D01*
X12532372Y-2891722D01*
X12476569Y-2872001D01*
X12422840Y-2853025D01*
X12371287Y-2834832D01*
X12322012Y-2817458D01*
X12275116Y-2800939D01*
X16884322Y-4482732D02*
X16863024Y-4472224D01*
X16842595Y-4462165D01*
X16822956Y-4452520D01*
X16804022Y-4443258D01*
X16785712Y-4434345D01*
X16750634Y-4417435D01*
X16717063Y-4401527D01*
X16684342Y-4386358D01*
X16651810Y-4371665D01*
X16618811Y-4357185D01*
X16584686Y-4342655D01*
X16548776Y-4327811D01*
X16529946Y-4320189D01*
X16510423Y-4312390D01*
X16490125Y-4304381D01*
X16468969Y-4296129D01*
X16446873Y-4287602D01*
X16423754Y-4278766D01*
X16399531Y-4269588D01*
X16374121Y-4260036D01*
X16347442Y-4250077D01*
X16319412Y-4239677D01*
X16289948Y-4228805D01*
X16258967Y-4217426D01*
X16226389Y-4205508D01*
X16226389Y-4205508D02*
X16192148Y-4193026D01*
X16156254Y-4179981D01*
X16118736Y-4166383D01*
X16079622Y-4152240D01*
X16038939Y-4137561D01*
X15996715Y-4122356D01*
X15952980Y-4106634D01*
X15907759Y-4090404D01*
X15861083Y-4073674D01*
X15812978Y-4056454D01*
X15763472Y-4038754D01*
X15712594Y-4020581D01*
X15660372Y-4001945D01*
X15606833Y-3982856D01*
X15552006Y-3963321D01*
X15495919Y-3943351D01*
X15438599Y-3922955D01*
X15380075Y-3902141D01*
X15320375Y-3880918D01*
X15259526Y-3859296D01*
X15197558Y-3837283D01*
X15134497Y-3814889D01*
X15070371Y-3792123D01*
X15005210Y-3768993D01*
X14939040Y-3745510D01*
X14871890Y-3721681D01*
X14803787Y-3697517D01*
X14734761Y-3673025D01*
X14664838Y-3648216D01*
X14594048Y-3623098D01*
X14522417Y-3597680D01*
X14449974Y-3571971D01*
X4246580Y-9847504D02*
X4231773Y-9931400D01*
X4217859Y-10010203D01*
X4204816Y-10084077D01*
X4192621Y-10153184D01*
X4181253Y-10217687D01*
X4170690Y-10277750D01*
X4160908Y-10333535D01*
X4151886Y-10385206D01*
X4143602Y-10432926D01*
X4136032Y-10476858D01*
X4129156Y-10517165D01*
X4122950Y-10554010D01*
X4117392Y-10587556D01*
X4112461Y-10617966D01*
X4108133Y-10645404D01*
X4104387Y-10670033D01*
X4101200Y-10692015D01*
X4096415Y-10728692D01*
X4093600Y-10756741D01*
X4092577Y-10777466D01*
X4094013Y-10797677D01*
X4105372Y-10815086D01*
X12275116Y-2800939D02*
X12230674Y-2785302D01*
X12188641Y-2770533D01*
X12148945Y-2756608D01*
X12111515Y-2743501D01*
X12076277Y-2731188D01*
X12043160Y-2719645D01*
X12012091Y-2708848D01*
X11982998Y-2698771D01*
X11955809Y-2689391D01*
X11930451Y-2680682D01*
X11906852Y-2672621D01*
X11884940Y-2665183D01*
X11864643Y-2658343D01*
X11828603Y-2646360D01*
X11798153Y-2636476D01*
X11772716Y-2628495D01*
X11751714Y-2622222D01*
X11727258Y-2615584D01*
X11704773Y-2610880D01*
X11689616Y-2609477D01*
X21584458Y-4649790D02*
X21533565Y-4641085D01*
X21485324Y-4632850D01*
X21439622Y-4625079D01*
X21396347Y-4617772D01*
X21355388Y-4610923D01*
X21316632Y-4604530D01*
X21279967Y-4598590D01*
X21245280Y-4593099D01*
X21212461Y-4588055D01*
X21181397Y-4583453D01*
X21151975Y-4579291D01*
X21124084Y-4575565D01*
X21097611Y-4572273D01*
X21072445Y-4569410D01*
X21048473Y-4566974D01*
X21025584Y-4564962D01*
X21003665Y-4563369D01*
X20982604Y-4562194D01*
X20962289Y-4561432D01*
X20923449Y-4561136D01*
X20886249Y-4562455D01*
X20849791Y-4565364D01*
X20813179Y-4569837D01*
X20775517Y-4575848D01*
X20735907Y-4583370D01*
X20715092Y-4587690D01*
X9577568Y-13361825D02*
X9567171Y-13384234D01*
X9557320Y-13405469D01*
X9548009Y-13425568D01*
X9539229Y-13444571D01*
X9523232Y-13479442D01*
X9509268Y-13510390D01*
X9497275Y-13537726D01*
X9487191Y-13561759D01*
X9478954Y-13582800D01*
X9469929Y-13609425D01*
X9464714Y-13631059D01*
X9463327Y-13653944D01*
X9469846Y-13676458D01*
X9477789Y-13688576D01*
X11031667Y-4334881D02*
X11019859Y-4367456D01*
X11008663Y-4398268D01*
X10998039Y-4427369D01*
X10987946Y-4454810D01*
X10978341Y-4480642D01*
X10969184Y-4504919D01*
X10960433Y-4527690D01*
X10952047Y-4549009D01*
X10943985Y-4568926D01*
X10936206Y-4587494D01*
X10921330Y-4620788D01*
X10907088Y-4649304D01*
X10893151Y-4673456D01*
X10879188Y-4693657D01*
X10864869Y-4710321D01*
X10849864Y-4723863D01*
X10825347Y-4739224D01*
X10797427Y-4749885D01*
X10776374Y-4755070D01*
X10752983Y-4759201D01*
X10023330Y-12396373D02*
X10011513Y-12421991D01*
X9999230Y-12448620D01*
X9986515Y-12476189D01*
X9973400Y-12504625D01*
X9959919Y-12533857D01*
X9946104Y-12563813D01*
X9931989Y-12594421D01*
X9917606Y-12625610D01*
X9902988Y-12657308D01*
X9888167Y-12689443D01*
X9873178Y-12721944D01*
X9858052Y-12754738D01*
X9842823Y-12787754D01*
X9827523Y-12820921D01*
X9812186Y-12854166D01*
X9796844Y-12887417D01*
X9781530Y-12920604D01*
X9766277Y-12953654D01*
X9751118Y-12986495D01*
X9736086Y-13019057D01*
X9721214Y-13051266D01*
X9706534Y-13083052D01*
X9692080Y-13114342D01*
X9677885Y-13145065D01*
X9663980Y-13175149D01*
X9650400Y-13204523D01*
X9637177Y-13233114D01*
X9624343Y-13260852D01*
X9611933Y-13287663D01*
X9599978Y-13313477D01*
X9588512Y-13338221D01*
X9577568Y-13361825D01*
X6072820Y-4980412D02*
X6034031Y-4988374D01*
X5996252Y-4996147D01*
X5959471Y-5003734D01*
X5923680Y-5011133D01*
X5888870Y-5018347D01*
X5855032Y-5025377D01*
X5822155Y-5032224D01*
X5790230Y-5038888D01*
X5759249Y-5045370D01*
X5729202Y-5051672D01*
X5700079Y-5057795D01*
X5671871Y-5063740D01*
X5644569Y-5069507D01*
X5618164Y-5075098D01*
X5592646Y-5080513D01*
X5568005Y-5085755D01*
X5544234Y-5090823D01*
X5521321Y-5095719D01*
X5499258Y-5100443D01*
X5478035Y-5104997D01*
X5457643Y-5109383D01*
X5438073Y-5113600D01*
X5401361Y-5121533D01*
X5367824Y-5128806D01*
X5337387Y-5135427D01*
X5309975Y-5141403D01*
X5285514Y-5146744D01*
X19797677Y-14054483D02*
X19848528Y-14027342D01*
X19896485Y-14001739D01*
X19941632Y-13977612D01*
X19984050Y-13954900D01*
X20023822Y-13933542D01*
X20061030Y-13913477D01*
X20095758Y-13894645D01*
X20128086Y-13876983D01*
X20158098Y-13860431D01*
X20185877Y-13844929D01*
X20211504Y-13830414D01*
X20235062Y-13816826D01*
X20256633Y-13804104D01*
X20276301Y-13792187D01*
X20294147Y-13781013D01*
X20324703Y-13760653D01*
X20348961Y-13742535D01*
X20367582Y-13726171D01*
X20381224Y-13711073D01*
X20393795Y-13689730D01*
X20398874Y-13668488D01*
X20398687Y-13645698D01*
X24717372Y-5207935D02*
X24696178Y-5200985D01*
X24672203Y-5193934D01*
X24644991Y-5186680D01*
X24614082Y-5179120D01*
X24579019Y-5171153D01*
X24539343Y-5162678D01*
X24517633Y-5158218D01*
X24494598Y-5153592D01*
X24470181Y-5148788D01*
X24444324Y-5143794D01*
X24416971Y-5138596D01*
X24388064Y-5133181D01*
X24357545Y-5127538D01*
X24325359Y-5121653D01*
X24291446Y-5115513D01*
X24255751Y-5109107D01*
X24218216Y-5102420D01*
X24178783Y-5095441D01*
X24137396Y-5088156D01*
X24093997Y-5080553D01*
X24048528Y-5072620D01*
X24000933Y-5064342D01*
X23951155Y-5055709D01*
X23899135Y-5046707D01*
X23844817Y-5037322D01*
X23788144Y-5027544D01*
X16882831Y-15604688D02*
X16907030Y-15594860D01*
X16929933Y-15584426D01*
X16948751Y-15575349D01*
X16971208Y-15564164D01*
X16997990Y-15550517D01*
X17029782Y-15534057D01*
X17047771Y-15524661D01*
X17067270Y-15514428D01*
X17088364Y-15503316D01*
X17111138Y-15491280D01*
X17135680Y-15478275D01*
X17162074Y-15464257D01*
X17190406Y-15449183D01*
X17220761Y-15433009D01*
X17253226Y-15415689D01*
X17287886Y-15397180D01*
X17324827Y-15377438D01*
X17364134Y-15356419D01*
X17405893Y-15334079D01*
X17450190Y-15310373D01*
X17497110Y-15285257D01*
X17546740Y-15258687D01*
X17599165Y-15230620D01*
X18372420Y-5196093D02*
X18350206Y-5189112D01*
X18326483Y-5180912D01*
X18301182Y-5171488D01*
X18274231Y-5160835D01*
X18245560Y-5148947D01*
X18215100Y-5135819D01*
X18182778Y-5121445D01*
X18148526Y-5105821D01*
X18112273Y-5088941D01*
X18093374Y-5080028D01*
X18073948Y-5070799D01*
X18053987Y-5061253D01*
X18033481Y-5051389D01*
X18012422Y-5041208D01*
X17990801Y-5030708D01*
X17968610Y-5019888D01*
X17945839Y-5008748D01*
X17922480Y-4997288D01*
X17898523Y-4985506D01*
X17873961Y-4973401D01*
X17848784Y-4960974D01*
X17822984Y-4948224D01*
X17796551Y-4935149D01*
X18760519Y-5147292D02*
X18740348Y-5153252D01*
X18721115Y-5158934D01*
X18685293Y-5169461D01*
X18652717Y-5178866D01*
X18623053Y-5187143D01*
X18595966Y-5194285D01*
X18571122Y-5200285D01*
X18548186Y-5205138D01*
X18526824Y-5208836D01*
X18506701Y-5211374D01*
X18478107Y-5212990D01*
X18450418Y-5211958D01*
X18422505Y-5208256D01*
X18393239Y-5201862D01*
X18372420Y-5196093D01*
X19793245Y-12267760D02*
X19783991Y-12248034D01*
X19775220Y-12229307D01*
X19759135Y-12194725D01*
X19745005Y-12163765D01*
X19732847Y-12136174D01*
X19722678Y-12111702D01*
X19714512Y-12090098D01*
X19706058Y-12062517D01*
X19702206Y-12039975D01*
X19704321Y-12016290D01*
X19714845Y-11998045D01*
X19733906Y-11983229D01*
X19746679Y-11976478D01*
X20984937Y-11725854D02*
X21080809Y-11708158D01*
X21181232Y-11689623D01*
X21285891Y-11670307D01*
X21394471Y-11650268D01*
X21506658Y-11629562D01*
X21622139Y-11608249D01*
X21740598Y-11586384D01*
X21861723Y-11564027D01*
X21985198Y-11541234D01*
X22110710Y-11518064D01*
X22237945Y-11494574D01*
X22366587Y-11470821D01*
X22496324Y-11446864D01*
X22626841Y-11422760D01*
X22757823Y-11398567D01*
X22888958Y-11374341D01*
X23019929Y-11350142D01*
X23150424Y-11326027D01*
X23280129Y-11302053D01*
X23408728Y-11278278D01*
X23535908Y-11254759D01*
X23661356Y-11231555D01*
X23784755Y-11208723D01*
X23905793Y-11186320D01*
X24024156Y-11164405D01*
X24139528Y-11143034D01*
X24251597Y-11122267D01*
X24360047Y-11102159D01*
X24464565Y-11082770D01*
X24564836Y-11064156D01*
X24660547Y-11046375D01*
X24751383Y-11029485D01*
X4105372Y-10815086D02*
X4124519Y-10824371D01*
X4147011Y-10831199D01*
X4169338Y-10836819D01*
X4199068Y-10843598D01*
X4237520Y-10851798D01*
X4260429Y-10856512D01*
X4286013Y-10861679D01*
X4314436Y-10867332D01*
X4345864Y-10873504D01*
X4380462Y-10880226D01*
X4418394Y-10887532D01*
X4459824Y-10895455D01*
X4504919Y-10904026D01*
X4553842Y-10913280D01*
X4606758Y-10923247D01*
X4663833Y-10933961D01*
X4725231Y-10945455D01*
X4791117Y-10957762D01*
X4861655Y-10970913D01*
X4937011Y-10984941D01*
X5017349Y-10999880D01*
X5102835Y-11015762D01*
X5193632Y-11032620D01*
X19746679Y-11976478D02*
X19770534Y-11966481D01*
X19790966Y-11959562D01*
X19816279Y-11952171D01*
X19847555Y-11944077D01*
X19885872Y-11935049D01*
X19908009Y-11930113D01*
X19932310Y-11924857D01*
X19958912Y-11919252D01*
X19987950Y-11913270D01*
X20019557Y-11906881D01*
X20053869Y-11900057D01*
X20091022Y-11892768D01*
X20131149Y-11884987D01*
X20174386Y-11876684D01*
X20220869Y-11867831D01*
X20270731Y-11858398D01*
X20324108Y-11848356D01*
X20381135Y-11837678D01*
X20441946Y-11826333D01*
X20506677Y-11814294D01*
X20575463Y-11801531D01*
X20648439Y-11788016D01*
X20725739Y-11773720D01*
X20807499Y-11758613D01*
X20893853Y-11742667D01*
X20984937Y-11725854D01*
X10752983Y-4759201D02*
X10726950Y-4762626D01*
X10698073Y-4765435D01*
X10666177Y-4767652D01*
X10631086Y-4769304D01*
X10592624Y-4770414D01*
X10572075Y-4770774D01*
X10550618Y-4771008D01*
X10528230Y-4771119D01*
X10504890Y-4771110D01*
X10480576Y-4770985D01*
X10455266Y-4770746D01*
X10428937Y-4770397D01*
X10401569Y-4769940D01*
X10373140Y-4769379D01*
X10343626Y-4768717D01*
X10313007Y-4767957D01*
X10281260Y-4767102D01*
X10248363Y-4766156D01*
X10214295Y-4765120D01*
X10179034Y-4764000D01*
X10142557Y-4762797D01*
X10104843Y-4761514D01*
X10065870Y-4760155D01*
X10025616Y-4758724D01*
X9984059Y-4757222D01*
X9941177Y-4755654D01*
X9896948Y-4754021D01*
X5080000Y-5207000D02*
X5069396Y-5224519D01*
X5063002Y-5245091D01*
X5057770Y-5266146D01*
X5051472Y-5294584D01*
X5043862Y-5331700D01*
X5039487Y-5353916D01*
X5034692Y-5378787D01*
X5029446Y-5406474D01*
X5023716Y-5437140D01*
X5017473Y-5470945D01*
X5010686Y-5508053D01*
X5003324Y-5548624D01*
X4995355Y-5592821D01*
X4986749Y-5640805D01*
X4977476Y-5692738D01*
X4967503Y-5748782D01*
X4956801Y-5809099D01*
X4945338Y-5873850D01*
X4933083Y-5943197D01*
X4920006Y-6017303D01*
X4906075Y-6096328D01*
X4891260Y-6180435D01*
X25602976Y-9649328D02*
X25587465Y-9560991D01*
X25571184Y-9468334D01*
X25554184Y-9371655D01*
X25536520Y-9271249D01*
X25518244Y-9167415D01*
X25499408Y-9060450D01*
X25480064Y-8950649D01*
X25460267Y-8838312D01*
X25440067Y-8723734D01*
X25419519Y-8607212D01*
X25398674Y-8489045D01*
X25377586Y-8369529D01*
X25356306Y-8248960D01*
X25334888Y-8127637D01*
X25313384Y-8005857D01*
X25291847Y-7883915D01*
X25270330Y-7762111D01*
X25248884Y-7640739D01*
X25227564Y-7520099D01*
X25206420Y-7400486D01*
X25185507Y-7282198D01*
X25164877Y-7165532D01*
X25144582Y-7050785D01*
X25124676Y-6938255D01*
X25105210Y-6828237D01*
X25086237Y-6721030D01*
X25067810Y-6616931D01*
X25049982Y-6516236D01*
X25032806Y-6419243D01*
X25016333Y-6326249D01*
X25000617Y-6237550D01*
X24985711Y-6153445D01*
X20715092Y-4587690D02*
X20693476Y-4592376D01*
X20671062Y-4597419D01*
X20647872Y-4602808D01*
X20623930Y-4608531D01*
X20599261Y-4614577D01*
X20573889Y-4620934D01*
X20547836Y-4627591D01*
X20521127Y-4634537D01*
X20493786Y-4641759D01*
X20465836Y-4649248D01*
X20437302Y-4656991D01*
X20408206Y-4664978D01*
X20378574Y-4673196D01*
X20348428Y-4681634D01*
X20317793Y-4690282D01*
X20286692Y-4699127D01*
X20255150Y-4708158D01*
X20223189Y-4717364D01*
X20190835Y-4726734D01*
X20158110Y-4736256D01*
X20125038Y-4745919D01*
X20091644Y-4755711D01*
X20057951Y-4765621D01*
X20023983Y-4775638D01*
X19989763Y-4785750D01*
X19955316Y-4795946D01*
X19920666Y-4806214D01*
X19885836Y-4816544D01*
X19850849Y-4826924D01*
X19815731Y-4837342D01*
X19780504Y-4847787D01*
X19745193Y-4858248D01*
X11525481Y-2968760D02*
X11513570Y-3001779D01*
X11501012Y-3036585D01*
X11487849Y-3073059D01*
X11474123Y-3111086D01*
X11459877Y-3150551D01*
X11445151Y-3191336D01*
X11429989Y-3233325D01*
X11414432Y-3276403D01*
X11398521Y-3320454D01*
X11382300Y-3365361D01*
X11365810Y-3411008D01*
X11349092Y-3457278D01*
X11332190Y-3504057D01*
X11315144Y-3551227D01*
X11297997Y-3598673D01*
X11280791Y-3646278D01*
X11263567Y-3693927D01*
X11246368Y-3741503D01*
X11229236Y-3788890D01*
X11212212Y-3835971D01*
X11195338Y-3882632D01*
X11178658Y-3928755D01*
X11162211Y-3974224D01*
X11146041Y-4018924D01*
X11130190Y-4062738D01*
X11114698Y-4105551D01*
X11099609Y-4147245D01*
X11084965Y-4187705D01*
X11070806Y-4226815D01*
X11057176Y-4264458D01*
X11044115Y-4300519D01*
X11031667Y-4334881D01*
X10183797Y-14092215D02*
X10240263Y-14122363D01*
X10299477Y-14153970D01*
X10361250Y-14186936D01*
X10425395Y-14221161D01*
X10491723Y-14256543D01*
X10560046Y-14292984D01*
X10630174Y-14330381D01*
X10701921Y-14368636D01*
X10775096Y-14407648D01*
X10849513Y-14447316D01*
X10924981Y-14487541D01*
X11001314Y-14528222D01*
X11078323Y-14569258D01*
X11155819Y-14610550D01*
X11233613Y-14651996D01*
X11311518Y-14693498D01*
X11389345Y-14734954D01*
X11466906Y-14776264D01*
X11544012Y-14817328D01*
X11620475Y-14858046D01*
X11696106Y-14898317D01*
X11770716Y-14938042D01*
X11844119Y-14977118D01*
X11916124Y-15015448D01*
X11986545Y-15052929D01*
X12055191Y-15089462D01*
X12121876Y-15124947D01*
X12186409Y-15159283D01*
X12248604Y-15192370D01*
X12308272Y-15224108D01*
X12365224Y-15254396D01*
X12419272Y-15283134D01*
X17599165Y-15230620D02*
X17654425Y-15201034D01*
X17712382Y-15170005D01*
X17772854Y-15137630D01*
X17835657Y-15104007D01*
X17900609Y-15069235D01*
X17967525Y-15033412D01*
X18036224Y-14996635D01*
X18106522Y-14959004D01*
X18178237Y-14920615D01*
X18251185Y-14881568D01*
X18325183Y-14841960D01*
X18400048Y-14801890D01*
X18475598Y-14761456D01*
X18551649Y-14720755D01*
X18628019Y-14679886D01*
X18704524Y-14638947D01*
X18780981Y-14598036D01*
X18857207Y-14557252D01*
X18933020Y-14516692D01*
X19008236Y-14476454D01*
X19082672Y-14436637D01*
X19156146Y-14397339D01*
X19228474Y-14358658D01*
X19299473Y-14320692D01*
X19368961Y-14283540D01*
X19436754Y-14247298D01*
X19502670Y-14212066D01*
X19566524Y-14177942D01*
X19628135Y-14145023D01*
X19687320Y-14113408D01*
X19743895Y-14083195D01*
X19797677Y-14054483D01*
X17796551Y-4935149D02*
X17769487Y-4921753D01*
X17741832Y-4908058D01*
X17713635Y-4894088D01*
X17684947Y-4879869D01*
X17655817Y-4865426D01*
X17626295Y-4850784D01*
X17596431Y-4835968D01*
X17566275Y-4821004D01*
X17535876Y-4805916D01*
X17505285Y-4790730D01*
X17474550Y-4775471D01*
X17443722Y-4760164D01*
X17412851Y-4744834D01*
X17381987Y-4729507D01*
X17351179Y-4714207D01*
X17320477Y-4698960D01*
X17289931Y-4683791D01*
X17259591Y-4668725D01*
X17229506Y-4653788D01*
X17199726Y-4639004D01*
X17170302Y-4624398D01*
X17141283Y-4609997D01*
X17112718Y-4595824D01*
X17084659Y-4581906D01*
X17057153Y-4568267D01*
X17030252Y-4554933D01*
X17004005Y-4541928D01*
X16978461Y-4529278D01*
X16953672Y-4517009D01*
X16929685Y-4505144D01*
X16906552Y-4493710D01*
X16884322Y-4482732D01*
X23788144Y-5027544D02*
X23729094Y-5017365D01*
X23667794Y-5006806D01*
X23604405Y-4995895D01*
X23539088Y-4984660D01*
X23472006Y-4973127D01*
X23403320Y-4961324D01*
X23333193Y-4949279D01*
X23261785Y-4937020D01*
X23189258Y-4924573D01*
X23115775Y-4911966D01*
X23041497Y-4899227D01*
X22966585Y-4886383D01*
X22891202Y-4873461D01*
X22815510Y-4860490D01*
X22739669Y-4847496D01*
X22663842Y-4834507D01*
X22588190Y-4821551D01*
X22512876Y-4808655D01*
X22438060Y-4795846D01*
X22363906Y-4783152D01*
X22290573Y-4770600D01*
X22218225Y-4758219D01*
X22147023Y-4746034D01*
X22077128Y-4734075D01*
X22008703Y-4722368D01*
X21941909Y-4710940D01*
X21876908Y-4699820D01*
X21813862Y-4689035D01*
X21752932Y-4678611D01*
X21694280Y-4668578D01*
X21638068Y-4658962D01*
X21584458Y-4649790D01*
D12*
X15189200Y-8509000D02*
G75*
G03*
X15189200Y-8509000I-254000J0D01*
G01*
D10*
D13*
X13763579Y-11268906D02*
X13803579Y-11308906D01*
X13803579Y-11268906D02*
X13763579Y-11308906D01*
X13798329Y-11173433D02*
X13838329Y-11213433D01*
X13838329Y-11173433D02*
X13798329Y-11213433D01*
X13833078Y-11077961D02*
X13873078Y-11117961D01*
X13873078Y-11077961D02*
X13833078Y-11117961D01*
X13842324Y-10978131D02*
X13882324Y-11018131D01*
X13882324Y-10978131D02*
X13842324Y-11018131D01*
X13877631Y-10884625D02*
X13917631Y-10924625D01*
X13917631Y-10884625D02*
X13877631Y-10924625D01*
X13894485Y-10786106D02*
X13934485Y-10826106D01*
X13934485Y-10786106D02*
X13894485Y-10826106D01*
X13924338Y-10678695D02*
X13964338Y-10718695D01*
X13964338Y-10678695D02*
X13924338Y-10718695D01*
X14089167Y-7645126D02*
X14129167Y-7685126D01*
X14129167Y-7645126D02*
X14089167Y-7685126D01*
X14102400Y-7955600D02*
X14142400Y-7995600D01*
X14142400Y-7955600D02*
X14102400Y-7995600D01*
X14169110Y-11694138D02*
X14209110Y-11734138D01*
X14209110Y-11694138D02*
X14169110Y-11734138D01*
X14266727Y-10816295D02*
X14306727Y-10856295D01*
X14306727Y-10816295D02*
X14266727Y-10856295D01*
X14269374Y-10696157D02*
X14309374Y-10736157D01*
X14309374Y-10696157D02*
X14269374Y-10736157D01*
X14737400Y-10902000D02*
X14777400Y-10942000D01*
X14777400Y-10902000D02*
X14737400Y-10942000D01*
X14912843Y-7741265D02*
X14952843Y-7781265D01*
X14952843Y-7741265D02*
X14912843Y-7781265D01*
X15006958Y-7774916D02*
X15046958Y-7814916D01*
X15046958Y-7774916D02*
X15006958Y-7814916D01*
X15143800Y-10597200D02*
X15183800Y-10637200D01*
X15183800Y-10597200D02*
X15143800Y-10637200D01*
X15255586Y-12871971D02*
X15295586Y-12911971D01*
X15295586Y-12871971D02*
X15255586Y-12911971D01*
X15440759Y-12230741D02*
X15480759Y-12270741D01*
X15480759Y-12230741D02*
X15440759Y-12270741D01*
X15949900Y-11279825D02*
X15989900Y-11319825D01*
X15989900Y-11279825D02*
X15949900Y-11319825D01*
X15956600Y-11384600D02*
X15996600Y-11424600D01*
X15996600Y-11384600D02*
X15956600Y-11424600D01*
X15956688Y-11180106D02*
X15996688Y-11220106D01*
X15996688Y-11180106D02*
X15956688Y-11220106D01*
X16000861Y-11085479D02*
X16040861Y-11125479D01*
X16040861Y-11085479D02*
X16000861Y-11125479D01*
X16006540Y-10977340D02*
X16046540Y-11017340D01*
X16046540Y-10977340D02*
X16006540Y-11017340D01*
X16053646Y-11410000D02*
X16093646Y-11450000D01*
X16093646Y-11410000D02*
X16053646Y-11450000D01*
X16210600Y-11994200D02*
X16250600Y-12034200D01*
X16250600Y-11994200D02*
X16210600Y-12034200D01*
D14*
X4659473Y-10359535D02*
G75*
G03*
X4659473Y-10359535I-40000J0D01*
G01*
D10*
X4594568Y-10385606D02*
X4633960Y-10392552D01*
X4604987Y-10326517D02*
X4644379Y-10333463D01*
X4633960Y-10392552D02*
G75*
G03*
X4644379Y-10333463I5209J29544D01*
G01*
X4604987Y-10326517D02*
G75*
G03*
X4594568Y-10385606I-5209J-29544D01*
G01*
D14*
X4898343Y-9747719D02*
G75*
G03*
X4898343Y-9747719I-40000J0D01*
G01*
D10*
X4833437Y-9773790D02*
X4872830Y-9780736D01*
X4843856Y-9714702D02*
X4883249Y-9721648D01*
X4872830Y-9780736D02*
G75*
G03*
X4883249Y-9721648I5209J29544D01*
G01*
X4843856Y-9714702D02*
G75*
G03*
X4833437Y-9773790I-5209J-29544D01*
G01*
D14*
X4990273Y-8483476D02*
G75*
G03*
X4990273Y-8483476I-40000J0D01*
G01*
D10*
X4925368Y-8509547D02*
X4964760Y-8516493D01*
X4935786Y-8450459D02*
X4975179Y-8457405D01*
X4964760Y-8516493D02*
G75*
G03*
X4975179Y-8457405I5209J29544D01*
G01*
X4935786Y-8450459D02*
G75*
G03*
X4925368Y-8509547I-5209J-29544D01*
G01*
D14*
X5126996Y-10645057D02*
G75*
G03*
X5126996Y-10645057I-40000J0D01*
G01*
D10*
X5062090Y-10671128D02*
X5101482Y-10678074D01*
X5072509Y-10612039D02*
X5111901Y-10618985D01*
X5101482Y-10678074D02*
G75*
G03*
X5111901Y-10618985I5209J29544D01*
G01*
X5072509Y-10612039D02*
G75*
G03*
X5062090Y-10671128I-5209J-29544D01*
G01*
D14*
X5229143Y-7871660D02*
G75*
G03*
X5229143Y-7871660I-40000J0D01*
G01*
D10*
X5164237Y-7897731D02*
X5203629Y-7904677D01*
X5174656Y-7838643D02*
X5214048Y-7845589D01*
X5203630Y-7904677D02*
G75*
G03*
X5214048Y-7845589I5209J29544D01*
G01*
X5174656Y-7838643D02*
G75*
G03*
X5164237Y-7897731I-5209J-29544D01*
G01*
D14*
X5321073Y-6607417D02*
G75*
G03*
X5321073Y-6607417I-40000J0D01*
G01*
D10*
X5256167Y-6633488D02*
X5295560Y-6640434D01*
X5266586Y-6574400D02*
X5305978Y-6581346D01*
X5295560Y-6640434D02*
G75*
G03*
X5305978Y-6581346I5209J29544D01*
G01*
X5266586Y-6574400D02*
G75*
G03*
X5256167Y-6633488I-5209J-29544D01*
G01*
D14*
X5457795Y-8768998D02*
G75*
G03*
X5457795Y-8768998I-40000J0D01*
G01*
D10*
X5392890Y-8795069D02*
X5432282Y-8802015D01*
X5403309Y-8735981D02*
X5442701Y-8742927D01*
X5432282Y-8802015D02*
G75*
G03*
X5442701Y-8742927I5209J29544D01*
G01*
X5403309Y-8735981D02*
G75*
G03*
X5392890Y-8795069I-5209J-29544D01*
G01*
D14*
X5559942Y-5995601D02*
G75*
G03*
X5559942Y-5995601I-40000J0D01*
G01*
D10*
X5495037Y-6021673D02*
X5534429Y-6028619D01*
X5505456Y-5962584D02*
X5544848Y-5969530D01*
X5534429Y-6028619D02*
G75*
G03*
X5544848Y-5969530I5209J29544D01*
G01*
X5505456Y-5962584D02*
G75*
G03*
X5495037Y-6021673I-5209J-29544D01*
G01*
D14*
X5567802Y-9607844D02*
G75*
G03*
X5567802Y-9607844I-40000J0D01*
G01*
D10*
X5502897Y-9633916D02*
X5542289Y-9640862D01*
X5513316Y-9574827D02*
X5552708Y-9581773D01*
X5542289Y-9640862D02*
G75*
G03*
X5552708Y-9581773I5209J29544D01*
G01*
X5513316Y-9574827D02*
G75*
G03*
X5502897Y-9633916I-5209J-29544D01*
G01*
D14*
X5788595Y-6892939D02*
G75*
G03*
X5788595Y-6892939I-40000J0D01*
G01*
D10*
X5723689Y-6919010D02*
X5763082Y-6925956D01*
X5734108Y-6859922D02*
X5773501Y-6866868D01*
X5763082Y-6925956D02*
G75*
G03*
X5773501Y-6866868I5209J29544D01*
G01*
X5734108Y-6859922D02*
G75*
G03*
X5723689Y-6919010I-5209J-29544D01*
G01*
D14*
X5898602Y-7731786D02*
G75*
G03*
X5898602Y-7731786I-40000J0D01*
G01*
D10*
X5833697Y-7757857D02*
X5873089Y-7764803D01*
X5844115Y-7698768D02*
X5883508Y-7705714D01*
X5873089Y-7764803D02*
G75*
G03*
X5883508Y-7705714I5209J29544D01*
G01*
X5844115Y-7698768D02*
G75*
G03*
X5833697Y-7757857I-5209J-29544D01*
G01*
D14*
X6229402Y-5855727D02*
G75*
G03*
X6229402Y-5855727I-40000J0D01*
G01*
D10*
X6164496Y-5881798D02*
X6203889Y-5888744D01*
X6174915Y-5822710D02*
X6214307Y-5829655D01*
X6203889Y-5888744D02*
G75*
G03*
X6214307Y-5829656I5209J29544D01*
G01*
X6174915Y-5822710D02*
G75*
G03*
X6164496Y-5881798I-5209J-29544D01*
G01*
D14*
X6775878Y-9871608D02*
G75*
G03*
X6775878Y-9871608I-40000J0D01*
G01*
D10*
X6708795Y-9895409D02*
X6747432Y-9905762D01*
X6724324Y-9837453D02*
X6762961Y-9847806D01*
X6747432Y-9905762D02*
G75*
G03*
X6762961Y-9847806I7765J28978D01*
G01*
X6724324Y-9837453D02*
G75*
G03*
X6708795Y-9895409I-7765J-28978D01*
G01*
D14*
X7067162Y-9282939D02*
G75*
G03*
X7067162Y-9282939I-40000J0D01*
G01*
D10*
X7000079Y-9306740D02*
X7038716Y-9317093D01*
X7015608Y-9248785D02*
X7054245Y-9259138D01*
X7038716Y-9317093D02*
G75*
G03*
X7054245Y-9259138I7765J28978D01*
G01*
X7015608Y-9248785D02*
G75*
G03*
X7000079Y-9306740I-7765J-28978D01*
G01*
D14*
X7216736Y-10196790D02*
G75*
G03*
X7216736Y-10196790I-40000J0D01*
G01*
D10*
X7149653Y-10220592D02*
X7188290Y-10230945D01*
X7165182Y-10162636D02*
X7203819Y-10172989D01*
X7188290Y-10230945D02*
G75*
G03*
X7203819Y-10172989I7765J28978D01*
G01*
X7165182Y-10162636D02*
G75*
G03*
X7149653Y-10220592I-7765J-28978D01*
G01*
D14*
X7268928Y-8031519D02*
G75*
G03*
X7268928Y-8031519I-40000J0D01*
G01*
D10*
X7201845Y-8055320D02*
X7240482Y-8065673D01*
X7217374Y-7997365D02*
X7256011Y-8007717D01*
X7240482Y-8065673D02*
G75*
G03*
X7256011Y-8007717I7765J28978D01*
G01*
X7217374Y-7997365D02*
G75*
G03*
X7201845Y-8055320I-7765J-28978D01*
G01*
D14*
X7560212Y-7442850D02*
G75*
G03*
X7560212Y-7442850I-40000J0D01*
G01*
D10*
X7493129Y-7466652D02*
X7531766Y-7477004D01*
X7508658Y-7408696D02*
X7547295Y-7419049D01*
X7531766Y-7477004D02*
G75*
G03*
X7547295Y-7419049I7765J28978D01*
G01*
X7508658Y-7408696D02*
G75*
G03*
X7493129Y-7466652I-7765J-28978D01*
G01*
D14*
X7709787Y-8356702D02*
G75*
G03*
X7709787Y-8356702I-40000J0D01*
G01*
D10*
X7642703Y-8380503D02*
X7681340Y-8390856D01*
X7658233Y-8322547D02*
X7696870Y-8332900D01*
X7681340Y-8390856D02*
G75*
G03*
X7696870Y-8332900I7765J28978D01*
G01*
X7658233Y-8322547D02*
G75*
G03*
X7642703Y-8380503I-7765J-28978D01*
G01*
D14*
X7746265Y-9201944D02*
G75*
G03*
X7746265Y-9201944I-40000J0D01*
G01*
D10*
X7679182Y-9225745D02*
X7717819Y-9236098D01*
X7694711Y-9167790D02*
X7733348Y-9178142D01*
X7717819Y-9236098D02*
G75*
G03*
X7733348Y-9178142I7765J28978D01*
G01*
X7694711Y-9167790D02*
G75*
G03*
X7679182Y-9225745I-7765J-28978D01*
G01*
D14*
X7761978Y-6191430D02*
G75*
G03*
X7761978Y-6191430I-40000J0D01*
G01*
D10*
X7694895Y-6215231D02*
X7733532Y-6225584D01*
X7710425Y-6157276D02*
X7749062Y-6167629D01*
X7733532Y-6225584D02*
G75*
G03*
X7749062Y-6167629I7765J28978D01*
G01*
X7710425Y-6157276D02*
G75*
G03*
X7694895Y-6215231I-7765J-28978D01*
G01*
D14*
X8053262Y-5602761D02*
G75*
G03*
X8053262Y-5602761I-40000J0D01*
G01*
D10*
X7986179Y-5626563D02*
X8024816Y-5636916D01*
X8001708Y-5568607D02*
X8040345Y-5578960D01*
X8024816Y-5636916D02*
G75*
G03*
X8040345Y-5578960I7765J28978D01*
G01*
X8001708Y-5568607D02*
G75*
G03*
X7986179Y-5626563I-7765J-28978D01*
G01*
D14*
X8202837Y-6516613D02*
G75*
G03*
X8202837Y-6516613I-40000J0D01*
G01*
D10*
X8135754Y-6540414D02*
X8174391Y-6550767D01*
X8151283Y-6482459D02*
X8189920Y-6492811D01*
X8174391Y-6550767D02*
G75*
G03*
X8189920Y-6492811I7765J28978D01*
G01*
X8151283Y-6482459D02*
G75*
G03*
X8135754Y-6540414I-7765J-28978D01*
G01*
D14*
X8239315Y-7361855D02*
G75*
G03*
X8239315Y-7361855I-40000J0D01*
G01*
D10*
X8172232Y-7385656D02*
X8210869Y-7396009D01*
X8187761Y-7327701D02*
X8226398Y-7338054D01*
X8210869Y-7396009D02*
G75*
G03*
X8226398Y-7338054I7765J28978D01*
G01*
X8187761Y-7327701D02*
G75*
G03*
X8172232Y-7385656I-7765J-28978D01*
G01*
D14*
X8732365Y-5521766D02*
G75*
G03*
X8732365Y-5521766I-40000J0D01*
G01*
D10*
X8665282Y-5545568D02*
X8703919Y-5555921D01*
X8680811Y-5487612D02*
X8719448Y-5497965D01*
X8703919Y-5555921D02*
G75*
G03*
X8719448Y-5497965I7765J28978D01*
G01*
X8680811Y-5487612D02*
G75*
G03*
X8665282Y-5545568I-7765J-28978D01*
G01*
D14*
X8754021Y-9849433D02*
G75*
G03*
X8754021Y-9849433I-40000J0D01*
G01*
D10*
X8686938Y-9873234D02*
X8725575Y-9883587D01*
X8702467Y-9815279D02*
X8741104Y-9825632D01*
X8725575Y-9883587D02*
G75*
G03*
X8741104Y-9825632I7765J28978D01*
G01*
X8702467Y-9815279D02*
G75*
G03*
X8686938Y-9873234I-7765J-28978D01*
G01*
D14*
X9045305Y-9260764D02*
G75*
G03*
X9045305Y-9260764I-40000J0D01*
G01*
D10*
X8978222Y-9284566D02*
X9016859Y-9294919D01*
X8993751Y-9226610D02*
X9032388Y-9236963D01*
X9016859Y-9294919D02*
G75*
G03*
X9032388Y-9236963I7765J28978D01*
G01*
X8993751Y-9226610D02*
G75*
G03*
X8978222Y-9284566I-7765J-28978D01*
G01*
D14*
X9194879Y-10174616D02*
G75*
G03*
X9194879Y-10174616I-40000J0D01*
G01*
D10*
X9127796Y-10198417D02*
X9166433Y-10208770D01*
X9143325Y-10140462D02*
X9181962Y-10150814D01*
X9166433Y-10208770D02*
G75*
G03*
X9181962Y-10150814I7765J28978D01*
G01*
X9143325Y-10140462D02*
G75*
G03*
X9127796Y-10198417I-7765J-28978D01*
G01*
D14*
X9247071Y-8009344D02*
G75*
G03*
X9247071Y-8009344I-40000J0D01*
G01*
D10*
X9179988Y-8033146D02*
X9218625Y-8043498D01*
X9195517Y-7975190D02*
X9234154Y-7985543D01*
X9218625Y-8043498D02*
G75*
G03*
X9234154Y-7985543I7765J28978D01*
G01*
X9195517Y-7975190D02*
G75*
G03*
X9179988Y-8033146I-7765J-28978D01*
G01*
D14*
X9538355Y-7420676D02*
G75*
G03*
X9538355Y-7420676I-40000J0D01*
G01*
D10*
X9471272Y-7444477D02*
X9509909Y-7454830D01*
X9486801Y-7386521D02*
X9525438Y-7396874D01*
X9509909Y-7454830D02*
G75*
G03*
X9525438Y-7396874I7765J28978D01*
G01*
X9486801Y-7386521D02*
G75*
G03*
X9471272Y-7444477I-7765J-28978D01*
G01*
D14*
X9687929Y-8334527D02*
G75*
G03*
X9687929Y-8334527I-40000J0D01*
G01*
D10*
X9620846Y-8358328D02*
X9659483Y-8368681D01*
X9636376Y-8300373D02*
X9675013Y-8310726D01*
X9659483Y-8368681D02*
G75*
G03*
X9675013Y-8310726I7765J28978D01*
G01*
X9636376Y-8300373D02*
G75*
G03*
X9620846Y-8358328I-7765J-28978D01*
G01*
D14*
X9724408Y-9179769D02*
G75*
G03*
X9724408Y-9179769I-40000J0D01*
G01*
D10*
X9657324Y-9203571D02*
X9695961Y-9213923D01*
X9672854Y-9145615D02*
X9711491Y-9155968D01*
X9695961Y-9213923D02*
G75*
G03*
X9711491Y-9155968I7765J28978D01*
G01*
X9672854Y-9145615D02*
G75*
G03*
X9657324Y-9203571I-7765J-28978D01*
G01*
D14*
X9740121Y-6169255D02*
G75*
G03*
X9740121Y-6169255I-40000J0D01*
G01*
D10*
X9673038Y-6193057D02*
X9711675Y-6203410D01*
X9688567Y-6135101D02*
X9727204Y-6145454D01*
X9711675Y-6203410D02*
G75*
G03*
X9727204Y-6145454I7765J28978D01*
G01*
X9688567Y-6135101D02*
G75*
G03*
X9673038Y-6193057I-7765J-28978D01*
G01*
D14*
X10031405Y-5580587D02*
G75*
G03*
X10031405Y-5580587I-40000J0D01*
G01*
D10*
X9964322Y-5604388D02*
X10002959Y-5614741D01*
X9979851Y-5546433D02*
X10018488Y-5556786D01*
X10002959Y-5614741D02*
G75*
G03*
X10018488Y-5556786I7765J28978D01*
G01*
X9979851Y-5546433D02*
G75*
G03*
X9964322Y-5604388I-7765J-28978D01*
G01*
D14*
X10113474Y-13376585D02*
G75*
G03*
X10113474Y-13376585I-40000J0D01*
G01*
D10*
X10042670Y-13395321D02*
X10078922Y-13412226D01*
X10068027Y-13340943D02*
X10104279Y-13357848D01*
X10078922Y-13412226D02*
G75*
G03*
X10104279Y-13357848I12679J27189D01*
G01*
X10068027Y-13340943D02*
G75*
G03*
X10042670Y-13395321I-12679J-27189D01*
G01*
D14*
X10180980Y-6494438D02*
G75*
G03*
X10180980Y-6494438I-40000J0D01*
G01*
D10*
X10113897Y-6518240D02*
X10152534Y-6528592D01*
X10129426Y-6460284D02*
X10168063Y-6470637D01*
X10152534Y-6528592D02*
G75*
G03*
X10168063Y-6470637I7765J28978D01*
G01*
X10129426Y-6460284D02*
G75*
G03*
X10113897Y-6518240I-7765J-28978D01*
G01*
D14*
X10217458Y-7339680D02*
G75*
G03*
X10217458Y-7339680I-40000J0D01*
G01*
D10*
X10150375Y-7363482D02*
X10189012Y-7373835D01*
X10165904Y-7305526D02*
X10204541Y-7315879D01*
X10189012Y-7373835D02*
G75*
G03*
X10204541Y-7315879I7765J28978D01*
G01*
X10165904Y-7305526D02*
G75*
G03*
X10150375Y-7363482I-7765J-28978D01*
G01*
D14*
X10488925Y-10735036D02*
G75*
G03*
X10488925Y-10735036I-40000J0D01*
G01*
D10*
X10421842Y-10758837D02*
X10460479Y-10769190D01*
X10437372Y-10700881D02*
X10476009Y-10711234D01*
X10460479Y-10769190D02*
G75*
G03*
X10476009Y-10711234I7765J28978D01*
G01*
X10437372Y-10700881D02*
G75*
G03*
X10421842Y-10758837I-7765J-28978D01*
G01*
D14*
X10491168Y-13773381D02*
G75*
G03*
X10491168Y-13773381I-40000J0D01*
G01*
D10*
X10420363Y-13792118D02*
X10456615Y-13809023D01*
X10445720Y-13737740D02*
X10481972Y-13754645D01*
X10456615Y-13809023D02*
G75*
G03*
X10481972Y-13754645I12679J27189D01*
G01*
X10445720Y-13737740D02*
G75*
G03*
X10420363Y-13792118I-12679J-27189D01*
G01*
D14*
X10502554Y-12847440D02*
G75*
G03*
X10502554Y-12847440I-40000J0D01*
G01*
D10*
X10431749Y-12866177D02*
X10468002Y-12883082D01*
X10457107Y-12811799D02*
X10493359Y-12828703D01*
X10468002Y-12883082D02*
G75*
G03*
X10493359Y-12828703I12679J27189D01*
G01*
X10457106Y-12811799D02*
G75*
G03*
X10431749Y-12866177I-12679J-27189D01*
G01*
D14*
X10710508Y-5499592D02*
G75*
G03*
X10710508Y-5499592I-40000J0D01*
G01*
D10*
X10643425Y-5523393D02*
X10682062Y-5533746D01*
X10658954Y-5465438D02*
X10697591Y-5475790D01*
X10682062Y-5533746D02*
G75*
G03*
X10697591Y-5475790I7765J28978D01*
G01*
X10658954Y-5465438D02*
G75*
G03*
X10643425Y-5523393I-7765J-28978D01*
G01*
D14*
X10780209Y-10146367D02*
G75*
G03*
X10780209Y-10146367I-40000J0D01*
G01*
D10*
X10713126Y-10170168D02*
X10751763Y-10180521D01*
X10728655Y-10112213D02*
X10767292Y-10122566D01*
X10751763Y-10180521D02*
G75*
G03*
X10767292Y-10122566I7765J28978D01*
G01*
X10728655Y-10112213D02*
G75*
G03*
X10713126Y-10170168I-7765J-28978D01*
G01*
D14*
X10929784Y-11060218D02*
G75*
G03*
X10929784Y-11060218I-40000J0D01*
G01*
D10*
X10862701Y-11084020D02*
X10901338Y-11094373D01*
X10878230Y-11026064D02*
X10916867Y-11036417D01*
X10901338Y-11094373D02*
G75*
G03*
X10916867Y-11036417I7765J28978D01*
G01*
X10878230Y-11026064D02*
G75*
G03*
X10862701Y-11084020I-7765J-28978D01*
G01*
D14*
X10981976Y-8894947D02*
G75*
G03*
X10981976Y-8894947I-40000J0D01*
G01*
D10*
X10914893Y-8918748D02*
X10953530Y-8929101D01*
X10930422Y-8860793D02*
X10969059Y-8871145D01*
X10953530Y-8929101D02*
G75*
G03*
X10969059Y-8871145I7765J28978D01*
G01*
X10930422Y-8860793D02*
G75*
G03*
X10914893Y-8918748I-7765J-28978D01*
G01*
D14*
X11185405Y-12885601D02*
G75*
G03*
X11185405Y-12885601I-40000J0D01*
G01*
D10*
X11114600Y-12904337D02*
X11150852Y-12921242D01*
X11139957Y-12849959D02*
X11176209Y-12866864D01*
X11150852Y-12921242D02*
G75*
G03*
X11176209Y-12866864I12679J27189D01*
G01*
X11139957Y-12849959D02*
G75*
G03*
X11114600Y-12904337I-12679J-27189D01*
G01*
D14*
X11273260Y-8306278D02*
G75*
G03*
X11273260Y-8306278I-40000J0D01*
G01*
D10*
X11206176Y-8330080D02*
X11244813Y-8340432D01*
X11221706Y-8272124D02*
X11260343Y-8282477D01*
X11244813Y-8340432D02*
G75*
G03*
X11260343Y-8282477I7765J28978D01*
G01*
X11221706Y-8272124D02*
G75*
G03*
X11206176Y-8330080I-7765J-28978D01*
G01*
D14*
X11422834Y-9220130D02*
G75*
G03*
X11422834Y-9220130I-40000J0D01*
G01*
D10*
X11355751Y-9243931D02*
X11394388Y-9254284D01*
X11371280Y-9185975D02*
X11409917Y-9196328D01*
X11394388Y-9254284D02*
G75*
G03*
X11409917Y-9196328I7765J28978D01*
G01*
X11371280Y-9185975D02*
G75*
G03*
X11355751Y-9243931I-7765J-28978D01*
G01*
D14*
X11459312Y-10065372D02*
G75*
G03*
X11459312Y-10065372I-40000J0D01*
G01*
D10*
X11392229Y-10089173D02*
X11430866Y-10099526D01*
X11407758Y-10031218D02*
X11446395Y-10041570D01*
X11430866Y-10099526D02*
G75*
G03*
X11446395Y-10041570I7765J28978D01*
G01*
X11407758Y-10031218D02*
G75*
G03*
X11392229Y-10089173I-7765J-28978D01*
G01*
D14*
X11475026Y-7054858D02*
G75*
G03*
X11475026Y-7054858I-40000J0D01*
G01*
D10*
X11407943Y-7078659D02*
X11446580Y-7089012D01*
X11423472Y-7020704D02*
X11462109Y-7031057D01*
X11446580Y-7089012D02*
G75*
G03*
X11462109Y-7031057I7765J28978D01*
G01*
X11423472Y-7020704D02*
G75*
G03*
X11407943Y-7078659I-7765J-28978D01*
G01*
D14*
X11766310Y-6466189D02*
G75*
G03*
X11766310Y-6466189I-40000J0D01*
G01*
D10*
X11699227Y-6489991D02*
X11737864Y-6500344D01*
X11714756Y-6432035D02*
X11753393Y-6442388D01*
X11737864Y-6500344D02*
G75*
G03*
X11753393Y-6442388I7765J28978D01*
G01*
X11714756Y-6432035D02*
G75*
G03*
X11699227Y-6489991I-7765J-28978D01*
G01*
D14*
X11915884Y-7380041D02*
G75*
G03*
X11915884Y-7380041I-40000J0D01*
G01*
D10*
X11848801Y-7403842D02*
X11887438Y-7414195D01*
X11864330Y-7345887D02*
X11902967Y-7356239D01*
X11887438Y-7414195D02*
G75*
G03*
X11902967Y-7356239I7765J28978D01*
G01*
X11864330Y-7345887D02*
G75*
G03*
X11848801Y-7403842I-7765J-28978D01*
G01*
D14*
X11952362Y-8225283D02*
G75*
G03*
X11952362Y-8225283I-40000J0D01*
G01*
D10*
X11885279Y-8249084D02*
X11923916Y-8259437D01*
X11900809Y-8191129D02*
X11939446Y-8201482D01*
X11923916Y-8259437D02*
G75*
G03*
X11939446Y-8201482I7765J28978D01*
G01*
X11900809Y-8191129D02*
G75*
G03*
X11885279Y-8249084I-7765J-28978D01*
G01*
D14*
X12100288Y-14408573D02*
G75*
G03*
X12100288Y-14408573I-40000J0D01*
G01*
D10*
X12027968Y-14424554D02*
X12062609Y-14444554D01*
X12057968Y-14372592D02*
X12092609Y-14392592D01*
X12062609Y-14444554D02*
G75*
G03*
X12092609Y-14392592I15000J25981D01*
G01*
X12057968Y-14372592D02*
G75*
G03*
X12027968Y-14424554I-15000J-25981D01*
G01*
D14*
X12230404Y-11596103D02*
G75*
G03*
X12230404Y-11596103I-40000J0D01*
G01*
D10*
X12163321Y-11619905D02*
X12201958Y-11630258D01*
X12178850Y-11561949D02*
X12217487Y-11572302D01*
X12201958Y-11630258D02*
G75*
G03*
X12217487Y-11572302I7765J28978D01*
G01*
X12178850Y-11561949D02*
G75*
G03*
X12163321Y-11619905I-7765J-28978D01*
G01*
D14*
X12441961Y-14836778D02*
G75*
G03*
X12441961Y-14836778I-40000J0D01*
G01*
D10*
X12369641Y-14852759D02*
X12404282Y-14872759D01*
X12399641Y-14800797D02*
X12434282Y-14820797D01*
X12404282Y-14872759D02*
G75*
G03*
X12434282Y-14820797I15000J25981D01*
G01*
X12399641Y-14800797D02*
G75*
G03*
X12369641Y-14852759I-15000J-25981D01*
G01*
D14*
X12445413Y-6385194D02*
G75*
G03*
X12445413Y-6385194I-40000J0D01*
G01*
D10*
X12378330Y-6408996D02*
X12416967Y-6419349D01*
X12393859Y-6351040D02*
X12432496Y-6361393D01*
X12416967Y-6419349D02*
G75*
G03*
X12432496Y-6361393I7765J28978D01*
G01*
X12393859Y-6351040D02*
G75*
G03*
X12378330Y-6408996I-7765J-28978D01*
G01*
D14*
X12521688Y-11007435D02*
G75*
G03*
X12521688Y-11007435I-40000J0D01*
G01*
D10*
X12454605Y-11031236D02*
X12493242Y-11041589D01*
X12470134Y-10973281D02*
X12508771Y-10983634D01*
X12493242Y-11041589D02*
G75*
G03*
X12508771Y-10983634I7765J28978D01*
G01*
X12470134Y-10973281D02*
G75*
G03*
X12454605Y-11031236I-7765J-28978D01*
G01*
D14*
X12534005Y-13915352D02*
G75*
G03*
X12534005Y-13915352I-40000J0D01*
G01*
D10*
X12461685Y-13931333D02*
X12496326Y-13951333D01*
X12491685Y-13879372D02*
X12526326Y-13899372D01*
X12496326Y-13951333D02*
G75*
G03*
X12526326Y-13899372I15000J25981D01*
G01*
X12491685Y-13879372D02*
G75*
G03*
X12461685Y-13931333I-15000J-25981D01*
G01*
D14*
X12671262Y-11921286D02*
G75*
G03*
X12671262Y-11921286I-40000J0D01*
G01*
D10*
X12604179Y-11945088D02*
X12642816Y-11955440D01*
X12619708Y-11887132D02*
X12658345Y-11897485D01*
X12642816Y-11955440D02*
G75*
G03*
X12658345Y-11897485I7765J28978D01*
G01*
X12619708Y-11887132D02*
G75*
G03*
X12604179Y-11945088I-7765J-28978D01*
G01*
D14*
X12723454Y-9756015D02*
G75*
G03*
X12723454Y-9756015I-40000J0D01*
G01*
D10*
X12656371Y-9779816D02*
X12695008Y-9790169D01*
X12671900Y-9721861D02*
X12710537Y-9732213D01*
X12695008Y-9790169D02*
G75*
G03*
X12710537Y-9732213I7765J28978D01*
G01*
X12671900Y-9721861D02*
G75*
G03*
X12656371Y-9779816I-7765J-28978D01*
G01*
D14*
X13014738Y-9167346D02*
G75*
G03*
X13014738Y-9167346I-40000J0D01*
G01*
D10*
X12947655Y-9191148D02*
X12986292Y-9201500D01*
X12963184Y-9133192D02*
X13001821Y-9143545D01*
X12986292Y-9201500D02*
G75*
G03*
X13001821Y-9143545I7765J28978D01*
G01*
X12963184Y-9133192D02*
G75*
G03*
X12947655Y-9191148I-7765J-28978D01*
G01*
D14*
X13164313Y-10081198D02*
G75*
G03*
X13164313Y-10081198I-40000J0D01*
G01*
D10*
X13097230Y-10104999D02*
X13135867Y-10115352D01*
X13112759Y-10047043D02*
X13151396Y-10057396D01*
X13135867Y-10115352D02*
G75*
G03*
X13151396Y-10057396I7765J28978D01*
G01*
X13112759Y-10047043D02*
G75*
G03*
X13097230Y-10104999I-7765J-28978D01*
G01*
D14*
X13200791Y-10926440D02*
G75*
G03*
X13200791Y-10926440I-40000J0D01*
G01*
D10*
X13133708Y-10950241D02*
X13172345Y-10960594D01*
X13149237Y-10892286D02*
X13187874Y-10902638D01*
X13172345Y-10960594D02*
G75*
G03*
X13187874Y-10902638I7765J28978D01*
G01*
X13149237Y-10892286D02*
G75*
G03*
X13133708Y-10950241I-7765J-28978D01*
G01*
D14*
X13210932Y-14012882D02*
G75*
G03*
X13210932Y-14012882I-40000J0D01*
G01*
D10*
X13138611Y-14028863D02*
X13173252Y-14048863D01*
X13168611Y-13976901D02*
X13203252Y-13996901D01*
X13173252Y-14048863D02*
G75*
G03*
X13203252Y-13996901I15000J25981D01*
G01*
X13168611Y-13976901D02*
G75*
G03*
X13138611Y-14028863I-15000J-25981D01*
G01*
D14*
X13216505Y-7915926D02*
G75*
G03*
X13216505Y-7915926I-40000J0D01*
G01*
D10*
X13149421Y-7939727D02*
X13188058Y-7950080D01*
X13164951Y-7881772D02*
X13203588Y-7892125D01*
X13188058Y-7950080D02*
G75*
G03*
X13203588Y-7892125I7765J28978D01*
G01*
X13164951Y-7881772D02*
G75*
G03*
X13149421Y-7939727I-7765J-28978D01*
G01*
D14*
X13507788Y-7327257D02*
G75*
G03*
X13507788Y-7327257I-40000J0D01*
G01*
D10*
X13440705Y-7351059D02*
X13479342Y-7361412D01*
X13456235Y-7293103D02*
X13494872Y-7303456D01*
X13479342Y-7361412D02*
G75*
G03*
X13494872Y-7303456I7765J28978D01*
G01*
X13456235Y-7293103D02*
G75*
G03*
X13440705Y-7351059I-7765J-28978D01*
G01*
D14*
X13657363Y-8241109D02*
G75*
G03*
X13657363Y-8241109I-40000J0D01*
G01*
D10*
X13590280Y-8264910D02*
X13628917Y-8275263D01*
X13605809Y-8206955D02*
X13644446Y-8217307D01*
X13628917Y-8275263D02*
G75*
G03*
X13644446Y-8217307I7765J28978D01*
G01*
X13605809Y-8206955D02*
G75*
G03*
X13590280Y-8264910I-7765J-28978D01*
G01*
D14*
X13693841Y-9086351D02*
G75*
G03*
X13693841Y-9086351I-40000J0D01*
G01*
D10*
X13626758Y-9110153D02*
X13665395Y-9120505D01*
X13642287Y-9052197D02*
X13680924Y-9062550D01*
X13665395Y-9120505D02*
G75*
G03*
X13680924Y-9062550I7765J28978D01*
G01*
X13642287Y-9052197D02*
G75*
G03*
X13626758Y-9110153I-7765J-28978D01*
G01*
D14*
X14186891Y-7246262D02*
G75*
G03*
X14186891Y-7246262I-40000J0D01*
G01*
D10*
X14119808Y-7270064D02*
X14158445Y-7280417D01*
X14135337Y-7212108D02*
X14173974Y-7222461D01*
X14158445Y-7280417D02*
G75*
G03*
X14173974Y-7222461I7765J28978D01*
G01*
X14135337Y-7212108D02*
G75*
G03*
X14119808Y-7270064I-7765J-28978D01*
G01*
D14*
X15744290Y-7536767D02*
G75*
G03*
X15744290Y-7536767I-40000J0D01*
G01*
D10*
X15692736Y-7570922D02*
X15731373Y-7560569D01*
X15677207Y-7512966D02*
X15715844Y-7502613D01*
X15731373Y-7560569D02*
G75*
G03*
X15715844Y-7502613I-7765J28978D01*
G01*
X15677207Y-7512966D02*
G75*
G03*
X15692736Y-7570922I7765J-28978D01*
G01*
D14*
X15786365Y-8192211D02*
G75*
G03*
X15786365Y-8192211I-40000J0D01*
G01*
D10*
X15734811Y-8226365D02*
X15773448Y-8216013D01*
X15719282Y-8168410D02*
X15757919Y-8158057D01*
X15773448Y-8216013D02*
G75*
G03*
X15757919Y-8158057I-7765J28978D01*
G01*
X15719282Y-8168410D02*
G75*
G03*
X15734811Y-8226365I7765J-28978D01*
G01*
D14*
X16237340Y-9376856D02*
G75*
G03*
X16237340Y-9376856I-40000J0D01*
G01*
D10*
X16185786Y-9411010D02*
X16224423Y-9400658D01*
X16170257Y-9353055D02*
X16208894Y-9342702D01*
X16224423Y-9400658D02*
G75*
G03*
X16208894Y-9342702I-7765J28978D01*
G01*
X16170257Y-9353055D02*
G75*
G03*
X16185786Y-9411010I7765J-28978D01*
G01*
D14*
X16279415Y-10032300D02*
G75*
G03*
X16279415Y-10032300I-40000J0D01*
G01*
D10*
X16227861Y-10066454D02*
X16266498Y-10056101D01*
X16212332Y-10008499D02*
X16250969Y-9998146D01*
X16266498Y-10056101D02*
G75*
G03*
X16250969Y-9998146I-7765J28978D01*
G01*
X16212332Y-10008499D02*
G75*
G03*
X16227861Y-10066454I7765J-28978D01*
G01*
D14*
X16291913Y-7127072D02*
G75*
G03*
X16291913Y-7127072I-40000J0D01*
G01*
D10*
X16240359Y-7161226D02*
X16278996Y-7150873D01*
X16224829Y-7103271D02*
X16263466Y-7092918D01*
X16278996Y-7150873D02*
G75*
G03*
X16263466Y-7092918I-7765J28978D01*
G01*
X16224829Y-7103271D02*
G75*
G03*
X16240359Y-7161226I7765J-28978D01*
G01*
D14*
X16330751Y-8253399D02*
G75*
G03*
X16330751Y-8253399I-40000J0D01*
G01*
D10*
X16279197Y-8287553D02*
X16317834Y-8277200D01*
X16263668Y-8229597D02*
X16302305Y-8219244D01*
X16317834Y-8277200D02*
G75*
G03*
X16302305Y-8219244I-7765J28978D01*
G01*
X16263668Y-8229597D02*
G75*
G03*
X16279197Y-8287553I7765J-28978D01*
G01*
D14*
X16730390Y-11216945D02*
G75*
G03*
X16730390Y-11216945I-40000J0D01*
G01*
D10*
X16678836Y-11251099D02*
X16717473Y-11240746D01*
X16663307Y-11193143D02*
X16701944Y-11182791D01*
X16717473Y-11240746D02*
G75*
G03*
X16701944Y-11182791I-7765J28978D01*
G01*
X16663307Y-11193143D02*
G75*
G03*
X16678836Y-11251099I7765J-28978D01*
G01*
D14*
X16772465Y-11872389D02*
G75*
G03*
X16772465Y-11872389I-40000J0D01*
G01*
D10*
X16720911Y-11906543D02*
X16759548Y-11896190D01*
X16705382Y-11848587D02*
X16744019Y-11838234D01*
X16759548Y-11896190D02*
G75*
G03*
X16744019Y-11838234I-7765J28978D01*
G01*
X16705382Y-11848587D02*
G75*
G03*
X16720911Y-11906543I7765J-28978D01*
G01*
D14*
X16784963Y-8967161D02*
G75*
G03*
X16784963Y-8967161I-40000J0D01*
G01*
D10*
X16733409Y-9001315D02*
X16772046Y-8990962D01*
X16717880Y-8943359D02*
X16756517Y-8933007D01*
X16772046Y-8990962D02*
G75*
G03*
X16756517Y-8933007I-7765J28978D01*
G01*
X16717880Y-8943359D02*
G75*
G03*
X16733409Y-9001315I7765J-28978D01*
G01*
D14*
X16794197Y-14308642D02*
G75*
G03*
X16794197Y-14308642I-40000J0D01*
G01*
D10*
X16751876Y-14344623D02*
X16786517Y-14324623D01*
X16721876Y-14292661D02*
X16756517Y-14272661D01*
X16786517Y-14324623D02*
G75*
G03*
X16756517Y-14272661I-15000J25981D01*
G01*
X16721876Y-14292661D02*
G75*
G03*
X16751876Y-14344623I15000J-25981D01*
G01*
D14*
X16823801Y-10093487D02*
G75*
G03*
X16823801Y-10093487I-40000J0D01*
G01*
D10*
X16772247Y-10127642D02*
X16810884Y-10117289D01*
X16756718Y-10069686D02*
X16795355Y-10059333D01*
X16810884Y-10117289D02*
G75*
G03*
X16795355Y-10059333I-7765J28978D01*
G01*
X16756718Y-10069686D02*
G75*
G03*
X16772247Y-10127642I7765J-28978D01*
G01*
D14*
X17004480Y-14930863D02*
G75*
G03*
X17004480Y-14930863I-40000J0D01*
G01*
D10*
X16962159Y-14966843D02*
X16996800Y-14946843D01*
X16932159Y-14914882D02*
X16966800Y-14894882D01*
X16996800Y-14946843D02*
G75*
G03*
X16966800Y-14894882I-15000J25981D01*
G01*
X16932159Y-14914882D02*
G75*
G03*
X16962159Y-14966843I15000J-25981D01*
G01*
D14*
X17217123Y-13771172D02*
G75*
G03*
X17217123Y-13771172I-40000J0D01*
G01*
D10*
X17174803Y-13807153D02*
X17209444Y-13787153D01*
X17144803Y-13755191D02*
X17179444Y-13735191D01*
X17209444Y-13787153D02*
G75*
G03*
X17179444Y-13735191I-15000J25981D01*
G01*
X17144803Y-13755191D02*
G75*
G03*
X17174803Y-13807153I15000J-25981D01*
G01*
D14*
X17278013Y-10807250D02*
G75*
G03*
X17278013Y-10807250I-40000J0D01*
G01*
D10*
X17226459Y-10841404D02*
X17265096Y-10831051D01*
X17210930Y-10783448D02*
X17249567Y-10773095D01*
X17265096Y-10831051D02*
G75*
G03*
X17249567Y-10773095I-7765J28978D01*
G01*
X17210930Y-10783448D02*
G75*
G03*
X17226459Y-10841404I7765J-28978D01*
G01*
D14*
X17316851Y-11933576D02*
G75*
G03*
X17316851Y-11933576I-40000J0D01*
G01*
D10*
X17265297Y-11967730D02*
X17303934Y-11957377D01*
X17249768Y-11909775D02*
X17288405Y-11899422D01*
X17303934Y-11957377D02*
G75*
G03*
X17288405Y-11899422I-7765J28978D01*
G01*
X17249768Y-11909775D02*
G75*
G03*
X17265297Y-11967730I7765J-28978D01*
G01*
D14*
X17485768Y-6675699D02*
G75*
G03*
X17485768Y-6675699I-40000J0D01*
G01*
D10*
X17434214Y-6709854D02*
X17472851Y-6699501D01*
X17418685Y-6651898D02*
X17457322Y-6641545D01*
X17472851Y-6699501D02*
G75*
G03*
X17457322Y-6641545I-7765J28978D01*
G01*
X17418685Y-6651898D02*
G75*
G03*
X17434214Y-6709854I7765J-28978D01*
G01*
D14*
X17527843Y-7331143D02*
G75*
G03*
X17527843Y-7331143I-40000J0D01*
G01*
D10*
X17476290Y-7365297D02*
X17514927Y-7354945D01*
X17460760Y-7307342D02*
X17499397Y-7296989D01*
X17514927Y-7354945D02*
G75*
G03*
X17499397Y-7296989I-7765J28978D01*
G01*
X17460760Y-7307342D02*
G75*
G03*
X17476290Y-7365297I7765J-28978D01*
G01*
D14*
X17546153Y-14849068D02*
G75*
G03*
X17546153Y-14849068I-40000J0D01*
G01*
D10*
X17503832Y-14885049D02*
X17538473Y-14865049D01*
X17473832Y-14833087D02*
X17508473Y-14813087D01*
X17538473Y-14865049D02*
G75*
G03*
X17508473Y-14813087I-15000J25981D01*
G01*
X17473832Y-14833087D02*
G75*
G03*
X17503832Y-14885049I15000J-25981D01*
G01*
D14*
X17978819Y-8515788D02*
G75*
G03*
X17978819Y-8515788I-40000J0D01*
G01*
D10*
X17927265Y-8549942D02*
X17965902Y-8539590D01*
X17911736Y-8491987D02*
X17950373Y-8481634D01*
X17965902Y-8539590D02*
G75*
G03*
X17950373Y-8481634I-7765J28978D01*
G01*
X17911736Y-8491987D02*
G75*
G03*
X17927265Y-8549942I7765J-28978D01*
G01*
D14*
X18020894Y-9171232D02*
G75*
G03*
X18020894Y-9171232I-40000J0D01*
G01*
D10*
X17969340Y-9205386D02*
X18007977Y-9195033D01*
X17953811Y-9147431D02*
X17992448Y-9137078D01*
X18007977Y-9195033D02*
G75*
G03*
X17992448Y-9137078I-7765J28978D01*
G01*
X17953811Y-9147431D02*
G75*
G03*
X17969340Y-9205386I7765J-28978D01*
G01*
D14*
X18033391Y-6266004D02*
G75*
G03*
X18033391Y-6266004I-40000J0D01*
G01*
D10*
X17981837Y-6300158D02*
X18020474Y-6289805D01*
X17966308Y-6242203D02*
X18004945Y-6231850D01*
X18020474Y-6289805D02*
G75*
G03*
X18004945Y-6231850I-7765J28978D01*
G01*
X17966308Y-6242203D02*
G75*
G03*
X17981837Y-6300158I7765J-28978D01*
G01*
D14*
X18072229Y-7392331D02*
G75*
G03*
X18072229Y-7392331I-40000J0D01*
G01*
D10*
X18020675Y-7426485D02*
X18059312Y-7416132D01*
X18005146Y-7368529D02*
X18043783Y-7358176D01*
X18059312Y-7416132D02*
G75*
G03*
X18043783Y-7358176I-7765J28978D01*
G01*
X18005146Y-7368529D02*
G75*
G03*
X18020675Y-7426485I7765J-28978D01*
G01*
D14*
X18471869Y-10355877D02*
G75*
G03*
X18471869Y-10355877I-40000J0D01*
G01*
D10*
X18420315Y-10390031D02*
X18458952Y-10379678D01*
X18404786Y-10332075D02*
X18443423Y-10321723D01*
X18458952Y-10379678D02*
G75*
G03*
X18443423Y-10321723I-7765J28978D01*
G01*
X18404786Y-10332075D02*
G75*
G03*
X18420315Y-10390031I7765J-28978D01*
G01*
D14*
X18513944Y-11011321D02*
G75*
G03*
X18513944Y-11011321I-40000J0D01*
G01*
D10*
X18462390Y-11045475D02*
X18501027Y-11035122D01*
X18446861Y-10987519D02*
X18485498Y-10977167D01*
X18501027Y-11035122D02*
G75*
G03*
X18485498Y-10977167I-7765J28978D01*
G01*
X18446861Y-10987519D02*
G75*
G03*
X18462390Y-11045475I7765J-28978D01*
G01*
D14*
X18526442Y-8106093D02*
G75*
G03*
X18526442Y-8106093I-40000J0D01*
G01*
D10*
X18474888Y-8140247D02*
X18513525Y-8129894D01*
X18459358Y-8082291D02*
X18497995Y-8071939D01*
X18513525Y-8129894D02*
G75*
G03*
X18497995Y-8071939I-7765J28978D01*
G01*
X18459358Y-8082291D02*
G75*
G03*
X18474888Y-8140247I7765J-28978D01*
G01*
D14*
X18565280Y-9232419D02*
G75*
G03*
X18565280Y-9232419I-40000J0D01*
G01*
D10*
X18513726Y-9266574D02*
X18552363Y-9256221D01*
X18498197Y-9208618D02*
X18536834Y-9198265D01*
X18552363Y-9256221D02*
G75*
G03*
X18536834Y-9198265I-7765J28978D01*
G01*
X18498197Y-9208618D02*
G75*
G03*
X18513726Y-9266574I7765J-28978D01*
G01*
D14*
X18794953Y-13181765D02*
G75*
G03*
X18794953Y-13181765I-40000J0D01*
G01*
D10*
X18749506Y-13217407D02*
X18785758Y-13200502D01*
X18724148Y-13163028D02*
X18760401Y-13146123D01*
X18785758Y-13200502D02*
G75*
G03*
X18760401Y-13146123I-12679J27189D01*
G01*
X18724148Y-13163028D02*
G75*
G03*
X18749505Y-13217407I12679J-27189D01*
G01*
D14*
X18950206Y-13819945D02*
G75*
G03*
X18950206Y-13819945I-40000J0D01*
G01*
D10*
X18904758Y-13855587D02*
X18941010Y-13838682D01*
X18879401Y-13801208D02*
X18915653Y-13784303D01*
X18941010Y-13838682D02*
G75*
G03*
X18915653Y-13784303I-12679J27189D01*
G01*
X18879401Y-13801208D02*
G75*
G03*
X18904758Y-13855587I12679J-27189D01*
G01*
D14*
X19019492Y-9946182D02*
G75*
G03*
X19019492Y-9946182I-40000J0D01*
G01*
D10*
X18967938Y-9980336D02*
X19006575Y-9969983D01*
X18952409Y-9922380D02*
X18991046Y-9912027D01*
X19006575Y-9969983D02*
G75*
G03*
X18991046Y-9912027I-7765J28978D01*
G01*
X18952409Y-9922380D02*
G75*
G03*
X18967938Y-9980336I7765J-28978D01*
G01*
D14*
X19058330Y-11072508D02*
G75*
G03*
X19058330Y-11072508I-40000J0D01*
G01*
D10*
X19006776Y-11106662D02*
X19045413Y-11096310D01*
X18991247Y-11048707D02*
X19029884Y-11038354D01*
X19045413Y-11096310D02*
G75*
G03*
X19029884Y-11038354I-7765J28978D01*
G01*
X18991247Y-11048707D02*
G75*
G03*
X19006776Y-11106662I7765J-28978D01*
G01*
D14*
X19220673Y-5790097D02*
G75*
G03*
X19220673Y-5790097I-40000J0D01*
G01*
D10*
X19169119Y-5824251D02*
X19207756Y-5813898D01*
X19153590Y-5766295D02*
X19192227Y-5755943D01*
X19207756Y-5813898D02*
G75*
G03*
X19192227Y-5755943I-7765J28978D01*
G01*
X19153590Y-5766295D02*
G75*
G03*
X19169119Y-5824251I7765J-28978D01*
G01*
D14*
X19262748Y-6445541D02*
G75*
G03*
X19262748Y-6445541I-40000J0D01*
G01*
D10*
X19211194Y-6479695D02*
X19249831Y-6469342D01*
X19195665Y-6421739D02*
X19234302Y-6411386D01*
X19249831Y-6469342D02*
G75*
G03*
X19234302Y-6411386I-7765J28978D01*
G01*
X19195665Y-6421739D02*
G75*
G03*
X19211194Y-6479695I7765J-28978D01*
G01*
D14*
X19263114Y-12683200D02*
G75*
G03*
X19263114Y-12683200I-40000J0D01*
G01*
D10*
X19217666Y-12718842D02*
X19253918Y-12701937D01*
X19192309Y-12664463D02*
X19228561Y-12647559D01*
X19253918Y-12701937D02*
G75*
G03*
X19228561Y-12647559I-12679J27189D01*
G01*
X19192309Y-12664463D02*
G75*
G03*
X19217666Y-12718842I12679J-27189D01*
G01*
D14*
X19496946Y-13785671D02*
G75*
G03*
X19496946Y-13785671I-40000J0D01*
G01*
D10*
X19451499Y-13821313D02*
X19487751Y-13804408D01*
X19426142Y-13766934D02*
X19462394Y-13750030D01*
X19487751Y-13804408D02*
G75*
G03*
X19462394Y-13750030I-12679J27189D01*
G01*
X19426142Y-13766934D02*
G75*
G03*
X19451499Y-13821313I12679J-27189D01*
G01*
D14*
X19713723Y-7630185D02*
G75*
G03*
X19713723Y-7630185I-40000J0D01*
G01*
D10*
X19662169Y-7664340D02*
X19700806Y-7653987D01*
X19646640Y-7606384D02*
X19685277Y-7596031D01*
X19700806Y-7653987D02*
G75*
G03*
X19685277Y-7596031I-7765J28978D01*
G01*
X19646640Y-7606384D02*
G75*
G03*
X19662169Y-7664340I7765J-28978D01*
G01*
D14*
X19755798Y-8285629D02*
G75*
G03*
X19755798Y-8285629I-40000J0D01*
G01*
D10*
X19704245Y-8319784D02*
X19742882Y-8309431D01*
X19688715Y-8261828D02*
X19727352Y-8251475D01*
X19742882Y-8309431D02*
G75*
G03*
X19727352Y-8251475I-7765J28978D01*
G01*
X19688715Y-8261828D02*
G75*
G03*
X19704245Y-8319784I7765J-28978D01*
G01*
D14*
X19768296Y-5380402D02*
G75*
G03*
X19768296Y-5380402I-40000J0D01*
G01*
D10*
X19716742Y-5414556D02*
X19755379Y-5404203D01*
X19701213Y-5356600D02*
X19739850Y-5346247D01*
X19755379Y-5404203D02*
G75*
G03*
X19739850Y-5346247I-7765J28978D01*
G01*
X19701213Y-5356600D02*
G75*
G03*
X19716742Y-5414556I7765J-28978D01*
G01*
D14*
X19807134Y-6506728D02*
G75*
G03*
X19807134Y-6506728I-40000J0D01*
G01*
D10*
X19755580Y-6540882D02*
X19794217Y-6530529D01*
X19740051Y-6482927D02*
X19778688Y-6472574D01*
X19794217Y-6530529D02*
G75*
G03*
X19778688Y-6472574I-7765J28978D01*
G01*
X19740051Y-6482927D02*
G75*
G03*
X19755580Y-6540882I7765J-28978D01*
G01*
D14*
X20206774Y-9470274D02*
G75*
G03*
X20206774Y-9470274I-40000J0D01*
G01*
D10*
X20155220Y-9504428D02*
X20193857Y-9494076D01*
X20139691Y-9446473D02*
X20178328Y-9436120D01*
X20193857Y-9494076D02*
G75*
G03*
X20178328Y-9436120I-7765J28978D01*
G01*
X20139691Y-9446473D02*
G75*
G03*
X20155220Y-9504428I7765J-28978D01*
G01*
D14*
X20248849Y-10125718D02*
G75*
G03*
X20248849Y-10125718I-40000J0D01*
G01*
D10*
X20197295Y-10159872D02*
X20235932Y-10149520D01*
X20181766Y-10101917D02*
X20220403Y-10091564D01*
X20235932Y-10149520D02*
G75*
G03*
X20220403Y-10091564I-7765J28978D01*
G01*
X20181766Y-10101917D02*
G75*
G03*
X20197295Y-10159872I7765J-28978D01*
G01*
D14*
X20261346Y-7220490D02*
G75*
G03*
X20261346Y-7220490I-40000J0D01*
G01*
D10*
X20209792Y-7254644D02*
X20248429Y-7244292D01*
X20194263Y-7196689D02*
X20232900Y-7186336D01*
X20248429Y-7244292D02*
G75*
G03*
X20232900Y-7186336I-7765J28978D01*
G01*
X20194263Y-7196689D02*
G75*
G03*
X20209792Y-7254644I7765J-28978D01*
G01*
D14*
X20300184Y-8346817D02*
G75*
G03*
X20300184Y-8346817I-40000J0D01*
G01*
D10*
X20248630Y-8380971D02*
X20287267Y-8370618D01*
X20233101Y-8323015D02*
X20271738Y-8312663D01*
X20287267Y-8370618D02*
G75*
G03*
X20271738Y-8312663I-7765J28978D01*
G01*
X20233101Y-8323015D02*
G75*
G03*
X20248630Y-8380971I7765J-28978D01*
G01*
D14*
X20754397Y-9060579D02*
G75*
G03*
X20754397Y-9060579I-40000J0D01*
G01*
D10*
X20702843Y-9094733D02*
X20741480Y-9084380D01*
X20687313Y-9036778D02*
X20725950Y-9026425D01*
X20741480Y-9084380D02*
G75*
G03*
X20725950Y-9026425I-7765J28978D01*
G01*
X20687313Y-9036778D02*
G75*
G03*
X20702843Y-9094733I7765J-28978D01*
G01*
D14*
X20793235Y-10186906D02*
G75*
G03*
X20793235Y-10186906I-40000J0D01*
G01*
D10*
X20741681Y-10221060D02*
X20780318Y-10210707D01*
X20726152Y-10163104D02*
X20764789Y-10152751D01*
X20780318Y-10210707D02*
G75*
G03*
X20764789Y-10152751I-7765J28978D01*
G01*
X20726152Y-10163104D02*
G75*
G03*
X20741681Y-10221060I7765J-28978D01*
G01*
D14*
X21198816Y-5812271D02*
G75*
G03*
X21198816Y-5812271I-40000J0D01*
G01*
D10*
X21147262Y-5846425D02*
X21185899Y-5836073D01*
X21131733Y-5788470D02*
X21170370Y-5778117D01*
X21185899Y-5836073D02*
G75*
G03*
X21170370Y-5778117I-7765J28978D01*
G01*
X21131733Y-5788470D02*
G75*
G03*
X21147262Y-5846425I7765J-28978D01*
G01*
D14*
X21240891Y-6467715D02*
G75*
G03*
X21240891Y-6467715I-40000J0D01*
G01*
D10*
X21189337Y-6501869D02*
X21227974Y-6491517D01*
X21173808Y-6443914D02*
X21212445Y-6433561D01*
X21227974Y-6491517D02*
G75*
G03*
X21212445Y-6433561I-7765J28978D01*
G01*
X21173808Y-6443914D02*
G75*
G03*
X21189337Y-6501869I7765J-28978D01*
G01*
D14*
X21691866Y-7652360D02*
G75*
G03*
X21691866Y-7652360I-40000J0D01*
G01*
D10*
X21640312Y-7686514D02*
X21678949Y-7676161D01*
X21624783Y-7628559D02*
X21663420Y-7618206D01*
X21678949Y-7676161D02*
G75*
G03*
X21663420Y-7618206I-7765J28978D01*
G01*
X21624783Y-7628559D02*
G75*
G03*
X21640312Y-7686514I7765J-28978D01*
G01*
D14*
X21733941Y-8307804D02*
G75*
G03*
X21733941Y-8307804I-40000J0D01*
G01*
D10*
X21682387Y-8341958D02*
X21721024Y-8331605D01*
X21666858Y-8284003D02*
X21705495Y-8273650D01*
X21721024Y-8331605D02*
G75*
G03*
X21705495Y-8273650I-7765J28978D01*
G01*
X21666858Y-8284003D02*
G75*
G03*
X21682387Y-8341958I7765J-28978D01*
G01*
D14*
X21746439Y-5402576D02*
G75*
G03*
X21746439Y-5402576I-40000J0D01*
G01*
D10*
X21694885Y-5436730D02*
X21733522Y-5426377D01*
X21679356Y-5378775D02*
X21717993Y-5368422D01*
X21733522Y-5426377D02*
G75*
G03*
X21717993Y-5368422I-7765J28978D01*
G01*
X21679356Y-5378775D02*
G75*
G03*
X21694885Y-5436730I7765J-28978D01*
G01*
D14*
X21785277Y-6528903D02*
G75*
G03*
X21785277Y-6528903I-40000J0D01*
G01*
D10*
X21733723Y-6563057D02*
X21772360Y-6552704D01*
X21718194Y-6505101D02*
X21756831Y-6494748D01*
X21772360Y-6552704D02*
G75*
G03*
X21756831Y-6494748I-7765J28978D01*
G01*
X21718194Y-6505101D02*
G75*
G03*
X21733723Y-6563057I7765J-28978D01*
G01*
D14*
X22184916Y-9492449D02*
G75*
G03*
X22184916Y-9492449I-40000J0D01*
G01*
D10*
X22133362Y-9526603D02*
X22171999Y-9516250D01*
X22117833Y-9468647D02*
X22156470Y-9458295D01*
X22171999Y-9516250D02*
G75*
G03*
X22156470Y-9458295I-7765J28978D01*
G01*
X22117833Y-9468647D02*
G75*
G03*
X22133362Y-9526603I7765J-28978D01*
G01*
D14*
X22226991Y-10147893D02*
G75*
G03*
X22226991Y-10147893I-40000J0D01*
G01*
D10*
X22175438Y-10182047D02*
X22214075Y-10171694D01*
X22159908Y-10124091D02*
X22198545Y-10113739D01*
X22214075Y-10171694D02*
G75*
G03*
X22198545Y-10113739I-7765J28978D01*
G01*
X22159908Y-10124091D02*
G75*
G03*
X22175438Y-10182047I7765J-28978D01*
G01*
D14*
X22239489Y-7242665D02*
G75*
G03*
X22239489Y-7242665I-40000J0D01*
G01*
D10*
X22187935Y-7276819D02*
X22226572Y-7266466D01*
X22172406Y-7218863D02*
X22211043Y-7208511D01*
X22226572Y-7266466D02*
G75*
G03*
X22211043Y-7208511I-7765J28978D01*
G01*
X22172406Y-7218863D02*
G75*
G03*
X22187935Y-7276819I7765J-28978D01*
G01*
D14*
X22278327Y-8368991D02*
G75*
G03*
X22278327Y-8368991I-40000J0D01*
G01*
D10*
X22226773Y-8403146D02*
X22265410Y-8392793D01*
X22211244Y-8345190D02*
X22249881Y-8334837D01*
X22265410Y-8392793D02*
G75*
G03*
X22249881Y-8334837I-7765J28978D01*
G01*
X22211244Y-8345190D02*
G75*
G03*
X22226773Y-8403146I7765J-28978D01*
G01*
D14*
X22732539Y-9082754D02*
G75*
G03*
X22732539Y-9082754I-40000J0D01*
G01*
D10*
X22680985Y-9116908D02*
X22719622Y-9106555D01*
X22665456Y-9058952D02*
X22704093Y-9048599D01*
X22719622Y-9106555D02*
G75*
G03*
X22704093Y-9048599I-7765J28978D01*
G01*
X22665456Y-9058952D02*
G75*
G03*
X22680985Y-9116908I7765J-28978D01*
G01*
D14*
X22771377Y-10209080D02*
G75*
G03*
X22771377Y-10209080I-40000J0D01*
G01*
D10*
X22719823Y-10243234D02*
X22758460Y-10232882D01*
X22704294Y-10185279D02*
X22742931Y-10174926D01*
X22758460Y-10232882D02*
G75*
G03*
X22742931Y-10174926I-7765J28978D01*
G01*
X22704294Y-10185279D02*
G75*
G03*
X22719823Y-10243234I7765J-28978D01*
G01*
D14*
X23662537Y-6796828D02*
G75*
G03*
X23662537Y-6796828I-40000J0D01*
G01*
D10*
X23608050Y-6829845D02*
X23647443Y-6822899D01*
X23597631Y-6770757D02*
X23637024Y-6763811D01*
X23647443Y-6822899D02*
G75*
G03*
X23637024Y-6763811I-5209J29544D01*
G01*
X23597631Y-6770757D02*
G75*
G03*
X23608050Y-6829845I5209J-29544D01*
G01*
D14*
X23677748Y-6140211D02*
G75*
G03*
X23677748Y-6140211I-40000J0D01*
G01*
D10*
X23623261Y-6173228D02*
X23662653Y-6166282D01*
X23612842Y-6114140D02*
X23652234Y-6107194D01*
X23662653Y-6166282D02*
G75*
G03*
X23652235Y-6107194I-5209J29544D01*
G01*
X23612842Y-6114140D02*
G75*
G03*
X23623261Y-6173228I5209J-29544D01*
G01*
D14*
X23993337Y-8672887D02*
G75*
G03*
X23993337Y-8672887I-40000J0D01*
G01*
D10*
X23938850Y-8705904D02*
X23978242Y-8698958D01*
X23928431Y-8646815D02*
X23967823Y-8639870D01*
X23978242Y-8698958D02*
G75*
G03*
X23967823Y-8639870I-5209J29544D01*
G01*
X23928431Y-8646816D02*
G75*
G03*
X23938850Y-8705904I5209J-29544D01*
G01*
D14*
X24008547Y-8016270D02*
G75*
G03*
X24008547Y-8016270I-40000J0D01*
G01*
D10*
X23954061Y-8049287D02*
X23993453Y-8042341D01*
X23943642Y-7990199D02*
X23983034Y-7983253D01*
X23993453Y-8042341D02*
G75*
G03*
X23983034Y-7983253I-5209J29544D01*
G01*
X23943642Y-7990199D02*
G75*
G03*
X23954061Y-8049287I5209J-29544D01*
G01*
D14*
X24199519Y-6905229D02*
G75*
G03*
X24199519Y-6905229I-40000J0D01*
G01*
D10*
X24145032Y-6938246D02*
X24184424Y-6931300D01*
X24134613Y-6879158D02*
X24174005Y-6872212D01*
X24184424Y-6931300D02*
G75*
G03*
X24174005Y-6872212I-5209J29544D01*
G01*
X24134613Y-6879158D02*
G75*
G03*
X24145032Y-6938246I5209J-29544D01*
G01*
D14*
X24258994Y-5779803D02*
G75*
G03*
X24258994Y-5779803I-40000J0D01*
G01*
D10*
X24204507Y-5812820D02*
X24243900Y-5805875D01*
X24194088Y-5753732D02*
X24233481Y-5746786D01*
X24243900Y-5805874D02*
G75*
G03*
X24233481Y-5746786I-5209J29544D01*
G01*
X24194088Y-5753732D02*
G75*
G03*
X24204507Y-5812820I5209J-29544D01*
G01*
D14*
X24324136Y-10548945D02*
G75*
G03*
X24324136Y-10548945I-40000J0D01*
G01*
D10*
X24269650Y-10581963D02*
X24309042Y-10575017D01*
X24259231Y-10522874D02*
X24298623Y-10515928D01*
X24309042Y-10575017D02*
G75*
G03*
X24298623Y-10515928I-5209J29544D01*
G01*
X24259231Y-10522874D02*
G75*
G03*
X24269650Y-10581963I5209J-29544D01*
G01*
D14*
X24339347Y-9892329D02*
G75*
G03*
X24339347Y-9892329I-40000J0D01*
G01*
D10*
X24284861Y-9925346D02*
X24324253Y-9918400D01*
X24274442Y-9866257D02*
X24313834Y-9859311D01*
X24324253Y-9918400D02*
G75*
G03*
X24313834Y-9859311I-5209J29544D01*
G01*
X24274442Y-9866257D02*
G75*
G03*
X24284860Y-9925346I5209J-29544D01*
G01*
D14*
X24530318Y-8781288D02*
G75*
G03*
X24530318Y-8781288I-40000J0D01*
G01*
D10*
X24475832Y-8814305D02*
X24515224Y-8807359D01*
X24465413Y-8755216D02*
X24504805Y-8748271D01*
X24515224Y-8807359D02*
G75*
G03*
X24504805Y-8748271I-5209J29544D01*
G01*
X24465413Y-8755217D02*
G75*
G03*
X24475831Y-8814305I5209J-29544D01*
G01*
D14*
X24589794Y-7655862D02*
G75*
G03*
X24589794Y-7655862I-40000J0D01*
G01*
D10*
X24535307Y-7688879D02*
X24574699Y-7681933D01*
X24524888Y-7629791D02*
X24564280Y-7622845D01*
X24574699Y-7681933D02*
G75*
G03*
X24564281Y-7622845I-5209J29544D01*
G01*
X24524888Y-7629791D02*
G75*
G03*
X24535307Y-7688879I5209J-29544D01*
G01*
D14*
X24861118Y-10657346D02*
G75*
G03*
X24861118Y-10657346I-40000J0D01*
G01*
D10*
X24806631Y-10690364D02*
X24846024Y-10683418D01*
X24796212Y-10631275D02*
X24835605Y-10624329D01*
X24846024Y-10683418D02*
G75*
G03*
X24835605Y-10624329I-5209J29544D01*
G01*
X24796212Y-10631275D02*
G75*
G03*
X24806631Y-10690364I5209J-29544D01*
G01*
D14*
X24920594Y-9531921D02*
G75*
G03*
X24920594Y-9531921I-40000J0D01*
G01*
D10*
X24866107Y-9564938D02*
X24905499Y-9557992D01*
X24855688Y-9505850D02*
X24895080Y-9498904D01*
X24905499Y-9557992D02*
G75*
G03*
X24895080Y-9498904I-5209J29544D01*
G01*
X24855688Y-9505850D02*
G75*
G03*
X24866107Y-9564938I5209J-29544D01*
G01*
D15*
X14563247Y-13129262D02*
X14563247Y-13210542D01*
X14522607Y-13169902D02*
X14603887Y-13169902D01*
X14817247Y-13129262D02*
X14817247Y-13210542D01*
X14776607Y-13169902D02*
X14857887Y-13169902D01*
X15071247Y-13129262D02*
X15071247Y-13210542D01*
X15030607Y-13169902D02*
X15111887Y-13169902D01*
X15325247Y-13129262D02*
X15325247Y-13210542D01*
X15284607Y-13169902D02*
X15365887Y-13169902D01*
D16*
X14354803Y-14177458D02*
X14354803Y-14106747D01*
X14284092Y-14106747D01*
X14284092Y-14177458D01*
X14354803Y-14177458D01*
X14354803Y-14427458D02*
X14354803Y-14356747D01*
X14284092Y-14356747D01*
X14284092Y-14427458D01*
X14354803Y-14427458D01*
X14354803Y-14677458D02*
X14354803Y-14606747D01*
X14284092Y-14606747D01*
X14284092Y-14677458D01*
X14354803Y-14677458D01*
D17*
X11128113Y-4721995D02*
X11179113Y-4670995D01*
X11128113Y-4619995D01*
X11077113Y-4670995D01*
X11128113Y-4721995D01*
X11366795Y-4808868D02*
X11417795Y-4757868D01*
X11366795Y-4706868D01*
X11315795Y-4757868D01*
X11366795Y-4808868D01*
X11605477Y-4895741D02*
X11656477Y-4844741D01*
X11605477Y-4793741D01*
X11554477Y-4844741D01*
X11605477Y-4895741D01*
X11736225Y-3051221D02*
X11787225Y-3000221D01*
X11736225Y-2949221D01*
X11685225Y-3000221D01*
X11736225Y-3051221D01*
X11844159Y-4982614D02*
X11895159Y-4931614D01*
X11844159Y-4880614D01*
X11793159Y-4931614D01*
X11844159Y-4982614D01*
X11974907Y-3138094D02*
X12025907Y-3087094D01*
X11974907Y-3036094D01*
X11923907Y-3087094D01*
X11974907Y-3138094D01*
X12082841Y-5069487D02*
X12133841Y-5018487D01*
X12082841Y-4967487D01*
X12031841Y-5018487D01*
X12082841Y-5069487D01*
X12213589Y-3224967D02*
X12264589Y-3173967D01*
X12213589Y-3122967D01*
X12162589Y-3173967D01*
X12213589Y-3224967D01*
X12321523Y-5156360D02*
X12372523Y-5105360D01*
X12321523Y-5054360D01*
X12270523Y-5105360D01*
X12321523Y-5156360D01*
X12452271Y-3311840D02*
X12503271Y-3260840D01*
X12452271Y-3209840D01*
X12401271Y-3260840D01*
X12452271Y-3311840D01*
X12560205Y-5243233D02*
X12611205Y-5192233D01*
X12560205Y-5141233D01*
X12509205Y-5192233D01*
X12560205Y-5243233D01*
X12690953Y-3398714D02*
X12741953Y-3347714D01*
X12690953Y-3296714D01*
X12639953Y-3347714D01*
X12690953Y-3398714D01*
X12798887Y-5330106D02*
X12849887Y-5279106D01*
X12798887Y-5228106D01*
X12747887Y-5279106D01*
X12798887Y-5330106D01*
X12929635Y-3485587D02*
X12980635Y-3434587D01*
X12929635Y-3383587D01*
X12878635Y-3434587D01*
X12929635Y-3485587D01*
X13037569Y-5416980D02*
X13088569Y-5365980D01*
X13037569Y-5314980D01*
X12986569Y-5365980D01*
X13037569Y-5416980D01*
X13168317Y-3572460D02*
X13219317Y-3521460D01*
X13168317Y-3470460D01*
X13117317Y-3521460D01*
X13168317Y-3572460D01*
X13276251Y-5503853D02*
X13327251Y-5452853D01*
X13276251Y-5401853D01*
X13225251Y-5452853D01*
X13276251Y-5503853D01*
X13406999Y-3659333D02*
X13457999Y-3608333D01*
X13406999Y-3557333D01*
X13355999Y-3608333D01*
X13406999Y-3659333D01*
X13514933Y-5590726D02*
X13565933Y-5539726D01*
X13514933Y-5488726D01*
X13463933Y-5539726D01*
X13514933Y-5590726D01*
X13645680Y-3746206D02*
X13696680Y-3695206D01*
X13645680Y-3644206D01*
X13594680Y-3695206D01*
X13645680Y-3746206D01*
X13753614Y-5677599D02*
X13804614Y-5626599D01*
X13753614Y-5575599D01*
X13702614Y-5626599D01*
X13753614Y-5677599D01*
X13884362Y-3833079D02*
X13935362Y-3782079D01*
X13884362Y-3731079D01*
X13833362Y-3782079D01*
X13884362Y-3833079D01*
X13992296Y-5764472D02*
X14043296Y-5713472D01*
X13992296Y-5662472D01*
X13941296Y-5713472D01*
X13992296Y-5764472D01*
X14123044Y-3919952D02*
X14174044Y-3868952D01*
X14123044Y-3817952D01*
X14072044Y-3868952D01*
X14123044Y-3919952D01*
X14230978Y-5851345D02*
X14281978Y-5800345D01*
X14230978Y-5749345D01*
X14179978Y-5800345D01*
X14230978Y-5851345D01*
X14361726Y-4006825D02*
X14412726Y-3955825D01*
X14361726Y-3904825D01*
X14310726Y-3955825D01*
X14361726Y-4006825D01*
X14469660Y-5938218D02*
X14520660Y-5887218D01*
X14469660Y-5836218D01*
X14418660Y-5887218D01*
X14469660Y-5938218D01*
X14600408Y-4093699D02*
X14651408Y-4042699D01*
X14600408Y-3991699D01*
X14549408Y-4042699D01*
X14600408Y-4093699D01*
X14708342Y-6025091D02*
X14759342Y-5974091D01*
X14708342Y-5923091D01*
X14657342Y-5974091D01*
X14708342Y-6025091D01*
X14839090Y-4180572D02*
X14890090Y-4129572D01*
X14839090Y-4078572D01*
X14788090Y-4129572D01*
X14839090Y-4180572D01*
X14947024Y-6111964D02*
X14998024Y-6060964D01*
X14947024Y-6009964D01*
X14896024Y-6060964D01*
X14947024Y-6111964D01*
X15077772Y-4267445D02*
X15128772Y-4216445D01*
X15077772Y-4165445D01*
X15026772Y-4216445D01*
X15077772Y-4267445D01*
X15185706Y-6198838D02*
X15236706Y-6147838D01*
X15185706Y-6096838D01*
X15134706Y-6147838D01*
X15185706Y-6198838D01*
X15316454Y-4354318D02*
X15367454Y-4303318D01*
X15316454Y-4252318D01*
X15265454Y-4303318D01*
X15316454Y-4354318D01*
X15424388Y-6285711D02*
X15475388Y-6234711D01*
X15424388Y-6183711D01*
X15373388Y-6234711D01*
X15424388Y-6285711D01*
X15555136Y-4441191D02*
X15606136Y-4390191D01*
X15555136Y-4339191D01*
X15504136Y-4390191D01*
X15555136Y-4441191D01*
X15663070Y-6372584D02*
X15714070Y-6321584D01*
X15663070Y-6270584D01*
X15612070Y-6321584D01*
X15663070Y-6372584D01*
X15793818Y-4528064D02*
X15844818Y-4477064D01*
X15793818Y-4426064D01*
X15742818Y-4477064D01*
X15793818Y-4528064D01*
X15858640Y-5768013D02*
X15909640Y-5717013D01*
X15858640Y-5666013D01*
X15807640Y-5717013D01*
X15858640Y-5768013D01*
X15945513Y-5529331D02*
X15996513Y-5478331D01*
X15945513Y-5427331D01*
X15894513Y-5478331D01*
X15945513Y-5529331D01*
X16032386Y-5290649D02*
X16083386Y-5239649D01*
X16032386Y-5188649D01*
X15981386Y-5239649D01*
X16032386Y-5290649D01*
X16032500Y-4614937D02*
X16083500Y-4563937D01*
X16032500Y-4512937D01*
X15981500Y-4563937D01*
X16032500Y-4614937D01*
X16271182Y-4701810D02*
X16322182Y-4650810D01*
X16271182Y-4599810D01*
X16220182Y-4650810D01*
X16271182Y-4701810D01*
D10*
X14969447Y-13732102D02*
X15169447Y-13932102D01*
X15169447Y-13732102D02*
X14969447Y-13932102D01*
X15169447Y-13832102D02*
G75*
G03*
X15169447Y-13832102I-100000J0D01*
G01*
X15044447Y-13922102D02*
X15094447Y-13922102D01*
X15044447Y-13742102D02*
X15094447Y-13742102D01*
X15094447Y-13922102D02*
G75*
G03*
X15094447Y-13742102I0J90000D01*
G01*
X15044447Y-13742102D02*
G75*
G03*
X15044447Y-13922102I0J-90000D01*
G01*
X14969447Y-14852102D02*
X15169447Y-15052102D01*
X15169447Y-14852102D02*
X14969447Y-15052102D01*
X15169447Y-14952102D02*
G75*
G03*
X15169447Y-14952102I-100000J0D01*
G01*
X15044447Y-15042102D02*
X15094447Y-15042102D01*
X15044447Y-14862102D02*
X15094447Y-14862102D01*
X15094447Y-15042102D02*
G75*
G03*
X15094447Y-14862102I0J90000D01*
G01*
X15044447Y-14862102D02*
G75*
G03*
X15044447Y-15042102I0J-90000D01*
G01*
X4324875Y-15947346D02*
X4324875Y-15747346D01*
X4372494Y-15747346D01*
X4401066Y-15756870D01*
X4420113Y-15775917D01*
X4429637Y-15794965D01*
X4439161Y-15833060D01*
X4439161Y-15861632D01*
X4429637Y-15899727D01*
X4420113Y-15918775D01*
X4401066Y-15937822D01*
X4372494Y-15947346D01*
X4324875Y-15947346D01*
X4524875Y-15947346D02*
X4524875Y-15814013D01*
X4524875Y-15852108D02*
X4534399Y-15833060D01*
X4543923Y-15823536D01*
X4562971Y-15814013D01*
X4582018Y-15814013D01*
X4648685Y-15947346D02*
X4648685Y-15814013D01*
X4648685Y-15747346D02*
X4639161Y-15756870D01*
X4648685Y-15766394D01*
X4658209Y-15756870D01*
X4648685Y-15747346D01*
X4648685Y-15766394D01*
X4772494Y-15947346D02*
X4753447Y-15937822D01*
X4743923Y-15918775D01*
X4743923Y-15747346D01*
X4877256Y-15947346D02*
X4858209Y-15937822D01*
X4848685Y-15918775D01*
X4848685Y-15747346D01*
X5105828Y-15947346D02*
X5105828Y-15747346D01*
X5172494Y-15890203D01*
X5239161Y-15747346D01*
X5239161Y-15947346D01*
X5420113Y-15947346D02*
X5420113Y-15842584D01*
X5410590Y-15823536D01*
X5391542Y-15814013D01*
X5353447Y-15814013D01*
X5334399Y-15823536D01*
X5420113Y-15937822D02*
X5401066Y-15947346D01*
X5353447Y-15947346D01*
X5334399Y-15937822D01*
X5324875Y-15918775D01*
X5324875Y-15899727D01*
X5334399Y-15880679D01*
X5353447Y-15871156D01*
X5401066Y-15871156D01*
X5420113Y-15861632D01*
X5515352Y-15814013D02*
X5515352Y-16014013D01*
X5515352Y-15823536D02*
X5534399Y-15814013D01*
X5572494Y-15814013D01*
X5591542Y-15823536D01*
X5601066Y-15833060D01*
X5610590Y-15852108D01*
X5610590Y-15909251D01*
X5601066Y-15928298D01*
X5591542Y-15937822D01*
X5572494Y-15947346D01*
X5534399Y-15947346D01*
X5515352Y-15937822D01*
X5696304Y-15928298D02*
X5705828Y-15937822D01*
X5696304Y-15947346D01*
X5686780Y-15937822D01*
X5696304Y-15928298D01*
X5696304Y-15947346D01*
X5696304Y-15823536D02*
X5705828Y-15833060D01*
X5696304Y-15842584D01*
X5686780Y-15833060D01*
X5696304Y-15823536D01*
X5696304Y-15842584D01*
D13*
X4027256Y-16256870D02*
X4067256Y-16296870D01*
X4067256Y-16256870D02*
X4027256Y-16296870D01*
D10*
X4362971Y-16167346D02*
X4382018Y-16167346D01*
X4401066Y-16176870D01*
X4410590Y-16186394D01*
X4420113Y-16205441D01*
X4429637Y-16243536D01*
X4429637Y-16291156D01*
X4420113Y-16329251D01*
X4410590Y-16348298D01*
X4401066Y-16357822D01*
X4382018Y-16367346D01*
X4362971Y-16367346D01*
X4343923Y-16357822D01*
X4334399Y-16348298D01*
X4324875Y-16329251D01*
X4315352Y-16291156D01*
X4315352Y-16243536D01*
X4324875Y-16205441D01*
X4334399Y-16186394D01*
X4343923Y-16176870D01*
X4362971Y-16167346D01*
X4515352Y-16348298D02*
X4524875Y-16357822D01*
X4515352Y-16367346D01*
X4505828Y-16357822D01*
X4515352Y-16348298D01*
X4515352Y-16367346D01*
X4696304Y-16234013D02*
X4696304Y-16367346D01*
X4648685Y-16157822D02*
X4601066Y-16300679D01*
X4724875Y-16300679D01*
X4839161Y-16167346D02*
X4858209Y-16167346D01*
X4877256Y-16176870D01*
X4886780Y-16186394D01*
X4896304Y-16205441D01*
X4905828Y-16243536D01*
X4905828Y-16291156D01*
X4896304Y-16329251D01*
X4886780Y-16348298D01*
X4877256Y-16357822D01*
X4858209Y-16367346D01*
X4839161Y-16367346D01*
X4820113Y-16357822D01*
X4810590Y-16348298D01*
X4801066Y-16329251D01*
X4791542Y-16291156D01*
X4791542Y-16243536D01*
X4801066Y-16205441D01*
X4810590Y-16186394D01*
X4820113Y-16176870D01*
X4839161Y-16167346D01*
X5029637Y-16167346D02*
X5048685Y-16167346D01*
X5067732Y-16176870D01*
X5077256Y-16186394D01*
X5086780Y-16205441D01*
X5096304Y-16243536D01*
X5096304Y-16291156D01*
X5086780Y-16329251D01*
X5077256Y-16348298D01*
X5067732Y-16357822D01*
X5048685Y-16367346D01*
X5029637Y-16367346D01*
X5010590Y-16357822D01*
X5001066Y-16348298D01*
X4991542Y-16329251D01*
X4982018Y-16291156D01*
X4982018Y-16243536D01*
X4991542Y-16205441D01*
X5001066Y-16186394D01*
X5010590Y-16176870D01*
X5029637Y-16167346D01*
X5182018Y-16367346D02*
X5182018Y-16234013D01*
X5182018Y-16253060D02*
X5191542Y-16243536D01*
X5210590Y-16234013D01*
X5239161Y-16234013D01*
X5258209Y-16243536D01*
X5267732Y-16262584D01*
X5267732Y-16367346D01*
X5267732Y-16262584D02*
X5277256Y-16243536D01*
X5296304Y-16234013D01*
X5324875Y-16234013D01*
X5343923Y-16243536D01*
X5353447Y-16262584D01*
X5353447Y-16367346D01*
X5448685Y-16367346D02*
X5448685Y-16234013D01*
X5448685Y-16253060D02*
X5458209Y-16243536D01*
X5477256Y-16234013D01*
X5505828Y-16234013D01*
X5524875Y-16243536D01*
X5534399Y-16262584D01*
X5534399Y-16367346D01*
X5534399Y-16262584D02*
X5543923Y-16243536D01*
X5562971Y-16234013D01*
X5591542Y-16234013D01*
X5610590Y-16243536D01*
X5620113Y-16262584D01*
X5620113Y-16367346D01*
X6010590Y-16157822D02*
X5839161Y-16414965D01*
X6267732Y-16167346D02*
X6286780Y-16167346D01*
X6305828Y-16176870D01*
X6315351Y-16186394D01*
X6324875Y-16205441D01*
X6334399Y-16243536D01*
X6334399Y-16291156D01*
X6324875Y-16329251D01*
X6315351Y-16348298D01*
X6305828Y-16357822D01*
X6286780Y-16367346D01*
X6267732Y-16367346D01*
X6248685Y-16357822D01*
X6239161Y-16348298D01*
X6229637Y-16329251D01*
X6220113Y-16291156D01*
X6220113Y-16243536D01*
X6229637Y-16205441D01*
X6239161Y-16186394D01*
X6248685Y-16176870D01*
X6267732Y-16167346D01*
X6420113Y-16348298D02*
X6429637Y-16357822D01*
X6420113Y-16367346D01*
X6410590Y-16357822D01*
X6420113Y-16348298D01*
X6420113Y-16367346D01*
X6553447Y-16167346D02*
X6572494Y-16167346D01*
X6591542Y-16176870D01*
X6601066Y-16186394D01*
X6610590Y-16205441D01*
X6620113Y-16243536D01*
X6620113Y-16291156D01*
X6610590Y-16329251D01*
X6601066Y-16348298D01*
X6591542Y-16357822D01*
X6572494Y-16367346D01*
X6553447Y-16367346D01*
X6534399Y-16357822D01*
X6524875Y-16348298D01*
X6515351Y-16329251D01*
X6505828Y-16291156D01*
X6505828Y-16243536D01*
X6515351Y-16205441D01*
X6524875Y-16186394D01*
X6534399Y-16176870D01*
X6553447Y-16167346D01*
X6810590Y-16367346D02*
X6696304Y-16367346D01*
X6753447Y-16367346D02*
X6753447Y-16167346D01*
X6734399Y-16195917D01*
X6715351Y-16214965D01*
X6696304Y-16224489D01*
X6991542Y-16167346D02*
X6896304Y-16167346D01*
X6886780Y-16262584D01*
X6896304Y-16253060D01*
X6915351Y-16243536D01*
X6962970Y-16243536D01*
X6982018Y-16253060D01*
X6991542Y-16262584D01*
X7001066Y-16281632D01*
X7001066Y-16329251D01*
X6991542Y-16348298D01*
X6982018Y-16357822D01*
X6962970Y-16367346D01*
X6915351Y-16367346D01*
X6896304Y-16357822D01*
X6886780Y-16348298D01*
X7067732Y-16167346D02*
X7201066Y-16167346D01*
X7115351Y-16367346D01*
X7267732Y-16167346D02*
X7267732Y-16205441D01*
X7343923Y-16167346D02*
X7343923Y-16205441D01*
X7639161Y-16443536D02*
X7629637Y-16434013D01*
X7610590Y-16405441D01*
X7601066Y-16386394D01*
X7591542Y-16357822D01*
X7582018Y-16310203D01*
X7582018Y-16272108D01*
X7591542Y-16224489D01*
X7601066Y-16195917D01*
X7610590Y-16176870D01*
X7629637Y-16148298D01*
X7639161Y-16138775D01*
X7705828Y-16186394D02*
X7715351Y-16176870D01*
X7734399Y-16167346D01*
X7782018Y-16167346D01*
X7801066Y-16176870D01*
X7810590Y-16186394D01*
X7820113Y-16205441D01*
X7820113Y-16224489D01*
X7810590Y-16253060D01*
X7696304Y-16367346D01*
X7820113Y-16367346D01*
X8001066Y-16167346D02*
X7905828Y-16167346D01*
X7896304Y-16262584D01*
X7905828Y-16253060D01*
X7924875Y-16243536D01*
X7972494Y-16243536D01*
X7991542Y-16253060D01*
X8001066Y-16262584D01*
X8010590Y-16281632D01*
X8010590Y-16329251D01*
X8001066Y-16348298D01*
X7991542Y-16357822D01*
X7972494Y-16367346D01*
X7924875Y-16367346D01*
X7905828Y-16357822D01*
X7896304Y-16348298D01*
X8248685Y-16367346D02*
X8248685Y-16167346D01*
X8334399Y-16367346D02*
X8334399Y-16262584D01*
X8324875Y-16243536D01*
X8305828Y-16234013D01*
X8277256Y-16234013D01*
X8258209Y-16243536D01*
X8248685Y-16253060D01*
X8458209Y-16367346D02*
X8439161Y-16357822D01*
X8429637Y-16348298D01*
X8420113Y-16329251D01*
X8420113Y-16272108D01*
X8429637Y-16253060D01*
X8439161Y-16243536D01*
X8458209Y-16234013D01*
X8486780Y-16234013D01*
X8505828Y-16243536D01*
X8515352Y-16253060D01*
X8524875Y-16272108D01*
X8524875Y-16329251D01*
X8515352Y-16348298D01*
X8505828Y-16357822D01*
X8486780Y-16367346D01*
X8458209Y-16367346D01*
X8639161Y-16367346D02*
X8620113Y-16357822D01*
X8610590Y-16338775D01*
X8610590Y-16167346D01*
X8791542Y-16357822D02*
X8772494Y-16367346D01*
X8734399Y-16367346D01*
X8715352Y-16357822D01*
X8705828Y-16338775D01*
X8705828Y-16262584D01*
X8715352Y-16243536D01*
X8734399Y-16234013D01*
X8772494Y-16234013D01*
X8791542Y-16243536D01*
X8801066Y-16262584D01*
X8801066Y-16281632D01*
X8705828Y-16300679D01*
X8877256Y-16357822D02*
X8896304Y-16367346D01*
X8934399Y-16367346D01*
X8953447Y-16357822D01*
X8962971Y-16338775D01*
X8962971Y-16329251D01*
X8953447Y-16310203D01*
X8934399Y-16300679D01*
X8905828Y-16300679D01*
X8886780Y-16291156D01*
X8877256Y-16272108D01*
X8877256Y-16262584D01*
X8886780Y-16243536D01*
X8905828Y-16234013D01*
X8934399Y-16234013D01*
X8953447Y-16243536D01*
X9029637Y-16443536D02*
X9039161Y-16434013D01*
X9058209Y-16405441D01*
X9067732Y-16386394D01*
X9077256Y-16357822D01*
X9086780Y-16310203D01*
X9086780Y-16272108D01*
X9077256Y-16224489D01*
X9067732Y-16195917D01*
X9058209Y-16176870D01*
X9039161Y-16148298D01*
X9029637Y-16138775D01*
D14*
X4067256Y-16540870D02*
G75*
G03*
X4067256Y-16540870I-40000J0D01*
G01*
D10*
X4362971Y-16431346D02*
X4382018Y-16431346D01*
X4401066Y-16440870D01*
X4410590Y-16450394D01*
X4420113Y-16469441D01*
X4429637Y-16507536D01*
X4429637Y-16555156D01*
X4420113Y-16593251D01*
X4410590Y-16612298D01*
X4401066Y-16621822D01*
X4382018Y-16631346D01*
X4362971Y-16631346D01*
X4343923Y-16621822D01*
X4334399Y-16612298D01*
X4324875Y-16593251D01*
X4315352Y-16555156D01*
X4315352Y-16507536D01*
X4324875Y-16469441D01*
X4334399Y-16450394D01*
X4343923Y-16440870D01*
X4362971Y-16431346D01*
X4515352Y-16612298D02*
X4524875Y-16621822D01*
X4515352Y-16631346D01*
X4505828Y-16621822D01*
X4515352Y-16612298D01*
X4515352Y-16631346D01*
X4639161Y-16517060D02*
X4620113Y-16507536D01*
X4610590Y-16498013D01*
X4601066Y-16478965D01*
X4601066Y-16469441D01*
X4610590Y-16450394D01*
X4620113Y-16440870D01*
X4639161Y-16431346D01*
X4677256Y-16431346D01*
X4696304Y-16440870D01*
X4705828Y-16450394D01*
X4715352Y-16469441D01*
X4715352Y-16478965D01*
X4705828Y-16498013D01*
X4696304Y-16507536D01*
X4677256Y-16517060D01*
X4639161Y-16517060D01*
X4620113Y-16526584D01*
X4610590Y-16536108D01*
X4601066Y-16555156D01*
X4601066Y-16593251D01*
X4610590Y-16612298D01*
X4620113Y-16621822D01*
X4639161Y-16631346D01*
X4677256Y-16631346D01*
X4696304Y-16621822D01*
X4705828Y-16612298D01*
X4715352Y-16593251D01*
X4715352Y-16555156D01*
X4705828Y-16536108D01*
X4696304Y-16526584D01*
X4677256Y-16517060D01*
X4839161Y-16431346D02*
X4858209Y-16431346D01*
X4877256Y-16440870D01*
X4886780Y-16450394D01*
X4896304Y-16469441D01*
X4905828Y-16507536D01*
X4905828Y-16555156D01*
X4896304Y-16593251D01*
X4886780Y-16612298D01*
X4877256Y-16621822D01*
X4858209Y-16631346D01*
X4839161Y-16631346D01*
X4820113Y-16621822D01*
X4810590Y-16612298D01*
X4801066Y-16593251D01*
X4791542Y-16555156D01*
X4791542Y-16507536D01*
X4801066Y-16469441D01*
X4810590Y-16450394D01*
X4820113Y-16440870D01*
X4839161Y-16431346D01*
X5029637Y-16431346D02*
X5048685Y-16431346D01*
X5067732Y-16440870D01*
X5077256Y-16450394D01*
X5086780Y-16469441D01*
X5096304Y-16507536D01*
X5096304Y-16555156D01*
X5086780Y-16593251D01*
X5077256Y-16612298D01*
X5067732Y-16621822D01*
X5048685Y-16631346D01*
X5029637Y-16631346D01*
X5010590Y-16621822D01*
X5001066Y-16612298D01*
X4991542Y-16593251D01*
X4982018Y-16555156D01*
X4982018Y-16507536D01*
X4991542Y-16469441D01*
X5001066Y-16450394D01*
X5010590Y-16440870D01*
X5029637Y-16431346D01*
X5182018Y-16631346D02*
X5182018Y-16498013D01*
X5182018Y-16517060D02*
X5191542Y-16507536D01*
X5210590Y-16498013D01*
X5239161Y-16498013D01*
X5258209Y-16507536D01*
X5267732Y-16526584D01*
X5267732Y-16631346D01*
X5267732Y-16526584D02*
X5277256Y-16507536D01*
X5296304Y-16498013D01*
X5324875Y-16498013D01*
X5343923Y-16507536D01*
X5353447Y-16526584D01*
X5353447Y-16631346D01*
X5448685Y-16631346D02*
X5448685Y-16498013D01*
X5448685Y-16517060D02*
X5458209Y-16507536D01*
X5477256Y-16498013D01*
X5505828Y-16498013D01*
X5524875Y-16507536D01*
X5534399Y-16526584D01*
X5534399Y-16631346D01*
X5534399Y-16526584D02*
X5543923Y-16507536D01*
X5562971Y-16498013D01*
X5591542Y-16498013D01*
X5610590Y-16507536D01*
X5620113Y-16526584D01*
X5620113Y-16631346D01*
X6010590Y-16421822D02*
X5839161Y-16678965D01*
X6267732Y-16431346D02*
X6286780Y-16431346D01*
X6305828Y-16440870D01*
X6315351Y-16450394D01*
X6324875Y-16469441D01*
X6334399Y-16507536D01*
X6334399Y-16555156D01*
X6324875Y-16593251D01*
X6315351Y-16612298D01*
X6305828Y-16621822D01*
X6286780Y-16631346D01*
X6267732Y-16631346D01*
X6248685Y-16621822D01*
X6239161Y-16612298D01*
X6229637Y-16593251D01*
X6220113Y-16555156D01*
X6220113Y-16507536D01*
X6229637Y-16469441D01*
X6239161Y-16450394D01*
X6248685Y-16440870D01*
X6267732Y-16431346D01*
X6420113Y-16612298D02*
X6429637Y-16621822D01*
X6420113Y-16631346D01*
X6410590Y-16621822D01*
X6420113Y-16612298D01*
X6420113Y-16631346D01*
X6553447Y-16431346D02*
X6572494Y-16431346D01*
X6591542Y-16440870D01*
X6601066Y-16450394D01*
X6610590Y-16469441D01*
X6620113Y-16507536D01*
X6620113Y-16555156D01*
X6610590Y-16593251D01*
X6601066Y-16612298D01*
X6591542Y-16621822D01*
X6572494Y-16631346D01*
X6553447Y-16631346D01*
X6534399Y-16621822D01*
X6524875Y-16612298D01*
X6515351Y-16593251D01*
X6505828Y-16555156D01*
X6505828Y-16507536D01*
X6515351Y-16469441D01*
X6524875Y-16450394D01*
X6534399Y-16440870D01*
X6553447Y-16431346D01*
X6686780Y-16431346D02*
X6810590Y-16431346D01*
X6743923Y-16507536D01*
X6772494Y-16507536D01*
X6791542Y-16517060D01*
X6801066Y-16526584D01*
X6810590Y-16545632D01*
X6810590Y-16593251D01*
X6801066Y-16612298D01*
X6791542Y-16621822D01*
X6772494Y-16631346D01*
X6715351Y-16631346D01*
X6696304Y-16621822D01*
X6686780Y-16612298D01*
X7001066Y-16631346D02*
X6886780Y-16631346D01*
X6943923Y-16631346D02*
X6943923Y-16431346D01*
X6924875Y-16459917D01*
X6905828Y-16478965D01*
X6886780Y-16488489D01*
X7182018Y-16431346D02*
X7086780Y-16431346D01*
X7077256Y-16526584D01*
X7086780Y-16517060D01*
X7105828Y-16507536D01*
X7153447Y-16507536D01*
X7172494Y-16517060D01*
X7182018Y-16526584D01*
X7191542Y-16545632D01*
X7191542Y-16593251D01*
X7182018Y-16612298D01*
X7172494Y-16621822D01*
X7153447Y-16631346D01*
X7105828Y-16631346D01*
X7086780Y-16621822D01*
X7077256Y-16612298D01*
X7267732Y-16431346D02*
X7267732Y-16469441D01*
X7343923Y-16431346D02*
X7343923Y-16469441D01*
X7639161Y-16707536D02*
X7629637Y-16698013D01*
X7610590Y-16669441D01*
X7601066Y-16650394D01*
X7591542Y-16621822D01*
X7582018Y-16574203D01*
X7582018Y-16536108D01*
X7591542Y-16488489D01*
X7601066Y-16459917D01*
X7610590Y-16440870D01*
X7629637Y-16412298D01*
X7639161Y-16402775D01*
X7753447Y-16431346D02*
X7772494Y-16431346D01*
X7791542Y-16440870D01*
X7801066Y-16450394D01*
X7810590Y-16469441D01*
X7820113Y-16507536D01*
X7820113Y-16555156D01*
X7810590Y-16593251D01*
X7801066Y-16612298D01*
X7791542Y-16621822D01*
X7772494Y-16631346D01*
X7753447Y-16631346D01*
X7734399Y-16621822D01*
X7724875Y-16612298D01*
X7715351Y-16593251D01*
X7705828Y-16555156D01*
X7705828Y-16507536D01*
X7715351Y-16469441D01*
X7724875Y-16450394D01*
X7734399Y-16440870D01*
X7753447Y-16431346D01*
X8058209Y-16631346D02*
X8058209Y-16431346D01*
X8143923Y-16631346D02*
X8143923Y-16526584D01*
X8134399Y-16507536D01*
X8115351Y-16498013D01*
X8086780Y-16498013D01*
X8067732Y-16507536D01*
X8058209Y-16517060D01*
X8267732Y-16631346D02*
X8248685Y-16621822D01*
X8239161Y-16612298D01*
X8229637Y-16593251D01*
X8229637Y-16536108D01*
X8239161Y-16517060D01*
X8248685Y-16507536D01*
X8267732Y-16498013D01*
X8296304Y-16498013D01*
X8315351Y-16507536D01*
X8324875Y-16517060D01*
X8334399Y-16536108D01*
X8334399Y-16593251D01*
X8324875Y-16612298D01*
X8315351Y-16621822D01*
X8296304Y-16631346D01*
X8267732Y-16631346D01*
X8448685Y-16631346D02*
X8429637Y-16621822D01*
X8420113Y-16602775D01*
X8420113Y-16431346D01*
X8601066Y-16621822D02*
X8582018Y-16631346D01*
X8543923Y-16631346D01*
X8524875Y-16621822D01*
X8515352Y-16602775D01*
X8515352Y-16526584D01*
X8524875Y-16507536D01*
X8543923Y-16498013D01*
X8582018Y-16498013D01*
X8601066Y-16507536D01*
X8610590Y-16526584D01*
X8610590Y-16545632D01*
X8515352Y-16564679D01*
X8686780Y-16621822D02*
X8705828Y-16631346D01*
X8743923Y-16631346D01*
X8762971Y-16621822D01*
X8772494Y-16602775D01*
X8772494Y-16593251D01*
X8762971Y-16574203D01*
X8743923Y-16564679D01*
X8715352Y-16564679D01*
X8696304Y-16555156D01*
X8686780Y-16536108D01*
X8686780Y-16526584D01*
X8696304Y-16507536D01*
X8715352Y-16498013D01*
X8743923Y-16498013D01*
X8762971Y-16507536D01*
X9010590Y-16555156D02*
X9162971Y-16555156D01*
X9086780Y-16631346D02*
X9086780Y-16478965D01*
X9515352Y-16631346D02*
X9401066Y-16631346D01*
X9458209Y-16631346D02*
X9458209Y-16431346D01*
X9439161Y-16459917D01*
X9420113Y-16478965D01*
X9401066Y-16488489D01*
X9582018Y-16431346D02*
X9705828Y-16431346D01*
X9639161Y-16507536D01*
X9667732Y-16507536D01*
X9686780Y-16517060D01*
X9696304Y-16526584D01*
X9705828Y-16545632D01*
X9705828Y-16593251D01*
X9696304Y-16612298D01*
X9686780Y-16621822D01*
X9667732Y-16631346D01*
X9610590Y-16631346D01*
X9591542Y-16621822D01*
X9582018Y-16612298D01*
X9877256Y-16431346D02*
X9839161Y-16431346D01*
X9820113Y-16440870D01*
X9810590Y-16450394D01*
X9791542Y-16478965D01*
X9782018Y-16517060D01*
X9782018Y-16593251D01*
X9791542Y-16612298D01*
X9801066Y-16621822D01*
X9820113Y-16631346D01*
X9858209Y-16631346D01*
X9877256Y-16621822D01*
X9886780Y-16612298D01*
X9896304Y-16593251D01*
X9896304Y-16545632D01*
X9886780Y-16526584D01*
X9877256Y-16517060D01*
X9858209Y-16507536D01*
X9820113Y-16507536D01*
X9801066Y-16517060D01*
X9791542Y-16526584D01*
X9782018Y-16545632D01*
X10124875Y-16621822D02*
X10143923Y-16631346D01*
X10182018Y-16631346D01*
X10201066Y-16621822D01*
X10210590Y-16602775D01*
X10210590Y-16593251D01*
X10201066Y-16574203D01*
X10182018Y-16564679D01*
X10153447Y-16564679D01*
X10134399Y-16555156D01*
X10124875Y-16536108D01*
X10124875Y-16526584D01*
X10134399Y-16507536D01*
X10153447Y-16498013D01*
X10182018Y-16498013D01*
X10201066Y-16507536D01*
X10324875Y-16631346D02*
X10305828Y-16621822D01*
X10296304Y-16602775D01*
X10296304Y-16431346D01*
X10429637Y-16631346D02*
X10410590Y-16621822D01*
X10401066Y-16612298D01*
X10391542Y-16593251D01*
X10391542Y-16536108D01*
X10401066Y-16517060D01*
X10410590Y-16507536D01*
X10429637Y-16498013D01*
X10458209Y-16498013D01*
X10477256Y-16507536D01*
X10486780Y-16517060D01*
X10496304Y-16536108D01*
X10496304Y-16593251D01*
X10486780Y-16612298D01*
X10477256Y-16621822D01*
X10458209Y-16631346D01*
X10429637Y-16631346D01*
X10553447Y-16498013D02*
X10629637Y-16498013D01*
X10582018Y-16431346D02*
X10582018Y-16602775D01*
X10591542Y-16621822D01*
X10610590Y-16631346D01*
X10629637Y-16631346D01*
X10686780Y-16621822D02*
X10705828Y-16631346D01*
X10743923Y-16631346D01*
X10762971Y-16621822D01*
X10772494Y-16602775D01*
X10772494Y-16593251D01*
X10762971Y-16574203D01*
X10743923Y-16564679D01*
X10715352Y-16564679D01*
X10696304Y-16555156D01*
X10686780Y-16536108D01*
X10686780Y-16526584D01*
X10696304Y-16507536D01*
X10715352Y-16498013D01*
X10743923Y-16498013D01*
X10762971Y-16507536D01*
X10839161Y-16707536D02*
X10848685Y-16698013D01*
X10867732Y-16669441D01*
X10877256Y-16650394D01*
X10886780Y-16621822D01*
X10896304Y-16574203D01*
X10896304Y-16536108D01*
X10886780Y-16488489D01*
X10877256Y-16459917D01*
X10867732Y-16440870D01*
X10848685Y-16412298D01*
X10839161Y-16402775D01*
D15*
X4026616Y-16764230D02*
X4026616Y-16845510D01*
X3985976Y-16804870D02*
X4067256Y-16804870D01*
D10*
X4362971Y-16695346D02*
X4382018Y-16695346D01*
X4401066Y-16704870D01*
X4410590Y-16714394D01*
X4420113Y-16733441D01*
X4429637Y-16771536D01*
X4429637Y-16819156D01*
X4420113Y-16857251D01*
X4410590Y-16876298D01*
X4401066Y-16885822D01*
X4382018Y-16895346D01*
X4362971Y-16895346D01*
X4343923Y-16885822D01*
X4334399Y-16876298D01*
X4324875Y-16857251D01*
X4315352Y-16819156D01*
X4315352Y-16771536D01*
X4324875Y-16733441D01*
X4334399Y-16714394D01*
X4343923Y-16704870D01*
X4362971Y-16695346D01*
X4515352Y-16876298D02*
X4524875Y-16885822D01*
X4515352Y-16895346D01*
X4505828Y-16885822D01*
X4515352Y-16876298D01*
X4515352Y-16895346D01*
X4639161Y-16781060D02*
X4620113Y-16771536D01*
X4610590Y-16762013D01*
X4601066Y-16742965D01*
X4601066Y-16733441D01*
X4610590Y-16714394D01*
X4620113Y-16704870D01*
X4639161Y-16695346D01*
X4677256Y-16695346D01*
X4696304Y-16704870D01*
X4705828Y-16714394D01*
X4715352Y-16733441D01*
X4715352Y-16742965D01*
X4705828Y-16762013D01*
X4696304Y-16771536D01*
X4677256Y-16781060D01*
X4639161Y-16781060D01*
X4620113Y-16790584D01*
X4610590Y-16800108D01*
X4601066Y-16819156D01*
X4601066Y-16857251D01*
X4610590Y-16876298D01*
X4620113Y-16885822D01*
X4639161Y-16895346D01*
X4677256Y-16895346D01*
X4696304Y-16885822D01*
X4705828Y-16876298D01*
X4715352Y-16857251D01*
X4715352Y-16819156D01*
X4705828Y-16800108D01*
X4696304Y-16790584D01*
X4677256Y-16781060D01*
X4905828Y-16895346D02*
X4791542Y-16895346D01*
X4848685Y-16895346D02*
X4848685Y-16695346D01*
X4829637Y-16723917D01*
X4810590Y-16742965D01*
X4791542Y-16752489D01*
X4972494Y-16695346D02*
X5096304Y-16695346D01*
X5029637Y-16771536D01*
X5058209Y-16771536D01*
X5077256Y-16781060D01*
X5086780Y-16790584D01*
X5096304Y-16809632D01*
X5096304Y-16857251D01*
X5086780Y-16876298D01*
X5077256Y-16885822D01*
X5058209Y-16895346D01*
X5001066Y-16895346D01*
X4982018Y-16885822D01*
X4972494Y-16876298D01*
X5182018Y-16895346D02*
X5182018Y-16762013D01*
X5182018Y-16781060D02*
X5191542Y-16771536D01*
X5210590Y-16762013D01*
X5239161Y-16762013D01*
X5258209Y-16771536D01*
X5267732Y-16790584D01*
X5267732Y-16895346D01*
X5267732Y-16790584D02*
X5277256Y-16771536D01*
X5296304Y-16762013D01*
X5324875Y-16762013D01*
X5343923Y-16771536D01*
X5353447Y-16790584D01*
X5353447Y-16895346D01*
X5448685Y-16895346D02*
X5448685Y-16762013D01*
X5448685Y-16781060D02*
X5458209Y-16771536D01*
X5477256Y-16762013D01*
X5505828Y-16762013D01*
X5524875Y-16771536D01*
X5534399Y-16790584D01*
X5534399Y-16895346D01*
X5534399Y-16790584D02*
X5543923Y-16771536D01*
X5562971Y-16762013D01*
X5591542Y-16762013D01*
X5610590Y-16771536D01*
X5620113Y-16790584D01*
X5620113Y-16895346D01*
X6010590Y-16685822D02*
X5839161Y-16942965D01*
X6267732Y-16695346D02*
X6286780Y-16695346D01*
X6305828Y-16704870D01*
X6315351Y-16714394D01*
X6324875Y-16733441D01*
X6334399Y-16771536D01*
X6334399Y-16819156D01*
X6324875Y-16857251D01*
X6315351Y-16876298D01*
X6305828Y-16885822D01*
X6286780Y-16895346D01*
X6267732Y-16895346D01*
X6248685Y-16885822D01*
X6239161Y-16876298D01*
X6229637Y-16857251D01*
X6220113Y-16819156D01*
X6220113Y-16771536D01*
X6229637Y-16733441D01*
X6239161Y-16714394D01*
X6248685Y-16704870D01*
X6267732Y-16695346D01*
X6420113Y-16876298D02*
X6429637Y-16885822D01*
X6420113Y-16895346D01*
X6410590Y-16885822D01*
X6420113Y-16876298D01*
X6420113Y-16895346D01*
X6553447Y-16695346D02*
X6572494Y-16695346D01*
X6591542Y-16704870D01*
X6601066Y-16714394D01*
X6610590Y-16733441D01*
X6620113Y-16771536D01*
X6620113Y-16819156D01*
X6610590Y-16857251D01*
X6601066Y-16876298D01*
X6591542Y-16885822D01*
X6572494Y-16895346D01*
X6553447Y-16895346D01*
X6534399Y-16885822D01*
X6524875Y-16876298D01*
X6515351Y-16857251D01*
X6505828Y-16819156D01*
X6505828Y-16771536D01*
X6515351Y-16733441D01*
X6524875Y-16714394D01*
X6534399Y-16704870D01*
X6553447Y-16695346D01*
X6686780Y-16695346D02*
X6810590Y-16695346D01*
X6743923Y-16771536D01*
X6772494Y-16771536D01*
X6791542Y-16781060D01*
X6801066Y-16790584D01*
X6810590Y-16809632D01*
X6810590Y-16857251D01*
X6801066Y-16876298D01*
X6791542Y-16885822D01*
X6772494Y-16895346D01*
X6715351Y-16895346D01*
X6696304Y-16885822D01*
X6686780Y-16876298D01*
X6886780Y-16714394D02*
X6896304Y-16704870D01*
X6915351Y-16695346D01*
X6962970Y-16695346D01*
X6982018Y-16704870D01*
X6991542Y-16714394D01*
X7001066Y-16733441D01*
X7001066Y-16752489D01*
X6991542Y-16781060D01*
X6877256Y-16895346D01*
X7001066Y-16895346D01*
X7124875Y-16695346D02*
X7143923Y-16695346D01*
X7162970Y-16704870D01*
X7172494Y-16714394D01*
X7182018Y-16733441D01*
X7191542Y-16771536D01*
X7191542Y-16819156D01*
X7182018Y-16857251D01*
X7172494Y-16876298D01*
X7162970Y-16885822D01*
X7143923Y-16895346D01*
X7124875Y-16895346D01*
X7105828Y-16885822D01*
X7096304Y-16876298D01*
X7086780Y-16857251D01*
X7077256Y-16819156D01*
X7077256Y-16771536D01*
X7086780Y-16733441D01*
X7096304Y-16714394D01*
X7105828Y-16704870D01*
X7124875Y-16695346D01*
X7267732Y-16695346D02*
X7267732Y-16733441D01*
X7343923Y-16695346D02*
X7343923Y-16733441D01*
X7639161Y-16971537D02*
X7629637Y-16962013D01*
X7610590Y-16933441D01*
X7601066Y-16914394D01*
X7591542Y-16885822D01*
X7582018Y-16838203D01*
X7582018Y-16800108D01*
X7591542Y-16752489D01*
X7601066Y-16723917D01*
X7610590Y-16704870D01*
X7629637Y-16676298D01*
X7639161Y-16666775D01*
X7801066Y-16762013D02*
X7801066Y-16895346D01*
X7753447Y-16685822D02*
X7705828Y-16828679D01*
X7829637Y-16828679D01*
X8058209Y-16895346D02*
X8058209Y-16695346D01*
X8143923Y-16895346D02*
X8143923Y-16790584D01*
X8134399Y-16771536D01*
X8115351Y-16762013D01*
X8086780Y-16762013D01*
X8067732Y-16771536D01*
X8058209Y-16781060D01*
X8267732Y-16895346D02*
X8248685Y-16885822D01*
X8239161Y-16876298D01*
X8229637Y-16857251D01*
X8229637Y-16800108D01*
X8239161Y-16781060D01*
X8248685Y-16771536D01*
X8267732Y-16762013D01*
X8296304Y-16762013D01*
X8315351Y-16771536D01*
X8324875Y-16781060D01*
X8334399Y-16800108D01*
X8334399Y-16857251D01*
X8324875Y-16876298D01*
X8315351Y-16885822D01*
X8296304Y-16895346D01*
X8267732Y-16895346D01*
X8448685Y-16895346D02*
X8429637Y-16885822D01*
X8420113Y-16866775D01*
X8420113Y-16695346D01*
X8601066Y-16885822D02*
X8582018Y-16895346D01*
X8543923Y-16895346D01*
X8524875Y-16885822D01*
X8515352Y-16866775D01*
X8515352Y-16790584D01*
X8524875Y-16771536D01*
X8543923Y-16762013D01*
X8582018Y-16762013D01*
X8601066Y-16771536D01*
X8610590Y-16790584D01*
X8610590Y-16809632D01*
X8515352Y-16828679D01*
X8686780Y-16885822D02*
X8705828Y-16895346D01*
X8743923Y-16895346D01*
X8762971Y-16885822D01*
X8772494Y-16866775D01*
X8772494Y-16857251D01*
X8762971Y-16838203D01*
X8743923Y-16828679D01*
X8715352Y-16828679D01*
X8696304Y-16819156D01*
X8686780Y-16800108D01*
X8686780Y-16790584D01*
X8696304Y-16771536D01*
X8715352Y-16762013D01*
X8743923Y-16762013D01*
X8762971Y-16771536D01*
X8839161Y-16971537D02*
X8848685Y-16962013D01*
X8867732Y-16933441D01*
X8877256Y-16914394D01*
X8886780Y-16885822D01*
X8896304Y-16838203D01*
X8896304Y-16800108D01*
X8886780Y-16752489D01*
X8877256Y-16723917D01*
X8867732Y-16704870D01*
X8848685Y-16676298D01*
X8839161Y-16666775D01*
D16*
X4052612Y-17104226D02*
X4052612Y-17033514D01*
X3981901Y-17033514D01*
X3981901Y-17104226D01*
X4052612Y-17104226D01*
D10*
X4429637Y-17159346D02*
X4315352Y-17159346D01*
X4372494Y-17159346D02*
X4372494Y-16959346D01*
X4353447Y-16987918D01*
X4334399Y-17006965D01*
X4315352Y-17016489D01*
X4515352Y-17140298D02*
X4524875Y-17149822D01*
X4515352Y-17159346D01*
X4505828Y-17149822D01*
X4515352Y-17140298D01*
X4515352Y-17159346D01*
X4648685Y-16959346D02*
X4667732Y-16959346D01*
X4686780Y-16968870D01*
X4696304Y-16978394D01*
X4705828Y-16997441D01*
X4715352Y-17035537D01*
X4715352Y-17083156D01*
X4705828Y-17121251D01*
X4696304Y-17140298D01*
X4686780Y-17149822D01*
X4667732Y-17159346D01*
X4648685Y-17159346D01*
X4629637Y-17149822D01*
X4620113Y-17140298D01*
X4610590Y-17121251D01*
X4601066Y-17083156D01*
X4601066Y-17035537D01*
X4610590Y-16997441D01*
X4620113Y-16978394D01*
X4629637Y-16968870D01*
X4648685Y-16959346D01*
X4839161Y-16959346D02*
X4858209Y-16959346D01*
X4877256Y-16968870D01*
X4886780Y-16978394D01*
X4896304Y-16997441D01*
X4905828Y-17035537D01*
X4905828Y-17083156D01*
X4896304Y-17121251D01*
X4886780Y-17140298D01*
X4877256Y-17149822D01*
X4858209Y-17159346D01*
X4839161Y-17159346D01*
X4820113Y-17149822D01*
X4810590Y-17140298D01*
X4801066Y-17121251D01*
X4791542Y-17083156D01*
X4791542Y-17035537D01*
X4801066Y-16997441D01*
X4810590Y-16978394D01*
X4820113Y-16968870D01*
X4839161Y-16959346D01*
X5029637Y-16959346D02*
X5048685Y-16959346D01*
X5067732Y-16968870D01*
X5077256Y-16978394D01*
X5086780Y-16997441D01*
X5096304Y-17035537D01*
X5096304Y-17083156D01*
X5086780Y-17121251D01*
X5077256Y-17140298D01*
X5067732Y-17149822D01*
X5048685Y-17159346D01*
X5029637Y-17159346D01*
X5010590Y-17149822D01*
X5001066Y-17140298D01*
X4991542Y-17121251D01*
X4982018Y-17083156D01*
X4982018Y-17035537D01*
X4991542Y-16997441D01*
X5001066Y-16978394D01*
X5010590Y-16968870D01*
X5029637Y-16959346D01*
X5182018Y-17159346D02*
X5182018Y-17026013D01*
X5182018Y-17045060D02*
X5191542Y-17035537D01*
X5210590Y-17026013D01*
X5239161Y-17026013D01*
X5258209Y-17035537D01*
X5267732Y-17054584D01*
X5267732Y-17159346D01*
X5267732Y-17054584D02*
X5277256Y-17035537D01*
X5296304Y-17026013D01*
X5324875Y-17026013D01*
X5343923Y-17035537D01*
X5353447Y-17054584D01*
X5353447Y-17159346D01*
X5448685Y-17159346D02*
X5448685Y-17026013D01*
X5448685Y-17045060D02*
X5458209Y-17035537D01*
X5477256Y-17026013D01*
X5505828Y-17026013D01*
X5524875Y-17035537D01*
X5534399Y-17054584D01*
X5534399Y-17159346D01*
X5534399Y-17054584D02*
X5543923Y-17035537D01*
X5562971Y-17026013D01*
X5591542Y-17026013D01*
X5610590Y-17035537D01*
X5620113Y-17054584D01*
X5620113Y-17159346D01*
X6010590Y-16949822D02*
X5839161Y-17206965D01*
X6267732Y-16959346D02*
X6286780Y-16959346D01*
X6305828Y-16968870D01*
X6315351Y-16978394D01*
X6324875Y-16997441D01*
X6334399Y-17035537D01*
X6334399Y-17083156D01*
X6324875Y-17121251D01*
X6315351Y-17140298D01*
X6305828Y-17149822D01*
X6286780Y-17159346D01*
X6267732Y-17159346D01*
X6248685Y-17149822D01*
X6239161Y-17140298D01*
X6229637Y-17121251D01*
X6220113Y-17083156D01*
X6220113Y-17035537D01*
X6229637Y-16997441D01*
X6239161Y-16978394D01*
X6248685Y-16968870D01*
X6267732Y-16959346D01*
X6420113Y-17140298D02*
X6429637Y-17149822D01*
X6420113Y-17159346D01*
X6410590Y-17149822D01*
X6420113Y-17140298D01*
X6420113Y-17159346D01*
X6553447Y-16959346D02*
X6572494Y-16959346D01*
X6591542Y-16968870D01*
X6601066Y-16978394D01*
X6610590Y-16997441D01*
X6620113Y-17035537D01*
X6620113Y-17083156D01*
X6610590Y-17121251D01*
X6601066Y-17140298D01*
X6591542Y-17149822D01*
X6572494Y-17159346D01*
X6553447Y-17159346D01*
X6534399Y-17149822D01*
X6524875Y-17140298D01*
X6515351Y-17121251D01*
X6505828Y-17083156D01*
X6505828Y-17035537D01*
X6515351Y-16997441D01*
X6524875Y-16978394D01*
X6534399Y-16968870D01*
X6553447Y-16959346D01*
X6686780Y-16959346D02*
X6810590Y-16959346D01*
X6743923Y-17035537D01*
X6772494Y-17035537D01*
X6791542Y-17045060D01*
X6801066Y-17054584D01*
X6810590Y-17073632D01*
X6810590Y-17121251D01*
X6801066Y-17140298D01*
X6791542Y-17149822D01*
X6772494Y-17159346D01*
X6715351Y-17159346D01*
X6696304Y-17149822D01*
X6686780Y-17140298D01*
X6905828Y-17159346D02*
X6943923Y-17159346D01*
X6962970Y-17149822D01*
X6972494Y-17140298D01*
X6991542Y-17111727D01*
X7001066Y-17073632D01*
X7001066Y-16997441D01*
X6991542Y-16978394D01*
X6982018Y-16968870D01*
X6962970Y-16959346D01*
X6924875Y-16959346D01*
X6905828Y-16968870D01*
X6896304Y-16978394D01*
X6886780Y-16997441D01*
X6886780Y-17045060D01*
X6896304Y-17064108D01*
X6905828Y-17073632D01*
X6924875Y-17083156D01*
X6962970Y-17083156D01*
X6982018Y-17073632D01*
X6991542Y-17064108D01*
X7001066Y-17045060D01*
X7172494Y-17026013D02*
X7172494Y-17159346D01*
X7124875Y-16949822D02*
X7077256Y-17092679D01*
X7201066Y-17092679D01*
X7267732Y-16959346D02*
X7267732Y-16997441D01*
X7343923Y-16959346D02*
X7343923Y-16997441D01*
X7639161Y-17235537D02*
X7629637Y-17226013D01*
X7610590Y-17197441D01*
X7601066Y-17178394D01*
X7591542Y-17149822D01*
X7582018Y-17102203D01*
X7582018Y-17064108D01*
X7591542Y-17016489D01*
X7601066Y-16987918D01*
X7610590Y-16968870D01*
X7629637Y-16940298D01*
X7639161Y-16930775D01*
X7696304Y-16959346D02*
X7820113Y-16959346D01*
X7753447Y-17035537D01*
X7782018Y-17035537D01*
X7801066Y-17045060D01*
X7810590Y-17054584D01*
X7820113Y-17073632D01*
X7820113Y-17121251D01*
X7810590Y-17140298D01*
X7801066Y-17149822D01*
X7782018Y-17159346D01*
X7724875Y-17159346D01*
X7705828Y-17149822D01*
X7696304Y-17140298D01*
X8058209Y-17159346D02*
X8058209Y-16959346D01*
X8143923Y-17159346D02*
X8143923Y-17054584D01*
X8134399Y-17035537D01*
X8115351Y-17026013D01*
X8086780Y-17026013D01*
X8067732Y-17035537D01*
X8058209Y-17045060D01*
X8267732Y-17159346D02*
X8248685Y-17149822D01*
X8239161Y-17140298D01*
X8229637Y-17121251D01*
X8229637Y-17064108D01*
X8239161Y-17045060D01*
X8248685Y-17035537D01*
X8267732Y-17026013D01*
X8296304Y-17026013D01*
X8315351Y-17035537D01*
X8324875Y-17045060D01*
X8334399Y-17064108D01*
X8334399Y-17121251D01*
X8324875Y-17140298D01*
X8315351Y-17149822D01*
X8296304Y-17159346D01*
X8267732Y-17159346D01*
X8448685Y-17159346D02*
X8429637Y-17149822D01*
X8420113Y-17130775D01*
X8420113Y-16959346D01*
X8601066Y-17149822D02*
X8582018Y-17159346D01*
X8543923Y-17159346D01*
X8524875Y-17149822D01*
X8515352Y-17130775D01*
X8515352Y-17054584D01*
X8524875Y-17035537D01*
X8543923Y-17026013D01*
X8582018Y-17026013D01*
X8601066Y-17035537D01*
X8610590Y-17054584D01*
X8610590Y-17073632D01*
X8515352Y-17092679D01*
X8686780Y-17149822D02*
X8705828Y-17159346D01*
X8743923Y-17159346D01*
X8762971Y-17149822D01*
X8772494Y-17130775D01*
X8772494Y-17121251D01*
X8762971Y-17102203D01*
X8743923Y-17092679D01*
X8715352Y-17092679D01*
X8696304Y-17083156D01*
X8686780Y-17064108D01*
X8686780Y-17054584D01*
X8696304Y-17035537D01*
X8715352Y-17026013D01*
X8743923Y-17026013D01*
X8762971Y-17035537D01*
X8839161Y-17235537D02*
X8848685Y-17226013D01*
X8867732Y-17197441D01*
X8877256Y-17178394D01*
X8886780Y-17149822D01*
X8896304Y-17102203D01*
X8896304Y-17064108D01*
X8886780Y-17016489D01*
X8877256Y-16987918D01*
X8867732Y-16968870D01*
X8848685Y-16940298D01*
X8839161Y-16930775D01*
D17*
X4016256Y-17383870D02*
X4067256Y-17332870D01*
X4016256Y-17281870D01*
X3965256Y-17332870D01*
X4016256Y-17383870D01*
D10*
X4429637Y-17423346D02*
X4315352Y-17423346D01*
X4372494Y-17423346D02*
X4372494Y-17223346D01*
X4353447Y-17251918D01*
X4334399Y-17270965D01*
X4315352Y-17280489D01*
X4515352Y-17404298D02*
X4524875Y-17413822D01*
X4515352Y-17423346D01*
X4505828Y-17413822D01*
X4515352Y-17404298D01*
X4515352Y-17423346D01*
X4648685Y-17223346D02*
X4667732Y-17223346D01*
X4686780Y-17232870D01*
X4696304Y-17242394D01*
X4705828Y-17261441D01*
X4715352Y-17299537D01*
X4715352Y-17347156D01*
X4705828Y-17385251D01*
X4696304Y-17404298D01*
X4686780Y-17413822D01*
X4667732Y-17423346D01*
X4648685Y-17423346D01*
X4629637Y-17413822D01*
X4620113Y-17404298D01*
X4610590Y-17385251D01*
X4601066Y-17347156D01*
X4601066Y-17299537D01*
X4610590Y-17261441D01*
X4620113Y-17242394D01*
X4629637Y-17232870D01*
X4648685Y-17223346D01*
X4791542Y-17242394D02*
X4801066Y-17232870D01*
X4820113Y-17223346D01*
X4867732Y-17223346D01*
X4886780Y-17232870D01*
X4896304Y-17242394D01*
X4905828Y-17261441D01*
X4905828Y-17280489D01*
X4896304Y-17309060D01*
X4782018Y-17423346D01*
X4905828Y-17423346D01*
X5029637Y-17223346D02*
X5048685Y-17223346D01*
X5067732Y-17232870D01*
X5077256Y-17242394D01*
X5086780Y-17261441D01*
X5096304Y-17299537D01*
X5096304Y-17347156D01*
X5086780Y-17385251D01*
X5077256Y-17404298D01*
X5067732Y-17413822D01*
X5048685Y-17423346D01*
X5029637Y-17423346D01*
X5010590Y-17413822D01*
X5001066Y-17404298D01*
X4991542Y-17385251D01*
X4982018Y-17347156D01*
X4982018Y-17299537D01*
X4991542Y-17261441D01*
X5001066Y-17242394D01*
X5010590Y-17232870D01*
X5029637Y-17223346D01*
X5182018Y-17423346D02*
X5182018Y-17290013D01*
X5182018Y-17309060D02*
X5191542Y-17299537D01*
X5210590Y-17290013D01*
X5239161Y-17290013D01*
X5258209Y-17299537D01*
X5267732Y-17318584D01*
X5267732Y-17423346D01*
X5267732Y-17318584D02*
X5277256Y-17299537D01*
X5296304Y-17290013D01*
X5324875Y-17290013D01*
X5343923Y-17299537D01*
X5353447Y-17318584D01*
X5353447Y-17423346D01*
X5448685Y-17423346D02*
X5448685Y-17290013D01*
X5448685Y-17309060D02*
X5458209Y-17299537D01*
X5477256Y-17290013D01*
X5505828Y-17290013D01*
X5524875Y-17299537D01*
X5534399Y-17318584D01*
X5534399Y-17423346D01*
X5534399Y-17318584D02*
X5543923Y-17299537D01*
X5562971Y-17290013D01*
X5591542Y-17290013D01*
X5610590Y-17299537D01*
X5620113Y-17318584D01*
X5620113Y-17423346D01*
X6010590Y-17213822D02*
X5839161Y-17470965D01*
X6267732Y-17223346D02*
X6286780Y-17223346D01*
X6305828Y-17232870D01*
X6315351Y-17242394D01*
X6324875Y-17261441D01*
X6334399Y-17299537D01*
X6334399Y-17347156D01*
X6324875Y-17385251D01*
X6315351Y-17404298D01*
X6305828Y-17413822D01*
X6286780Y-17423346D01*
X6267732Y-17423346D01*
X6248685Y-17413822D01*
X6239161Y-17404298D01*
X6229637Y-17385251D01*
X6220113Y-17347156D01*
X6220113Y-17299537D01*
X6229637Y-17261441D01*
X6239161Y-17242394D01*
X6248685Y-17232870D01*
X6267732Y-17223346D01*
X6420113Y-17404298D02*
X6429637Y-17413822D01*
X6420113Y-17423346D01*
X6410590Y-17413822D01*
X6420113Y-17404298D01*
X6420113Y-17423346D01*
X6553447Y-17223346D02*
X6572494Y-17223346D01*
X6591542Y-17232870D01*
X6601066Y-17242394D01*
X6610590Y-17261441D01*
X6620113Y-17299537D01*
X6620113Y-17347156D01*
X6610590Y-17385251D01*
X6601066Y-17404298D01*
X6591542Y-17413822D01*
X6572494Y-17423346D01*
X6553447Y-17423346D01*
X6534399Y-17413822D01*
X6524875Y-17404298D01*
X6515351Y-17385251D01*
X6505828Y-17347156D01*
X6505828Y-17299537D01*
X6515351Y-17261441D01*
X6524875Y-17242394D01*
X6534399Y-17232870D01*
X6553447Y-17223346D01*
X6791542Y-17290013D02*
X6791542Y-17423346D01*
X6743923Y-17213822D02*
X6696304Y-17356679D01*
X6820113Y-17356679D01*
X6934399Y-17223346D02*
X6953447Y-17223346D01*
X6972494Y-17232870D01*
X6982018Y-17242394D01*
X6991542Y-17261441D01*
X7001066Y-17299537D01*
X7001066Y-17347156D01*
X6991542Y-17385251D01*
X6982018Y-17404298D01*
X6972494Y-17413822D01*
X6953447Y-17423346D01*
X6934399Y-17423346D01*
X6915351Y-17413822D01*
X6905828Y-17404298D01*
X6896304Y-17385251D01*
X6886780Y-17347156D01*
X6886780Y-17299537D01*
X6896304Y-17261441D01*
X6905828Y-17242394D01*
X6915351Y-17232870D01*
X6934399Y-17223346D01*
X7077256Y-17242394D02*
X7086780Y-17232870D01*
X7105828Y-17223346D01*
X7153447Y-17223346D01*
X7172494Y-17232870D01*
X7182018Y-17242394D01*
X7191542Y-17261441D01*
X7191542Y-17280489D01*
X7182018Y-17309060D01*
X7067732Y-17423346D01*
X7191542Y-17423346D01*
X7267732Y-17223346D02*
X7267732Y-17261441D01*
X7343923Y-17223346D02*
X7343923Y-17261441D01*
X7639161Y-17499537D02*
X7629637Y-17490013D01*
X7610590Y-17461441D01*
X7601066Y-17442394D01*
X7591542Y-17413822D01*
X7582018Y-17366203D01*
X7582018Y-17328108D01*
X7591542Y-17280489D01*
X7601066Y-17251918D01*
X7610590Y-17232870D01*
X7629637Y-17204298D01*
X7639161Y-17194775D01*
X7801066Y-17290013D02*
X7801066Y-17423346D01*
X7753447Y-17213822D02*
X7705828Y-17356679D01*
X7829637Y-17356679D01*
X7886780Y-17223346D02*
X8010590Y-17223346D01*
X7943923Y-17299537D01*
X7972494Y-17299537D01*
X7991542Y-17309060D01*
X8001066Y-17318584D01*
X8010590Y-17337632D01*
X8010590Y-17385251D01*
X8001066Y-17404298D01*
X7991542Y-17413822D01*
X7972494Y-17423346D01*
X7915351Y-17423346D01*
X7896304Y-17413822D01*
X7886780Y-17404298D01*
X8248685Y-17423346D02*
X8248685Y-17223346D01*
X8334399Y-17423346D02*
X8334399Y-17318584D01*
X8324875Y-17299537D01*
X8305828Y-17290013D01*
X8277256Y-17290013D01*
X8258209Y-17299537D01*
X8248685Y-17309060D01*
X8458209Y-17423346D02*
X8439161Y-17413822D01*
X8429637Y-17404298D01*
X8420113Y-17385251D01*
X8420113Y-17328108D01*
X8429637Y-17309060D01*
X8439161Y-17299537D01*
X8458209Y-17290013D01*
X8486780Y-17290013D01*
X8505828Y-17299537D01*
X8515352Y-17309060D01*
X8524875Y-17328108D01*
X8524875Y-17385251D01*
X8515352Y-17404298D01*
X8505828Y-17413822D01*
X8486780Y-17423346D01*
X8458209Y-17423346D01*
X8639161Y-17423346D02*
X8620113Y-17413822D01*
X8610590Y-17394775D01*
X8610590Y-17223346D01*
X8791542Y-17413822D02*
X8772494Y-17423346D01*
X8734399Y-17423346D01*
X8715352Y-17413822D01*
X8705828Y-17394775D01*
X8705828Y-17318584D01*
X8715352Y-17299537D01*
X8734399Y-17290013D01*
X8772494Y-17290013D01*
X8791542Y-17299537D01*
X8801066Y-17318584D01*
X8801066Y-17337632D01*
X8705828Y-17356679D01*
X8877256Y-17413822D02*
X8896304Y-17423346D01*
X8934399Y-17423346D01*
X8953447Y-17413822D01*
X8962971Y-17394775D01*
X8962971Y-17385251D01*
X8953447Y-17366203D01*
X8934399Y-17356679D01*
X8905828Y-17356679D01*
X8886780Y-17347156D01*
X8877256Y-17328108D01*
X8877256Y-17318584D01*
X8886780Y-17299537D01*
X8905828Y-17290013D01*
X8934399Y-17290013D01*
X8953447Y-17299537D01*
X9029637Y-17499537D02*
X9039161Y-17490013D01*
X9058209Y-17461441D01*
X9067732Y-17442394D01*
X9077256Y-17413822D01*
X9086780Y-17366203D01*
X9086780Y-17328108D01*
X9077256Y-17280489D01*
X9067732Y-17251918D01*
X9058209Y-17232870D01*
X9039161Y-17204298D01*
X9029637Y-17194775D01*
X3867256Y-17496870D02*
X4067256Y-17696870D01*
X4067256Y-17496870D02*
X3867256Y-17696870D01*
X4067256Y-17596870D02*
G75*
G03*
X4067256Y-17596870I-100000J0D01*
G01*
X4315352Y-17506394D02*
X4324875Y-17496870D01*
X4343923Y-17487346D01*
X4391542Y-17487346D01*
X4410590Y-17496870D01*
X4420113Y-17506394D01*
X4429637Y-17525441D01*
X4429637Y-17544489D01*
X4420113Y-17573060D01*
X4305828Y-17687346D01*
X4429637Y-17687346D01*
X4515352Y-17668298D02*
X4524875Y-17677822D01*
X4515352Y-17687346D01*
X4505828Y-17677822D01*
X4515352Y-17668298D01*
X4515352Y-17687346D01*
X4648685Y-17487346D02*
X4667732Y-17487346D01*
X4686780Y-17496870D01*
X4696304Y-17506394D01*
X4705828Y-17525441D01*
X4715352Y-17563537D01*
X4715352Y-17611156D01*
X4705828Y-17649251D01*
X4696304Y-17668298D01*
X4686780Y-17677822D01*
X4667732Y-17687346D01*
X4648685Y-17687346D01*
X4629637Y-17677822D01*
X4620113Y-17668298D01*
X4610590Y-17649251D01*
X4601066Y-17611156D01*
X4601066Y-17563537D01*
X4610590Y-17525441D01*
X4620113Y-17506394D01*
X4629637Y-17496870D01*
X4648685Y-17487346D01*
X4839161Y-17487346D02*
X4858209Y-17487346D01*
X4877256Y-17496870D01*
X4886780Y-17506394D01*
X4896304Y-17525441D01*
X4905828Y-17563537D01*
X4905828Y-17611156D01*
X4896304Y-17649251D01*
X4886780Y-17668298D01*
X4877256Y-17677822D01*
X4858209Y-17687346D01*
X4839161Y-17687346D01*
X4820113Y-17677822D01*
X4810590Y-17668298D01*
X4801066Y-17649251D01*
X4791542Y-17611156D01*
X4791542Y-17563537D01*
X4801066Y-17525441D01*
X4810590Y-17506394D01*
X4820113Y-17496870D01*
X4839161Y-17487346D01*
X5029637Y-17487346D02*
X5048685Y-17487346D01*
X5067732Y-17496870D01*
X5077256Y-17506394D01*
X5086780Y-17525441D01*
X5096304Y-17563537D01*
X5096304Y-17611156D01*
X5086780Y-17649251D01*
X5077256Y-17668298D01*
X5067732Y-17677822D01*
X5048685Y-17687346D01*
X5029637Y-17687346D01*
X5010590Y-17677822D01*
X5001066Y-17668298D01*
X4991542Y-17649251D01*
X4982018Y-17611156D01*
X4982018Y-17563537D01*
X4991542Y-17525441D01*
X5001066Y-17506394D01*
X5010590Y-17496870D01*
X5029637Y-17487346D01*
X5182018Y-17687346D02*
X5182018Y-17554013D01*
X5182018Y-17573060D02*
X5191542Y-17563537D01*
X5210590Y-17554013D01*
X5239161Y-17554013D01*
X5258209Y-17563537D01*
X5267732Y-17582584D01*
X5267732Y-17687346D01*
X5267732Y-17582584D02*
X5277256Y-17563537D01*
X5296304Y-17554013D01*
X5324875Y-17554013D01*
X5343923Y-17563537D01*
X5353447Y-17582584D01*
X5353447Y-17687346D01*
X5448685Y-17687346D02*
X5448685Y-17554013D01*
X5448685Y-17573060D02*
X5458209Y-17563537D01*
X5477256Y-17554013D01*
X5505828Y-17554013D01*
X5524875Y-17563537D01*
X5534399Y-17582584D01*
X5534399Y-17687346D01*
X5534399Y-17582584D02*
X5543923Y-17563537D01*
X5562971Y-17554013D01*
X5591542Y-17554013D01*
X5610590Y-17563537D01*
X5620113Y-17582584D01*
X5620113Y-17687346D01*
X6010590Y-17477822D02*
X5839161Y-17734965D01*
X6267732Y-17487346D02*
X6286780Y-17487346D01*
X6305828Y-17496870D01*
X6315351Y-17506394D01*
X6324875Y-17525441D01*
X6334399Y-17563537D01*
X6334399Y-17611156D01*
X6324875Y-17649251D01*
X6315351Y-17668298D01*
X6305828Y-17677822D01*
X6286780Y-17687346D01*
X6267732Y-17687346D01*
X6248685Y-17677822D01*
X6239161Y-17668298D01*
X6229637Y-17649251D01*
X6220113Y-17611156D01*
X6220113Y-17563537D01*
X6229637Y-17525441D01*
X6239161Y-17506394D01*
X6248685Y-17496870D01*
X6267732Y-17487346D01*
X6420113Y-17668298D02*
X6429637Y-17677822D01*
X6420113Y-17687346D01*
X6410590Y-17677822D01*
X6420113Y-17668298D01*
X6420113Y-17687346D01*
X6553447Y-17487346D02*
X6572494Y-17487346D01*
X6591542Y-17496870D01*
X6601066Y-17506394D01*
X6610590Y-17525441D01*
X6620113Y-17563537D01*
X6620113Y-17611156D01*
X6610590Y-17649251D01*
X6601066Y-17668298D01*
X6591542Y-17677822D01*
X6572494Y-17687346D01*
X6553447Y-17687346D01*
X6534399Y-17677822D01*
X6524875Y-17668298D01*
X6515351Y-17649251D01*
X6505828Y-17611156D01*
X6505828Y-17563537D01*
X6515351Y-17525441D01*
X6524875Y-17506394D01*
X6534399Y-17496870D01*
X6553447Y-17487346D01*
X6686780Y-17487346D02*
X6820113Y-17487346D01*
X6734399Y-17687346D01*
X6924875Y-17573060D02*
X6905828Y-17563537D01*
X6896304Y-17554013D01*
X6886780Y-17534965D01*
X6886780Y-17525441D01*
X6896304Y-17506394D01*
X6905828Y-17496870D01*
X6924875Y-17487346D01*
X6962970Y-17487346D01*
X6982018Y-17496870D01*
X6991542Y-17506394D01*
X7001066Y-17525441D01*
X7001066Y-17534965D01*
X6991542Y-17554013D01*
X6982018Y-17563537D01*
X6962970Y-17573060D01*
X6924875Y-17573060D01*
X6905828Y-17582584D01*
X6896304Y-17592108D01*
X6886780Y-17611156D01*
X6886780Y-17649251D01*
X6896304Y-17668298D01*
X6905828Y-17677822D01*
X6924875Y-17687346D01*
X6962970Y-17687346D01*
X6982018Y-17677822D01*
X6991542Y-17668298D01*
X7001066Y-17649251D01*
X7001066Y-17611156D01*
X6991542Y-17592108D01*
X6982018Y-17582584D01*
X6962970Y-17573060D01*
X7067732Y-17487346D02*
X7201066Y-17487346D01*
X7115351Y-17687346D01*
X7267732Y-17487346D02*
X7267732Y-17525441D01*
X7343923Y-17487346D02*
X7343923Y-17525441D01*
X7639161Y-17763537D02*
X7629637Y-17754013D01*
X7610590Y-17725441D01*
X7601066Y-17706394D01*
X7591542Y-17677822D01*
X7582018Y-17630203D01*
X7582018Y-17592108D01*
X7591542Y-17544489D01*
X7601066Y-17515918D01*
X7610590Y-17496870D01*
X7629637Y-17468298D01*
X7639161Y-17458775D01*
X7753447Y-17487346D02*
X7772494Y-17487346D01*
X7791542Y-17496870D01*
X7801066Y-17506394D01*
X7810590Y-17525441D01*
X7820113Y-17563537D01*
X7820113Y-17611156D01*
X7810590Y-17649251D01*
X7801066Y-17668298D01*
X7791542Y-17677822D01*
X7772494Y-17687346D01*
X7753447Y-17687346D01*
X7734399Y-17677822D01*
X7724875Y-17668298D01*
X7715351Y-17649251D01*
X7705828Y-17611156D01*
X7705828Y-17563537D01*
X7715351Y-17525441D01*
X7724875Y-17506394D01*
X7734399Y-17496870D01*
X7753447Y-17487346D01*
X8058209Y-17687346D02*
X8058209Y-17487346D01*
X8143923Y-17687346D02*
X8143923Y-17582584D01*
X8134399Y-17563537D01*
X8115351Y-17554013D01*
X8086780Y-17554013D01*
X8067732Y-17563537D01*
X8058209Y-17573060D01*
X8267732Y-17687346D02*
X8248685Y-17677822D01*
X8239161Y-17668298D01*
X8229637Y-17649251D01*
X8229637Y-17592108D01*
X8239161Y-17573060D01*
X8248685Y-17563537D01*
X8267732Y-17554013D01*
X8296304Y-17554013D01*
X8315351Y-17563537D01*
X8324875Y-17573060D01*
X8334399Y-17592108D01*
X8334399Y-17649251D01*
X8324875Y-17668298D01*
X8315351Y-17677822D01*
X8296304Y-17687346D01*
X8267732Y-17687346D01*
X8448685Y-17687346D02*
X8429637Y-17677822D01*
X8420113Y-17658775D01*
X8420113Y-17487346D01*
X8601066Y-17677822D02*
X8582018Y-17687346D01*
X8543923Y-17687346D01*
X8524875Y-17677822D01*
X8515352Y-17658775D01*
X8515352Y-17582584D01*
X8524875Y-17563537D01*
X8543923Y-17554013D01*
X8582018Y-17554013D01*
X8601066Y-17563537D01*
X8610590Y-17582584D01*
X8610590Y-17601632D01*
X8515352Y-17620679D01*
X8686780Y-17677822D02*
X8705828Y-17687346D01*
X8743923Y-17687346D01*
X8762971Y-17677822D01*
X8772494Y-17658775D01*
X8772494Y-17649251D01*
X8762971Y-17630203D01*
X8743923Y-17620679D01*
X8715352Y-17620679D01*
X8696304Y-17611156D01*
X8686780Y-17592108D01*
X8686780Y-17582584D01*
X8696304Y-17563537D01*
X8715352Y-17554013D01*
X8743923Y-17554013D01*
X8762971Y-17563537D01*
X9010590Y-17611156D02*
X9162971Y-17611156D01*
X9086780Y-17687346D02*
X9086780Y-17534965D01*
X9401066Y-17506394D02*
X9410590Y-17496870D01*
X9429637Y-17487346D01*
X9477256Y-17487346D01*
X9496304Y-17496870D01*
X9505828Y-17506394D01*
X9515352Y-17525441D01*
X9515352Y-17544489D01*
X9505828Y-17573060D01*
X9391542Y-17687346D01*
X9515352Y-17687346D01*
X9743923Y-17677822D02*
X9762971Y-17687346D01*
X9801066Y-17687346D01*
X9820113Y-17677822D01*
X9829637Y-17658775D01*
X9829637Y-17649251D01*
X9820113Y-17630203D01*
X9801066Y-17620679D01*
X9772494Y-17620679D01*
X9753447Y-17611156D01*
X9743923Y-17592108D01*
X9743923Y-17582584D01*
X9753447Y-17563537D01*
X9772494Y-17554013D01*
X9801066Y-17554013D01*
X9820113Y-17563537D01*
X9943923Y-17687346D02*
X9924875Y-17677822D01*
X9915352Y-17658775D01*
X9915352Y-17487346D01*
X10048685Y-17687346D02*
X10029637Y-17677822D01*
X10020113Y-17668298D01*
X10010590Y-17649251D01*
X10010590Y-17592108D01*
X10020113Y-17573060D01*
X10029637Y-17563537D01*
X10048685Y-17554013D01*
X10077256Y-17554013D01*
X10096304Y-17563537D01*
X10105828Y-17573060D01*
X10115352Y-17592108D01*
X10115352Y-17649251D01*
X10105828Y-17668298D01*
X10096304Y-17677822D01*
X10077256Y-17687346D01*
X10048685Y-17687346D01*
X10172494Y-17554013D02*
X10248685Y-17554013D01*
X10201066Y-17487346D02*
X10201066Y-17658775D01*
X10210590Y-17677822D01*
X10229637Y-17687346D01*
X10248685Y-17687346D01*
X10305828Y-17677822D02*
X10324875Y-17687346D01*
X10362971Y-17687346D01*
X10382018Y-17677822D01*
X10391542Y-17658775D01*
X10391542Y-17649251D01*
X10382018Y-17630203D01*
X10362971Y-17620679D01*
X10334399Y-17620679D01*
X10315352Y-17611156D01*
X10305828Y-17592108D01*
X10305828Y-17582584D01*
X10315352Y-17563537D01*
X10334399Y-17554013D01*
X10362971Y-17554013D01*
X10382018Y-17563537D01*
X10458209Y-17763537D02*
X10467732Y-17754013D01*
X10486780Y-17725441D01*
X10496304Y-17706394D01*
X10505828Y-17677822D01*
X10515352Y-17630203D01*
X10515352Y-17592108D01*
X10505828Y-17544489D01*
X10496304Y-17515918D01*
X10486780Y-17496870D01*
X10467732Y-17468298D01*
X10458209Y-17458775D01*
M02*
