M48
; DRILL file {KiCad (6.0.4)} date Thu Dec  1 16:18:08 2022
; FORMAT={-:-/ absolute / metric / decimal}
; #@! TF.CreationDate,2022-12-01T16:18:08-05:00
; #@! TF.GenerationSoftware,Kicad,Pcbnew,(6.0.4)
; #@! TF.FileFunction,NonPlated,1,2,NPTH
FMAT,2
METRIC
; #@! TA.AperFunction,NonPlated,NPTH,ComponentDrill
T1C1.500
; #@! TA.AperFunction,NonPlated,NPTH,ComponentDrill
T2C1.700
; #@! TA.AperFunction,NonPlated,NPTH,ComponentDrill
T3C1.800
; #@! TA.AperFunction,NonPlated,NPTH,ComponentDrill
T4C1.900
; #@! TA.AperFunction,NonPlated,NPTH,ComponentDrill
T5C4.000
%
G90
G05
T1
X116.462Y-41.716
X118.121Y-37.158
T2
X46.892Y-99.758
X50.2Y-80.997
X53.508Y-62.237
X56.897Y-101.522
X60.205Y-82.762
X63.513Y-64.001
X68.387Y-94.954
X73.318Y-76.553
X78.201Y-97.584
X78.248Y-58.152
X83.132Y-79.183
X88.062Y-60.782
X88.169Y-94.732
X93.099Y-76.332
X97.983Y-97.362
X98.03Y-57.931
X102.401Y-130.24
X102.913Y-78.961
X105.518Y-103.588
X107.844Y-60.56
X110.448Y-85.188
X111.609Y-134.534
X115.332Y-106.218
X115.379Y-66.787
X120.262Y-87.817
X122.57Y-140.718
X122.933Y-112.199
X125.193Y-69.416
X127.863Y-93.798
X131.369Y-145.798
X132.747Y-114.829
X132.794Y-75.397
X137.677Y-96.428
X142.608Y-78.027
X156.474Y-78.15
X161.404Y-96.551
X166.287Y-75.52
X166.335Y-114.952
X167.712Y-145.921
X171.218Y-93.921
X173.888Y-69.539
X176.148Y-112.322
X176.511Y-140.841
X178.819Y-87.94
X183.702Y-66.91
X183.749Y-106.341
X187.472Y-134.656
X188.633Y-85.31
X191.237Y-60.683
X193.563Y-103.711
X196.168Y-79.084
X196.68Y-130.363
X201.051Y-58.054
X201.098Y-97.485
X205.982Y-76.454
X210.912Y-94.855
X211.019Y-60.905
X215.949Y-79.306
X220.833Y-58.275
X220.88Y-97.707
X225.763Y-76.676
X230.694Y-95.077
X235.568Y-64.124
X238.876Y-82.885
X242.184Y-101.645
X245.573Y-62.36
X248.881Y-81.12
X252.189Y-99.881
T3
X113.512Y-40.961
X115.376Y-35.84
T4
X46.478Y-99.685
X49.786Y-80.925
X53.094Y-62.164
X57.311Y-101.595
X60.619Y-82.835
X63.927Y-64.074
X67.982Y-94.845
X72.912Y-76.445
X77.843Y-58.044
X78.607Y-97.692
X83.537Y-79.292
X87.763Y-94.624
X88.468Y-60.891
X92.694Y-76.223
X97.624Y-57.822
X98.388Y-97.471
X102.02Y-130.062
X103.319Y-79.07
X105.112Y-103.48
X108.249Y-60.669
X110.043Y-85.079
X111.99Y-134.711
X114.973Y-66.678
X115.737Y-106.327
X120.668Y-87.926
X122.206Y-140.508
X122.527Y-112.09
X125.598Y-69.525
X127.458Y-93.69
X131.733Y-146.008
X132.388Y-75.289
X133.152Y-114.937
X138.083Y-96.537
X143.013Y-78.136
X156.068Y-78.259
X160.998Y-96.659
X165.929Y-115.06
X166.693Y-75.412
X167.348Y-146.131
X171.624Y-93.812
X173.483Y-69.648
X176.554Y-112.213
X176.875Y-140.631
X178.413Y-88.049
X183.344Y-106.45
X184.108Y-66.801
X187.091Y-134.834
X189.038Y-85.202
X190.832Y-60.792
X193.969Y-103.603
X195.762Y-79.193
X197.061Y-130.185
X200.693Y-97.594
X201.457Y-57.945
X206.387Y-76.346
X210.613Y-61.014
X211.318Y-94.747
X215.544Y-79.414
X220.474Y-97.815
X221.238Y-58.167
X226.169Y-76.567
X231.099Y-94.968
X235.154Y-64.197
X238.462Y-82.958
X241.77Y-101.718
X245.987Y-62.287
X249.295Y-81.047
X252.603Y-99.808
T5
X51.894Y-100.64
X55.202Y-81.88
X58.51Y-63.119
X73.294Y-96.269
X78.225Y-77.868
X83.155Y-59.467
X93.076Y-96.047
X98.006Y-77.646
X102.937Y-59.245
X107.005Y-132.387
X110.425Y-104.903
X115.355Y-86.502
X120.286Y-68.101
X126.97Y-143.258
X127.84Y-113.514
X132.77Y-95.113
X137.701Y-76.712
X161.38Y-76.835
X166.311Y-95.236
X171.241Y-113.637
X172.112Y-143.381
X178.795Y-68.224
X183.726Y-86.625
X188.656Y-105.026
X192.076Y-132.509
X196.144Y-59.368
X201.075Y-77.769
X206.005Y-96.17
X215.926Y-59.59
X220.856Y-77.991
X225.787Y-96.392
X240.571Y-63.242
X243.879Y-82.003
X247.187Y-100.763
T0
M30
