%FSLAX45Y45*%
G04 Gerber Fmt 4.5, Leading zero omitted, Abs format (unit mm)*
G04 Created by KiCad (PCBNEW (6.0.4)) date 2022-12-01 16:18:11*
%MOMM*%
%LPD*%
G01*
G04 APERTURE LIST*
%ADD10C,0.200000*%
%TA.AperFunction,Profile*%
%ADD11C,0.200000*%
%TD*%
%TA.AperFunction,Profile*%
%ADD12C,0.100000*%
%TD*%
%ADD13C,0.150000*%
%ADD14C,0.170000*%
%ADD15C,0.180000*%
%ADD16C,0.190000*%
%ADD17C,0.400000*%
G04 APERTURE END LIST*
D10*
X5193632Y-11032620D02*
X5289821Y-11050469D01*
X5391143Y-11069263D01*
X5497256Y-11088939D01*
X5607816Y-11109433D01*
X5722482Y-11130683D01*
X5840909Y-11152624D01*
X5962755Y-11175194D01*
X6087678Y-11198329D01*
X6215334Y-11221966D01*
X6345380Y-11246042D01*
X6477474Y-11270493D01*
X6611272Y-11295257D01*
X6746433Y-11320269D01*
X6882612Y-11345468D01*
X7019467Y-11370789D01*
X7156656Y-11396169D01*
X7293835Y-11421546D01*
X7430662Y-11446855D01*
X7566793Y-11472033D01*
X7701886Y-11497018D01*
X7835598Y-11521746D01*
X7967585Y-11546153D01*
X8097506Y-11570177D01*
X8225018Y-11593754D01*
X8349776Y-11616821D01*
X8471440Y-11639315D01*
X8589664Y-11661172D01*
X8704108Y-11682330D01*
X8814428Y-11702724D01*
X8920280Y-11722292D01*
X9021323Y-11740971D01*
X9117213Y-11758696D01*
X5285514Y-5146744D02*
X5263907Y-5151462D01*
X5236446Y-5157459D01*
X5214315Y-5162294D01*
X5191913Y-5167193D01*
X5170239Y-5171954D01*
X5149730Y-5176577D01*
X5146904Y-5177234D01*
X24985711Y-6153445D02*
X24971650Y-6074154D01*
X24958405Y-5999601D01*
X24945933Y-5929633D01*
X24934187Y-5864096D01*
X24923123Y-5802839D01*
X24912695Y-5745707D01*
X24902860Y-5692550D01*
X24893570Y-5643212D01*
X24884782Y-5597543D01*
X24876450Y-5555388D01*
X24868530Y-5516595D01*
X24860975Y-5481012D01*
X24853742Y-5448485D01*
X24846785Y-5418862D01*
X24840059Y-5391989D01*
X24833518Y-5367714D01*
X24827119Y-5345885D01*
X24820815Y-5326348D01*
X24808314Y-5293539D01*
X24795655Y-5268065D01*
X24782478Y-5248704D01*
X24768422Y-5234233D01*
X24744900Y-5219021D01*
X24717372Y-5207935D01*
X16317318Y-15625389D02*
X16360203Y-15625523D01*
X16400621Y-15625644D01*
X16438656Y-15625749D01*
X16474391Y-15625834D01*
X16507912Y-15625896D01*
X16539302Y-15625929D01*
X16568645Y-15625931D01*
X16596024Y-15625898D01*
X16621525Y-15625826D01*
X16645232Y-15625712D01*
X16667227Y-15625550D01*
X16687596Y-15625339D01*
X16723791Y-15624749D01*
X16754487Y-15623912D01*
X16780359Y-15622798D01*
X16802077Y-15621376D01*
X16828338Y-15618601D01*
X16849038Y-15614962D01*
X16871909Y-15608592D01*
X16882831Y-15604688D01*
X20398687Y-13645698D02*
X20395087Y-13619935D01*
X20388439Y-13590667D01*
X20382310Y-13569057D01*
X20374820Y-13545662D01*
X20365969Y-13520391D01*
X20355753Y-13493154D01*
X20344170Y-13463858D01*
X20331218Y-13432414D01*
X20316895Y-13398730D01*
X20301200Y-13362716D01*
X20292836Y-13343806D01*
X20284128Y-13324280D01*
X20275076Y-13304126D01*
X20265680Y-13283332D01*
X20255938Y-13261887D01*
X20245852Y-13239780D01*
X20235419Y-13216999D01*
X20224642Y-13193534D01*
X20213518Y-13169372D01*
X20202048Y-13144502D01*
X9477789Y-13688576D02*
X9493606Y-13705375D01*
X9511861Y-13720091D01*
X9528307Y-13731630D01*
X9548940Y-13744997D01*
X9574419Y-13760577D01*
X9605400Y-13778752D01*
X9623160Y-13788933D01*
X9642541Y-13799906D01*
X9663627Y-13811720D01*
X9686500Y-13824423D01*
X9711241Y-13838062D01*
X9737932Y-13852685D01*
X9766657Y-13868341D01*
X9797497Y-13885077D01*
X9830535Y-13902941D01*
X9865851Y-13921981D01*
X9903530Y-13942245D01*
X9943652Y-13963780D01*
X9986301Y-13986636D01*
X10031557Y-14010859D01*
X10079504Y-14036498D01*
X10130223Y-14063601D01*
X10183797Y-14092215D01*
X8296483Y-4690445D02*
X8259031Y-4688814D01*
X8223259Y-4687253D01*
X8189067Y-4685772D01*
X8156353Y-4684380D01*
X8125019Y-4683088D01*
X8094964Y-4681904D01*
X8066087Y-4680838D01*
X8038289Y-4679901D01*
X8011468Y-4679100D01*
X7985525Y-4678447D01*
X7960359Y-4677951D01*
X7935870Y-4677621D01*
X7911957Y-4677467D01*
X7888521Y-4677499D01*
X7865461Y-4677725D01*
X7842676Y-4678157D01*
X7820067Y-4678803D01*
X7797533Y-4679673D01*
X7774974Y-4680776D01*
X7752289Y-4682123D01*
X7729379Y-4683722D01*
X7706142Y-4685585D01*
X7682479Y-4687719D01*
X7658290Y-4690134D01*
X7633473Y-4692842D01*
X7607929Y-4695850D01*
X7581557Y-4699168D01*
X7554257Y-4702807D01*
X7525929Y-4706775D01*
X7496472Y-4711083D01*
X7465787Y-4715740D01*
X7433772Y-4720755D01*
X5146904Y-5177236D02*
X5126041Y-5182663D01*
X5105431Y-5190347D01*
X5087744Y-5200509D01*
X5080000Y-5207000D01*
X4891260Y-6180435D02*
X4875545Y-6269703D01*
X4858972Y-6363886D01*
X4841598Y-6462656D01*
X4823481Y-6565685D01*
X4804677Y-6672645D01*
X4785244Y-6783207D01*
X4765239Y-6897043D01*
X4744719Y-7013826D01*
X4723742Y-7133227D01*
X4702365Y-7254918D01*
X4680645Y-7378572D01*
X4658638Y-7503859D01*
X4636403Y-7630453D01*
X4613997Y-7758024D01*
X4591476Y-7886245D01*
X4568898Y-8014788D01*
X4546321Y-8143325D01*
X4523801Y-8271527D01*
X4501395Y-8399066D01*
X4479161Y-8525615D01*
X4457157Y-8650845D01*
X4435438Y-8774428D01*
X4414063Y-8896036D01*
X4393088Y-9015341D01*
X4372572Y-9132015D01*
X4352570Y-9245730D01*
X4333141Y-9356158D01*
X4314341Y-9462970D01*
X4296228Y-9565839D01*
X4278858Y-9664436D01*
X4262290Y-9758434D01*
X4246580Y-9847504D01*
X14322097Y-15618739D02*
X14380859Y-15618949D01*
X14441178Y-15619164D01*
X14502920Y-15619381D01*
X14565955Y-15619602D01*
X14630148Y-15619825D01*
X14695368Y-15620051D01*
X14761482Y-15620278D01*
X14828357Y-15620507D01*
X14895862Y-15620737D01*
X14963863Y-15620968D01*
X15032228Y-15621198D01*
X15100825Y-15621429D01*
X15169521Y-15621659D01*
X15238183Y-15621888D01*
X15306680Y-15622116D01*
X15374877Y-15622342D01*
X15442644Y-15622566D01*
X15509848Y-15622787D01*
X15576355Y-15623006D01*
X15642033Y-15623221D01*
X15706751Y-15623432D01*
X15770375Y-15623639D01*
X15832773Y-15623841D01*
X15893813Y-15624038D01*
X15953361Y-15624230D01*
X16011286Y-15624417D01*
X16067454Y-15624596D01*
X16121734Y-15624770D01*
X16173993Y-15624936D01*
X16224099Y-15625095D01*
X16271918Y-15625246D01*
X16317318Y-15625389D01*
X10176375Y-11999392D02*
X10176917Y-12024444D01*
X10171782Y-12050591D01*
X10164393Y-12074905D01*
X10157678Y-12093763D01*
X10149469Y-12114994D01*
X10139708Y-12138815D01*
X10128342Y-12165444D01*
X10115315Y-12195098D01*
X10100572Y-12227996D01*
X10084057Y-12264355D01*
X10075118Y-12283900D01*
X10065715Y-12304392D01*
X10055842Y-12325858D01*
X10045491Y-12348326D01*
X10034656Y-12371822D01*
X10023330Y-12396373D01*
X11689616Y-2609477D02*
X11669411Y-2614849D01*
X11654957Y-2632582D01*
X11644668Y-2652143D01*
X11632281Y-2680245D01*
X11622501Y-2704470D01*
X11611253Y-2733612D01*
X11598322Y-2768119D01*
X11591158Y-2787525D01*
X11583493Y-2808439D01*
X11575301Y-2830919D01*
X11566553Y-2855020D01*
X11557225Y-2880799D01*
X11547288Y-2908311D01*
X11536715Y-2937612D01*
X11525481Y-2968760D01*
X7433772Y-4720755D02*
X7400358Y-4726134D01*
X7365591Y-4731863D01*
X7329547Y-4737926D01*
X7292304Y-4744305D01*
X7253937Y-4750982D01*
X7214523Y-4757940D01*
X7174139Y-4765162D01*
X7132861Y-4772630D01*
X7090765Y-4780327D01*
X7047929Y-4788235D01*
X7004427Y-4796337D01*
X6960338Y-4804616D01*
X6915737Y-4813054D01*
X6870701Y-4821633D01*
X6825306Y-4830336D01*
X6779629Y-4839147D01*
X6733746Y-4848046D01*
X6687734Y-4857018D01*
X6641669Y-4866044D01*
X6595628Y-4875107D01*
X6549687Y-4884190D01*
X6503923Y-4893275D01*
X6458412Y-4902344D01*
X6413230Y-4911381D01*
X6368455Y-4920368D01*
X6324162Y-4929288D01*
X6280428Y-4938122D01*
X6237330Y-4946855D01*
X6194943Y-4955467D01*
X6153345Y-4963942D01*
X6112612Y-4972263D01*
X6072820Y-4980412D01*
X9117213Y-11758696D02*
X9207692Y-11775423D01*
X9292838Y-11791172D01*
X9372815Y-11805981D01*
X9447785Y-11819890D01*
X9517911Y-11832936D01*
X9583357Y-11845158D01*
X9644286Y-11856594D01*
X9700860Y-11867283D01*
X9753244Y-11877262D01*
X9801599Y-11886571D01*
X9846089Y-11895248D01*
X9886877Y-11903331D01*
X9924127Y-11910858D01*
X9958001Y-11917868D01*
X9988662Y-11924400D01*
X10016273Y-11930491D01*
X10040998Y-11936181D01*
X10062999Y-11941506D01*
X10082440Y-11946507D01*
X10114293Y-11955686D01*
X10137861Y-11964026D01*
X10160534Y-11975631D01*
X10173944Y-11991032D01*
X10176375Y-11999392D01*
X24751383Y-11029485D02*
X24837108Y-11013528D01*
X24917799Y-10998478D01*
X24993611Y-10984297D01*
X25064700Y-10970943D01*
X25131219Y-10958377D01*
X25193325Y-10946557D01*
X25251173Y-10935444D01*
X25304917Y-10924997D01*
X25354713Y-10915177D01*
X25400716Y-10905941D01*
X25443081Y-10897251D01*
X25481963Y-10889066D01*
X25517518Y-10881346D01*
X25549900Y-10874050D01*
X25579264Y-10867137D01*
X25605766Y-10860569D01*
X25629561Y-10854303D01*
X25650803Y-10848301D01*
X25686253Y-10836923D01*
X25713355Y-10826113D01*
X25733352Y-10815548D01*
X25752738Y-10799454D01*
X25763116Y-10782097D01*
X25767099Y-10769285D01*
D11*
X5146904Y-5177234D02*
X5146904Y-5177234D01*
D10*
X13193263Y-15606179D02*
X13228998Y-15607756D01*
X13268419Y-15609171D01*
X13289577Y-15609823D01*
X13311733Y-15610438D01*
X13334913Y-15611019D01*
X13359143Y-15611567D01*
X13384448Y-15612084D01*
X13410854Y-15612571D01*
X13438387Y-15613030D01*
X13467071Y-15613462D01*
X13496933Y-15613868D01*
X13527999Y-15614251D01*
X13560293Y-15614611D01*
X13593842Y-15614950D01*
X13628670Y-15615270D01*
X13664804Y-15615571D01*
X13702270Y-15615856D01*
X13741092Y-15616127D01*
X13781296Y-15616383D01*
X13822908Y-15616628D01*
X13865954Y-15616862D01*
X13910459Y-15617087D01*
X13956449Y-15617305D01*
X14003949Y-15617516D01*
X14052985Y-15617723D01*
X14103582Y-15617926D01*
X14155766Y-15618128D01*
X14209563Y-15618330D01*
X14264998Y-15618533D01*
X14322097Y-15618739D01*
X12419272Y-15283134D02*
X12470279Y-15310247D01*
X12518317Y-15335760D01*
X12563510Y-15359723D01*
X12605982Y-15382186D01*
X12645857Y-15403200D01*
X12683258Y-15422814D01*
X12718310Y-15441080D01*
X12751136Y-15458047D01*
X12781860Y-15473765D01*
X12810606Y-15488285D01*
X12837498Y-15501657D01*
X12862660Y-15513931D01*
X12886215Y-15525157D01*
X12908287Y-15535385D01*
X12929001Y-15544667D01*
X12948480Y-15553051D01*
X12984229Y-15567329D01*
X13016524Y-15578622D01*
X13046357Y-15587331D01*
X13074718Y-15593858D01*
X13102598Y-15598604D01*
X13130989Y-15601972D01*
X13160880Y-15604363D01*
X13193263Y-15606179D01*
X20202048Y-13144502D02*
X20190235Y-13118925D01*
X20178102Y-13092683D01*
X20165675Y-13065832D01*
X20152978Y-13038425D01*
X20140038Y-13010519D01*
X20126881Y-12982166D01*
X20113533Y-12953423D01*
X20100019Y-12924344D01*
X20086366Y-12894984D01*
X20072598Y-12865396D01*
X20058743Y-12835636D01*
X20044826Y-12805759D01*
X20030872Y-12775819D01*
X20016908Y-12745871D01*
X20002959Y-12715970D01*
X19989052Y-12686170D01*
X19975211Y-12656526D01*
X19961464Y-12627092D01*
X19947836Y-12597924D01*
X19934352Y-12569076D01*
X19921039Y-12540602D01*
X19907922Y-12512558D01*
X19895028Y-12484998D01*
X19882382Y-12457976D01*
X19870009Y-12431548D01*
X19857937Y-12405768D01*
X19846190Y-12380691D01*
X19834794Y-12356371D01*
X19823776Y-12332864D01*
X19813161Y-12310223D01*
X19802976Y-12288504D01*
X19793245Y-12267760D01*
X19745193Y-4858248D02*
X19709823Y-4868714D01*
X19674424Y-4879175D01*
X19639030Y-4889624D01*
X19603672Y-4900050D01*
X19568384Y-4910445D01*
X19533198Y-4920800D01*
X19498147Y-4931107D01*
X19463262Y-4941357D01*
X19428576Y-4951541D01*
X19394122Y-4961650D01*
X19359932Y-4971675D01*
X19326039Y-4981607D01*
X19292476Y-4991439D01*
X19259274Y-5001160D01*
X19226466Y-5010762D01*
X19194085Y-5020237D01*
X19162163Y-5029575D01*
X19130732Y-5038768D01*
X19099826Y-5047807D01*
X19069476Y-5056683D01*
X19039716Y-5065388D01*
X19010577Y-5073912D01*
X18982092Y-5082246D01*
X18954293Y-5090383D01*
X18927214Y-5098313D01*
X18900886Y-5106027D01*
X18875342Y-5113517D01*
X18850615Y-5120774D01*
X18826736Y-5127788D01*
X18803739Y-5134552D01*
X18781656Y-5141056D01*
X18760519Y-5147292D01*
X9896948Y-4754021D02*
X9851370Y-4752328D01*
X9804522Y-4750578D01*
X9756502Y-4748776D01*
X9707408Y-4746923D01*
X9657340Y-4745026D01*
X9606395Y-4743086D01*
X9554672Y-4741109D01*
X9502269Y-4739098D01*
X9449284Y-4737056D01*
X9395817Y-4734988D01*
X9341964Y-4732897D01*
X9287826Y-4730787D01*
X9233500Y-4728662D01*
X9179084Y-4726525D01*
X9124677Y-4724381D01*
X9070378Y-4722233D01*
X9016284Y-4720085D01*
X8962495Y-4717941D01*
X8909108Y-4715805D01*
X8856222Y-4713680D01*
X8803935Y-4711570D01*
X8752347Y-4709479D01*
X8701554Y-4707411D01*
X8651656Y-4705369D01*
X8602751Y-4703357D01*
X8554937Y-4701380D01*
X8508313Y-4699441D01*
X8462977Y-4697543D01*
X8419028Y-4695691D01*
X8376563Y-4693888D01*
X8335682Y-4692138D01*
X8296483Y-4690445D01*
X25767099Y-10769285D02*
X25770990Y-10746980D01*
X25772349Y-10717988D01*
X25771601Y-10693163D01*
X25769353Y-10662694D01*
X25765458Y-10625512D01*
X25762845Y-10604069D01*
X25759765Y-10580548D01*
X25756198Y-10554813D01*
X25752125Y-10526733D01*
X25747528Y-10496172D01*
X25742388Y-10462998D01*
X25736687Y-10427077D01*
X25730406Y-10388275D01*
X25723526Y-10346459D01*
X25716028Y-10301495D01*
X25707894Y-10253250D01*
X25699105Y-10201589D01*
X25689643Y-10146380D01*
X25679488Y-10087488D01*
X25668623Y-10024780D01*
X25657027Y-9958123D01*
X25644684Y-9887383D01*
X25631573Y-9812426D01*
X25617677Y-9733119D01*
X25602976Y-9649328D01*
X14449974Y-3571971D02*
X14376759Y-3545986D01*
X14302862Y-3519756D01*
X14228386Y-3493317D01*
X14153432Y-3466707D01*
X14078103Y-3439963D01*
X14002499Y-3413120D01*
X13926725Y-3386216D01*
X13850880Y-3359287D01*
X13775069Y-3332370D01*
X13699392Y-3305501D01*
X13623952Y-3278718D01*
X13548850Y-3252057D01*
X13474189Y-3225555D01*
X13400071Y-3199248D01*
X13326598Y-3173173D01*
X13253872Y-3147367D01*
X13181995Y-3121866D01*
X13111069Y-3096707D01*
X13041196Y-3071927D01*
X12972479Y-3047562D01*
X12905018Y-3023649D01*
X12838917Y-3000225D01*
X12774277Y-2977327D01*
X12711201Y-2954991D01*
X12649789Y-2933253D01*
X12590146Y-2912151D01*
X12532372Y-2891722D01*
X12476569Y-2872001D01*
X12422840Y-2853025D01*
X12371287Y-2834832D01*
X12322012Y-2817458D01*
X12275116Y-2800939D01*
X16884322Y-4482732D02*
X16863024Y-4472224D01*
X16842595Y-4462165D01*
X16822956Y-4452520D01*
X16804022Y-4443258D01*
X16785712Y-4434345D01*
X16750634Y-4417435D01*
X16717063Y-4401527D01*
X16684342Y-4386358D01*
X16651810Y-4371665D01*
X16618811Y-4357185D01*
X16584686Y-4342655D01*
X16548776Y-4327811D01*
X16529946Y-4320189D01*
X16510423Y-4312390D01*
X16490125Y-4304381D01*
X16468969Y-4296129D01*
X16446873Y-4287602D01*
X16423754Y-4278766D01*
X16399531Y-4269588D01*
X16374121Y-4260036D01*
X16347442Y-4250077D01*
X16319412Y-4239677D01*
X16289948Y-4228805D01*
X16258967Y-4217426D01*
X16226389Y-4205508D01*
X16226389Y-4205508D02*
X16192148Y-4193026D01*
X16156254Y-4179981D01*
X16118736Y-4166383D01*
X16079622Y-4152240D01*
X16038939Y-4137561D01*
X15996715Y-4122356D01*
X15952980Y-4106634D01*
X15907759Y-4090404D01*
X15861083Y-4073674D01*
X15812978Y-4056454D01*
X15763472Y-4038754D01*
X15712594Y-4020581D01*
X15660372Y-4001945D01*
X15606833Y-3982856D01*
X15552006Y-3963321D01*
X15495919Y-3943351D01*
X15438599Y-3922955D01*
X15380075Y-3902141D01*
X15320375Y-3880918D01*
X15259526Y-3859296D01*
X15197558Y-3837283D01*
X15134497Y-3814889D01*
X15070371Y-3792123D01*
X15005210Y-3768993D01*
X14939040Y-3745510D01*
X14871890Y-3721681D01*
X14803787Y-3697517D01*
X14734761Y-3673025D01*
X14664838Y-3648216D01*
X14594048Y-3623098D01*
X14522417Y-3597680D01*
X14449974Y-3571971D01*
X4246580Y-9847504D02*
X4231773Y-9931400D01*
X4217859Y-10010203D01*
X4204816Y-10084077D01*
X4192621Y-10153184D01*
X4181253Y-10217687D01*
X4170690Y-10277750D01*
X4160908Y-10333535D01*
X4151886Y-10385206D01*
X4143602Y-10432926D01*
X4136032Y-10476858D01*
X4129156Y-10517165D01*
X4122950Y-10554010D01*
X4117392Y-10587556D01*
X4112461Y-10617966D01*
X4108133Y-10645404D01*
X4104387Y-10670033D01*
X4101200Y-10692015D01*
X4096415Y-10728692D01*
X4093600Y-10756741D01*
X4092577Y-10777466D01*
X4094013Y-10797677D01*
X4105372Y-10815086D01*
X12275116Y-2800939D02*
X12230674Y-2785302D01*
X12188641Y-2770533D01*
X12148945Y-2756608D01*
X12111515Y-2743501D01*
X12076277Y-2731188D01*
X12043160Y-2719645D01*
X12012091Y-2708848D01*
X11982998Y-2698771D01*
X11955809Y-2689391D01*
X11930451Y-2680682D01*
X11906852Y-2672621D01*
X11884940Y-2665183D01*
X11864643Y-2658343D01*
X11828603Y-2646360D01*
X11798153Y-2636476D01*
X11772716Y-2628495D01*
X11751714Y-2622222D01*
X11727258Y-2615584D01*
X11704773Y-2610880D01*
X11689616Y-2609477D01*
X21584458Y-4649790D02*
X21533565Y-4641085D01*
X21485324Y-4632850D01*
X21439622Y-4625079D01*
X21396347Y-4617772D01*
X21355388Y-4610923D01*
X21316632Y-4604530D01*
X21279967Y-4598590D01*
X21245280Y-4593099D01*
X21212461Y-4588055D01*
X21181397Y-4583453D01*
X21151975Y-4579291D01*
X21124084Y-4575565D01*
X21097611Y-4572273D01*
X21072445Y-4569410D01*
X21048473Y-4566974D01*
X21025584Y-4564962D01*
X21003665Y-4563369D01*
X20982604Y-4562194D01*
X20962289Y-4561432D01*
X20923449Y-4561136D01*
X20886249Y-4562455D01*
X20849791Y-4565364D01*
X20813179Y-4569837D01*
X20775517Y-4575848D01*
X20735907Y-4583370D01*
X20715092Y-4587690D01*
X9577568Y-13361825D02*
X9567171Y-13384234D01*
X9557320Y-13405469D01*
X9548009Y-13425568D01*
X9539229Y-13444571D01*
X9523232Y-13479442D01*
X9509268Y-13510390D01*
X9497275Y-13537726D01*
X9487191Y-13561759D01*
X9478954Y-13582800D01*
X9469929Y-13609425D01*
X9464714Y-13631059D01*
X9463327Y-13653944D01*
X9469846Y-13676458D01*
X9477789Y-13688576D01*
X11031667Y-4334881D02*
X11019859Y-4367456D01*
X11008663Y-4398268D01*
X10998039Y-4427369D01*
X10987946Y-4454810D01*
X10978341Y-4480642D01*
X10969184Y-4504919D01*
X10960433Y-4527690D01*
X10952047Y-4549009D01*
X10943985Y-4568926D01*
X10936206Y-4587494D01*
X10921330Y-4620788D01*
X10907088Y-4649304D01*
X10893151Y-4673456D01*
X10879188Y-4693657D01*
X10864869Y-4710321D01*
X10849864Y-4723863D01*
X10825347Y-4739224D01*
X10797427Y-4749885D01*
X10776374Y-4755070D01*
X10752983Y-4759201D01*
X10023330Y-12396373D02*
X10011513Y-12421991D01*
X9999230Y-12448620D01*
X9986515Y-12476189D01*
X9973400Y-12504625D01*
X9959919Y-12533857D01*
X9946104Y-12563813D01*
X9931989Y-12594421D01*
X9917606Y-12625610D01*
X9902988Y-12657308D01*
X9888167Y-12689443D01*
X9873178Y-12721944D01*
X9858052Y-12754738D01*
X9842823Y-12787754D01*
X9827523Y-12820921D01*
X9812186Y-12854166D01*
X9796844Y-12887417D01*
X9781530Y-12920604D01*
X9766277Y-12953654D01*
X9751118Y-12986495D01*
X9736086Y-13019057D01*
X9721214Y-13051266D01*
X9706534Y-13083052D01*
X9692080Y-13114342D01*
X9677885Y-13145065D01*
X9663980Y-13175149D01*
X9650400Y-13204523D01*
X9637177Y-13233114D01*
X9624343Y-13260852D01*
X9611933Y-13287663D01*
X9599978Y-13313477D01*
X9588512Y-13338221D01*
X9577568Y-13361825D01*
X6072820Y-4980412D02*
X6034031Y-4988374D01*
X5996252Y-4996147D01*
X5959471Y-5003734D01*
X5923680Y-5011133D01*
X5888870Y-5018347D01*
X5855032Y-5025377D01*
X5822155Y-5032224D01*
X5790230Y-5038888D01*
X5759249Y-5045370D01*
X5729202Y-5051672D01*
X5700079Y-5057795D01*
X5671871Y-5063740D01*
X5644569Y-5069507D01*
X5618164Y-5075098D01*
X5592646Y-5080513D01*
X5568005Y-5085755D01*
X5544234Y-5090823D01*
X5521321Y-5095719D01*
X5499258Y-5100443D01*
X5478035Y-5104997D01*
X5457643Y-5109383D01*
X5438073Y-5113600D01*
X5401361Y-5121533D01*
X5367824Y-5128806D01*
X5337387Y-5135427D01*
X5309975Y-5141403D01*
X5285514Y-5146744D01*
X19797677Y-14054483D02*
X19848528Y-14027342D01*
X19896485Y-14001739D01*
X19941632Y-13977612D01*
X19984050Y-13954900D01*
X20023822Y-13933542D01*
X20061030Y-13913477D01*
X20095758Y-13894645D01*
X20128086Y-13876983D01*
X20158098Y-13860431D01*
X20185877Y-13844929D01*
X20211504Y-13830414D01*
X20235062Y-13816826D01*
X20256633Y-13804104D01*
X20276301Y-13792187D01*
X20294147Y-13781013D01*
X20324703Y-13760653D01*
X20348961Y-13742535D01*
X20367582Y-13726171D01*
X20381224Y-13711073D01*
X20393795Y-13689730D01*
X20398874Y-13668488D01*
X20398687Y-13645698D01*
X24717372Y-5207935D02*
X24696178Y-5200985D01*
X24672203Y-5193934D01*
X24644991Y-5186680D01*
X24614082Y-5179120D01*
X24579019Y-5171153D01*
X24539343Y-5162678D01*
X24517633Y-5158218D01*
X24494598Y-5153592D01*
X24470181Y-5148788D01*
X24444324Y-5143794D01*
X24416971Y-5138596D01*
X24388064Y-5133181D01*
X24357545Y-5127538D01*
X24325359Y-5121653D01*
X24291446Y-5115513D01*
X24255751Y-5109107D01*
X24218216Y-5102420D01*
X24178783Y-5095441D01*
X24137396Y-5088156D01*
X24093997Y-5080553D01*
X24048528Y-5072620D01*
X24000933Y-5064342D01*
X23951155Y-5055709D01*
X23899135Y-5046707D01*
X23844817Y-5037322D01*
X23788144Y-5027544D01*
X16882831Y-15604688D02*
X16907030Y-15594860D01*
X16929933Y-15584426D01*
X16948751Y-15575349D01*
X16971208Y-15564164D01*
X16997990Y-15550517D01*
X17029782Y-15534057D01*
X17047771Y-15524661D01*
X17067270Y-15514428D01*
X17088364Y-15503316D01*
X17111138Y-15491280D01*
X17135680Y-15478275D01*
X17162074Y-15464257D01*
X17190406Y-15449183D01*
X17220761Y-15433009D01*
X17253226Y-15415689D01*
X17287886Y-15397180D01*
X17324827Y-15377438D01*
X17364134Y-15356419D01*
X17405893Y-15334079D01*
X17450190Y-15310373D01*
X17497110Y-15285257D01*
X17546740Y-15258687D01*
X17599165Y-15230620D01*
X18372420Y-5196093D02*
X18350206Y-5189112D01*
X18326483Y-5180912D01*
X18301182Y-5171488D01*
X18274231Y-5160835D01*
X18245560Y-5148947D01*
X18215100Y-5135819D01*
X18182778Y-5121445D01*
X18148526Y-5105821D01*
X18112273Y-5088941D01*
X18093374Y-5080028D01*
X18073948Y-5070799D01*
X18053987Y-5061253D01*
X18033481Y-5051389D01*
X18012422Y-5041208D01*
X17990801Y-5030708D01*
X17968610Y-5019888D01*
X17945839Y-5008748D01*
X17922480Y-4997288D01*
X17898523Y-4985506D01*
X17873961Y-4973401D01*
X17848784Y-4960974D01*
X17822984Y-4948224D01*
X17796551Y-4935149D01*
X18760519Y-5147292D02*
X18740348Y-5153252D01*
X18721115Y-5158934D01*
X18685293Y-5169461D01*
X18652717Y-5178866D01*
X18623053Y-5187143D01*
X18595966Y-5194285D01*
X18571122Y-5200285D01*
X18548186Y-5205138D01*
X18526824Y-5208836D01*
X18506701Y-5211374D01*
X18478107Y-5212990D01*
X18450418Y-5211958D01*
X18422505Y-5208256D01*
X18393239Y-5201862D01*
X18372420Y-5196093D01*
X19793245Y-12267760D02*
X19783991Y-12248034D01*
X19775220Y-12229307D01*
X19759135Y-12194725D01*
X19745005Y-12163765D01*
X19732847Y-12136174D01*
X19722678Y-12111702D01*
X19714512Y-12090098D01*
X19706058Y-12062517D01*
X19702206Y-12039975D01*
X19704321Y-12016290D01*
X19714845Y-11998045D01*
X19733906Y-11983229D01*
X19746679Y-11976478D01*
X20984937Y-11725854D02*
X21080809Y-11708158D01*
X21181232Y-11689623D01*
X21285891Y-11670307D01*
X21394471Y-11650268D01*
X21506658Y-11629562D01*
X21622139Y-11608249D01*
X21740598Y-11586384D01*
X21861723Y-11564027D01*
X21985198Y-11541234D01*
X22110710Y-11518064D01*
X22237945Y-11494574D01*
X22366587Y-11470821D01*
X22496324Y-11446864D01*
X22626841Y-11422760D01*
X22757823Y-11398567D01*
X22888958Y-11374341D01*
X23019929Y-11350142D01*
X23150424Y-11326027D01*
X23280129Y-11302053D01*
X23408728Y-11278278D01*
X23535908Y-11254759D01*
X23661356Y-11231555D01*
X23784755Y-11208723D01*
X23905793Y-11186320D01*
X24024156Y-11164405D01*
X24139528Y-11143034D01*
X24251597Y-11122267D01*
X24360047Y-11102159D01*
X24464565Y-11082770D01*
X24564836Y-11064156D01*
X24660547Y-11046375D01*
X24751383Y-11029485D01*
X4105372Y-10815086D02*
X4124519Y-10824371D01*
X4147011Y-10831199D01*
X4169338Y-10836819D01*
X4199068Y-10843598D01*
X4237520Y-10851798D01*
X4260429Y-10856512D01*
X4286013Y-10861679D01*
X4314436Y-10867332D01*
X4345864Y-10873504D01*
X4380462Y-10880226D01*
X4418394Y-10887532D01*
X4459824Y-10895455D01*
X4504919Y-10904026D01*
X4553842Y-10913280D01*
X4606758Y-10923247D01*
X4663833Y-10933961D01*
X4725231Y-10945455D01*
X4791117Y-10957762D01*
X4861655Y-10970913D01*
X4937011Y-10984941D01*
X5017349Y-10999880D01*
X5102835Y-11015762D01*
X5193632Y-11032620D01*
X19746679Y-11976478D02*
X19770534Y-11966481D01*
X19790966Y-11959562D01*
X19816279Y-11952171D01*
X19847555Y-11944077D01*
X19885872Y-11935049D01*
X19908009Y-11930113D01*
X19932310Y-11924857D01*
X19958912Y-11919252D01*
X19987950Y-11913270D01*
X20019557Y-11906881D01*
X20053869Y-11900057D01*
X20091022Y-11892768D01*
X20131149Y-11884987D01*
X20174386Y-11876684D01*
X20220869Y-11867831D01*
X20270731Y-11858398D01*
X20324108Y-11848356D01*
X20381135Y-11837678D01*
X20441946Y-11826333D01*
X20506677Y-11814294D01*
X20575463Y-11801531D01*
X20648439Y-11788016D01*
X20725739Y-11773720D01*
X20807499Y-11758613D01*
X20893853Y-11742667D01*
X20984937Y-11725854D01*
X10752983Y-4759201D02*
X10726950Y-4762626D01*
X10698073Y-4765435D01*
X10666177Y-4767652D01*
X10631086Y-4769304D01*
X10592624Y-4770414D01*
X10572075Y-4770774D01*
X10550618Y-4771008D01*
X10528230Y-4771119D01*
X10504890Y-4771110D01*
X10480576Y-4770985D01*
X10455266Y-4770746D01*
X10428937Y-4770397D01*
X10401569Y-4769940D01*
X10373140Y-4769379D01*
X10343626Y-4768717D01*
X10313007Y-4767957D01*
X10281260Y-4767102D01*
X10248363Y-4766156D01*
X10214295Y-4765120D01*
X10179034Y-4764000D01*
X10142557Y-4762797D01*
X10104843Y-4761514D01*
X10065870Y-4760155D01*
X10025616Y-4758724D01*
X9984059Y-4757222D01*
X9941177Y-4755654D01*
X9896948Y-4754021D01*
X5080000Y-5207000D02*
X5069396Y-5224519D01*
X5063002Y-5245091D01*
X5057770Y-5266146D01*
X5051472Y-5294584D01*
X5043862Y-5331700D01*
X5039487Y-5353916D01*
X5034692Y-5378787D01*
X5029446Y-5406474D01*
X5023716Y-5437140D01*
X5017473Y-5470945D01*
X5010686Y-5508053D01*
X5003324Y-5548624D01*
X4995355Y-5592821D01*
X4986749Y-5640805D01*
X4977476Y-5692738D01*
X4967503Y-5748782D01*
X4956801Y-5809099D01*
X4945338Y-5873850D01*
X4933083Y-5943197D01*
X4920006Y-6017303D01*
X4906075Y-6096328D01*
X4891260Y-6180435D01*
X25602976Y-9649328D02*
X25587465Y-9560991D01*
X25571184Y-9468334D01*
X25554184Y-9371655D01*
X25536520Y-9271249D01*
X25518244Y-9167415D01*
X25499408Y-9060450D01*
X25480064Y-8950649D01*
X25460267Y-8838312D01*
X25440067Y-8723734D01*
X25419519Y-8607212D01*
X25398674Y-8489045D01*
X25377586Y-8369529D01*
X25356306Y-8248960D01*
X25334888Y-8127637D01*
X25313384Y-8005857D01*
X25291847Y-7883915D01*
X25270330Y-7762111D01*
X25248884Y-7640739D01*
X25227564Y-7520099D01*
X25206420Y-7400486D01*
X25185507Y-7282198D01*
X25164877Y-7165532D01*
X25144582Y-7050785D01*
X25124676Y-6938255D01*
X25105210Y-6828237D01*
X25086237Y-6721030D01*
X25067810Y-6616931D01*
X25049982Y-6516236D01*
X25032806Y-6419243D01*
X25016333Y-6326249D01*
X25000617Y-6237550D01*
X24985711Y-6153445D01*
X20715092Y-4587690D02*
X20693476Y-4592376D01*
X20671062Y-4597419D01*
X20647872Y-4602808D01*
X20623930Y-4608531D01*
X20599261Y-4614577D01*
X20573889Y-4620934D01*
X20547836Y-4627591D01*
X20521127Y-4634537D01*
X20493786Y-4641759D01*
X20465836Y-4649248D01*
X20437302Y-4656991D01*
X20408206Y-4664978D01*
X20378574Y-4673196D01*
X20348428Y-4681634D01*
X20317793Y-4690282D01*
X20286692Y-4699127D01*
X20255150Y-4708158D01*
X20223189Y-4717364D01*
X20190835Y-4726734D01*
X20158110Y-4736256D01*
X20125038Y-4745919D01*
X20091644Y-4755711D01*
X20057951Y-4765621D01*
X20023983Y-4775638D01*
X19989763Y-4785750D01*
X19955316Y-4795946D01*
X19920666Y-4806214D01*
X19885836Y-4816544D01*
X19850849Y-4826924D01*
X19815731Y-4837342D01*
X19780504Y-4847787D01*
X19745193Y-4858248D01*
X11525481Y-2968760D02*
X11513570Y-3001779D01*
X11501012Y-3036585D01*
X11487849Y-3073059D01*
X11474123Y-3111086D01*
X11459877Y-3150551D01*
X11445151Y-3191336D01*
X11429989Y-3233325D01*
X11414432Y-3276403D01*
X11398521Y-3320454D01*
X11382300Y-3365361D01*
X11365810Y-3411008D01*
X11349092Y-3457278D01*
X11332190Y-3504057D01*
X11315144Y-3551227D01*
X11297997Y-3598673D01*
X11280791Y-3646278D01*
X11263567Y-3693927D01*
X11246368Y-3741503D01*
X11229236Y-3788890D01*
X11212212Y-3835971D01*
X11195338Y-3882632D01*
X11178658Y-3928755D01*
X11162211Y-3974224D01*
X11146041Y-4018924D01*
X11130190Y-4062738D01*
X11114698Y-4105551D01*
X11099609Y-4147245D01*
X11084965Y-4187705D01*
X11070806Y-4226815D01*
X11057176Y-4264458D01*
X11044115Y-4300519D01*
X11031667Y-4334881D01*
X10183797Y-14092215D02*
X10240263Y-14122363D01*
X10299477Y-14153970D01*
X10361250Y-14186936D01*
X10425395Y-14221161D01*
X10491723Y-14256543D01*
X10560046Y-14292984D01*
X10630174Y-14330381D01*
X10701921Y-14368636D01*
X10775096Y-14407648D01*
X10849513Y-14447316D01*
X10924981Y-14487541D01*
X11001314Y-14528222D01*
X11078323Y-14569258D01*
X11155819Y-14610550D01*
X11233613Y-14651996D01*
X11311518Y-14693498D01*
X11389345Y-14734954D01*
X11466906Y-14776264D01*
X11544012Y-14817328D01*
X11620475Y-14858046D01*
X11696106Y-14898317D01*
X11770716Y-14938042D01*
X11844119Y-14977118D01*
X11916124Y-15015448D01*
X11986545Y-15052929D01*
X12055191Y-15089462D01*
X12121876Y-15124947D01*
X12186409Y-15159283D01*
X12248604Y-15192370D01*
X12308272Y-15224108D01*
X12365224Y-15254396D01*
X12419272Y-15283134D01*
X17599165Y-15230620D02*
X17654425Y-15201034D01*
X17712382Y-15170005D01*
X17772854Y-15137630D01*
X17835657Y-15104007D01*
X17900609Y-15069235D01*
X17967525Y-15033412D01*
X18036224Y-14996635D01*
X18106522Y-14959004D01*
X18178237Y-14920615D01*
X18251185Y-14881568D01*
X18325183Y-14841960D01*
X18400048Y-14801890D01*
X18475598Y-14761456D01*
X18551649Y-14720755D01*
X18628019Y-14679886D01*
X18704524Y-14638947D01*
X18780981Y-14598036D01*
X18857207Y-14557252D01*
X18933020Y-14516692D01*
X19008236Y-14476454D01*
X19082672Y-14436637D01*
X19156146Y-14397339D01*
X19228474Y-14358658D01*
X19299473Y-14320692D01*
X19368961Y-14283540D01*
X19436754Y-14247298D01*
X19502670Y-14212066D01*
X19566524Y-14177942D01*
X19628135Y-14145023D01*
X19687320Y-14113408D01*
X19743895Y-14083195D01*
X19797677Y-14054483D01*
X17796551Y-4935149D02*
X17769487Y-4921753D01*
X17741832Y-4908058D01*
X17713635Y-4894088D01*
X17684947Y-4879869D01*
X17655817Y-4865426D01*
X17626295Y-4850784D01*
X17596431Y-4835968D01*
X17566275Y-4821004D01*
X17535876Y-4805916D01*
X17505285Y-4790730D01*
X17474550Y-4775471D01*
X17443722Y-4760164D01*
X17412851Y-4744834D01*
X17381987Y-4729507D01*
X17351179Y-4714207D01*
X17320477Y-4698960D01*
X17289931Y-4683791D01*
X17259591Y-4668725D01*
X17229506Y-4653788D01*
X17199726Y-4639004D01*
X17170302Y-4624398D01*
X17141283Y-4609997D01*
X17112718Y-4595824D01*
X17084659Y-4581906D01*
X17057153Y-4568267D01*
X17030252Y-4554933D01*
X17004005Y-4541928D01*
X16978461Y-4529278D01*
X16953672Y-4517009D01*
X16929685Y-4505144D01*
X16906552Y-4493710D01*
X16884322Y-4482732D01*
X23788144Y-5027544D02*
X23729094Y-5017365D01*
X23667794Y-5006806D01*
X23604405Y-4995895D01*
X23539088Y-4984660D01*
X23472006Y-4973127D01*
X23403320Y-4961324D01*
X23333193Y-4949279D01*
X23261785Y-4937020D01*
X23189258Y-4924573D01*
X23115775Y-4911966D01*
X23041497Y-4899227D01*
X22966585Y-4886383D01*
X22891202Y-4873461D01*
X22815510Y-4860490D01*
X22739669Y-4847496D01*
X22663842Y-4834507D01*
X22588190Y-4821551D01*
X22512876Y-4808655D01*
X22438060Y-4795846D01*
X22363906Y-4783152D01*
X22290573Y-4770600D01*
X22218225Y-4758219D01*
X22147023Y-4746034D01*
X22077128Y-4734075D01*
X22008703Y-4722368D01*
X21941909Y-4710940D01*
X21876908Y-4699820D01*
X21813862Y-4689035D01*
X21752932Y-4678611D01*
X21694280Y-4668578D01*
X21638068Y-4658962D01*
X21584458Y-4649790D01*
D12*
X15189200Y-8509000D02*
G75*
G03*
X15189200Y-8509000I-254000J0D01*
G01*
D10*
D13*
X11571172Y-4096562D02*
X11721172Y-4246562D01*
X11721172Y-4096562D02*
X11571172Y-4246562D01*
X11737052Y-3640811D02*
X11887052Y-3790811D01*
X11887052Y-3640811D02*
X11737052Y-3790811D01*
D14*
X4774166Y-9975807D02*
G75*
G03*
X4774166Y-9975807I-85000J0D01*
G01*
X5104966Y-8099748D02*
G75*
G03*
X5104966Y-8099748I-85000J0D01*
G01*
X5435765Y-6223689D02*
G75*
G03*
X5435765Y-6223689I-85000J0D01*
G01*
X5774730Y-10152233D02*
G75*
G03*
X5774730Y-10152233I-85000J0D01*
G01*
X6105530Y-8276175D02*
G75*
G03*
X6105530Y-8276175I-85000J0D01*
G01*
X6436330Y-6400116D02*
G75*
G03*
X6436330Y-6400116I-85000J0D01*
G01*
X6923749Y-9495414D02*
G75*
G03*
X6923749Y-9495414I-85000J0D01*
G01*
X7416799Y-7655325D02*
G75*
G03*
X7416799Y-7655325I-85000J0D01*
G01*
X7905130Y-9758374D02*
G75*
G03*
X7905130Y-9758374I-85000J0D01*
G01*
X7909850Y-5815237D02*
G75*
G03*
X7909850Y-5815237I-85000J0D01*
G01*
X8398180Y-7918285D02*
G75*
G03*
X8398180Y-7918285I-85000J0D01*
G01*
X8891230Y-6078197D02*
G75*
G03*
X8891230Y-6078197I-85000J0D01*
G01*
X8901892Y-9473239D02*
G75*
G03*
X8901892Y-9473239I-85000J0D01*
G01*
X9394942Y-7633151D02*
G75*
G03*
X9394942Y-7633151I-85000J0D01*
G01*
X9883273Y-9736200D02*
G75*
G03*
X9883273Y-9736200I-85000J0D01*
G01*
X9887993Y-5793062D02*
G75*
G03*
X9887993Y-5793062I-85000J0D01*
G01*
X10325108Y-13023970D02*
G75*
G03*
X10325108Y-13023970I-85000J0D01*
G01*
X10376323Y-7896111D02*
G75*
G03*
X10376323Y-7896111I-85000J0D01*
G01*
X10636797Y-10358842D02*
G75*
G03*
X10636797Y-10358842I-85000J0D01*
G01*
X10869373Y-6056022D02*
G75*
G03*
X10869373Y-6056022I-85000J0D01*
G01*
X11129847Y-8518753D02*
G75*
G03*
X11129847Y-8518753I-85000J0D01*
G01*
X11245917Y-13453350D02*
G75*
G03*
X11245917Y-13453350I-85000J0D01*
G01*
X11618177Y-10621802D02*
G75*
G03*
X11618177Y-10621802I-85000J0D01*
G01*
X11622897Y-6678665D02*
G75*
G03*
X11622897Y-6678665I-85000J0D01*
G01*
X12111228Y-8781714D02*
G75*
G03*
X12111228Y-8781714I-85000J0D01*
G01*
X12342020Y-14071823D02*
G75*
G03*
X12342020Y-14071823I-85000J0D01*
G01*
X12378275Y-11219910D02*
G75*
G03*
X12378275Y-11219910I-85000J0D01*
G01*
X12604278Y-6941625D02*
G75*
G03*
X12604278Y-6941625I-85000J0D01*
G01*
X12871326Y-9379821D02*
G75*
G03*
X12871326Y-9379821I-85000J0D01*
G01*
X13221902Y-14579823D02*
G75*
G03*
X13221902Y-14579823I-85000J0D01*
G01*
X13359656Y-11482870D02*
G75*
G03*
X13359656Y-11482870I-85000J0D01*
G01*
X13364376Y-7539733D02*
G75*
G03*
X13364376Y-7539733I-85000J0D01*
G01*
X13852706Y-9642782D02*
G75*
G03*
X13852706Y-9642782I-85000J0D01*
G01*
X14345756Y-7802693D02*
G75*
G03*
X14345756Y-7802693I-85000J0D01*
G01*
X15732357Y-7814983D02*
G75*
G03*
X15732357Y-7814983I-85000J0D01*
G01*
X16225407Y-9655071D02*
G75*
G03*
X16225407Y-9655071I-85000J0D01*
G01*
X16713738Y-7552022D02*
G75*
G03*
X16713738Y-7552022I-85000J0D01*
G01*
X16718458Y-11495160D02*
G75*
G03*
X16718458Y-11495160I-85000J0D01*
G01*
X16856212Y-14592113D02*
G75*
G03*
X16856212Y-14592113I-85000J0D01*
G01*
X17206788Y-9392111D02*
G75*
G03*
X17206788Y-9392111I-85000J0D01*
G01*
X17473836Y-6953915D02*
G75*
G03*
X17473836Y-6953915I-85000J0D01*
G01*
X17699838Y-11232200D02*
G75*
G03*
X17699838Y-11232200I-85000J0D01*
G01*
X17736094Y-14084113D02*
G75*
G03*
X17736094Y-14084113I-85000J0D01*
G01*
X17966886Y-8794003D02*
G75*
G03*
X17966886Y-8794003I-85000J0D01*
G01*
X18455216Y-6690954D02*
G75*
G03*
X18455216Y-6690954I-85000J0D01*
G01*
X18459936Y-10634092D02*
G75*
G03*
X18459936Y-10634092I-85000J0D01*
G01*
X18832197Y-13465640D02*
G75*
G03*
X18832197Y-13465640I-85000J0D01*
G01*
X18948267Y-8531043D02*
G75*
G03*
X18948267Y-8531043I-85000J0D01*
G01*
X19208741Y-6068312D02*
G75*
G03*
X19208741Y-6068312I-85000J0D01*
G01*
X19441317Y-10371132D02*
G75*
G03*
X19441317Y-10371132I-85000J0D01*
G01*
X19701791Y-7908401D02*
G75*
G03*
X19701791Y-7908401I-85000J0D01*
G01*
X19753006Y-13036260D02*
G75*
G03*
X19753006Y-13036260I-85000J0D01*
G01*
X20190121Y-5805352D02*
G75*
G03*
X20190121Y-5805352I-85000J0D01*
G01*
X20194841Y-9748489D02*
G75*
G03*
X20194841Y-9748489I-85000J0D01*
G01*
X20683171Y-7645440D02*
G75*
G03*
X20683171Y-7645440I-85000J0D01*
G01*
X21176222Y-9485529D02*
G75*
G03*
X21176222Y-9485529I-85000J0D01*
G01*
X21186883Y-6090486D02*
G75*
G03*
X21186883Y-6090486I-85000J0D01*
G01*
X21679934Y-7930575D02*
G75*
G03*
X21679934Y-7930575I-85000J0D01*
G01*
X22168264Y-5827526D02*
G75*
G03*
X22168264Y-5827526I-85000J0D01*
G01*
X22172984Y-9770664D02*
G75*
G03*
X22172984Y-9770664I-85000J0D01*
G01*
X22661314Y-7667615D02*
G75*
G03*
X22661314Y-7667615I-85000J0D01*
G01*
X23154364Y-9507704D02*
G75*
G03*
X23154364Y-9507704I-85000J0D01*
G01*
X23641784Y-6412406D02*
G75*
G03*
X23641784Y-6412406I-85000J0D01*
G01*
X23972584Y-8288464D02*
G75*
G03*
X23972584Y-8288464I-85000J0D01*
G01*
X24303383Y-10164523D02*
G75*
G03*
X24303383Y-10164523I-85000J0D01*
G01*
X24642348Y-6235979D02*
G75*
G03*
X24642348Y-6235979I-85000J0D01*
G01*
X24973148Y-8112038D02*
G75*
G03*
X24973148Y-8112038I-85000J0D01*
G01*
X25303948Y-9988097D02*
G75*
G03*
X25303948Y-9988097I-85000J0D01*
G01*
D15*
X11351185Y-4006120D02*
X11351185Y-4186120D01*
X11261185Y-4096120D02*
X11441185Y-4096120D01*
X11537586Y-3493988D02*
X11537586Y-3673988D01*
X11447586Y-3583988D02*
X11627586Y-3583988D01*
D16*
X4714980Y-10035689D02*
X4714980Y-9901338D01*
X4580628Y-9901338D01*
X4580628Y-10035689D01*
X4714980Y-10035689D01*
X5045779Y-8159631D02*
X5045779Y-8025279D01*
X4911428Y-8025279D01*
X4911428Y-8159631D01*
X5045779Y-8159631D01*
X5376579Y-6283572D02*
X5376579Y-6149220D01*
X5242227Y-6149220D01*
X5242227Y-6283572D01*
X5376579Y-6283572D01*
X5798268Y-10226702D02*
X5798268Y-10092351D01*
X5663916Y-10092351D01*
X5663916Y-10226702D01*
X5798268Y-10226702D01*
X6129068Y-8350644D02*
X6129068Y-8216292D01*
X5994716Y-8216292D01*
X5994716Y-8350644D01*
X6129068Y-8350644D01*
X6459868Y-6474585D02*
X6459868Y-6340233D01*
X6325516Y-6340233D01*
X6325516Y-6474585D01*
X6459868Y-6474585D01*
X6865356Y-9551719D02*
X6865356Y-9417368D01*
X6731005Y-9417368D01*
X6731005Y-9551719D01*
X6865356Y-9551719D01*
X7358406Y-7711631D02*
X7358406Y-7577279D01*
X7224055Y-7577279D01*
X7224055Y-7711631D01*
X7358406Y-7711631D01*
X7851457Y-5871542D02*
X7851457Y-5737190D01*
X7717105Y-5737190D01*
X7717105Y-5871542D01*
X7851457Y-5871542D01*
X7927875Y-9836420D02*
X7927875Y-9702069D01*
X7793523Y-9702069D01*
X7793523Y-9836420D01*
X7927875Y-9836420D01*
X8420925Y-7996332D02*
X8420925Y-7861980D01*
X8286573Y-7861980D01*
X8286573Y-7996332D01*
X8420925Y-7996332D01*
X8843499Y-9529545D02*
X8843499Y-9395193D01*
X8709147Y-9395193D01*
X8709147Y-9529545D01*
X8843499Y-9529545D01*
X8913975Y-6156243D02*
X8913975Y-6021891D01*
X8779624Y-6021891D01*
X8779624Y-6156243D01*
X8913975Y-6156243D01*
X9336549Y-7689456D02*
X9336549Y-7555104D01*
X9202198Y-7555104D01*
X9202198Y-7689456D01*
X9336549Y-7689456D01*
X9829600Y-5849367D02*
X9829600Y-5715016D01*
X9695248Y-5715016D01*
X9695248Y-5849367D01*
X9829600Y-5849367D01*
X9906017Y-9814246D02*
X9906017Y-9679894D01*
X9771666Y-9679894D01*
X9771666Y-9814246D01*
X9906017Y-9814246D01*
X10269219Y-13073396D02*
X10269219Y-12939044D01*
X10134867Y-12939044D01*
X10134867Y-13073396D01*
X10269219Y-13073396D01*
X10399068Y-7974157D02*
X10399068Y-7839805D01*
X10264716Y-7839805D01*
X10264716Y-7974157D01*
X10399068Y-7974157D01*
X10578404Y-10415147D02*
X10578404Y-10280796D01*
X10444052Y-10280796D01*
X10444052Y-10415147D01*
X10578404Y-10415147D01*
X10892118Y-6134068D02*
X10892118Y-5999717D01*
X10757766Y-5999717D01*
X10757766Y-6134068D01*
X10892118Y-6134068D01*
X11071454Y-8575059D02*
X11071454Y-8440707D01*
X10937102Y-8440707D01*
X10937102Y-8575059D01*
X11071454Y-8575059D01*
X11266157Y-13538276D02*
X11266157Y-13403924D01*
X11131806Y-13403924D01*
X11131806Y-13538276D01*
X11266157Y-13538276D01*
X11564504Y-6734970D02*
X11564504Y-6600618D01*
X11430152Y-6600618D01*
X11430152Y-6734970D01*
X11564504Y-6734970D01*
X11640922Y-10699848D02*
X11640922Y-10565497D01*
X11506570Y-10565497D01*
X11506570Y-10699848D01*
X11640922Y-10699848D01*
X12133972Y-8859760D02*
X12133972Y-8725408D01*
X11999621Y-8725408D01*
X11999621Y-8859760D01*
X12133972Y-8859760D01*
X12287823Y-14117999D02*
X12287823Y-13983647D01*
X12153471Y-13983647D01*
X12153471Y-14117999D01*
X12287823Y-14117999D01*
X12319882Y-11276215D02*
X12319882Y-11141864D01*
X12185531Y-11141864D01*
X12185531Y-11276215D01*
X12319882Y-11276215D01*
X12627022Y-7019671D02*
X12627022Y-6885319D01*
X12492671Y-6885319D01*
X12492671Y-7019671D01*
X12627022Y-7019671D01*
X12812932Y-9436127D02*
X12812932Y-9301775D01*
X12678581Y-9301775D01*
X12678581Y-9436127D01*
X12812932Y-9436127D01*
X13240451Y-14667999D02*
X13240451Y-14533647D01*
X13106099Y-14533647D01*
X13106099Y-14667999D01*
X13240451Y-14667999D01*
X13305983Y-7596038D02*
X13305983Y-7461686D01*
X13171631Y-7461686D01*
X13171631Y-7596038D01*
X13305983Y-7596038D01*
X13382401Y-11560916D02*
X13382401Y-11426565D01*
X13248049Y-11426565D01*
X13248049Y-11560916D01*
X13382401Y-11560916D01*
X13875451Y-9720828D02*
X13875451Y-9586476D01*
X13741099Y-9586476D01*
X13741099Y-9720828D01*
X13875451Y-9720828D01*
X14368501Y-7880739D02*
X14368501Y-7746387D01*
X14234150Y-7746387D01*
X14234150Y-7880739D01*
X14368501Y-7880739D01*
X15673964Y-7893029D02*
X15673964Y-7758677D01*
X15539612Y-7758677D01*
X15539612Y-7893029D01*
X15673964Y-7893029D01*
X16167014Y-9733118D02*
X16167014Y-9598766D01*
X16032663Y-9598766D01*
X16032663Y-9733118D01*
X16167014Y-9733118D01*
X16660065Y-11573206D02*
X16660065Y-11438855D01*
X16525713Y-11438855D01*
X16525713Y-11573206D01*
X16660065Y-11573206D01*
X16736482Y-7608328D02*
X16736482Y-7473976D01*
X16602131Y-7473976D01*
X16602131Y-7608328D01*
X16736482Y-7608328D01*
X16802014Y-14680289D02*
X16802014Y-14545937D01*
X16667663Y-14545937D01*
X16667663Y-14680289D01*
X16802014Y-14680289D01*
X17229533Y-9448417D02*
X17229533Y-9314065D01*
X17095181Y-9314065D01*
X17095181Y-9448417D01*
X17229533Y-9448417D01*
X17415443Y-7031961D02*
X17415443Y-6897609D01*
X17281091Y-6897609D01*
X17281091Y-7031961D01*
X17415443Y-7031961D01*
X17722583Y-11288505D02*
X17722583Y-11154154D01*
X17588232Y-11154154D01*
X17588232Y-11288505D01*
X17722583Y-11288505D01*
X17754642Y-14130289D02*
X17754642Y-13995937D01*
X17620291Y-13995937D01*
X17620291Y-14130289D01*
X17754642Y-14130289D01*
X17908493Y-8872050D02*
X17908493Y-8737698D01*
X17774141Y-8737698D01*
X17774141Y-8872050D01*
X17908493Y-8872050D01*
X18401543Y-10712138D02*
X18401543Y-10577787D01*
X18267192Y-10577787D01*
X18267192Y-10712138D01*
X18401543Y-10712138D01*
X18477961Y-6747260D02*
X18477961Y-6612908D01*
X18343610Y-6612908D01*
X18343610Y-6747260D01*
X18477961Y-6747260D01*
X18776308Y-13550565D02*
X18776308Y-13416214D01*
X18641956Y-13416214D01*
X18641956Y-13550565D01*
X18776308Y-13550565D01*
X18971011Y-8587349D02*
X18971011Y-8452997D01*
X18836660Y-8452997D01*
X18836660Y-8587349D01*
X18971011Y-8587349D01*
X19150347Y-6146358D02*
X19150347Y-6012007D01*
X19015996Y-6012007D01*
X19015996Y-6146358D01*
X19150347Y-6146358D01*
X19464062Y-10427437D02*
X19464062Y-10293086D01*
X19329710Y-10293086D01*
X19329710Y-10427437D01*
X19464062Y-10427437D01*
X19643398Y-7986447D02*
X19643398Y-7852095D01*
X19509046Y-7852095D01*
X19509046Y-7986447D01*
X19643398Y-7986447D01*
X19773247Y-13085685D02*
X19773247Y-12951334D01*
X19638895Y-12951334D01*
X19638895Y-13085685D01*
X19773247Y-13085685D01*
X20136448Y-9826536D02*
X20136448Y-9692184D01*
X20002096Y-9692184D01*
X20002096Y-9826536D01*
X20136448Y-9826536D01*
X20212866Y-5861657D02*
X20212866Y-5727306D01*
X20078514Y-5727306D01*
X20078514Y-5861657D01*
X20212866Y-5861657D01*
X20705916Y-7701746D02*
X20705916Y-7567394D01*
X20571565Y-7567394D01*
X20571565Y-7701746D01*
X20705916Y-7701746D01*
X21128490Y-6168533D02*
X21128490Y-6034181D01*
X20994139Y-6034181D01*
X20994139Y-6168533D01*
X21128490Y-6168533D01*
X21198966Y-9541835D02*
X21198966Y-9407483D01*
X21064615Y-9407483D01*
X21064615Y-9541835D01*
X21198966Y-9541835D01*
X21621541Y-8008621D02*
X21621541Y-7874270D01*
X21487189Y-7874270D01*
X21487189Y-8008621D01*
X21621541Y-8008621D01*
X22114591Y-9848710D02*
X22114591Y-9714359D01*
X21980239Y-9714359D01*
X21980239Y-9848710D01*
X22114591Y-9848710D01*
X22191009Y-5883832D02*
X22191009Y-5749480D01*
X22056657Y-5749480D01*
X22056657Y-5883832D01*
X22191009Y-5883832D01*
X22684059Y-7723920D02*
X22684059Y-7589569D01*
X22549707Y-7589569D01*
X22549707Y-7723920D01*
X22684059Y-7723920D01*
X23177109Y-9564009D02*
X23177109Y-9429658D01*
X23042757Y-9429658D01*
X23042757Y-9564009D01*
X23177109Y-9564009D01*
X23582598Y-6486875D02*
X23582598Y-6352523D01*
X23448246Y-6352523D01*
X23448246Y-6486875D01*
X23582598Y-6486875D01*
X23913397Y-8362933D02*
X23913397Y-8228582D01*
X23779046Y-8228582D01*
X23779046Y-8362933D01*
X23913397Y-8362933D01*
X24244197Y-10238992D02*
X24244197Y-10104641D01*
X24109846Y-10104641D01*
X24109846Y-10238992D01*
X24244197Y-10238992D01*
X24665886Y-6295862D02*
X24665886Y-6161510D01*
X24531535Y-6161510D01*
X24531535Y-6295862D01*
X24665886Y-6295862D01*
X24996686Y-8171920D02*
X24996686Y-8037569D01*
X24862334Y-8037569D01*
X24862334Y-8171920D01*
X24996686Y-8171920D01*
X25327486Y-10047979D02*
X25327486Y-9913628D01*
X25193134Y-9913628D01*
X25193134Y-10047979D01*
X25327486Y-10047979D01*
D17*
X5189448Y-10264020D02*
X5389448Y-10064020D01*
X5189448Y-9864020D01*
X4989448Y-10064020D01*
X5189448Y-10264020D01*
X5520248Y-8387961D02*
X5720248Y-8187961D01*
X5520248Y-7987961D01*
X5320248Y-8187961D01*
X5520248Y-8387961D01*
X5851047Y-6511902D02*
X6051047Y-6311902D01*
X5851047Y-6111902D01*
X5651047Y-6311902D01*
X5851047Y-6511902D01*
X7329440Y-9826894D02*
X7529440Y-9626894D01*
X7329440Y-9426894D01*
X7129440Y-9626894D01*
X7329440Y-9826894D01*
X7822490Y-7986805D02*
X8022490Y-7786805D01*
X7822490Y-7586805D01*
X7622490Y-7786805D01*
X7822490Y-7986805D01*
X8315540Y-6146717D02*
X8515540Y-5946717D01*
X8315540Y-5746717D01*
X8115540Y-5946717D01*
X8315540Y-6146717D01*
X9307582Y-9804720D02*
X9507582Y-9604720D01*
X9307582Y-9404720D01*
X9107582Y-9604720D01*
X9307582Y-9804720D01*
X9800633Y-7964631D02*
X10000633Y-7764631D01*
X9800633Y-7564631D01*
X9600633Y-7764631D01*
X9800633Y-7964631D01*
X10293683Y-6124542D02*
X10493683Y-5924542D01*
X10293683Y-5724542D01*
X10093683Y-5924542D01*
X10293683Y-6124542D01*
X10700512Y-13438660D02*
X10900512Y-13238660D01*
X10700512Y-13038660D01*
X10500512Y-13238660D01*
X10700512Y-13438660D01*
X11042487Y-10690322D02*
X11242487Y-10490322D01*
X11042487Y-10290322D01*
X10842487Y-10490322D01*
X11042487Y-10690322D01*
X11535537Y-8850233D02*
X11735537Y-8650233D01*
X11535537Y-8450233D01*
X11335537Y-8650233D01*
X11535537Y-8850233D01*
X12028587Y-7010145D02*
X12228587Y-6810145D01*
X12028587Y-6610145D01*
X11828587Y-6810145D01*
X12028587Y-7010145D01*
X12696961Y-14525823D02*
X12896961Y-14325823D01*
X12696961Y-14125823D01*
X12496961Y-14325823D01*
X12696961Y-14525823D01*
X12783966Y-11551390D02*
X12983966Y-11351390D01*
X12783966Y-11151390D01*
X12583966Y-11351390D01*
X12783966Y-11551390D01*
X13277016Y-9711301D02*
X13477016Y-9511301D01*
X13277016Y-9311301D01*
X13077016Y-9511301D01*
X13277016Y-9711301D01*
X13770066Y-7871213D02*
X13970066Y-7671213D01*
X13770066Y-7471213D01*
X13570066Y-7671213D01*
X13770066Y-7871213D01*
X16138047Y-7883502D02*
X16338047Y-7683502D01*
X16138047Y-7483502D01*
X15938047Y-7683502D01*
X16138047Y-7883502D01*
X16631098Y-9723591D02*
X16831098Y-9523591D01*
X16631098Y-9323591D01*
X16431098Y-9523591D01*
X16631098Y-9723591D01*
X17124148Y-11563680D02*
X17324148Y-11363680D01*
X17124148Y-11163680D01*
X16924148Y-11363680D01*
X17124148Y-11563680D01*
X17211153Y-14538113D02*
X17411153Y-14338113D01*
X17211153Y-14138113D01*
X17011153Y-14338113D01*
X17211153Y-14538113D01*
X17879526Y-7022434D02*
X18079526Y-6822434D01*
X17879526Y-6622434D01*
X17679526Y-6822434D01*
X17879526Y-7022434D01*
X18372576Y-8862523D02*
X18572576Y-8662523D01*
X18372576Y-8462523D01*
X18172576Y-8662523D01*
X18372576Y-8862523D01*
X18865627Y-10702612D02*
X19065627Y-10502612D01*
X18865627Y-10302612D01*
X18665627Y-10502612D01*
X18865627Y-10702612D01*
X19207601Y-13450950D02*
X19407601Y-13250950D01*
X19207601Y-13050950D01*
X19007601Y-13250950D01*
X19207601Y-13450950D01*
X19614431Y-6136832D02*
X19814431Y-5936832D01*
X19614431Y-5736832D01*
X19414431Y-5936832D01*
X19614431Y-6136832D01*
X20107481Y-7976921D02*
X20307481Y-7776921D01*
X20107481Y-7576921D01*
X19907481Y-7776921D01*
X20107481Y-7976921D01*
X20600531Y-9817009D02*
X20800531Y-9617009D01*
X20600531Y-9417009D01*
X20400531Y-9617009D01*
X20600531Y-9817009D01*
X21592574Y-6159006D02*
X21792574Y-5959006D01*
X21592574Y-5759006D01*
X21392574Y-5959006D01*
X21592574Y-6159006D01*
X22085624Y-7999095D02*
X22285624Y-7799095D01*
X22085624Y-7599095D01*
X21885624Y-7799095D01*
X22085624Y-7999095D01*
X22578674Y-9839184D02*
X22778674Y-9639184D01*
X22578674Y-9439184D01*
X22378674Y-9639184D01*
X22578674Y-9839184D01*
X24057066Y-6524192D02*
X24257066Y-6324192D01*
X24057066Y-6124192D01*
X23857066Y-6324192D01*
X24057066Y-6524192D01*
X24387866Y-8400251D02*
X24587866Y-8200251D01*
X24387866Y-8000251D01*
X24187866Y-8200251D01*
X24387866Y-8400251D01*
X24718666Y-10276310D02*
X24918666Y-10076310D01*
X24718666Y-9876310D01*
X24518666Y-10076310D01*
X24718666Y-10276310D01*
D10*
X4324875Y-15947346D02*
X4324875Y-15747346D01*
X4372494Y-15747346D01*
X4401066Y-15756870D01*
X4420113Y-15775917D01*
X4429637Y-15794965D01*
X4439161Y-15833060D01*
X4439161Y-15861632D01*
X4429637Y-15899727D01*
X4420113Y-15918775D01*
X4401066Y-15937822D01*
X4372494Y-15947346D01*
X4324875Y-15947346D01*
X4524875Y-15947346D02*
X4524875Y-15814013D01*
X4524875Y-15852108D02*
X4534399Y-15833060D01*
X4543923Y-15823536D01*
X4562971Y-15814013D01*
X4582018Y-15814013D01*
X4648685Y-15947346D02*
X4648685Y-15814013D01*
X4648685Y-15747346D02*
X4639161Y-15756870D01*
X4648685Y-15766394D01*
X4658209Y-15756870D01*
X4648685Y-15747346D01*
X4648685Y-15766394D01*
X4772494Y-15947346D02*
X4753447Y-15937822D01*
X4743923Y-15918775D01*
X4743923Y-15747346D01*
X4877256Y-15947346D02*
X4858209Y-15937822D01*
X4848685Y-15918775D01*
X4848685Y-15747346D01*
X5105828Y-15947346D02*
X5105828Y-15747346D01*
X5172494Y-15890203D01*
X5239161Y-15747346D01*
X5239161Y-15947346D01*
X5420113Y-15947346D02*
X5420113Y-15842584D01*
X5410590Y-15823536D01*
X5391542Y-15814013D01*
X5353447Y-15814013D01*
X5334399Y-15823536D01*
X5420113Y-15937822D02*
X5401066Y-15947346D01*
X5353447Y-15947346D01*
X5334399Y-15937822D01*
X5324875Y-15918775D01*
X5324875Y-15899727D01*
X5334399Y-15880679D01*
X5353447Y-15871156D01*
X5401066Y-15871156D01*
X5420113Y-15861632D01*
X5515352Y-15814013D02*
X5515352Y-16014013D01*
X5515352Y-15823536D02*
X5534399Y-15814013D01*
X5572494Y-15814013D01*
X5591542Y-15823536D01*
X5601066Y-15833060D01*
X5610590Y-15852108D01*
X5610590Y-15909251D01*
X5601066Y-15928298D01*
X5591542Y-15937822D01*
X5572494Y-15947346D01*
X5534399Y-15947346D01*
X5515352Y-15937822D01*
X5696304Y-15928298D02*
X5705828Y-15937822D01*
X5696304Y-15947346D01*
X5686780Y-15937822D01*
X5696304Y-15928298D01*
X5696304Y-15947346D01*
X5696304Y-15823536D02*
X5705828Y-15833060D01*
X5696304Y-15842584D01*
X5686780Y-15833060D01*
X5696304Y-15823536D01*
X5696304Y-15842584D01*
D13*
X3917256Y-16201870D02*
X4067256Y-16351870D01*
X4067256Y-16201870D02*
X3917256Y-16351870D01*
D10*
X4429637Y-16367346D02*
X4315352Y-16367346D01*
X4372494Y-16367346D02*
X4372494Y-16167346D01*
X4353447Y-16195917D01*
X4334399Y-16214965D01*
X4315352Y-16224489D01*
X4515352Y-16348298D02*
X4524875Y-16357822D01*
X4515352Y-16367346D01*
X4505828Y-16357822D01*
X4515352Y-16348298D01*
X4515352Y-16367346D01*
X4705828Y-16167346D02*
X4610590Y-16167346D01*
X4601066Y-16262584D01*
X4610590Y-16253060D01*
X4629637Y-16243536D01*
X4677256Y-16243536D01*
X4696304Y-16253060D01*
X4705828Y-16262584D01*
X4715352Y-16281632D01*
X4715352Y-16329251D01*
X4705828Y-16348298D01*
X4696304Y-16357822D01*
X4677256Y-16367346D01*
X4629637Y-16367346D01*
X4610590Y-16357822D01*
X4601066Y-16348298D01*
X4839161Y-16167346D02*
X4858209Y-16167346D01*
X4877256Y-16176870D01*
X4886780Y-16186394D01*
X4896304Y-16205441D01*
X4905828Y-16243536D01*
X4905828Y-16291156D01*
X4896304Y-16329251D01*
X4886780Y-16348298D01*
X4877256Y-16357822D01*
X4858209Y-16367346D01*
X4839161Y-16367346D01*
X4820113Y-16357822D01*
X4810590Y-16348298D01*
X4801066Y-16329251D01*
X4791542Y-16291156D01*
X4791542Y-16243536D01*
X4801066Y-16205441D01*
X4810590Y-16186394D01*
X4820113Y-16176870D01*
X4839161Y-16167346D01*
X5029637Y-16167346D02*
X5048685Y-16167346D01*
X5067732Y-16176870D01*
X5077256Y-16186394D01*
X5086780Y-16205441D01*
X5096304Y-16243536D01*
X5096304Y-16291156D01*
X5086780Y-16329251D01*
X5077256Y-16348298D01*
X5067732Y-16357822D01*
X5048685Y-16367346D01*
X5029637Y-16367346D01*
X5010590Y-16357822D01*
X5001066Y-16348298D01*
X4991542Y-16329251D01*
X4982018Y-16291156D01*
X4982018Y-16243536D01*
X4991542Y-16205441D01*
X5001066Y-16186394D01*
X5010590Y-16176870D01*
X5029637Y-16167346D01*
X5182018Y-16367346D02*
X5182018Y-16234013D01*
X5182018Y-16253060D02*
X5191542Y-16243536D01*
X5210590Y-16234013D01*
X5239161Y-16234013D01*
X5258209Y-16243536D01*
X5267732Y-16262584D01*
X5267732Y-16367346D01*
X5267732Y-16262584D02*
X5277256Y-16243536D01*
X5296304Y-16234013D01*
X5324875Y-16234013D01*
X5343923Y-16243536D01*
X5353447Y-16262584D01*
X5353447Y-16367346D01*
X5448685Y-16367346D02*
X5448685Y-16234013D01*
X5448685Y-16253060D02*
X5458209Y-16243536D01*
X5477256Y-16234013D01*
X5505828Y-16234013D01*
X5524875Y-16243536D01*
X5534399Y-16262584D01*
X5534399Y-16367346D01*
X5534399Y-16262584D02*
X5543923Y-16243536D01*
X5562971Y-16234013D01*
X5591542Y-16234013D01*
X5610590Y-16243536D01*
X5620113Y-16262584D01*
X5620113Y-16367346D01*
X6010590Y-16157822D02*
X5839161Y-16414965D01*
X6267732Y-16167346D02*
X6286780Y-16167346D01*
X6305828Y-16176870D01*
X6315351Y-16186394D01*
X6324875Y-16205441D01*
X6334399Y-16243536D01*
X6334399Y-16291156D01*
X6324875Y-16329251D01*
X6315351Y-16348298D01*
X6305828Y-16357822D01*
X6286780Y-16367346D01*
X6267732Y-16367346D01*
X6248685Y-16357822D01*
X6239161Y-16348298D01*
X6229637Y-16329251D01*
X6220113Y-16291156D01*
X6220113Y-16243536D01*
X6229637Y-16205441D01*
X6239161Y-16186394D01*
X6248685Y-16176870D01*
X6267732Y-16167346D01*
X6420113Y-16348298D02*
X6429637Y-16357822D01*
X6420113Y-16367346D01*
X6410590Y-16357822D01*
X6420113Y-16348298D01*
X6420113Y-16367346D01*
X6553447Y-16167346D02*
X6572494Y-16167346D01*
X6591542Y-16176870D01*
X6601066Y-16186394D01*
X6610590Y-16205441D01*
X6620113Y-16243536D01*
X6620113Y-16291156D01*
X6610590Y-16329251D01*
X6601066Y-16348298D01*
X6591542Y-16357822D01*
X6572494Y-16367346D01*
X6553447Y-16367346D01*
X6534399Y-16357822D01*
X6524875Y-16348298D01*
X6515351Y-16329251D01*
X6505828Y-16291156D01*
X6505828Y-16243536D01*
X6515351Y-16205441D01*
X6524875Y-16186394D01*
X6534399Y-16176870D01*
X6553447Y-16167346D01*
X6801066Y-16167346D02*
X6705828Y-16167346D01*
X6696304Y-16262584D01*
X6705828Y-16253060D01*
X6724875Y-16243536D01*
X6772494Y-16243536D01*
X6791542Y-16253060D01*
X6801066Y-16262584D01*
X6810590Y-16281632D01*
X6810590Y-16329251D01*
X6801066Y-16348298D01*
X6791542Y-16357822D01*
X6772494Y-16367346D01*
X6724875Y-16367346D01*
X6705828Y-16357822D01*
X6696304Y-16348298D01*
X6905828Y-16367346D02*
X6943923Y-16367346D01*
X6962970Y-16357822D01*
X6972494Y-16348298D01*
X6991542Y-16319727D01*
X7001066Y-16281632D01*
X7001066Y-16205441D01*
X6991542Y-16186394D01*
X6982018Y-16176870D01*
X6962970Y-16167346D01*
X6924875Y-16167346D01*
X6905828Y-16176870D01*
X6896304Y-16186394D01*
X6886780Y-16205441D01*
X6886780Y-16253060D01*
X6896304Y-16272108D01*
X6905828Y-16281632D01*
X6924875Y-16291156D01*
X6962970Y-16291156D01*
X6982018Y-16281632D01*
X6991542Y-16272108D01*
X7001066Y-16253060D01*
X7191542Y-16367346D02*
X7077256Y-16367346D01*
X7134399Y-16367346D02*
X7134399Y-16167346D01*
X7115351Y-16195917D01*
X7096304Y-16214965D01*
X7077256Y-16224489D01*
X7267732Y-16167346D02*
X7267732Y-16205441D01*
X7343923Y-16167346D02*
X7343923Y-16205441D01*
X7639161Y-16443536D02*
X7629637Y-16434013D01*
X7610590Y-16405441D01*
X7601066Y-16386394D01*
X7591542Y-16357822D01*
X7582018Y-16310203D01*
X7582018Y-16272108D01*
X7591542Y-16224489D01*
X7601066Y-16195917D01*
X7610590Y-16176870D01*
X7629637Y-16148298D01*
X7639161Y-16138775D01*
X7705828Y-16186394D02*
X7715351Y-16176870D01*
X7734399Y-16167346D01*
X7782018Y-16167346D01*
X7801066Y-16176870D01*
X7810590Y-16186394D01*
X7820113Y-16205441D01*
X7820113Y-16224489D01*
X7810590Y-16253060D01*
X7696304Y-16367346D01*
X7820113Y-16367346D01*
X8058209Y-16367346D02*
X8058209Y-16167346D01*
X8143923Y-16367346D02*
X8143923Y-16262584D01*
X8134399Y-16243536D01*
X8115351Y-16234013D01*
X8086780Y-16234013D01*
X8067732Y-16243536D01*
X8058209Y-16253060D01*
X8267732Y-16367346D02*
X8248685Y-16357822D01*
X8239161Y-16348298D01*
X8229637Y-16329251D01*
X8229637Y-16272108D01*
X8239161Y-16253060D01*
X8248685Y-16243536D01*
X8267732Y-16234013D01*
X8296304Y-16234013D01*
X8315351Y-16243536D01*
X8324875Y-16253060D01*
X8334399Y-16272108D01*
X8334399Y-16329251D01*
X8324875Y-16348298D01*
X8315351Y-16357822D01*
X8296304Y-16367346D01*
X8267732Y-16367346D01*
X8448685Y-16367346D02*
X8429637Y-16357822D01*
X8420113Y-16338775D01*
X8420113Y-16167346D01*
X8601066Y-16357822D02*
X8582018Y-16367346D01*
X8543923Y-16367346D01*
X8524875Y-16357822D01*
X8515352Y-16338775D01*
X8515352Y-16262584D01*
X8524875Y-16243536D01*
X8543923Y-16234013D01*
X8582018Y-16234013D01*
X8601066Y-16243536D01*
X8610590Y-16262584D01*
X8610590Y-16281632D01*
X8515352Y-16300679D01*
X8686780Y-16357822D02*
X8705828Y-16367346D01*
X8743923Y-16367346D01*
X8762971Y-16357822D01*
X8772494Y-16338775D01*
X8772494Y-16329251D01*
X8762971Y-16310203D01*
X8743923Y-16300679D01*
X8715352Y-16300679D01*
X8696304Y-16291156D01*
X8686780Y-16272108D01*
X8686780Y-16262584D01*
X8696304Y-16243536D01*
X8715352Y-16234013D01*
X8743923Y-16234013D01*
X8762971Y-16243536D01*
X8839161Y-16443536D02*
X8848685Y-16434013D01*
X8867732Y-16405441D01*
X8877256Y-16386394D01*
X8886780Y-16357822D01*
X8896304Y-16310203D01*
X8896304Y-16272108D01*
X8886780Y-16224489D01*
X8877256Y-16195917D01*
X8867732Y-16176870D01*
X8848685Y-16148298D01*
X8839161Y-16138775D01*
X9201066Y-16443536D02*
X9191542Y-16434013D01*
X9172494Y-16405441D01*
X9162971Y-16386394D01*
X9153447Y-16357822D01*
X9143923Y-16310203D01*
X9143923Y-16272108D01*
X9153447Y-16224489D01*
X9162971Y-16195917D01*
X9172494Y-16176870D01*
X9191542Y-16148298D01*
X9201066Y-16138775D01*
X9277256Y-16234013D02*
X9277256Y-16367346D01*
X9277256Y-16253060D02*
X9286780Y-16243536D01*
X9305828Y-16234013D01*
X9334399Y-16234013D01*
X9353447Y-16243536D01*
X9362971Y-16262584D01*
X9362971Y-16367346D01*
X9486780Y-16367346D02*
X9467732Y-16357822D01*
X9458209Y-16348298D01*
X9448685Y-16329251D01*
X9448685Y-16272108D01*
X9458209Y-16253060D01*
X9467732Y-16243536D01*
X9486780Y-16234013D01*
X9515352Y-16234013D01*
X9534399Y-16243536D01*
X9543923Y-16253060D01*
X9553447Y-16272108D01*
X9553447Y-16329251D01*
X9543923Y-16348298D01*
X9534399Y-16357822D01*
X9515352Y-16367346D01*
X9486780Y-16367346D01*
X9610590Y-16234013D02*
X9686780Y-16234013D01*
X9639161Y-16167346D02*
X9639161Y-16338775D01*
X9648685Y-16357822D01*
X9667732Y-16367346D01*
X9686780Y-16367346D01*
X9905828Y-16234013D02*
X9905828Y-16434013D01*
X9905828Y-16243536D02*
X9924875Y-16234013D01*
X9962971Y-16234013D01*
X9982018Y-16243536D01*
X9991542Y-16253060D01*
X10001066Y-16272108D01*
X10001066Y-16329251D01*
X9991542Y-16348298D01*
X9982018Y-16357822D01*
X9962971Y-16367346D01*
X9924875Y-16367346D01*
X9905828Y-16357822D01*
X10115352Y-16367346D02*
X10096304Y-16357822D01*
X10086780Y-16338775D01*
X10086780Y-16167346D01*
X10277256Y-16367346D02*
X10277256Y-16262584D01*
X10267732Y-16243536D01*
X10248685Y-16234013D01*
X10210590Y-16234013D01*
X10191542Y-16243536D01*
X10277256Y-16357822D02*
X10258209Y-16367346D01*
X10210590Y-16367346D01*
X10191542Y-16357822D01*
X10182018Y-16338775D01*
X10182018Y-16319727D01*
X10191542Y-16300679D01*
X10210590Y-16291156D01*
X10258209Y-16291156D01*
X10277256Y-16281632D01*
X10343923Y-16234013D02*
X10420113Y-16234013D01*
X10372494Y-16167346D02*
X10372494Y-16338775D01*
X10382018Y-16357822D01*
X10401066Y-16367346D01*
X10420113Y-16367346D01*
X10562971Y-16357822D02*
X10543923Y-16367346D01*
X10505828Y-16367346D01*
X10486780Y-16357822D01*
X10477256Y-16338775D01*
X10477256Y-16262584D01*
X10486780Y-16243536D01*
X10505828Y-16234013D01*
X10543923Y-16234013D01*
X10562971Y-16243536D01*
X10572494Y-16262584D01*
X10572494Y-16281632D01*
X10477256Y-16300679D01*
X10743923Y-16367346D02*
X10743923Y-16167346D01*
X10743923Y-16357822D02*
X10724875Y-16367346D01*
X10686780Y-16367346D01*
X10667732Y-16357822D01*
X10658209Y-16348298D01*
X10648685Y-16329251D01*
X10648685Y-16272108D01*
X10658209Y-16253060D01*
X10667732Y-16243536D01*
X10686780Y-16234013D01*
X10724875Y-16234013D01*
X10743923Y-16243536D01*
X10820113Y-16443536D02*
X10829637Y-16434013D01*
X10848685Y-16405441D01*
X10858209Y-16386394D01*
X10867732Y-16357822D01*
X10877256Y-16310203D01*
X10877256Y-16272108D01*
X10867732Y-16224489D01*
X10858209Y-16195917D01*
X10848685Y-16176870D01*
X10829637Y-16148298D01*
X10820113Y-16138775D01*
D14*
X4067256Y-16546870D02*
G75*
G03*
X4067256Y-16546870I-85000J0D01*
G01*
D10*
X4429637Y-16637346D02*
X4315352Y-16637346D01*
X4372494Y-16637346D02*
X4372494Y-16437346D01*
X4353447Y-16465917D01*
X4334399Y-16484965D01*
X4315352Y-16494489D01*
X4515352Y-16618298D02*
X4524875Y-16627822D01*
X4515352Y-16637346D01*
X4505828Y-16627822D01*
X4515352Y-16618298D01*
X4515352Y-16637346D01*
X4591542Y-16437346D02*
X4724875Y-16437346D01*
X4639161Y-16637346D01*
X4839161Y-16437346D02*
X4858209Y-16437346D01*
X4877256Y-16446870D01*
X4886780Y-16456394D01*
X4896304Y-16475441D01*
X4905828Y-16513536D01*
X4905828Y-16561156D01*
X4896304Y-16599251D01*
X4886780Y-16618298D01*
X4877256Y-16627822D01*
X4858209Y-16637346D01*
X4839161Y-16637346D01*
X4820113Y-16627822D01*
X4810590Y-16618298D01*
X4801066Y-16599251D01*
X4791542Y-16561156D01*
X4791542Y-16513536D01*
X4801066Y-16475441D01*
X4810590Y-16456394D01*
X4820113Y-16446870D01*
X4839161Y-16437346D01*
X5029637Y-16437346D02*
X5048685Y-16437346D01*
X5067732Y-16446870D01*
X5077256Y-16456394D01*
X5086780Y-16475441D01*
X5096304Y-16513536D01*
X5096304Y-16561156D01*
X5086780Y-16599251D01*
X5077256Y-16618298D01*
X5067732Y-16627822D01*
X5048685Y-16637346D01*
X5029637Y-16637346D01*
X5010590Y-16627822D01*
X5001066Y-16618298D01*
X4991542Y-16599251D01*
X4982018Y-16561156D01*
X4982018Y-16513536D01*
X4991542Y-16475441D01*
X5001066Y-16456394D01*
X5010590Y-16446870D01*
X5029637Y-16437346D01*
X5182018Y-16637346D02*
X5182018Y-16504013D01*
X5182018Y-16523060D02*
X5191542Y-16513536D01*
X5210590Y-16504013D01*
X5239161Y-16504013D01*
X5258209Y-16513536D01*
X5267732Y-16532584D01*
X5267732Y-16637346D01*
X5267732Y-16532584D02*
X5277256Y-16513536D01*
X5296304Y-16504013D01*
X5324875Y-16504013D01*
X5343923Y-16513536D01*
X5353447Y-16532584D01*
X5353447Y-16637346D01*
X5448685Y-16637346D02*
X5448685Y-16504013D01*
X5448685Y-16523060D02*
X5458209Y-16513536D01*
X5477256Y-16504013D01*
X5505828Y-16504013D01*
X5524875Y-16513536D01*
X5534399Y-16532584D01*
X5534399Y-16637346D01*
X5534399Y-16532584D02*
X5543923Y-16513536D01*
X5562971Y-16504013D01*
X5591542Y-16504013D01*
X5610590Y-16513536D01*
X5620113Y-16532584D01*
X5620113Y-16637346D01*
X6010590Y-16427822D02*
X5839161Y-16684965D01*
X6267732Y-16437346D02*
X6286780Y-16437346D01*
X6305828Y-16446870D01*
X6315351Y-16456394D01*
X6324875Y-16475441D01*
X6334399Y-16513536D01*
X6334399Y-16561156D01*
X6324875Y-16599251D01*
X6315351Y-16618298D01*
X6305828Y-16627822D01*
X6286780Y-16637346D01*
X6267732Y-16637346D01*
X6248685Y-16627822D01*
X6239161Y-16618298D01*
X6229637Y-16599251D01*
X6220113Y-16561156D01*
X6220113Y-16513536D01*
X6229637Y-16475441D01*
X6239161Y-16456394D01*
X6248685Y-16446870D01*
X6267732Y-16437346D01*
X6420113Y-16618298D02*
X6429637Y-16627822D01*
X6420113Y-16637346D01*
X6410590Y-16627822D01*
X6420113Y-16618298D01*
X6420113Y-16637346D01*
X6553447Y-16437346D02*
X6572494Y-16437346D01*
X6591542Y-16446870D01*
X6601066Y-16456394D01*
X6610590Y-16475441D01*
X6620113Y-16513536D01*
X6620113Y-16561156D01*
X6610590Y-16599251D01*
X6601066Y-16618298D01*
X6591542Y-16627822D01*
X6572494Y-16637346D01*
X6553447Y-16637346D01*
X6534399Y-16627822D01*
X6524875Y-16618298D01*
X6515351Y-16599251D01*
X6505828Y-16561156D01*
X6505828Y-16513536D01*
X6515351Y-16475441D01*
X6524875Y-16456394D01*
X6534399Y-16446870D01*
X6553447Y-16437346D01*
X6791542Y-16437346D02*
X6753447Y-16437346D01*
X6734399Y-16446870D01*
X6724875Y-16456394D01*
X6705828Y-16484965D01*
X6696304Y-16523060D01*
X6696304Y-16599251D01*
X6705828Y-16618298D01*
X6715351Y-16627822D01*
X6734399Y-16637346D01*
X6772494Y-16637346D01*
X6791542Y-16627822D01*
X6801066Y-16618298D01*
X6810590Y-16599251D01*
X6810590Y-16551632D01*
X6801066Y-16532584D01*
X6791542Y-16523060D01*
X6772494Y-16513536D01*
X6734399Y-16513536D01*
X6715351Y-16523060D01*
X6705828Y-16532584D01*
X6696304Y-16551632D01*
X6982018Y-16437346D02*
X6943923Y-16437346D01*
X6924875Y-16446870D01*
X6915351Y-16456394D01*
X6896304Y-16484965D01*
X6886780Y-16523060D01*
X6886780Y-16599251D01*
X6896304Y-16618298D01*
X6905828Y-16627822D01*
X6924875Y-16637346D01*
X6962970Y-16637346D01*
X6982018Y-16627822D01*
X6991542Y-16618298D01*
X7001066Y-16599251D01*
X7001066Y-16551632D01*
X6991542Y-16532584D01*
X6982018Y-16523060D01*
X6962970Y-16513536D01*
X6924875Y-16513536D01*
X6905828Y-16523060D01*
X6896304Y-16532584D01*
X6886780Y-16551632D01*
X7096304Y-16637346D02*
X7134399Y-16637346D01*
X7153447Y-16627822D01*
X7162970Y-16618298D01*
X7182018Y-16589727D01*
X7191542Y-16551632D01*
X7191542Y-16475441D01*
X7182018Y-16456394D01*
X7172494Y-16446870D01*
X7153447Y-16437346D01*
X7115351Y-16437346D01*
X7096304Y-16446870D01*
X7086780Y-16456394D01*
X7077256Y-16475441D01*
X7077256Y-16523060D01*
X7086780Y-16542108D01*
X7096304Y-16551632D01*
X7115351Y-16561156D01*
X7153447Y-16561156D01*
X7172494Y-16551632D01*
X7182018Y-16542108D01*
X7191542Y-16523060D01*
X7267732Y-16437346D02*
X7267732Y-16475441D01*
X7343923Y-16437346D02*
X7343923Y-16475441D01*
X7639161Y-16713536D02*
X7629637Y-16704013D01*
X7610590Y-16675441D01*
X7601066Y-16656394D01*
X7591542Y-16627822D01*
X7582018Y-16580203D01*
X7582018Y-16542108D01*
X7591542Y-16494489D01*
X7601066Y-16465917D01*
X7610590Y-16446870D01*
X7629637Y-16418298D01*
X7639161Y-16408775D01*
X7801066Y-16437346D02*
X7762970Y-16437346D01*
X7743923Y-16446870D01*
X7734399Y-16456394D01*
X7715351Y-16484965D01*
X7705828Y-16523060D01*
X7705828Y-16599251D01*
X7715351Y-16618298D01*
X7724875Y-16627822D01*
X7743923Y-16637346D01*
X7782018Y-16637346D01*
X7801066Y-16627822D01*
X7810590Y-16618298D01*
X7820113Y-16599251D01*
X7820113Y-16551632D01*
X7810590Y-16532584D01*
X7801066Y-16523060D01*
X7782018Y-16513536D01*
X7743923Y-16513536D01*
X7724875Y-16523060D01*
X7715351Y-16532584D01*
X7705828Y-16551632D01*
X7934399Y-16523060D02*
X7915351Y-16513536D01*
X7905828Y-16504013D01*
X7896304Y-16484965D01*
X7896304Y-16475441D01*
X7905828Y-16456394D01*
X7915351Y-16446870D01*
X7934399Y-16437346D01*
X7972494Y-16437346D01*
X7991542Y-16446870D01*
X8001066Y-16456394D01*
X8010590Y-16475441D01*
X8010590Y-16484965D01*
X8001066Y-16504013D01*
X7991542Y-16513536D01*
X7972494Y-16523060D01*
X7934399Y-16523060D01*
X7915351Y-16532584D01*
X7905828Y-16542108D01*
X7896304Y-16561156D01*
X7896304Y-16599251D01*
X7905828Y-16618298D01*
X7915351Y-16627822D01*
X7934399Y-16637346D01*
X7972494Y-16637346D01*
X7991542Y-16627822D01*
X8001066Y-16618298D01*
X8010590Y-16599251D01*
X8010590Y-16561156D01*
X8001066Y-16542108D01*
X7991542Y-16532584D01*
X7972494Y-16523060D01*
X8248685Y-16637346D02*
X8248685Y-16437346D01*
X8334399Y-16637346D02*
X8334399Y-16532584D01*
X8324875Y-16513536D01*
X8305828Y-16504013D01*
X8277256Y-16504013D01*
X8258209Y-16513536D01*
X8248685Y-16523060D01*
X8458209Y-16637346D02*
X8439161Y-16627822D01*
X8429637Y-16618298D01*
X8420113Y-16599251D01*
X8420113Y-16542108D01*
X8429637Y-16523060D01*
X8439161Y-16513536D01*
X8458209Y-16504013D01*
X8486780Y-16504013D01*
X8505828Y-16513536D01*
X8515352Y-16523060D01*
X8524875Y-16542108D01*
X8524875Y-16599251D01*
X8515352Y-16618298D01*
X8505828Y-16627822D01*
X8486780Y-16637346D01*
X8458209Y-16637346D01*
X8639161Y-16637346D02*
X8620113Y-16627822D01*
X8610590Y-16608775D01*
X8610590Y-16437346D01*
X8791542Y-16627822D02*
X8772494Y-16637346D01*
X8734399Y-16637346D01*
X8715352Y-16627822D01*
X8705828Y-16608775D01*
X8705828Y-16532584D01*
X8715352Y-16513536D01*
X8734399Y-16504013D01*
X8772494Y-16504013D01*
X8791542Y-16513536D01*
X8801066Y-16532584D01*
X8801066Y-16551632D01*
X8705828Y-16570679D01*
X8877256Y-16627822D02*
X8896304Y-16637346D01*
X8934399Y-16637346D01*
X8953447Y-16627822D01*
X8962971Y-16608775D01*
X8962971Y-16599251D01*
X8953447Y-16580203D01*
X8934399Y-16570679D01*
X8905828Y-16570679D01*
X8886780Y-16561156D01*
X8877256Y-16542108D01*
X8877256Y-16532584D01*
X8886780Y-16513536D01*
X8905828Y-16504013D01*
X8934399Y-16504013D01*
X8953447Y-16513536D01*
X9029637Y-16713536D02*
X9039161Y-16704013D01*
X9058209Y-16675441D01*
X9067732Y-16656394D01*
X9077256Y-16627822D01*
X9086780Y-16580203D01*
X9086780Y-16542108D01*
X9077256Y-16494489D01*
X9067732Y-16465917D01*
X9058209Y-16446870D01*
X9039161Y-16418298D01*
X9029637Y-16408775D01*
X9391542Y-16713536D02*
X9382018Y-16704013D01*
X9362971Y-16675441D01*
X9353447Y-16656394D01*
X9343923Y-16627822D01*
X9334399Y-16580203D01*
X9334399Y-16542108D01*
X9343923Y-16494489D01*
X9353447Y-16465917D01*
X9362971Y-16446870D01*
X9382018Y-16418298D01*
X9391542Y-16408775D01*
X9467732Y-16504013D02*
X9467732Y-16637346D01*
X9467732Y-16523060D02*
X9477256Y-16513536D01*
X9496304Y-16504013D01*
X9524875Y-16504013D01*
X9543923Y-16513536D01*
X9553447Y-16532584D01*
X9553447Y-16637346D01*
X9677256Y-16637346D02*
X9658209Y-16627822D01*
X9648685Y-16618298D01*
X9639161Y-16599251D01*
X9639161Y-16542108D01*
X9648685Y-16523060D01*
X9658209Y-16513536D01*
X9677256Y-16504013D01*
X9705828Y-16504013D01*
X9724875Y-16513536D01*
X9734399Y-16523060D01*
X9743923Y-16542108D01*
X9743923Y-16599251D01*
X9734399Y-16618298D01*
X9724875Y-16627822D01*
X9705828Y-16637346D01*
X9677256Y-16637346D01*
X9801066Y-16504013D02*
X9877256Y-16504013D01*
X9829637Y-16437346D02*
X9829637Y-16608775D01*
X9839161Y-16627822D01*
X9858209Y-16637346D01*
X9877256Y-16637346D01*
X10096304Y-16504013D02*
X10096304Y-16704013D01*
X10096304Y-16513536D02*
X10115352Y-16504013D01*
X10153447Y-16504013D01*
X10172494Y-16513536D01*
X10182018Y-16523060D01*
X10191542Y-16542108D01*
X10191542Y-16599251D01*
X10182018Y-16618298D01*
X10172494Y-16627822D01*
X10153447Y-16637346D01*
X10115352Y-16637346D01*
X10096304Y-16627822D01*
X10305828Y-16637346D02*
X10286780Y-16627822D01*
X10277256Y-16608775D01*
X10277256Y-16437346D01*
X10467732Y-16637346D02*
X10467732Y-16532584D01*
X10458209Y-16513536D01*
X10439161Y-16504013D01*
X10401066Y-16504013D01*
X10382018Y-16513536D01*
X10467732Y-16627822D02*
X10448685Y-16637346D01*
X10401066Y-16637346D01*
X10382018Y-16627822D01*
X10372494Y-16608775D01*
X10372494Y-16589727D01*
X10382018Y-16570679D01*
X10401066Y-16561156D01*
X10448685Y-16561156D01*
X10467732Y-16551632D01*
X10534399Y-16504013D02*
X10610590Y-16504013D01*
X10562971Y-16437346D02*
X10562971Y-16608775D01*
X10572494Y-16627822D01*
X10591542Y-16637346D01*
X10610590Y-16637346D01*
X10753447Y-16627822D02*
X10734399Y-16637346D01*
X10696304Y-16637346D01*
X10677256Y-16627822D01*
X10667732Y-16608775D01*
X10667732Y-16532584D01*
X10677256Y-16513536D01*
X10696304Y-16504013D01*
X10734399Y-16504013D01*
X10753447Y-16513536D01*
X10762971Y-16532584D01*
X10762971Y-16551632D01*
X10667732Y-16570679D01*
X10934399Y-16637346D02*
X10934399Y-16437346D01*
X10934399Y-16627822D02*
X10915352Y-16637346D01*
X10877256Y-16637346D01*
X10858209Y-16627822D01*
X10848685Y-16618298D01*
X10839161Y-16599251D01*
X10839161Y-16542108D01*
X10848685Y-16523060D01*
X10858209Y-16513536D01*
X10877256Y-16504013D01*
X10915352Y-16504013D01*
X10934399Y-16513536D01*
X11010590Y-16713536D02*
X11020113Y-16704013D01*
X11039161Y-16675441D01*
X11048685Y-16656394D01*
X11058209Y-16627822D01*
X11067732Y-16580203D01*
X11067732Y-16542108D01*
X11058209Y-16494489D01*
X11048685Y-16465917D01*
X11039161Y-16446870D01*
X11020113Y-16418298D01*
X11010590Y-16408775D01*
D15*
X3977256Y-16746870D02*
X3977256Y-16926870D01*
X3887256Y-16836870D02*
X4067256Y-16836870D01*
D10*
X4429637Y-16927346D02*
X4315352Y-16927346D01*
X4372494Y-16927346D02*
X4372494Y-16727346D01*
X4353447Y-16755917D01*
X4334399Y-16774965D01*
X4315352Y-16784489D01*
X4515352Y-16908298D02*
X4524875Y-16917822D01*
X4515352Y-16927346D01*
X4505828Y-16917822D01*
X4515352Y-16908298D01*
X4515352Y-16927346D01*
X4639161Y-16813060D02*
X4620113Y-16803537D01*
X4610590Y-16794013D01*
X4601066Y-16774965D01*
X4601066Y-16765441D01*
X4610590Y-16746394D01*
X4620113Y-16736870D01*
X4639161Y-16727346D01*
X4677256Y-16727346D01*
X4696304Y-16736870D01*
X4705828Y-16746394D01*
X4715352Y-16765441D01*
X4715352Y-16774965D01*
X4705828Y-16794013D01*
X4696304Y-16803537D01*
X4677256Y-16813060D01*
X4639161Y-16813060D01*
X4620113Y-16822584D01*
X4610590Y-16832108D01*
X4601066Y-16851156D01*
X4601066Y-16889251D01*
X4610590Y-16908298D01*
X4620113Y-16917822D01*
X4639161Y-16927346D01*
X4677256Y-16927346D01*
X4696304Y-16917822D01*
X4705828Y-16908298D01*
X4715352Y-16889251D01*
X4715352Y-16851156D01*
X4705828Y-16832108D01*
X4696304Y-16822584D01*
X4677256Y-16813060D01*
X4839161Y-16727346D02*
X4858209Y-16727346D01*
X4877256Y-16736870D01*
X4886780Y-16746394D01*
X4896304Y-16765441D01*
X4905828Y-16803537D01*
X4905828Y-16851156D01*
X4896304Y-16889251D01*
X4886780Y-16908298D01*
X4877256Y-16917822D01*
X4858209Y-16927346D01*
X4839161Y-16927346D01*
X4820113Y-16917822D01*
X4810590Y-16908298D01*
X4801066Y-16889251D01*
X4791542Y-16851156D01*
X4791542Y-16803537D01*
X4801066Y-16765441D01*
X4810590Y-16746394D01*
X4820113Y-16736870D01*
X4839161Y-16727346D01*
X5029637Y-16727346D02*
X5048685Y-16727346D01*
X5067732Y-16736870D01*
X5077256Y-16746394D01*
X5086780Y-16765441D01*
X5096304Y-16803537D01*
X5096304Y-16851156D01*
X5086780Y-16889251D01*
X5077256Y-16908298D01*
X5067732Y-16917822D01*
X5048685Y-16927346D01*
X5029637Y-16927346D01*
X5010590Y-16917822D01*
X5001066Y-16908298D01*
X4991542Y-16889251D01*
X4982018Y-16851156D01*
X4982018Y-16803537D01*
X4991542Y-16765441D01*
X5001066Y-16746394D01*
X5010590Y-16736870D01*
X5029637Y-16727346D01*
X5182018Y-16927346D02*
X5182018Y-16794013D01*
X5182018Y-16813060D02*
X5191542Y-16803537D01*
X5210590Y-16794013D01*
X5239161Y-16794013D01*
X5258209Y-16803537D01*
X5267732Y-16822584D01*
X5267732Y-16927346D01*
X5267732Y-16822584D02*
X5277256Y-16803537D01*
X5296304Y-16794013D01*
X5324875Y-16794013D01*
X5343923Y-16803537D01*
X5353447Y-16822584D01*
X5353447Y-16927346D01*
X5448685Y-16927346D02*
X5448685Y-16794013D01*
X5448685Y-16813060D02*
X5458209Y-16803537D01*
X5477256Y-16794013D01*
X5505828Y-16794013D01*
X5524875Y-16803537D01*
X5534399Y-16822584D01*
X5534399Y-16927346D01*
X5534399Y-16822584D02*
X5543923Y-16803537D01*
X5562971Y-16794013D01*
X5591542Y-16794013D01*
X5610590Y-16803537D01*
X5620113Y-16822584D01*
X5620113Y-16927346D01*
X6010590Y-16717822D02*
X5839161Y-16974965D01*
X6267732Y-16727346D02*
X6286780Y-16727346D01*
X6305828Y-16736870D01*
X6315351Y-16746394D01*
X6324875Y-16765441D01*
X6334399Y-16803537D01*
X6334399Y-16851156D01*
X6324875Y-16889251D01*
X6315351Y-16908298D01*
X6305828Y-16917822D01*
X6286780Y-16927346D01*
X6267732Y-16927346D01*
X6248685Y-16917822D01*
X6239161Y-16908298D01*
X6229637Y-16889251D01*
X6220113Y-16851156D01*
X6220113Y-16803537D01*
X6229637Y-16765441D01*
X6239161Y-16746394D01*
X6248685Y-16736870D01*
X6267732Y-16727346D01*
X6420113Y-16908298D02*
X6429637Y-16917822D01*
X6420113Y-16927346D01*
X6410590Y-16917822D01*
X6420113Y-16908298D01*
X6420113Y-16927346D01*
X6553447Y-16727346D02*
X6572494Y-16727346D01*
X6591542Y-16736870D01*
X6601066Y-16746394D01*
X6610590Y-16765441D01*
X6620113Y-16803537D01*
X6620113Y-16851156D01*
X6610590Y-16889251D01*
X6601066Y-16908298D01*
X6591542Y-16917822D01*
X6572494Y-16927346D01*
X6553447Y-16927346D01*
X6534399Y-16917822D01*
X6524875Y-16908298D01*
X6515351Y-16889251D01*
X6505828Y-16851156D01*
X6505828Y-16803537D01*
X6515351Y-16765441D01*
X6524875Y-16746394D01*
X6534399Y-16736870D01*
X6553447Y-16727346D01*
X6686780Y-16727346D02*
X6820113Y-16727346D01*
X6734399Y-16927346D01*
X6934399Y-16727346D02*
X6953447Y-16727346D01*
X6972494Y-16736870D01*
X6982018Y-16746394D01*
X6991542Y-16765441D01*
X7001066Y-16803537D01*
X7001066Y-16851156D01*
X6991542Y-16889251D01*
X6982018Y-16908298D01*
X6972494Y-16917822D01*
X6953447Y-16927346D01*
X6934399Y-16927346D01*
X6915351Y-16917822D01*
X6905828Y-16908298D01*
X6896304Y-16889251D01*
X6886780Y-16851156D01*
X6886780Y-16803537D01*
X6896304Y-16765441D01*
X6905828Y-16746394D01*
X6915351Y-16736870D01*
X6934399Y-16727346D01*
X7096304Y-16927346D02*
X7134399Y-16927346D01*
X7153447Y-16917822D01*
X7162970Y-16908298D01*
X7182018Y-16879727D01*
X7191542Y-16841632D01*
X7191542Y-16765441D01*
X7182018Y-16746394D01*
X7172494Y-16736870D01*
X7153447Y-16727346D01*
X7115351Y-16727346D01*
X7096304Y-16736870D01*
X7086780Y-16746394D01*
X7077256Y-16765441D01*
X7077256Y-16813060D01*
X7086780Y-16832108D01*
X7096304Y-16841632D01*
X7115351Y-16851156D01*
X7153447Y-16851156D01*
X7172494Y-16841632D01*
X7182018Y-16832108D01*
X7191542Y-16813060D01*
X7267732Y-16727346D02*
X7267732Y-16765441D01*
X7343923Y-16727346D02*
X7343923Y-16765441D01*
X7639161Y-17003537D02*
X7629637Y-16994013D01*
X7610590Y-16965441D01*
X7601066Y-16946394D01*
X7591542Y-16917822D01*
X7582018Y-16870203D01*
X7582018Y-16832108D01*
X7591542Y-16784489D01*
X7601066Y-16755917D01*
X7610590Y-16736870D01*
X7629637Y-16708298D01*
X7639161Y-16698775D01*
X7705828Y-16746394D02*
X7715351Y-16736870D01*
X7734399Y-16727346D01*
X7782018Y-16727346D01*
X7801066Y-16736870D01*
X7810590Y-16746394D01*
X7820113Y-16765441D01*
X7820113Y-16784489D01*
X7810590Y-16813060D01*
X7696304Y-16927346D01*
X7820113Y-16927346D01*
X8058209Y-16927346D02*
X8058209Y-16727346D01*
X8143923Y-16927346D02*
X8143923Y-16822584D01*
X8134399Y-16803537D01*
X8115351Y-16794013D01*
X8086780Y-16794013D01*
X8067732Y-16803537D01*
X8058209Y-16813060D01*
X8267732Y-16927346D02*
X8248685Y-16917822D01*
X8239161Y-16908298D01*
X8229637Y-16889251D01*
X8229637Y-16832108D01*
X8239161Y-16813060D01*
X8248685Y-16803537D01*
X8267732Y-16794013D01*
X8296304Y-16794013D01*
X8315351Y-16803537D01*
X8324875Y-16813060D01*
X8334399Y-16832108D01*
X8334399Y-16889251D01*
X8324875Y-16908298D01*
X8315351Y-16917822D01*
X8296304Y-16927346D01*
X8267732Y-16927346D01*
X8448685Y-16927346D02*
X8429637Y-16917822D01*
X8420113Y-16898775D01*
X8420113Y-16727346D01*
X8601066Y-16917822D02*
X8582018Y-16927346D01*
X8543923Y-16927346D01*
X8524875Y-16917822D01*
X8515352Y-16898775D01*
X8515352Y-16822584D01*
X8524875Y-16803537D01*
X8543923Y-16794013D01*
X8582018Y-16794013D01*
X8601066Y-16803537D01*
X8610590Y-16822584D01*
X8610590Y-16841632D01*
X8515352Y-16860679D01*
X8686780Y-16917822D02*
X8705828Y-16927346D01*
X8743923Y-16927346D01*
X8762971Y-16917822D01*
X8772494Y-16898775D01*
X8772494Y-16889251D01*
X8762971Y-16870203D01*
X8743923Y-16860679D01*
X8715352Y-16860679D01*
X8696304Y-16851156D01*
X8686780Y-16832108D01*
X8686780Y-16822584D01*
X8696304Y-16803537D01*
X8715352Y-16794013D01*
X8743923Y-16794013D01*
X8762971Y-16803537D01*
X8839161Y-17003537D02*
X8848685Y-16994013D01*
X8867732Y-16965441D01*
X8877256Y-16946394D01*
X8886780Y-16917822D01*
X8896304Y-16870203D01*
X8896304Y-16832108D01*
X8886780Y-16784489D01*
X8877256Y-16755917D01*
X8867732Y-16736870D01*
X8848685Y-16708298D01*
X8839161Y-16698775D01*
X9201066Y-17003537D02*
X9191542Y-16994013D01*
X9172494Y-16965441D01*
X9162971Y-16946394D01*
X9153447Y-16917822D01*
X9143923Y-16870203D01*
X9143923Y-16832108D01*
X9153447Y-16784489D01*
X9162971Y-16755917D01*
X9172494Y-16736870D01*
X9191542Y-16708298D01*
X9201066Y-16698775D01*
X9277256Y-16794013D02*
X9277256Y-16927346D01*
X9277256Y-16813060D02*
X9286780Y-16803537D01*
X9305828Y-16794013D01*
X9334399Y-16794013D01*
X9353447Y-16803537D01*
X9362971Y-16822584D01*
X9362971Y-16927346D01*
X9486780Y-16927346D02*
X9467732Y-16917822D01*
X9458209Y-16908298D01*
X9448685Y-16889251D01*
X9448685Y-16832108D01*
X9458209Y-16813060D01*
X9467732Y-16803537D01*
X9486780Y-16794013D01*
X9515352Y-16794013D01*
X9534399Y-16803537D01*
X9543923Y-16813060D01*
X9553447Y-16832108D01*
X9553447Y-16889251D01*
X9543923Y-16908298D01*
X9534399Y-16917822D01*
X9515352Y-16927346D01*
X9486780Y-16927346D01*
X9610590Y-16794013D02*
X9686780Y-16794013D01*
X9639161Y-16727346D02*
X9639161Y-16898775D01*
X9648685Y-16917822D01*
X9667732Y-16927346D01*
X9686780Y-16927346D01*
X9905828Y-16794013D02*
X9905828Y-16994013D01*
X9905828Y-16803537D02*
X9924875Y-16794013D01*
X9962971Y-16794013D01*
X9982018Y-16803537D01*
X9991542Y-16813060D01*
X10001066Y-16832108D01*
X10001066Y-16889251D01*
X9991542Y-16908298D01*
X9982018Y-16917822D01*
X9962971Y-16927346D01*
X9924875Y-16927346D01*
X9905828Y-16917822D01*
X10115352Y-16927346D02*
X10096304Y-16917822D01*
X10086780Y-16898775D01*
X10086780Y-16727346D01*
X10277256Y-16927346D02*
X10277256Y-16822584D01*
X10267732Y-16803537D01*
X10248685Y-16794013D01*
X10210590Y-16794013D01*
X10191542Y-16803537D01*
X10277256Y-16917822D02*
X10258209Y-16927346D01*
X10210590Y-16927346D01*
X10191542Y-16917822D01*
X10182018Y-16898775D01*
X10182018Y-16879727D01*
X10191542Y-16860679D01*
X10210590Y-16851156D01*
X10258209Y-16851156D01*
X10277256Y-16841632D01*
X10343923Y-16794013D02*
X10420113Y-16794013D01*
X10372494Y-16727346D02*
X10372494Y-16898775D01*
X10382018Y-16917822D01*
X10401066Y-16927346D01*
X10420113Y-16927346D01*
X10562971Y-16917822D02*
X10543923Y-16927346D01*
X10505828Y-16927346D01*
X10486780Y-16917822D01*
X10477256Y-16898775D01*
X10477256Y-16822584D01*
X10486780Y-16803537D01*
X10505828Y-16794013D01*
X10543923Y-16794013D01*
X10562971Y-16803537D01*
X10572494Y-16822584D01*
X10572494Y-16841632D01*
X10477256Y-16860679D01*
X10743923Y-16927346D02*
X10743923Y-16727346D01*
X10743923Y-16917822D02*
X10724875Y-16927346D01*
X10686780Y-16927346D01*
X10667732Y-16917822D01*
X10658209Y-16908298D01*
X10648685Y-16889251D01*
X10648685Y-16832108D01*
X10658209Y-16813060D01*
X10667732Y-16803537D01*
X10686780Y-16794013D01*
X10724875Y-16794013D01*
X10743923Y-16803537D01*
X10820113Y-17003537D02*
X10829637Y-16994013D01*
X10848685Y-16965441D01*
X10858209Y-16946394D01*
X10867732Y-16917822D01*
X10877256Y-16870203D01*
X10877256Y-16832108D01*
X10867732Y-16784489D01*
X10858209Y-16755917D01*
X10848685Y-16736870D01*
X10829637Y-16708298D01*
X10820113Y-16698775D01*
D16*
X4039432Y-17204046D02*
X4039432Y-17069694D01*
X3905080Y-17069694D01*
X3905080Y-17204046D01*
X4039432Y-17204046D01*
D10*
X4429637Y-17227346D02*
X4315352Y-17227346D01*
X4372494Y-17227346D02*
X4372494Y-17027346D01*
X4353447Y-17055918D01*
X4334399Y-17074965D01*
X4315352Y-17084489D01*
X4515352Y-17208298D02*
X4524875Y-17217822D01*
X4515352Y-17227346D01*
X4505828Y-17217822D01*
X4515352Y-17208298D01*
X4515352Y-17227346D01*
X4620113Y-17227346D02*
X4658209Y-17227346D01*
X4677256Y-17217822D01*
X4686780Y-17208298D01*
X4705828Y-17179727D01*
X4715352Y-17141632D01*
X4715352Y-17065441D01*
X4705828Y-17046394D01*
X4696304Y-17036870D01*
X4677256Y-17027346D01*
X4639161Y-17027346D01*
X4620113Y-17036870D01*
X4610590Y-17046394D01*
X4601066Y-17065441D01*
X4601066Y-17113060D01*
X4610590Y-17132108D01*
X4620113Y-17141632D01*
X4639161Y-17151156D01*
X4677256Y-17151156D01*
X4696304Y-17141632D01*
X4705828Y-17132108D01*
X4715352Y-17113060D01*
X4839161Y-17027346D02*
X4858209Y-17027346D01*
X4877256Y-17036870D01*
X4886780Y-17046394D01*
X4896304Y-17065441D01*
X4905828Y-17103537D01*
X4905828Y-17151156D01*
X4896304Y-17189251D01*
X4886780Y-17208298D01*
X4877256Y-17217822D01*
X4858209Y-17227346D01*
X4839161Y-17227346D01*
X4820113Y-17217822D01*
X4810590Y-17208298D01*
X4801066Y-17189251D01*
X4791542Y-17151156D01*
X4791542Y-17103537D01*
X4801066Y-17065441D01*
X4810590Y-17046394D01*
X4820113Y-17036870D01*
X4839161Y-17027346D01*
X5029637Y-17027346D02*
X5048685Y-17027346D01*
X5067732Y-17036870D01*
X5077256Y-17046394D01*
X5086780Y-17065441D01*
X5096304Y-17103537D01*
X5096304Y-17151156D01*
X5086780Y-17189251D01*
X5077256Y-17208298D01*
X5067732Y-17217822D01*
X5048685Y-17227346D01*
X5029637Y-17227346D01*
X5010590Y-17217822D01*
X5001066Y-17208298D01*
X4991542Y-17189251D01*
X4982018Y-17151156D01*
X4982018Y-17103537D01*
X4991542Y-17065441D01*
X5001066Y-17046394D01*
X5010590Y-17036870D01*
X5029637Y-17027346D01*
X5182018Y-17227346D02*
X5182018Y-17094013D01*
X5182018Y-17113060D02*
X5191542Y-17103537D01*
X5210590Y-17094013D01*
X5239161Y-17094013D01*
X5258209Y-17103537D01*
X5267732Y-17122584D01*
X5267732Y-17227346D01*
X5267732Y-17122584D02*
X5277256Y-17103537D01*
X5296304Y-17094013D01*
X5324875Y-17094013D01*
X5343923Y-17103537D01*
X5353447Y-17122584D01*
X5353447Y-17227346D01*
X5448685Y-17227346D02*
X5448685Y-17094013D01*
X5448685Y-17113060D02*
X5458209Y-17103537D01*
X5477256Y-17094013D01*
X5505828Y-17094013D01*
X5524875Y-17103537D01*
X5534399Y-17122584D01*
X5534399Y-17227346D01*
X5534399Y-17122584D02*
X5543923Y-17103537D01*
X5562971Y-17094013D01*
X5591542Y-17094013D01*
X5610590Y-17103537D01*
X5620113Y-17122584D01*
X5620113Y-17227346D01*
X6010590Y-17017822D02*
X5839161Y-17274965D01*
X6267732Y-17027346D02*
X6286780Y-17027346D01*
X6305828Y-17036870D01*
X6315351Y-17046394D01*
X6324875Y-17065441D01*
X6334399Y-17103537D01*
X6334399Y-17151156D01*
X6324875Y-17189251D01*
X6315351Y-17208298D01*
X6305828Y-17217822D01*
X6286780Y-17227346D01*
X6267732Y-17227346D01*
X6248685Y-17217822D01*
X6239161Y-17208298D01*
X6229637Y-17189251D01*
X6220113Y-17151156D01*
X6220113Y-17103537D01*
X6229637Y-17065441D01*
X6239161Y-17046394D01*
X6248685Y-17036870D01*
X6267732Y-17027346D01*
X6420113Y-17208298D02*
X6429637Y-17217822D01*
X6420113Y-17227346D01*
X6410590Y-17217822D01*
X6420113Y-17208298D01*
X6420113Y-17227346D01*
X6553447Y-17027346D02*
X6572494Y-17027346D01*
X6591542Y-17036870D01*
X6601066Y-17046394D01*
X6610590Y-17065441D01*
X6620113Y-17103537D01*
X6620113Y-17151156D01*
X6610590Y-17189251D01*
X6601066Y-17208298D01*
X6591542Y-17217822D01*
X6572494Y-17227346D01*
X6553447Y-17227346D01*
X6534399Y-17217822D01*
X6524875Y-17208298D01*
X6515351Y-17189251D01*
X6505828Y-17151156D01*
X6505828Y-17103537D01*
X6515351Y-17065441D01*
X6524875Y-17046394D01*
X6534399Y-17036870D01*
X6553447Y-17027346D01*
X6686780Y-17027346D02*
X6820113Y-17027346D01*
X6734399Y-17227346D01*
X6982018Y-17094013D02*
X6982018Y-17227346D01*
X6934399Y-17017822D02*
X6886780Y-17160679D01*
X7010590Y-17160679D01*
X7115351Y-17113060D02*
X7096304Y-17103537D01*
X7086780Y-17094013D01*
X7077256Y-17074965D01*
X7077256Y-17065441D01*
X7086780Y-17046394D01*
X7096304Y-17036870D01*
X7115351Y-17027346D01*
X7153447Y-17027346D01*
X7172494Y-17036870D01*
X7182018Y-17046394D01*
X7191542Y-17065441D01*
X7191542Y-17074965D01*
X7182018Y-17094013D01*
X7172494Y-17103537D01*
X7153447Y-17113060D01*
X7115351Y-17113060D01*
X7096304Y-17122584D01*
X7086780Y-17132108D01*
X7077256Y-17151156D01*
X7077256Y-17189251D01*
X7086780Y-17208298D01*
X7096304Y-17217822D01*
X7115351Y-17227346D01*
X7153447Y-17227346D01*
X7172494Y-17217822D01*
X7182018Y-17208298D01*
X7191542Y-17189251D01*
X7191542Y-17151156D01*
X7182018Y-17132108D01*
X7172494Y-17122584D01*
X7153447Y-17113060D01*
X7267732Y-17027346D02*
X7267732Y-17065441D01*
X7343923Y-17027346D02*
X7343923Y-17065441D01*
X7639161Y-17303537D02*
X7629637Y-17294013D01*
X7610590Y-17265441D01*
X7601066Y-17246394D01*
X7591542Y-17217822D01*
X7582018Y-17170203D01*
X7582018Y-17132108D01*
X7591542Y-17084489D01*
X7601066Y-17055918D01*
X7610590Y-17036870D01*
X7629637Y-17008298D01*
X7639161Y-16998775D01*
X7801066Y-17027346D02*
X7762970Y-17027346D01*
X7743923Y-17036870D01*
X7734399Y-17046394D01*
X7715351Y-17074965D01*
X7705828Y-17113060D01*
X7705828Y-17189251D01*
X7715351Y-17208298D01*
X7724875Y-17217822D01*
X7743923Y-17227346D01*
X7782018Y-17227346D01*
X7801066Y-17217822D01*
X7810590Y-17208298D01*
X7820113Y-17189251D01*
X7820113Y-17141632D01*
X7810590Y-17122584D01*
X7801066Y-17113060D01*
X7782018Y-17103537D01*
X7743923Y-17103537D01*
X7724875Y-17113060D01*
X7715351Y-17122584D01*
X7705828Y-17141632D01*
X7934399Y-17113060D02*
X7915351Y-17103537D01*
X7905828Y-17094013D01*
X7896304Y-17074965D01*
X7896304Y-17065441D01*
X7905828Y-17046394D01*
X7915351Y-17036870D01*
X7934399Y-17027346D01*
X7972494Y-17027346D01*
X7991542Y-17036870D01*
X8001066Y-17046394D01*
X8010590Y-17065441D01*
X8010590Y-17074965D01*
X8001066Y-17094013D01*
X7991542Y-17103537D01*
X7972494Y-17113060D01*
X7934399Y-17113060D01*
X7915351Y-17122584D01*
X7905828Y-17132108D01*
X7896304Y-17151156D01*
X7896304Y-17189251D01*
X7905828Y-17208298D01*
X7915351Y-17217822D01*
X7934399Y-17227346D01*
X7972494Y-17227346D01*
X7991542Y-17217822D01*
X8001066Y-17208298D01*
X8010590Y-17189251D01*
X8010590Y-17151156D01*
X8001066Y-17132108D01*
X7991542Y-17122584D01*
X7972494Y-17113060D01*
X8248685Y-17227346D02*
X8248685Y-17027346D01*
X8334399Y-17227346D02*
X8334399Y-17122584D01*
X8324875Y-17103537D01*
X8305828Y-17094013D01*
X8277256Y-17094013D01*
X8258209Y-17103537D01*
X8248685Y-17113060D01*
X8458209Y-17227346D02*
X8439161Y-17217822D01*
X8429637Y-17208298D01*
X8420113Y-17189251D01*
X8420113Y-17132108D01*
X8429637Y-17113060D01*
X8439161Y-17103537D01*
X8458209Y-17094013D01*
X8486780Y-17094013D01*
X8505828Y-17103537D01*
X8515352Y-17113060D01*
X8524875Y-17132108D01*
X8524875Y-17189251D01*
X8515352Y-17208298D01*
X8505828Y-17217822D01*
X8486780Y-17227346D01*
X8458209Y-17227346D01*
X8639161Y-17227346D02*
X8620113Y-17217822D01*
X8610590Y-17198775D01*
X8610590Y-17027346D01*
X8791542Y-17217822D02*
X8772494Y-17227346D01*
X8734399Y-17227346D01*
X8715352Y-17217822D01*
X8705828Y-17198775D01*
X8705828Y-17122584D01*
X8715352Y-17103537D01*
X8734399Y-17094013D01*
X8772494Y-17094013D01*
X8791542Y-17103537D01*
X8801066Y-17122584D01*
X8801066Y-17141632D01*
X8705828Y-17160679D01*
X8877256Y-17217822D02*
X8896304Y-17227346D01*
X8934399Y-17227346D01*
X8953447Y-17217822D01*
X8962971Y-17198775D01*
X8962971Y-17189251D01*
X8953447Y-17170203D01*
X8934399Y-17160679D01*
X8905828Y-17160679D01*
X8886780Y-17151156D01*
X8877256Y-17132108D01*
X8877256Y-17122584D01*
X8886780Y-17103537D01*
X8905828Y-17094013D01*
X8934399Y-17094013D01*
X8953447Y-17103537D01*
X9029637Y-17303537D02*
X9039161Y-17294013D01*
X9058209Y-17265441D01*
X9067732Y-17246394D01*
X9077256Y-17217822D01*
X9086780Y-17170203D01*
X9086780Y-17132108D01*
X9077256Y-17084489D01*
X9067732Y-17055918D01*
X9058209Y-17036870D01*
X9039161Y-17008298D01*
X9029637Y-16998775D01*
X9391542Y-17303537D02*
X9382018Y-17294013D01*
X9362971Y-17265441D01*
X9353447Y-17246394D01*
X9343923Y-17217822D01*
X9334399Y-17170203D01*
X9334399Y-17132108D01*
X9343923Y-17084489D01*
X9353447Y-17055918D01*
X9362971Y-17036870D01*
X9382018Y-17008298D01*
X9391542Y-16998775D01*
X9467732Y-17094013D02*
X9467732Y-17227346D01*
X9467732Y-17113060D02*
X9477256Y-17103537D01*
X9496304Y-17094013D01*
X9524875Y-17094013D01*
X9543923Y-17103537D01*
X9553447Y-17122584D01*
X9553447Y-17227346D01*
X9677256Y-17227346D02*
X9658209Y-17217822D01*
X9648685Y-17208298D01*
X9639161Y-17189251D01*
X9639161Y-17132108D01*
X9648685Y-17113060D01*
X9658209Y-17103537D01*
X9677256Y-17094013D01*
X9705828Y-17094013D01*
X9724875Y-17103537D01*
X9734399Y-17113060D01*
X9743923Y-17132108D01*
X9743923Y-17189251D01*
X9734399Y-17208298D01*
X9724875Y-17217822D01*
X9705828Y-17227346D01*
X9677256Y-17227346D01*
X9801066Y-17094013D02*
X9877256Y-17094013D01*
X9829637Y-17027346D02*
X9829637Y-17198775D01*
X9839161Y-17217822D01*
X9858209Y-17227346D01*
X9877256Y-17227346D01*
X10096304Y-17094013D02*
X10096304Y-17294013D01*
X10096304Y-17103537D02*
X10115352Y-17094013D01*
X10153447Y-17094013D01*
X10172494Y-17103537D01*
X10182018Y-17113060D01*
X10191542Y-17132108D01*
X10191542Y-17189251D01*
X10182018Y-17208298D01*
X10172494Y-17217822D01*
X10153447Y-17227346D01*
X10115352Y-17227346D01*
X10096304Y-17217822D01*
X10305828Y-17227346D02*
X10286780Y-17217822D01*
X10277256Y-17198775D01*
X10277256Y-17027346D01*
X10467732Y-17227346D02*
X10467732Y-17122584D01*
X10458209Y-17103537D01*
X10439161Y-17094013D01*
X10401066Y-17094013D01*
X10382018Y-17103537D01*
X10467732Y-17217822D02*
X10448685Y-17227346D01*
X10401066Y-17227346D01*
X10382018Y-17217822D01*
X10372494Y-17198775D01*
X10372494Y-17179727D01*
X10382018Y-17160679D01*
X10401066Y-17151156D01*
X10448685Y-17151156D01*
X10467732Y-17141632D01*
X10534399Y-17094013D02*
X10610590Y-17094013D01*
X10562971Y-17027346D02*
X10562971Y-17198775D01*
X10572494Y-17217822D01*
X10591542Y-17227346D01*
X10610590Y-17227346D01*
X10753447Y-17217822D02*
X10734399Y-17227346D01*
X10696304Y-17227346D01*
X10677256Y-17217822D01*
X10667732Y-17198775D01*
X10667732Y-17122584D01*
X10677256Y-17103537D01*
X10696304Y-17094013D01*
X10734399Y-17094013D01*
X10753447Y-17103537D01*
X10762971Y-17122584D01*
X10762971Y-17141632D01*
X10667732Y-17160679D01*
X10934399Y-17227346D02*
X10934399Y-17027346D01*
X10934399Y-17217822D02*
X10915352Y-17227346D01*
X10877256Y-17227346D01*
X10858209Y-17217822D01*
X10848685Y-17208298D01*
X10839161Y-17189251D01*
X10839161Y-17132108D01*
X10848685Y-17113060D01*
X10858209Y-17103537D01*
X10877256Y-17094013D01*
X10915352Y-17094013D01*
X10934399Y-17103537D01*
X11010590Y-17303537D02*
X11020113Y-17294013D01*
X11039161Y-17265441D01*
X11048685Y-17246394D01*
X11058209Y-17217822D01*
X11067732Y-17170203D01*
X11067732Y-17132108D01*
X11058209Y-17084489D01*
X11048685Y-17055918D01*
X11039161Y-17036870D01*
X11020113Y-17008298D01*
X11010590Y-16998775D01*
X3967256Y-17546870D02*
X4067256Y-17446870D01*
X3967256Y-17346870D01*
X3867256Y-17446870D01*
X3967256Y-17546870D01*
X4410590Y-17404013D02*
X4410590Y-17537346D01*
X4362971Y-17327822D02*
X4315352Y-17470679D01*
X4439161Y-17470679D01*
X4515352Y-17518298D02*
X4524875Y-17527822D01*
X4515352Y-17537346D01*
X4505828Y-17527822D01*
X4515352Y-17518298D01*
X4515352Y-17537346D01*
X4648685Y-17337346D02*
X4667732Y-17337346D01*
X4686780Y-17346870D01*
X4696304Y-17356394D01*
X4705828Y-17375441D01*
X4715352Y-17413537D01*
X4715352Y-17461156D01*
X4705828Y-17499251D01*
X4696304Y-17518298D01*
X4686780Y-17527822D01*
X4667732Y-17537346D01*
X4648685Y-17537346D01*
X4629637Y-17527822D01*
X4620113Y-17518298D01*
X4610590Y-17499251D01*
X4601066Y-17461156D01*
X4601066Y-17413537D01*
X4610590Y-17375441D01*
X4620113Y-17356394D01*
X4629637Y-17346870D01*
X4648685Y-17337346D01*
X4839161Y-17337346D02*
X4858209Y-17337346D01*
X4877256Y-17346870D01*
X4886780Y-17356394D01*
X4896304Y-17375441D01*
X4905828Y-17413537D01*
X4905828Y-17461156D01*
X4896304Y-17499251D01*
X4886780Y-17518298D01*
X4877256Y-17527822D01*
X4858209Y-17537346D01*
X4839161Y-17537346D01*
X4820113Y-17527822D01*
X4810590Y-17518298D01*
X4801066Y-17499251D01*
X4791542Y-17461156D01*
X4791542Y-17413537D01*
X4801066Y-17375441D01*
X4810590Y-17356394D01*
X4820113Y-17346870D01*
X4839161Y-17337346D01*
X5029637Y-17337346D02*
X5048685Y-17337346D01*
X5067732Y-17346870D01*
X5077256Y-17356394D01*
X5086780Y-17375441D01*
X5096304Y-17413537D01*
X5096304Y-17461156D01*
X5086780Y-17499251D01*
X5077256Y-17518298D01*
X5067732Y-17527822D01*
X5048685Y-17537346D01*
X5029637Y-17537346D01*
X5010590Y-17527822D01*
X5001066Y-17518298D01*
X4991542Y-17499251D01*
X4982018Y-17461156D01*
X4982018Y-17413537D01*
X4991542Y-17375441D01*
X5001066Y-17356394D01*
X5010590Y-17346870D01*
X5029637Y-17337346D01*
X5182018Y-17537346D02*
X5182018Y-17404013D01*
X5182018Y-17423060D02*
X5191542Y-17413537D01*
X5210590Y-17404013D01*
X5239161Y-17404013D01*
X5258209Y-17413537D01*
X5267732Y-17432584D01*
X5267732Y-17537346D01*
X5267732Y-17432584D02*
X5277256Y-17413537D01*
X5296304Y-17404013D01*
X5324875Y-17404013D01*
X5343923Y-17413537D01*
X5353447Y-17432584D01*
X5353447Y-17537346D01*
X5448685Y-17537346D02*
X5448685Y-17404013D01*
X5448685Y-17423060D02*
X5458209Y-17413537D01*
X5477256Y-17404013D01*
X5505828Y-17404013D01*
X5524875Y-17413537D01*
X5534399Y-17432584D01*
X5534399Y-17537346D01*
X5534399Y-17432584D02*
X5543923Y-17413537D01*
X5562971Y-17404013D01*
X5591542Y-17404013D01*
X5610590Y-17413537D01*
X5620113Y-17432584D01*
X5620113Y-17537346D01*
X6010590Y-17327822D02*
X5839161Y-17584965D01*
X6267732Y-17337346D02*
X6286780Y-17337346D01*
X6305828Y-17346870D01*
X6315351Y-17356394D01*
X6324875Y-17375441D01*
X6334399Y-17413537D01*
X6334399Y-17461156D01*
X6324875Y-17499251D01*
X6315351Y-17518298D01*
X6305828Y-17527822D01*
X6286780Y-17537346D01*
X6267732Y-17537346D01*
X6248685Y-17527822D01*
X6239161Y-17518298D01*
X6229637Y-17499251D01*
X6220113Y-17461156D01*
X6220113Y-17413537D01*
X6229637Y-17375441D01*
X6239161Y-17356394D01*
X6248685Y-17346870D01*
X6267732Y-17337346D01*
X6420113Y-17518298D02*
X6429637Y-17527822D01*
X6420113Y-17537346D01*
X6410590Y-17527822D01*
X6420113Y-17518298D01*
X6420113Y-17537346D01*
X6620113Y-17537346D02*
X6505828Y-17537346D01*
X6562970Y-17537346D02*
X6562970Y-17337346D01*
X6543923Y-17365918D01*
X6524875Y-17384965D01*
X6505828Y-17394489D01*
X6801066Y-17337346D02*
X6705828Y-17337346D01*
X6696304Y-17432584D01*
X6705828Y-17423060D01*
X6724875Y-17413537D01*
X6772494Y-17413537D01*
X6791542Y-17423060D01*
X6801066Y-17432584D01*
X6810590Y-17451632D01*
X6810590Y-17499251D01*
X6801066Y-17518298D01*
X6791542Y-17527822D01*
X6772494Y-17537346D01*
X6724875Y-17537346D01*
X6705828Y-17527822D01*
X6696304Y-17518298D01*
X6877256Y-17337346D02*
X7010590Y-17337346D01*
X6924875Y-17537346D01*
X7182018Y-17337346D02*
X7086780Y-17337346D01*
X7077256Y-17432584D01*
X7086780Y-17423060D01*
X7105828Y-17413537D01*
X7153447Y-17413537D01*
X7172494Y-17423060D01*
X7182018Y-17432584D01*
X7191542Y-17451632D01*
X7191542Y-17499251D01*
X7182018Y-17518298D01*
X7172494Y-17527822D01*
X7153447Y-17537346D01*
X7105828Y-17537346D01*
X7086780Y-17527822D01*
X7077256Y-17518298D01*
X7267732Y-17337346D02*
X7267732Y-17375441D01*
X7343923Y-17337346D02*
X7343923Y-17375441D01*
X7639161Y-17613537D02*
X7629637Y-17604013D01*
X7610590Y-17575441D01*
X7601066Y-17556394D01*
X7591542Y-17527822D01*
X7582018Y-17480203D01*
X7582018Y-17442108D01*
X7591542Y-17394489D01*
X7601066Y-17365918D01*
X7610590Y-17346870D01*
X7629637Y-17318298D01*
X7639161Y-17308775D01*
X7696304Y-17337346D02*
X7820113Y-17337346D01*
X7753447Y-17413537D01*
X7782018Y-17413537D01*
X7801066Y-17423060D01*
X7810590Y-17432584D01*
X7820113Y-17451632D01*
X7820113Y-17499251D01*
X7810590Y-17518298D01*
X7801066Y-17527822D01*
X7782018Y-17537346D01*
X7724875Y-17537346D01*
X7705828Y-17527822D01*
X7696304Y-17518298D01*
X7991542Y-17404013D02*
X7991542Y-17537346D01*
X7943923Y-17327822D02*
X7896304Y-17470679D01*
X8020113Y-17470679D01*
X8248685Y-17537346D02*
X8248685Y-17337346D01*
X8334399Y-17537346D02*
X8334399Y-17432584D01*
X8324875Y-17413537D01*
X8305828Y-17404013D01*
X8277256Y-17404013D01*
X8258209Y-17413537D01*
X8248685Y-17423060D01*
X8458209Y-17537346D02*
X8439161Y-17527822D01*
X8429637Y-17518298D01*
X8420113Y-17499251D01*
X8420113Y-17442108D01*
X8429637Y-17423060D01*
X8439161Y-17413537D01*
X8458209Y-17404013D01*
X8486780Y-17404013D01*
X8505828Y-17413537D01*
X8515352Y-17423060D01*
X8524875Y-17442108D01*
X8524875Y-17499251D01*
X8515352Y-17518298D01*
X8505828Y-17527822D01*
X8486780Y-17537346D01*
X8458209Y-17537346D01*
X8639161Y-17537346D02*
X8620113Y-17527822D01*
X8610590Y-17508775D01*
X8610590Y-17337346D01*
X8791542Y-17527822D02*
X8772494Y-17537346D01*
X8734399Y-17537346D01*
X8715352Y-17527822D01*
X8705828Y-17508775D01*
X8705828Y-17432584D01*
X8715352Y-17413537D01*
X8734399Y-17404013D01*
X8772494Y-17404013D01*
X8791542Y-17413537D01*
X8801066Y-17432584D01*
X8801066Y-17451632D01*
X8705828Y-17470679D01*
X8877256Y-17527822D02*
X8896304Y-17537346D01*
X8934399Y-17537346D01*
X8953447Y-17527822D01*
X8962971Y-17508775D01*
X8962971Y-17499251D01*
X8953447Y-17480203D01*
X8934399Y-17470679D01*
X8905828Y-17470679D01*
X8886780Y-17461156D01*
X8877256Y-17442108D01*
X8877256Y-17432584D01*
X8886780Y-17413537D01*
X8905828Y-17404013D01*
X8934399Y-17404013D01*
X8953447Y-17413537D01*
X9029637Y-17613537D02*
X9039161Y-17604013D01*
X9058209Y-17575441D01*
X9067732Y-17556394D01*
X9077256Y-17527822D01*
X9086780Y-17480203D01*
X9086780Y-17442108D01*
X9077256Y-17394489D01*
X9067732Y-17365918D01*
X9058209Y-17346870D01*
X9039161Y-17318298D01*
X9029637Y-17308775D01*
X9391542Y-17613537D02*
X9382018Y-17604013D01*
X9362971Y-17575441D01*
X9353447Y-17556394D01*
X9343923Y-17527822D01*
X9334399Y-17480203D01*
X9334399Y-17442108D01*
X9343923Y-17394489D01*
X9353447Y-17365918D01*
X9362971Y-17346870D01*
X9382018Y-17318298D01*
X9391542Y-17308775D01*
X9467732Y-17404013D02*
X9467732Y-17537346D01*
X9467732Y-17423060D02*
X9477256Y-17413537D01*
X9496304Y-17404013D01*
X9524875Y-17404013D01*
X9543923Y-17413537D01*
X9553447Y-17432584D01*
X9553447Y-17537346D01*
X9677256Y-17537346D02*
X9658209Y-17527822D01*
X9648685Y-17518298D01*
X9639161Y-17499251D01*
X9639161Y-17442108D01*
X9648685Y-17423060D01*
X9658209Y-17413537D01*
X9677256Y-17404013D01*
X9705828Y-17404013D01*
X9724875Y-17413537D01*
X9734399Y-17423060D01*
X9743923Y-17442108D01*
X9743923Y-17499251D01*
X9734399Y-17518298D01*
X9724875Y-17527822D01*
X9705828Y-17537346D01*
X9677256Y-17537346D01*
X9801066Y-17404013D02*
X9877256Y-17404013D01*
X9829637Y-17337346D02*
X9829637Y-17508775D01*
X9839161Y-17527822D01*
X9858209Y-17537346D01*
X9877256Y-17537346D01*
X10096304Y-17404013D02*
X10096304Y-17604013D01*
X10096304Y-17413537D02*
X10115352Y-17404013D01*
X10153447Y-17404013D01*
X10172494Y-17413537D01*
X10182018Y-17423060D01*
X10191542Y-17442108D01*
X10191542Y-17499251D01*
X10182018Y-17518298D01*
X10172494Y-17527822D01*
X10153447Y-17537346D01*
X10115352Y-17537346D01*
X10096304Y-17527822D01*
X10305828Y-17537346D02*
X10286780Y-17527822D01*
X10277256Y-17508775D01*
X10277256Y-17337346D01*
X10467732Y-17537346D02*
X10467732Y-17432584D01*
X10458209Y-17413537D01*
X10439161Y-17404013D01*
X10401066Y-17404013D01*
X10382018Y-17413537D01*
X10467732Y-17527822D02*
X10448685Y-17537346D01*
X10401066Y-17537346D01*
X10382018Y-17527822D01*
X10372494Y-17508775D01*
X10372494Y-17489727D01*
X10382018Y-17470679D01*
X10401066Y-17461156D01*
X10448685Y-17461156D01*
X10467732Y-17451632D01*
X10534399Y-17404013D02*
X10610590Y-17404013D01*
X10562971Y-17337346D02*
X10562971Y-17508775D01*
X10572494Y-17527822D01*
X10591542Y-17537346D01*
X10610590Y-17537346D01*
X10753447Y-17527822D02*
X10734399Y-17537346D01*
X10696304Y-17537346D01*
X10677256Y-17527822D01*
X10667732Y-17508775D01*
X10667732Y-17432584D01*
X10677256Y-17413537D01*
X10696304Y-17404013D01*
X10734399Y-17404013D01*
X10753447Y-17413537D01*
X10762971Y-17432584D01*
X10762971Y-17451632D01*
X10667732Y-17470679D01*
X10934399Y-17537346D02*
X10934399Y-17337346D01*
X10934399Y-17527822D02*
X10915352Y-17537346D01*
X10877256Y-17537346D01*
X10858209Y-17527822D01*
X10848685Y-17518298D01*
X10839161Y-17499251D01*
X10839161Y-17442108D01*
X10848685Y-17423060D01*
X10858209Y-17413537D01*
X10877256Y-17404013D01*
X10915352Y-17404013D01*
X10934399Y-17413537D01*
X11010590Y-17613537D02*
X11020113Y-17604013D01*
X11039161Y-17575441D01*
X11048685Y-17556394D01*
X11058209Y-17527822D01*
X11067732Y-17480203D01*
X11067732Y-17442108D01*
X11058209Y-17394489D01*
X11048685Y-17365918D01*
X11039161Y-17346870D01*
X11020113Y-17318298D01*
X11010590Y-17308775D01*
M02*
