G04 #@! TF.GenerationSoftware,KiCad,Pcbnew,(6.0.4)*
G04 #@! TF.CreationDate,2022-12-01T16:17:54-05:00*
G04 #@! TF.ProjectId,Ostrich,4f737472-6963-4682-9e6b-696361645f70,rev?*
G04 #@! TF.SameCoordinates,Original*
G04 #@! TF.FileFunction,Profile,NP*
%FSLAX46Y46*%
G04 Gerber Fmt 4.6, Leading zero omitted, Abs format (unit mm)*
G04 Created by KiCad (PCBNEW (6.0.4)) date 2022-12-01 16:17:54*
%MOMM*%
%LPD*%
G01*
G04 APERTURE LIST*
%ADD10C,0.200000*%
G04 #@! TA.AperFunction,Profile*
%ADD11C,0.200000*%
G04 #@! TD*
G04 #@! TA.AperFunction,Profile*
%ADD12C,0.100000*%
G04 #@! TD*
G04 APERTURE END LIST*
D10*
X51936320Y-110326195D02*
X52898208Y-110504689D01*
X53911431Y-110692633D01*
X54972560Y-110889392D01*
X56078165Y-111094334D01*
X57224818Y-111306828D01*
X58409090Y-111526239D01*
X59627553Y-111751936D01*
X60876778Y-111983287D01*
X62153336Y-112219658D01*
X63453798Y-112460416D01*
X64774736Y-112704931D01*
X66112722Y-112952568D01*
X67464326Y-113202695D01*
X68826119Y-113454680D01*
X70194674Y-113707890D01*
X71566561Y-113961693D01*
X72938351Y-114215456D01*
X74306617Y-114468546D01*
X75667929Y-114720332D01*
X77018858Y-114970179D01*
X78355976Y-115217457D01*
X79675854Y-115461531D01*
X80975064Y-115701771D01*
X82250176Y-115937542D01*
X83497763Y-116168213D01*
X84714395Y-116393151D01*
X85896643Y-116611724D01*
X87041080Y-116823298D01*
X88144276Y-117027242D01*
X89202802Y-117222922D01*
X90213230Y-117409706D01*
X91172132Y-117586963D01*
X52855139Y-51467435D02*
X52639072Y-51514617D01*
X52364464Y-51574589D01*
X52143152Y-51622939D01*
X51919132Y-51671934D01*
X51702386Y-51719535D01*
X51497297Y-51765766D01*
X51469036Y-51772337D01*
X249857108Y-61534446D02*
X249716496Y-60741540D01*
X249584053Y-59996010D01*
X249459328Y-59296327D01*
X249341870Y-58640962D01*
X249231230Y-58028387D01*
X249126955Y-57457075D01*
X249028596Y-56925496D01*
X248935702Y-56432123D01*
X248847821Y-55975426D01*
X248764503Y-55553879D01*
X248685298Y-55165953D01*
X248609755Y-54810119D01*
X248537422Y-54484849D01*
X248467850Y-54188616D01*
X248400587Y-53919890D01*
X248335184Y-53677143D01*
X248271188Y-53458848D01*
X248208149Y-53263475D01*
X248083141Y-52935386D01*
X247956554Y-52680650D01*
X247824782Y-52487040D01*
X247684218Y-52342331D01*
X247449002Y-52190211D01*
X247173725Y-52079347D01*
X163173182Y-156253890D02*
X163602032Y-156255228D01*
X164006211Y-156256442D01*
X164386559Y-156257493D01*
X164743915Y-156258344D01*
X165079122Y-156258957D01*
X165393018Y-156259293D01*
X165686446Y-156259315D01*
X165960244Y-156258985D01*
X166215255Y-156258265D01*
X166452319Y-156257117D01*
X166672275Y-156255503D01*
X166875965Y-156253386D01*
X167237909Y-156247488D01*
X167544874Y-156239120D01*
X167803585Y-156227980D01*
X168020767Y-156213763D01*
X168283381Y-156186006D01*
X168490381Y-156149623D01*
X168719093Y-156085922D01*
X168828314Y-156046881D01*
X203986867Y-136456978D02*
X203950868Y-136199348D01*
X203884388Y-135906674D01*
X203823096Y-135690573D01*
X203748203Y-135456622D01*
X203659687Y-135203914D01*
X203557525Y-134931537D01*
X203441697Y-134638582D01*
X203312180Y-134324141D01*
X203168954Y-133987303D01*
X203011995Y-133627160D01*
X202928360Y-133438064D01*
X202841284Y-133242801D01*
X202750764Y-133041257D01*
X202656798Y-132833318D01*
X202559383Y-132618870D01*
X202458515Y-132397800D01*
X202354194Y-132169994D01*
X202246415Y-131935339D01*
X202135176Y-131693720D01*
X202020475Y-131445025D01*
X94777891Y-136885756D02*
X94936064Y-137053746D01*
X95118609Y-137200914D01*
X95283067Y-137316297D01*
X95489402Y-137449971D01*
X95744189Y-137605767D01*
X96054001Y-137787520D01*
X96231596Y-137889328D01*
X96425412Y-137999063D01*
X96636271Y-138117204D01*
X96864995Y-138244230D01*
X97112405Y-138380621D01*
X97379324Y-138526854D01*
X97666572Y-138683411D01*
X97974972Y-138850769D01*
X98305346Y-139029409D01*
X98658514Y-139219809D01*
X99035299Y-139422448D01*
X99436522Y-139637805D01*
X99863005Y-139866361D01*
X100315570Y-140108594D01*
X100795038Y-140364982D01*
X101302232Y-140636007D01*
X101837973Y-140922146D01*
X82964833Y-46904452D02*
X82590312Y-46888140D01*
X82232590Y-46872531D01*
X81890666Y-46857720D01*
X81563535Y-46843804D01*
X81250195Y-46830878D01*
X80949643Y-46819039D01*
X80660875Y-46808383D01*
X80382888Y-46799006D01*
X80114680Y-46791004D01*
X79855248Y-46784473D01*
X79603587Y-46779510D01*
X79358696Y-46776210D01*
X79119571Y-46774669D01*
X78885210Y-46774985D01*
X78654608Y-46777252D01*
X78426764Y-46781567D01*
X78200673Y-46788026D01*
X77975333Y-46796725D01*
X77749742Y-46807760D01*
X77522895Y-46821228D01*
X77293790Y-46837224D01*
X77061424Y-46855845D01*
X76824793Y-46877186D01*
X76582896Y-46901344D01*
X76334727Y-46928416D01*
X76079286Y-46958496D01*
X75815568Y-46991681D01*
X75542570Y-47028068D01*
X75259290Y-47067752D01*
X74964724Y-47110830D01*
X74657869Y-47157397D01*
X74337723Y-47207551D01*
X51469036Y-51772362D02*
X51260406Y-51826629D01*
X51054311Y-51903470D01*
X50877444Y-52005094D01*
X50800000Y-52070000D01*
X48912603Y-61804346D02*
X48755450Y-62697029D01*
X48589719Y-63638862D01*
X48415980Y-64626563D01*
X48234805Y-65656851D01*
X48046767Y-66726446D01*
X47852438Y-67832066D01*
X47652389Y-68970431D01*
X47447193Y-70138260D01*
X47237423Y-71332271D01*
X47023649Y-72549185D01*
X46806445Y-73785720D01*
X46586382Y-75038595D01*
X46364032Y-76304530D01*
X46139968Y-77580244D01*
X45914761Y-78862455D01*
X45688984Y-80147883D01*
X45463208Y-81433247D01*
X45238006Y-82715266D01*
X45013951Y-83990660D01*
X44791613Y-85256147D01*
X44571565Y-86508446D01*
X44354379Y-87744277D01*
X44140628Y-88960359D01*
X43930883Y-90153411D01*
X43725717Y-91320151D01*
X43525701Y-92457300D01*
X43331407Y-93561577D01*
X43143408Y-94629699D01*
X42962277Y-95658388D01*
X42788584Y-96644361D01*
X42622901Y-97584338D01*
X42465803Y-98475038D01*
X143220974Y-156187394D02*
X143808592Y-156189495D01*
X144411777Y-156191636D01*
X145029203Y-156193812D01*
X145659546Y-156196018D01*
X146301479Y-156198251D01*
X146953678Y-156200507D01*
X147614818Y-156202781D01*
X148283574Y-156205070D01*
X148958620Y-156207369D01*
X149638632Y-156209676D01*
X150322285Y-156211984D01*
X151008252Y-156214291D01*
X151695210Y-156216592D01*
X152381834Y-156218884D01*
X153066797Y-156221162D01*
X153748775Y-156223423D01*
X154426443Y-156225662D01*
X155098476Y-156227875D01*
X155763548Y-156230058D01*
X156420335Y-156232207D01*
X157067512Y-156234318D01*
X157703752Y-156236388D01*
X158327733Y-156238412D01*
X158938127Y-156240385D01*
X159533610Y-156242305D01*
X160112858Y-156244166D01*
X160674544Y-156245965D01*
X161217345Y-156247699D01*
X161739933Y-156249362D01*
X162240986Y-156250951D01*
X162719177Y-156252461D01*
X163173182Y-156253890D01*
X101763754Y-119993918D02*
X101769170Y-120244438D01*
X101717822Y-120505908D01*
X101643930Y-120749054D01*
X101576783Y-120937635D01*
X101494685Y-121149941D01*
X101397081Y-121388150D01*
X101283421Y-121654438D01*
X101153150Y-121950982D01*
X101005716Y-122279960D01*
X100840567Y-122643547D01*
X100751177Y-122838999D01*
X100657150Y-123043920D01*
X100558419Y-123258582D01*
X100454913Y-123483257D01*
X100346564Y-123718217D01*
X100233303Y-123963734D01*
X116896160Y-26094766D02*
X116694108Y-26148485D01*
X116549571Y-26325821D01*
X116446680Y-26521433D01*
X116322815Y-26802445D01*
X116225013Y-27044703D01*
X116112528Y-27336124D01*
X115983217Y-27681192D01*
X115911581Y-27875245D01*
X115834934Y-28084390D01*
X115753008Y-28309189D01*
X115665535Y-28550202D01*
X115572247Y-28807988D01*
X115472876Y-29083109D01*
X115367153Y-29376125D01*
X115254812Y-29687596D01*
X74337723Y-47207551D02*
X74003579Y-47261338D01*
X73655908Y-47318633D01*
X73295473Y-47379261D01*
X72923039Y-47443048D01*
X72539371Y-47509820D01*
X72145234Y-47579403D01*
X71741392Y-47651622D01*
X71328610Y-47726303D01*
X70907653Y-47803271D01*
X70479286Y-47882353D01*
X70044273Y-47963374D01*
X69603379Y-48046160D01*
X69157369Y-48130536D01*
X68707008Y-48216329D01*
X68253060Y-48303364D01*
X67796289Y-48391466D01*
X67337462Y-48480462D01*
X66877342Y-48570178D01*
X66416694Y-48660438D01*
X65956283Y-48751069D01*
X65496874Y-48841896D01*
X65039232Y-48932745D01*
X64584120Y-49023442D01*
X64132305Y-49113813D01*
X63684550Y-49203683D01*
X63241620Y-49292878D01*
X62804280Y-49381224D01*
X62373296Y-49468547D01*
X61949430Y-49554671D01*
X61533449Y-49639424D01*
X61126118Y-49722630D01*
X60728200Y-49804116D01*
X91172132Y-117586963D02*
X92076920Y-117754229D01*
X92928381Y-117911719D01*
X93728145Y-118059815D01*
X94477845Y-118198901D01*
X95179109Y-118329361D01*
X95833570Y-118451580D01*
X96442857Y-118565941D01*
X97008602Y-118672827D01*
X97532436Y-118772623D01*
X98015988Y-118865713D01*
X98460891Y-118952480D01*
X98868774Y-119033309D01*
X99241268Y-119108583D01*
X99580005Y-119178685D01*
X99886615Y-119244001D01*
X100162728Y-119304914D01*
X100409976Y-119361807D01*
X100629989Y-119415065D01*
X100824398Y-119465071D01*
X101142928Y-119556864D01*
X101378611Y-119640257D01*
X101605335Y-119756315D01*
X101739435Y-119910321D01*
X101763754Y-119993918D01*
X247513831Y-110294851D02*
X248371082Y-110135275D01*
X249177993Y-109984782D01*
X249936114Y-109842968D01*
X250646997Y-109709431D01*
X251312193Y-109583765D01*
X251933254Y-109465570D01*
X252511730Y-109354440D01*
X253049172Y-109249973D01*
X253547132Y-109151765D01*
X254007162Y-109059413D01*
X254430812Y-108972513D01*
X254819633Y-108890663D01*
X255175178Y-108813459D01*
X255498996Y-108740497D01*
X255792640Y-108671374D01*
X256057660Y-108605688D01*
X256295607Y-108543033D01*
X256508034Y-108483008D01*
X256862529Y-108369232D01*
X257133555Y-108261133D01*
X257333521Y-108155484D01*
X257527380Y-107994544D01*
X257631160Y-107820967D01*
X257670986Y-107692850D01*
D11*
X51469036Y-51772337D02*
X51469036Y-51772337D01*
D10*
X131932630Y-156061791D02*
X132289977Y-156077557D01*
X132684195Y-156091714D01*
X132895770Y-156098226D01*
X133117331Y-156104380D01*
X133349132Y-156110191D01*
X133591431Y-156115674D01*
X133844482Y-156120843D01*
X134108542Y-156125713D01*
X134383867Y-156130300D01*
X134670712Y-156134619D01*
X134969334Y-156138683D01*
X135279988Y-156142508D01*
X135602930Y-156146108D01*
X135938416Y-156149500D01*
X136286702Y-156152696D01*
X136648043Y-156155713D01*
X137022697Y-156158565D01*
X137410917Y-156161267D01*
X137812962Y-156163834D01*
X138229085Y-156166280D01*
X138659544Y-156168621D01*
X139104594Y-156170872D01*
X139564490Y-156173046D01*
X140039490Y-156175160D01*
X140529848Y-156177227D01*
X141035820Y-156179264D01*
X141557663Y-156181284D01*
X142095632Y-156183302D01*
X142649984Y-156185334D01*
X143220974Y-156187394D01*
X124192716Y-152831342D02*
X124702786Y-153102470D01*
X125183168Y-153357598D01*
X125635100Y-153597228D01*
X126059820Y-153821860D01*
X126458568Y-154031999D01*
X126832581Y-154228145D01*
X127183098Y-154410801D01*
X127511359Y-154580469D01*
X127818600Y-154737651D01*
X128106061Y-154882850D01*
X128374981Y-155016568D01*
X128626597Y-155139306D01*
X128862149Y-155251567D01*
X129082875Y-155353854D01*
X129290013Y-155446668D01*
X129484803Y-155530511D01*
X129842289Y-155673295D01*
X130165242Y-155786223D01*
X130463570Y-155873312D01*
X130747182Y-155938581D01*
X131025985Y-155986045D01*
X131309889Y-156019723D01*
X131608801Y-156043633D01*
X131932630Y-156061791D01*
X202020475Y-131445025D02*
X201902352Y-131189249D01*
X201781022Y-130926830D01*
X201656745Y-130658316D01*
X201529779Y-130384253D01*
X201400382Y-130105187D01*
X201268812Y-129821665D01*
X201135329Y-129534235D01*
X201000190Y-129243444D01*
X200863655Y-128949837D01*
X200725982Y-128653961D01*
X200587429Y-128356365D01*
X200448255Y-128057594D01*
X200308718Y-127758195D01*
X200169077Y-127458715D01*
X200029590Y-127159701D01*
X199890517Y-126861699D01*
X199752114Y-126565257D01*
X199614642Y-126270922D01*
X199478358Y-125979239D01*
X199343521Y-125690757D01*
X199210390Y-125406021D01*
X199079223Y-125125579D01*
X198950278Y-124849977D01*
X198823815Y-124579763D01*
X198700091Y-124315482D01*
X198579365Y-124057683D01*
X198461895Y-123806911D01*
X198347941Y-123563713D01*
X198237761Y-123328637D01*
X198131612Y-123102229D01*
X198029755Y-122885036D01*
X197932447Y-122677605D01*
X197451930Y-48582478D02*
X197098225Y-48687138D01*
X196744239Y-48791753D01*
X196390297Y-48896235D01*
X196036724Y-49000496D01*
X195683844Y-49104448D01*
X195331983Y-49208003D01*
X194981465Y-49311073D01*
X194632616Y-49413571D01*
X194285759Y-49515407D01*
X193941219Y-49616495D01*
X193599323Y-49716745D01*
X193260393Y-49816072D01*
X192924756Y-49914385D01*
X192592736Y-50011597D01*
X192264658Y-50107621D01*
X191940847Y-50202369D01*
X191621626Y-50295751D01*
X191307323Y-50387681D01*
X190998260Y-50478071D01*
X190694764Y-50566832D01*
X190397158Y-50653876D01*
X190105768Y-50739117D01*
X189820918Y-50822464D01*
X189542933Y-50903832D01*
X189272139Y-50983131D01*
X189008860Y-51060274D01*
X188753420Y-51135172D01*
X188506145Y-51207738D01*
X188267360Y-51277884D01*
X188037388Y-51345522D01*
X187816556Y-51410564D01*
X187605188Y-51472922D01*
X98969475Y-47540213D02*
X98513696Y-47523283D01*
X98045216Y-47505784D01*
X97565017Y-47487755D01*
X97074084Y-47469233D01*
X96573400Y-47450256D01*
X96063950Y-47430863D01*
X95546717Y-47411090D01*
X95022686Y-47390976D01*
X94492841Y-47370559D01*
X93958166Y-47349877D01*
X93419644Y-47328967D01*
X92878259Y-47307867D01*
X92334996Y-47286616D01*
X91790839Y-47265251D01*
X91246772Y-47243811D01*
X90703778Y-47222332D01*
X90162842Y-47200854D01*
X89624947Y-47179413D01*
X89091078Y-47158049D01*
X88562219Y-47136797D01*
X88039353Y-47115698D01*
X87523465Y-47094788D01*
X87015538Y-47074106D01*
X86516557Y-47053688D01*
X86027506Y-47033574D01*
X85549368Y-47013802D01*
X85083128Y-46994408D01*
X84629770Y-46975431D01*
X84190277Y-46956909D01*
X83765634Y-46938880D01*
X83356824Y-46921381D01*
X82964833Y-46904452D01*
X257670986Y-107692850D02*
X257709896Y-107469803D01*
X257723495Y-107179881D01*
X257716007Y-106931633D01*
X257693534Y-106626942D01*
X257654579Y-106255119D01*
X257628455Y-106040693D01*
X257597649Y-105805477D01*
X257561977Y-105548134D01*
X257521249Y-105267327D01*
X257475281Y-104961722D01*
X257423884Y-104629982D01*
X257366873Y-104270771D01*
X257304060Y-103882753D01*
X257235258Y-103464592D01*
X257160281Y-103014951D01*
X257078942Y-102532496D01*
X256991054Y-102015890D01*
X256896430Y-101463797D01*
X256794883Y-100874880D01*
X256686227Y-100247804D01*
X256570275Y-99581234D01*
X256446839Y-98873832D01*
X256315733Y-98124263D01*
X256176771Y-97331190D01*
X256029765Y-96493279D01*
X144499737Y-35719715D02*
X143767589Y-35459860D01*
X143028624Y-35197557D01*
X142283861Y-34933172D01*
X141534321Y-34667073D01*
X140781026Y-34399627D01*
X140024994Y-34131199D01*
X139267247Y-33862158D01*
X138508805Y-33592868D01*
X137750689Y-33323699D01*
X136993919Y-33055015D01*
X136239516Y-32787185D01*
X135488501Y-32520574D01*
X134741893Y-32255550D01*
X134000714Y-31992480D01*
X133265984Y-31731729D01*
X132538724Y-31473666D01*
X131819953Y-31218657D01*
X131110693Y-30967068D01*
X130411965Y-30719266D01*
X129724787Y-30475619D01*
X129050182Y-30236492D01*
X128389170Y-30002254D01*
X127742771Y-29773270D01*
X127112006Y-29549907D01*
X126497895Y-29332533D01*
X125901459Y-29121513D01*
X125323718Y-28917216D01*
X124765694Y-28720006D01*
X124228405Y-28530253D01*
X123712874Y-28348321D01*
X123220120Y-28174578D01*
X122751165Y-28009392D01*
X168843224Y-44827317D02*
X168630236Y-44722243D01*
X168425954Y-44621648D01*
X168229557Y-44525204D01*
X168040219Y-44432580D01*
X167857119Y-44343449D01*
X167506339Y-44174349D01*
X167170633Y-44015270D01*
X166843417Y-43863582D01*
X166518105Y-43716653D01*
X166188115Y-43571851D01*
X165846863Y-43426546D01*
X165487763Y-43278106D01*
X165299463Y-43201887D01*
X165104233Y-43123898D01*
X164901248Y-43043810D01*
X164689687Y-42961293D01*
X164468726Y-42876018D01*
X164237543Y-42787658D01*
X163995313Y-42695881D01*
X163741215Y-42600361D01*
X163474425Y-42500768D01*
X163194120Y-42396772D01*
X162899477Y-42288045D01*
X162589674Y-42174259D01*
X162263887Y-42055084D01*
X162263887Y-42055084D02*
X161921477Y-41930261D01*
X161562542Y-41799811D01*
X161187363Y-41663826D01*
X160796218Y-41522396D01*
X160389389Y-41375611D01*
X159967155Y-41223563D01*
X159529797Y-41066341D01*
X159077594Y-40904037D01*
X158610827Y-40736741D01*
X158129776Y-40564544D01*
X157634721Y-40387537D01*
X157125942Y-40205809D01*
X156603719Y-40019453D01*
X156068333Y-39828558D01*
X155520063Y-39633215D01*
X154959189Y-39433515D01*
X154385993Y-39229548D01*
X153800753Y-39021406D01*
X153203750Y-38809178D01*
X152595265Y-38592956D01*
X151975577Y-38372830D01*
X151344966Y-38148891D01*
X150703712Y-37921229D01*
X150052096Y-37689935D01*
X149390398Y-37455100D01*
X148718897Y-37216814D01*
X148037875Y-36975169D01*
X147347611Y-36730254D01*
X146648384Y-36482160D01*
X145940477Y-36230979D01*
X145224167Y-35976800D01*
X144499737Y-35719715D01*
X42465803Y-98475038D02*
X42317729Y-99313999D01*
X42178588Y-100102032D01*
X42048157Y-100840768D01*
X41926214Y-101531836D01*
X41812535Y-102176868D01*
X41706899Y-102777496D01*
X41609082Y-103335350D01*
X41518862Y-103852061D01*
X41436017Y-104329260D01*
X41360322Y-104768578D01*
X41291557Y-105171646D01*
X41229498Y-105540096D01*
X41173922Y-105875557D01*
X41124607Y-106179662D01*
X41081331Y-106454041D01*
X41043870Y-106700325D01*
X41012001Y-106920145D01*
X40964153Y-107286918D01*
X40936004Y-107567407D01*
X40925774Y-107774661D01*
X40940129Y-107976767D01*
X41053717Y-108150863D01*
X122751165Y-28009392D02*
X122306737Y-27853023D01*
X121886407Y-27705333D01*
X121489451Y-27566076D01*
X121115146Y-27435007D01*
X120762769Y-27311881D01*
X120431598Y-27196453D01*
X120120909Y-27088479D01*
X119829980Y-26987712D01*
X119558088Y-26893909D01*
X119304510Y-26806824D01*
X119068523Y-26726212D01*
X118849404Y-26651828D01*
X118646431Y-26583428D01*
X118286029Y-26463596D01*
X117981534Y-26364756D01*
X117727164Y-26284950D01*
X117517136Y-26222216D01*
X117272583Y-26155839D01*
X117047734Y-26108797D01*
X116896160Y-26094766D01*
X215844579Y-46497900D02*
X215335651Y-46410853D01*
X214853238Y-46328495D01*
X214396220Y-46250794D01*
X213963474Y-46177716D01*
X213553880Y-46109230D01*
X213166318Y-46045303D01*
X212799666Y-45985902D01*
X212452804Y-45930994D01*
X212124611Y-45880548D01*
X211813966Y-45834531D01*
X211519748Y-45792911D01*
X211240837Y-45755654D01*
X210976112Y-45722728D01*
X210724451Y-45694102D01*
X210484734Y-45669742D01*
X210255841Y-45649616D01*
X210036650Y-45633691D01*
X209826041Y-45621935D01*
X209622892Y-45614315D01*
X209234494Y-45611356D01*
X208862489Y-45624552D01*
X208497911Y-45653644D01*
X208131793Y-45698372D01*
X207755169Y-45758477D01*
X207359072Y-45833697D01*
X207150920Y-45876895D01*
X95775679Y-133618248D02*
X95671708Y-133842339D01*
X95573204Y-134054689D01*
X95480091Y-134255684D01*
X95392291Y-134445713D01*
X95232322Y-134794419D01*
X95092679Y-135103903D01*
X94972747Y-135377263D01*
X94871907Y-135617594D01*
X94789544Y-135827996D01*
X94699291Y-136094252D01*
X94647139Y-136310587D01*
X94633272Y-136539442D01*
X94698463Y-136764583D01*
X94777891Y-136885756D01*
X110316671Y-43348808D02*
X110198588Y-43674561D01*
X110086633Y-43982682D01*
X109980393Y-44273688D01*
X109879456Y-44548096D01*
X109783408Y-44806423D01*
X109691836Y-45049186D01*
X109604328Y-45276902D01*
X109520472Y-45490088D01*
X109439853Y-45689262D01*
X109362059Y-45874940D01*
X109213297Y-46207877D01*
X109070881Y-46493036D01*
X108931510Y-46734555D01*
X108791881Y-46936568D01*
X108648692Y-47103214D01*
X108498639Y-47238628D01*
X108253466Y-47392238D01*
X107974274Y-47498846D01*
X107763742Y-47550700D01*
X107529834Y-47592005D01*
X100233303Y-123963734D02*
X100115126Y-124219914D01*
X99992298Y-124486205D01*
X99865147Y-124761890D01*
X99734002Y-125046250D01*
X99599191Y-125338569D01*
X99461044Y-125638129D01*
X99319890Y-125944213D01*
X99176057Y-126256103D01*
X99029875Y-126573083D01*
X98881672Y-126894434D01*
X98731777Y-127219439D01*
X98580520Y-127547381D01*
X98428228Y-127877543D01*
X98275231Y-128209207D01*
X98121858Y-128541656D01*
X97968438Y-128874173D01*
X97815300Y-129206040D01*
X97662772Y-129536539D01*
X97511184Y-129864954D01*
X97360864Y-130190567D01*
X97212141Y-130512660D01*
X97065344Y-130830517D01*
X96920803Y-131143420D01*
X96778846Y-131450652D01*
X96639801Y-131751494D01*
X96503998Y-132045231D01*
X96371766Y-132331144D01*
X96243434Y-132608516D01*
X96119330Y-132876629D01*
X95999784Y-133134767D01*
X95885123Y-133382213D01*
X95775679Y-133618248D01*
X60728200Y-49804116D02*
X60340315Y-49883737D01*
X59962517Y-49961473D01*
X59594711Y-50037335D01*
X59236805Y-50111331D01*
X58888704Y-50183474D01*
X58550316Y-50253772D01*
X58221546Y-50322235D01*
X57902302Y-50388875D01*
X57592490Y-50453701D01*
X57292017Y-50516723D01*
X57000789Y-50577951D01*
X56718712Y-50637396D01*
X56445694Y-50695068D01*
X56181640Y-50750977D01*
X55926458Y-50805133D01*
X55680054Y-50857546D01*
X55442335Y-50908226D01*
X55213206Y-50957185D01*
X54992575Y-51004430D01*
X54780348Y-51049974D01*
X54576432Y-51093826D01*
X54380733Y-51135996D01*
X54013614Y-51215331D01*
X53678242Y-51288062D01*
X53373871Y-51354268D01*
X53099752Y-51414032D01*
X52855139Y-51467435D01*
X197976770Y-140544829D02*
X198485277Y-140273422D01*
X198964851Y-140017388D01*
X199416316Y-139776116D01*
X199840497Y-139548997D01*
X200238217Y-139335419D01*
X200610302Y-139134773D01*
X200957575Y-138946447D01*
X201280861Y-138769831D01*
X201580984Y-138604315D01*
X201858768Y-138449289D01*
X202115039Y-138304142D01*
X202350619Y-138168263D01*
X202566334Y-138041042D01*
X202763009Y-137921868D01*
X202941466Y-137810132D01*
X203247028Y-137606530D01*
X203489614Y-137425350D01*
X203675821Y-137261710D01*
X203812242Y-137110726D01*
X203937953Y-136897298D01*
X203988742Y-136684876D01*
X203986867Y-136456978D01*
X247173725Y-52079347D02*
X246961779Y-52009851D01*
X246722033Y-51939339D01*
X246449906Y-51866795D01*
X246140818Y-51791199D01*
X245790188Y-51711534D01*
X245393435Y-51626781D01*
X245176332Y-51582178D01*
X244945980Y-51535922D01*
X244701807Y-51487884D01*
X244443240Y-51437939D01*
X244169708Y-51385958D01*
X243880637Y-51331814D01*
X243575454Y-51275380D01*
X243253588Y-51216529D01*
X242914465Y-51155133D01*
X242557514Y-51091065D01*
X242182161Y-51024198D01*
X241787833Y-50954405D01*
X241373960Y-50881558D01*
X240939966Y-50805531D01*
X240485282Y-50726195D01*
X240009332Y-50643424D01*
X239511546Y-50557090D01*
X238991350Y-50467066D01*
X238448172Y-50373224D01*
X237881440Y-50275439D01*
X168828314Y-156046881D02*
X169070295Y-155948599D01*
X169299327Y-155844256D01*
X169487508Y-155753489D01*
X169712080Y-155641639D01*
X169979899Y-155505175D01*
X170297820Y-155340567D01*
X170477710Y-155246606D01*
X170672696Y-155144284D01*
X170883635Y-155033162D01*
X171111383Y-154912797D01*
X171356798Y-154782749D01*
X171620736Y-154642575D01*
X171904055Y-154491835D01*
X172207610Y-154330087D01*
X172532258Y-154156890D01*
X172878858Y-153971803D01*
X173248265Y-153774384D01*
X173641336Y-153564193D01*
X174058928Y-153340787D01*
X174501899Y-153103726D01*
X174971104Y-152852568D01*
X175467401Y-152586872D01*
X175991647Y-152306197D01*
X183724195Y-51960932D02*
X183502055Y-51891116D01*
X183264829Y-51809115D01*
X183011815Y-51714876D01*
X182742307Y-51608345D01*
X182455602Y-51489467D01*
X182150995Y-51358188D01*
X181827784Y-51214454D01*
X181485264Y-51058212D01*
X181122730Y-50889407D01*
X180933739Y-50800277D01*
X180739480Y-50707986D01*
X180539866Y-50612528D01*
X180334809Y-50513894D01*
X180124221Y-50412080D01*
X179908014Y-50307078D01*
X179686099Y-50198881D01*
X179458390Y-50087483D01*
X179224797Y-49972877D01*
X178985233Y-49855056D01*
X178739610Y-49734013D01*
X178487840Y-49609742D01*
X178229835Y-49482236D01*
X177965507Y-49351488D01*
X187605188Y-51472922D02*
X187403484Y-51532523D01*
X187211152Y-51589343D01*
X186852928Y-51694612D01*
X186527169Y-51788661D01*
X186230529Y-51871428D01*
X185959662Y-51942846D01*
X185711222Y-52002851D01*
X185481864Y-52051379D01*
X185268241Y-52088364D01*
X185067006Y-52113741D01*
X184781065Y-52129902D01*
X184504178Y-52119581D01*
X184225052Y-52082560D01*
X183932394Y-52018621D01*
X183724195Y-51960932D01*
X197932447Y-122677605D02*
X197839909Y-122480338D01*
X197752199Y-122293067D01*
X197591345Y-121947253D01*
X197450049Y-121637650D01*
X197328471Y-121361744D01*
X197226775Y-121117024D01*
X197145123Y-120900977D01*
X197060583Y-120625173D01*
X197022057Y-120399750D01*
X197043214Y-120162902D01*
X197148448Y-119980447D01*
X197339060Y-119832286D01*
X197466789Y-119764784D01*
X209849365Y-117258541D02*
X210808094Y-117081582D01*
X211812322Y-116896234D01*
X212858907Y-116703074D01*
X213944708Y-116502679D01*
X215066581Y-116295623D01*
X216221387Y-116082486D01*
X217405984Y-115863842D01*
X218617230Y-115640268D01*
X219851983Y-115412342D01*
X221107102Y-115180640D01*
X222379446Y-114945738D01*
X223665872Y-114708213D01*
X224963240Y-114468641D01*
X226268407Y-114227600D01*
X227578233Y-113985666D01*
X228889576Y-113743415D01*
X230199294Y-113501424D01*
X231504245Y-113260269D01*
X232801288Y-113020528D01*
X234087282Y-112782776D01*
X235359085Y-112547592D01*
X236613556Y-112315550D01*
X237847552Y-112087227D01*
X239057933Y-111863201D01*
X240241556Y-111644048D01*
X241395281Y-111430344D01*
X242515966Y-111222667D01*
X243600468Y-111021592D01*
X244645648Y-110827696D01*
X245648362Y-110641556D01*
X246605470Y-110463749D01*
X247513831Y-110294851D01*
X41053717Y-108150863D02*
X41245191Y-108243706D01*
X41470112Y-108311986D01*
X41693377Y-108368187D01*
X41990677Y-108435980D01*
X42375198Y-108517979D01*
X42604287Y-108565121D01*
X42860125Y-108616794D01*
X43144361Y-108673324D01*
X43458642Y-108735038D01*
X43804617Y-108802263D01*
X44183935Y-108875324D01*
X44598242Y-108954549D01*
X45049187Y-109040264D01*
X45538419Y-109132795D01*
X46067584Y-109232469D01*
X46638333Y-109339613D01*
X47252312Y-109454553D01*
X47911169Y-109577615D01*
X48616553Y-109709127D01*
X49370112Y-109849414D01*
X50173494Y-109998803D01*
X51028347Y-110157621D01*
X51936320Y-110326195D01*
X197466789Y-119764784D02*
X197705339Y-119664812D01*
X197909655Y-119595624D01*
X198162793Y-119521712D01*
X198475549Y-119440771D01*
X198858720Y-119350492D01*
X199080086Y-119301131D01*
X199323103Y-119248570D01*
X199589123Y-119192521D01*
X199879495Y-119132697D01*
X200195568Y-119068808D01*
X200538691Y-119000566D01*
X200910215Y-118927684D01*
X201311489Y-118849872D01*
X201743863Y-118766842D01*
X202208686Y-118678306D01*
X202707308Y-118583976D01*
X203241078Y-118483562D01*
X203811346Y-118376778D01*
X204419461Y-118263334D01*
X205066774Y-118142943D01*
X205754633Y-118015315D01*
X206484388Y-117880163D01*
X207257390Y-117737197D01*
X208074986Y-117586131D01*
X208938528Y-117426675D01*
X209849365Y-117258541D01*
X107529834Y-47592005D02*
X107269501Y-47626255D01*
X106980731Y-47654345D01*
X106661767Y-47676524D01*
X106310856Y-47693040D01*
X105926244Y-47704142D01*
X105720752Y-47707742D01*
X105506176Y-47710081D01*
X105282298Y-47711191D01*
X105048898Y-47711103D01*
X104805756Y-47709849D01*
X104552655Y-47707460D01*
X104289374Y-47703966D01*
X104015693Y-47699399D01*
X103731395Y-47693790D01*
X103436259Y-47687170D01*
X103130066Y-47679571D01*
X102812597Y-47671022D01*
X102483632Y-47661556D01*
X102142953Y-47651204D01*
X101790340Y-47639997D01*
X101425573Y-47627965D01*
X101048434Y-47615140D01*
X100658703Y-47601554D01*
X100256161Y-47587237D01*
X99840588Y-47572220D01*
X99411766Y-47556535D01*
X98969475Y-47540213D01*
X50800000Y-52070000D02*
X50693956Y-52245191D01*
X50630023Y-52450906D01*
X50577695Y-52661459D01*
X50514717Y-52945841D01*
X50438617Y-53316995D01*
X50394873Y-53539157D01*
X50346922Y-53787866D01*
X50294455Y-54064740D01*
X50237162Y-54371397D01*
X50174734Y-54709454D01*
X50106862Y-55080530D01*
X50033238Y-55486244D01*
X49953552Y-55928211D01*
X49867494Y-56408052D01*
X49774757Y-56927383D01*
X49675032Y-57487823D01*
X49568008Y-58090989D01*
X49453377Y-58738499D01*
X49330830Y-59431972D01*
X49200058Y-60173026D01*
X49060752Y-60963277D01*
X48912603Y-61804346D01*
X256029765Y-96493279D02*
X255874652Y-95609911D01*
X255711837Y-94683344D01*
X255541845Y-93716548D01*
X255365203Y-92712494D01*
X255182438Y-91674152D01*
X254994076Y-90604495D01*
X254800644Y-89506492D01*
X254602668Y-88383115D01*
X254400675Y-87237336D01*
X254195192Y-86072124D01*
X253986744Y-84890451D01*
X253775858Y-83695288D01*
X253563062Y-82489605D01*
X253348881Y-81276375D01*
X253133842Y-80058568D01*
X252918471Y-78839154D01*
X252703296Y-77621106D01*
X252488842Y-76407393D01*
X252275636Y-75200987D01*
X252064204Y-74004860D01*
X251855074Y-72821981D01*
X251648772Y-71655322D01*
X251445824Y-70507853D01*
X251246756Y-69382547D01*
X251052096Y-68282374D01*
X250862370Y-67210304D01*
X250678104Y-66169310D01*
X250499825Y-65162361D01*
X250328059Y-64192429D01*
X250163333Y-63262486D01*
X250006174Y-62375501D01*
X249857108Y-61534446D01*
X207150920Y-45876895D02*
X206934763Y-45923760D01*
X206710617Y-45974194D01*
X206478717Y-46028083D01*
X206239304Y-46085313D01*
X205992614Y-46145769D01*
X205738887Y-46209340D01*
X205478359Y-46275910D01*
X205211270Y-46345366D01*
X204937858Y-46417594D01*
X204658360Y-46492481D01*
X204373016Y-46569913D01*
X204082062Y-46649776D01*
X203785738Y-46731956D01*
X203484281Y-46816341D01*
X203177930Y-46902815D01*
X202866923Y-46991266D01*
X202551498Y-47081579D01*
X202231893Y-47173642D01*
X201908347Y-47267339D01*
X201581097Y-47362558D01*
X201250382Y-47459185D01*
X200916439Y-47557107D01*
X200579508Y-47656208D01*
X200239827Y-47756376D01*
X199897632Y-47857497D01*
X199553164Y-47959458D01*
X199206659Y-48062144D01*
X198858356Y-48165442D01*
X198508494Y-48269238D01*
X198157310Y-48373418D01*
X197805042Y-48477869D01*
X197451930Y-48582478D01*
X115254812Y-29687596D02*
X115135697Y-30017794D01*
X115010116Y-30365846D01*
X114878487Y-30730590D01*
X114741231Y-31110864D01*
X114598766Y-31505506D01*
X114451512Y-31913357D01*
X114299889Y-32333253D01*
X114144317Y-32764035D01*
X113985214Y-33204540D01*
X113823002Y-33653607D01*
X113658098Y-34110076D01*
X113490924Y-34572784D01*
X113321898Y-35040570D01*
X113151439Y-35512273D01*
X112979969Y-35986732D01*
X112807906Y-36462785D01*
X112635669Y-36939271D01*
X112463679Y-37415029D01*
X112292356Y-37888897D01*
X112122117Y-38359714D01*
X111953384Y-38826318D01*
X111786576Y-39287549D01*
X111622112Y-39742244D01*
X111460412Y-40189244D01*
X111301896Y-40627385D01*
X111146983Y-41055508D01*
X110996093Y-41472450D01*
X110849645Y-41877050D01*
X110708060Y-42268147D01*
X110571756Y-42644580D01*
X110441153Y-43005187D01*
X110316671Y-43348808D01*
X101837973Y-140922146D02*
X102402629Y-141223630D01*
X102994768Y-141539705D01*
X103612504Y-141869365D01*
X104253954Y-142211610D01*
X104917233Y-142565435D01*
X105600457Y-142929837D01*
X106301742Y-143303814D01*
X107019205Y-143686363D01*
X107750960Y-144076481D01*
X108495125Y-144473164D01*
X109249814Y-144875410D01*
X110013143Y-145282216D01*
X110783229Y-145692579D01*
X111558187Y-146105496D01*
X112336134Y-146519964D01*
X113115185Y-146934980D01*
X113893455Y-147349540D01*
X114669062Y-147762643D01*
X115440120Y-148173285D01*
X116204746Y-148580463D01*
X116961056Y-148983174D01*
X117707165Y-149380416D01*
X118441189Y-149771185D01*
X119161244Y-150154478D01*
X119865447Y-150529292D01*
X120551912Y-150894625D01*
X121218756Y-151249473D01*
X121864095Y-151592834D01*
X122486045Y-151923704D01*
X123082721Y-152241080D01*
X123652239Y-152543961D01*
X124192716Y-152831342D01*
X175991647Y-152306197D02*
X176544248Y-152010341D01*
X177123823Y-151700047D01*
X177728541Y-151376296D01*
X178356571Y-151040070D01*
X179006085Y-150692349D01*
X179675251Y-150334116D01*
X180362241Y-149966352D01*
X181065223Y-149590037D01*
X181782369Y-149206153D01*
X182511847Y-148815682D01*
X183251829Y-148419605D01*
X184000484Y-148018902D01*
X184755982Y-147614556D01*
X185516493Y-147207548D01*
X186280187Y-146798859D01*
X187045235Y-146389469D01*
X187809805Y-145980362D01*
X188572069Y-145572517D01*
X189330197Y-145166917D01*
X190082357Y-144764542D01*
X190826721Y-144366374D01*
X191561458Y-143973394D01*
X192284739Y-143586583D01*
X192994733Y-143206923D01*
X193689610Y-142835396D01*
X194367541Y-142472981D01*
X195026695Y-142120661D01*
X195665243Y-141779418D01*
X196281354Y-141450231D01*
X196873199Y-141134083D01*
X197438948Y-140831955D01*
X197976770Y-140544829D01*
X177965507Y-49351488D02*
X177694868Y-49217532D01*
X177418317Y-49080579D01*
X177136352Y-48940882D01*
X176849471Y-48798693D01*
X176558172Y-48654262D01*
X176262954Y-48507841D01*
X175964314Y-48359683D01*
X175662751Y-48210039D01*
X175358762Y-48059160D01*
X175052846Y-47907299D01*
X174745501Y-47754707D01*
X174437224Y-47601637D01*
X174128514Y-47448339D01*
X173819870Y-47295065D01*
X173511789Y-47142068D01*
X173204769Y-46989599D01*
X172899308Y-46837909D01*
X172595905Y-46687251D01*
X172295057Y-46537876D01*
X171997263Y-46390036D01*
X171703020Y-46243983D01*
X171412828Y-46099968D01*
X171127183Y-45958243D01*
X170846585Y-45819061D01*
X170571530Y-45682672D01*
X170302518Y-45549328D01*
X170040046Y-45419281D01*
X169784612Y-45292784D01*
X169536715Y-45170086D01*
X169296852Y-45051442D01*
X169065523Y-44937101D01*
X168843224Y-44827317D01*
X237881440Y-50275439D02*
X237290943Y-50173648D01*
X236677940Y-50068061D01*
X236044048Y-49958952D01*
X235390882Y-49846596D01*
X234720063Y-49731268D01*
X234033205Y-49613242D01*
X233331928Y-49492794D01*
X232617849Y-49370198D01*
X231892584Y-49245728D01*
X231157752Y-49119660D01*
X230414970Y-48992269D01*
X229665855Y-48863828D01*
X228912025Y-48734614D01*
X228155097Y-48604900D01*
X227396689Y-48474962D01*
X226638419Y-48345073D01*
X225881902Y-48215510D01*
X225128758Y-48086546D01*
X224380603Y-47958457D01*
X223639056Y-47831518D01*
X222905732Y-47706002D01*
X222182251Y-47582185D01*
X221470229Y-47460342D01*
X220771284Y-47340747D01*
X220087032Y-47223675D01*
X219419093Y-47109401D01*
X218769083Y-46998199D01*
X218138619Y-46890346D01*
X217529319Y-46786114D01*
X216942801Y-46685779D01*
X216380681Y-46589616D01*
X215844579Y-46497900D01*
D12*
X151892000Y-85090000D02*
G75*
G03*
X151892000Y-85090000I-2540000J0D01*
G01*
M02*
